<svg width="24" height="24" viewBox="0 0 24 24" fill="none" xmlns="http://www.w3.org/2000/svg">
<path d="M9.79997 4.00008V8.50012M9.79997 4.00008L21 4.00001C21.5523 4 22 4.44772 22 5.00001V8.1355C20.5948 8.46574 19.5 10.035 19.5 12.0001C19.5 13.9651 20.5948 15.5344 22 15.8647V19C22 19.5523 21.5523 20 21 20L9.79997 20.0001M9.79997 4.00008L3.00001 4.00001C2.44772 4 2 4.44772 2 5.00001V8.1355C3.4052 8.46574 4.5 10.035 4.5 12.0001C4.5 13.9651 3.4052 15.5344 2 15.8647V19C2 19.5523 2.44771 20 2.99999 20L9.79997 20.0001M9.79997 20.0001V15.5001M9.79997 13.1668V10.8335" stroke="black" stroke-width="2" stroke-linejoin="round"/>
</svg>
