<svg width="24" height="24" viewBox="0 0 24 24" fill="none" xmlns="http://www.w3.org/2000/svg">
<path d="M12.0417 1.95215C14.7056 1.95348 17.2059 2.99043 19.086 4.87269C20.9662 6.75488 22.001 9.25707 22 11.9175C21.9978 17.3534 17.6191 21.7861 12.2062 21.8743L12.042 21.8756H12.0378C10.3968 21.875 8.78391 21.4698 7.34633 20.7002L7.27914 20.6638L2 22.0485L3.41273 16.8879C2.54141 15.3781 2.08289 13.6648 2.08359 11.9096C2.08578 6.41918 6.55305 1.95215 12.0417 1.95215ZM12.0452 3.63418C7.47977 3.63418 3.76672 7.34691 3.76492 11.9104C3.7643 13.4504 4.18867 14.9511 4.99297 16.2551L5.03031 16.3152L5.22719 16.6284L4.39102 19.6825L7.52359 18.8609L7.82586 19.0401C9.07641 19.7822 10.5071 20.1807 11.9678 20.1936L12.0385 20.1939H12.042C16.6038 20.1939 20.3168 16.4809 20.3187 11.9171C20.3195 9.70551 19.4595 7.6259 17.8967 6.06144C16.334 4.49707 14.2559 3.63488 12.0452 3.6341V3.63418ZM8.51625 7.31098C8.68203 7.31098 8.84828 7.31254 8.99313 7.31996C9.14594 7.32746 9.35102 7.26191 9.55289 7.74699C9.63039 7.93293 9.7482 8.22019 9.86883 8.51363L9.89469 8.57652C10.0888 9.04879 10.2829 9.51965 10.3202 9.59441C10.3823 9.71887 10.4238 9.86434 10.3409 10.0303C10.258 10.1964 10.2164 10.3001 10.0921 10.4456C9.96766 10.5907 9.83086 10.77 9.71891 10.8814C9.7128 10.8875 9.7067 10.8936 9.70063 10.8996L9.6825 10.9182C9.57156 11.0329 9.47875 11.1645 9.60984 11.389C9.75492 11.6382 10.2542 12.4532 10.9939 13.1129C11.9443 13.9606 12.7461 14.2234 12.9949 14.348C13.2437 14.4725 13.3889 14.4518 13.534 14.2855C13.6792 14.1196 14.1559 13.5591 14.3219 13.31C14.4877 13.0609 14.6536 13.1025 14.8817 13.1855C14.9901 13.225 15.3234 13.3817 15.6702 13.5487L15.778 13.6007C16.1251 13.7687 16.4636 13.9357 16.5819 13.995C16.8307 14.1196 16.9966 14.1818 17.0587 14.2855C17.1209 14.3894 17.1209 14.8875 16.9136 15.4687C16.7063 16.05 15.7122 16.5804 15.2341 16.652C14.8055 16.7159 14.263 16.7426 13.667 16.5534C13.3057 16.4386 12.8421 16.2855 12.2484 16.0292C9.7525 14.9515 8.12227 12.4381 7.99797 12.2721L7.98953 12.2609C7.83789 12.0582 6.98188 10.898 6.98188 9.69809C6.98188 8.47348 7.62477 7.87152 7.85273 7.62238C8.08086 7.37348 8.35039 7.31098 8.51625 7.31098Z" fill="#101828"/>
</svg>
