<svg width="70" height="70" viewBox="0 0 70 70" fill="none" xmlns="http://www.w3.org/2000/svg">
<g filter="url(#filter0_d_24331_15972)">
<circle cx="35" cy="31" r="27" fill="#BFBFBF"/>
</g>
<path d="M26.25 34.75V37.25H23.75V34.75H26.25ZM23.75 42.25H26.25V39.75H23.75V42.25ZM26.25 37.25V39.75H28.75V37.25H26.25ZM31.25 29.75H28.75V32.25H26.25V34.75H31.25V29.75ZM23.75 29.75V32.25H26.25V29.75H23.75ZM31.25 39.75H28.75V42.25H35V39.75H33.75V37.25H31.25V39.75ZM36.25 21H33.75V23.5H36.25V21ZM33.75 29.75H36.25V26H33.75V29.75ZM25 27.25C24.6685 27.25 24.3505 27.1183 24.1161 26.8839C23.8817 26.6495 23.75 26.3315 23.75 26V21C23.75 20.6685 23.8817 20.3505 24.1161 20.1161C24.3505 19.8817 24.6685 19.75 25 19.75H30C30.3315 19.75 30.6495 19.8817 30.8839 20.1161C31.1183 20.3505 31.25 20.6685 31.25 21V26C31.25 26.3315 31.1183 26.6495 30.8839 26.8839C30.6495 27.1183 30.3315 27.25 30 27.25H25ZM26.25 24.75H28.75V22.25H26.25V24.75ZM46.25 21V31H43.75V27.25H40C39.6685 27.25 39.3505 27.1183 39.1161 26.8839C38.8817 26.6495 38.75 26.3315 38.75 26V21C38.75 20.6685 38.8817 20.3505 39.1161 20.1161C39.3505 19.8817 39.6685 19.75 40 19.75H45C45.3315 19.75 45.6495 19.8817 45.8839 20.1161C46.1183 20.3505 46.25 20.6685 46.25 21ZM43.75 22.25H41.25V24.75H43.75V22.25ZM46.25 36V41C46.25 41.3315 46.1183 41.6495 45.8839 41.8839C45.6495 42.1183 45.3315 42.25 45 42.25H40C39.6685 42.25 39.3505 42.1183 39.1161 41.8839C38.8817 41.6495 38.75 41.3315 38.75 41V37.25H33.75V32.25H36.25V34.75H37.5V29.75H40V34.75H45C45.3315 34.75 45.6495 34.8817 45.8839 35.1161C46.1183 35.3505 46.25 35.6685 46.25 36ZM43.75 37.25H41.25V39.75H43.75V37.25Z" fill="white"/>
<g filter="url(#filter1_d_24331_15972)">
<circle cx="35" cy="31" r="27" fill="#BFBFBF"/>
</g>
<circle cx="30.6668" cy="25.832" r="17.3555" fill="white"/>
<path d="M35.3886 58.6156C20.2128 58.6156 7.94333 46.4024 7.94977 31.2981C7.94977 16.1939 20.2322 3.98716 35.4079 4.00001C50.5773 4.01286 62.8404 16.2389 62.8339 31.3367C62.8275 46.4088 50.5515 58.6091 35.3951 58.6091L35.3886 58.6156ZM17.0681 31.8314C17.0681 31.8314 17.0875 31.8571 17.1003 31.8699L17.1326 32.0305C17.1455 32.9493 17.255 33.8551 17.4354 34.7546C18.1185 38.1982 19.6844 41.1985 22.0881 43.749C23.8086 45.58 25.8385 46.9806 28.1455 47.9764C29.9885 48.7666 31.9088 49.2742 33.9065 49.3962C35.6528 49.499 37.4056 49.4541 39.1391 49.075C43.521 48.1177 47.1168 45.8948 49.862 42.3742C51.8017 39.8878 53.0196 37.0739 53.4771 33.9387C53.7349 32.1847 53.7542 30.4308 53.5093 28.6833C53.1936 26.454 52.4783 24.3467 51.3635 22.3744C50.2486 20.402 48.8309 18.6802 47.0846 17.2411C44.7261 15.3073 42.0518 14.0031 39.0488 13.4056C38.166 13.2322 37.2767 13.0458 36.3617 13.1165L36.0266 13.0587C35.8913 12.9688 35.7624 12.866 35.6206 12.7889C30.8778 10.1805 26.1027 10.1419 21.4694 12.9302C14.7225 16.9906 13.0599 25.6316 17.0617 31.8378L17.0681 31.8314Z" fill="#F9B319"/>
<path d="M36.3682 13.1164C37.2833 13.0458 38.1725 13.2321 39.0554 13.4055C42.0583 14.003 44.7326 15.3008 47.0911 17.241C48.8375 18.6801 50.2552 20.3955 51.37 22.3743C52.4784 24.3466 53.2001 26.4539 53.5159 28.6833C53.7607 30.4307 53.7414 32.1782 53.4837 33.9386C53.0261 37.0738 51.8082 39.8942 49.8685 42.3741C47.1234 45.8948 43.5276 48.1177 39.1456 49.0749C37.4121 49.454 35.6594 49.499 33.913 49.3962C31.9154 49.2805 29.9886 48.7666 28.152 47.9763C25.8386 46.9869 23.8087 45.58 22.0946 43.7489C19.691 41.1919 18.125 38.1981 17.442 34.7545C17.2615 33.8551 17.1584 32.9492 17.1391 32.0305C17.2358 32.1461 17.3389 32.2489 17.4162 32.371C18.1186 33.3861 18.9434 34.3048 19.9101 35.0757C23.1192 37.6134 26.7472 38.6607 30.8263 38.0246C34.2932 37.485 37.1544 35.8403 39.3389 33.1291C41.9101 29.936 42.8638 26.2676 42.1808 22.2265C41.575 18.6544 39.7578 15.7891 36.8708 13.5919C36.6904 13.4569 36.4326 13.3798 36.3682 13.1164Z" fill="#F27024"/>
<path d="M36.3683 13.1164C36.4327 13.3798 36.6905 13.4569 36.8709 13.5918C39.7579 15.789 41.5751 18.6544 42.1809 22.2265C42.8639 26.2675 41.9102 29.936 39.339 33.129C37.1545 35.8402 34.2933 37.4849 30.8264 38.0246C26.7473 38.6606 23.1193 37.6198 19.9101 35.0757C18.9435 34.3111 18.1251 33.3924 17.4163 32.3709C17.3325 32.2488 17.2294 32.146 17.1392 32.0304C17.1263 31.979 17.1199 31.9212 17.107 31.8698C17.1456 31.8377 17.1972 31.8055 17.1328 31.7541C17.0425 30.6234 17.1327 29.4991 17.339 28.3941C18.6407 21.3848 22.6682 16.6242 29.3378 14.0801C31.4901 13.2577 33.7456 13.0072 36.0397 13.0521L36.3747 13.11L36.3683 13.1164Z" fill="#EB2228"/>
<path d="M17.075 31.8315C17.075 31.8315 17.1136 31.7801 17.1265 31.7544C17.191 31.8122 17.1394 31.8379 17.1008 31.8765C17.0879 31.8636 17.0814 31.8508 17.0685 31.8379L17.075 31.8315Z" fill="#F27024"/>
<defs>
<filter id="filter0_d_24331_15972" x="0" y="0" width="70" height="70" filterUnits="userSpaceOnUse" color-interpolation-filters="sRGB">
<feFlood flood-opacity="0" result="BackgroundImageFix"/>
<feColorMatrix in="SourceAlpha" type="matrix" values="0 0 0 0 0 0 0 0 0 0 0 0 0 0 0 0 0 0 127 0" result="hardAlpha"/>
<feOffset dy="4"/>
<feGaussianBlur stdDeviation="4"/>
<feComposite in2="hardAlpha" operator="out"/>
<feColorMatrix type="matrix" values="0 0 0 0 0.819608 0 0 0 0 0.121569 0 0 0 0 0.145098 0 0 0 0.2 0"/>
<feBlend mode="normal" in2="BackgroundImageFix" result="effect1_dropShadow_24331_15972"/>
<feBlend mode="normal" in="SourceGraphic" in2="effect1_dropShadow_24331_15972" result="shape"/>
</filter>
<filter id="filter1_d_24331_15972" x="0" y="0" width="70" height="70" filterUnits="userSpaceOnUse" color-interpolation-filters="sRGB">
<feFlood flood-opacity="0" result="BackgroundImageFix"/>
<feColorMatrix in="SourceAlpha" type="matrix" values="0 0 0 0 0 0 0 0 0 0 0 0 0 0 0 0 0 0 127 0" result="hardAlpha"/>
<feOffset dy="4"/>
<feGaussianBlur stdDeviation="4"/>
<feComposite in2="hardAlpha" operator="out"/>
<feColorMatrix type="matrix" values="0 0 0 0 0.00416667 0 0 0 0 0.00416667 0 0 0 0 0.00416667 0 0 0 0.2 0"/>
<feBlend mode="normal" in2="BackgroundImageFix" result="effect1_dropShadow_24331_15972"/>
<feBlend mode="normal" in="SourceGraphic" in2="effect1_dropShadow_24331_15972" result="shape"/>
</filter>
</defs>
</svg>
