<svg width="33" height="32" viewBox="0 0 33 32" fill="none" xmlns="http://www.w3.org/2000/svg">
<rect x="0.5" width="32" height="32" rx="4" fill="#EB2227"/>
<g clip-path="url(#clip0_26729_42499)">
<path d="M14.0547 23.5195C14.9446 23.5195 15.666 22.7981 15.666 21.9082C15.666 21.0183 14.9446 20.2969 14.0547 20.2969C13.1648 20.2969 12.4434 21.0183 12.4434 21.9082C12.4434 22.7981 13.1648 23.5195 14.0547 23.5195Z" fill="white"/>
<path d="M20.5 23.5195C21.3899 23.5195 22.1113 22.7981 22.1113 21.9082C22.1113 21.0183 21.3899 20.2969 20.5 20.2969C19.6101 20.2969 18.8887 21.0183 18.8887 21.9082C18.8887 22.7981 19.6101 23.5195 20.5 23.5195Z" fill="white"/>
<path d="M7.03711 9.55468H9.35039C9.38029 9.66235 12.0984 19.4488 11.9263 18.8292C11.9908 19.0616 12.2027 19.2226 12.444 19.2226H22.1119C22.3516 19.2226 22.5624 19.0637 22.6285 18.8329L24.8128 11.3134C24.8589 11.1513 24.8264 10.9772 24.7252 10.8424C24.6234 10.7081 24.4645 10.6289 24.2962 10.6289H10.7634L10.2761 8.87385C10.2116 8.64149 9.99971 8.48047 9.75844 8.48047H7.03711C6.74023 8.48047 6.5 8.7207 6.5 9.01757C6.5 9.31445 6.74023 9.55468 7.03711 9.55468ZM19.9635 17.0742H14.5924C14.2955 17.0742 14.0553 16.8339 14.0553 16.5371C14.0553 16.2402 14.2955 16 14.5924 16H19.9635C20.2603 16 20.5006 16.2402 20.5006 16.5371C20.5006 16.8339 20.2603 17.0742 19.9635 17.0742ZM13.5182 13.8515H21.0377C21.3346 13.8515 21.5748 14.0918 21.5748 14.3886C21.5748 14.6855 21.3346 14.9257 21.0377 14.9257H13.5182C13.2213 14.9257 12.9811 14.6855 12.9811 14.3886C12.9811 14.0918 13.2213 13.8515 13.5182 13.8515Z" fill="white"/>
</g>
<defs>
<clipPath id="clip0_26729_42499">
<rect width="18.3333" height="18.3333" fill="white" transform="translate(6.5 6.83203)"/>
</clipPath>
</defs>
</svg>
