<svg width="16" height="16" viewBox="0 0 16 16" fill="none" xmlns="http://www.w3.org/2000/svg">
<path fill-rule="evenodd" clip-rule="evenodd" d="M7.99967 3.33377C8.36787 3.33377 8.66634 3.63225 8.66634 4.00044V7.33377H11.9997C12.3679 7.33377 12.6663 7.63224 12.6663 8.00044C12.6663 8.36864 12.3679 8.6671 11.9997 8.6671H8.66634V12.0004C8.66634 12.3686 8.36787 12.6671 7.99967 12.6671C7.63147 12.6671 7.33301 12.3686 7.33301 12.0004V8.6671H3.99967C3.63149 8.6671 3.33301 8.36864 3.33301 8.00044C3.33301 7.63224 3.63148 7.33377 3.99967 7.33377H7.33301V4.00044C7.33301 3.63225 7.63147 3.33377 7.99967 3.33377Z" fill="#007AFF"/>
</svg>
