<svg width="45" height="32" viewBox="0 0 45 32" fill="none" xmlns="http://www.w3.org/2000/svg">
<path fill-rule="evenodd" clip-rule="evenodd" d="M22.5007 10C22.8688 10 23.1673 10.2686 23.1673 10.6V21.4C23.1673 21.7314 22.8688 22 22.5007 22C22.1325 22 21.834 21.7314 21.834 21.4V10.6C21.834 10.2686 22.1325 10 22.5007 10Z" fill="#F16468"/>
<path fill-rule="evenodd" clip-rule="evenodd" d="M16.5 15.9987C16.5 15.6305 16.7686 15.332 17.1 15.332H27.9C28.2314 15.332 28.5 15.6305 28.5 15.9987C28.5 16.3669 28.2314 16.6654 27.9 16.6654H17.1C16.7686 16.6654 16.5 16.3669 16.5 15.9987Z" fill="#F16468"/>
<path d="M1 0.5H42.5C43.3284 0.5 44 1.17157 44 2V30C44 30.8284 43.3284 31.5 42.5 31.5H1V0.5Z" stroke="#F7A7A9"/>
</svg>
