<svg width="16" height="16" viewBox="0 0 16 16" fill="none" xmlns="http://www.w3.org/2000/svg">
<path d="M4.92004 2C4.53813 2 4.17186 2.15171 3.90181 2.42177C3.63176 2.69182 3.48004 3.05809 3.48004 3.44C3.48004 3.82191 3.63176 4.18818 3.90181 4.45823C4.17186 4.72829 4.53813 4.88 4.92004 4.88C5.30196 4.88 5.66823 4.72829 5.93828 4.45823C6.20833 4.18818 6.36004 3.82191 6.36004 3.44C6.36004 3.05809 6.20833 2.69182 5.93828 2.42177C5.66823 2.15171 5.30196 2 4.92004 2ZM10.68 3.44C10.2981 3.44 9.93186 3.59171 9.66181 3.86177C9.39176 4.13182 9.24004 4.49809 9.24004 4.88C9.24004 5.26191 9.39176 5.62818 9.66181 5.89823C9.93186 6.16829 10.2981 6.32 10.68 6.32C11.062 6.32 11.4282 6.16829 11.6983 5.89823C11.9683 5.62818 12.12 5.26191 12.12 4.88C12.12 4.49809 11.9683 4.13182 11.6983 3.86177C11.4282 3.59171 11.062 3.44 10.68 3.44ZM4.44004 5.84C3.65046 5.84 3.00004 6.49041 3.00004 7.28V10.16C2.99918 10.2236 3.01096 10.2867 3.03469 10.3457C3.05843 10.4047 3.09365 10.4584 3.13831 10.5036C3.18296 10.5489 3.23617 10.5849 3.29484 10.6094C3.3535 10.6339 3.41646 10.6466 3.48004 10.6466V13.5041C3.48004 13.7777 3.70238 14 3.97598 14C4.2371 14 4.4537 13.797 4.47098 13.5369L4.68098 10.3841C4.68962 10.2583 4.7938 10.16 4.92004 10.16C5.04628 10.16 5.15047 10.2578 5.15911 10.3831L5.36911 13.5369C5.38639 13.7975 5.60299 14 5.86411 14C6.13771 14 6.36004 13.7777 6.36004 13.5041V10.6466C6.42363 10.6466 6.48659 10.6339 6.54525 10.6094C6.60392 10.5849 6.65712 10.5489 6.70178 10.5036C6.74644 10.4584 6.78166 10.4047 6.80539 10.3457C6.82913 10.2867 6.84091 10.2236 6.84004 10.16V7.28C6.84004 6.49041 6.18963 5.84 5.40004 5.84H4.44004ZM10.2 7.28C9.41046 7.28 8.76004 7.93041 8.76004 8.72V11.12C8.75918 11.1836 8.77096 11.2467 8.79469 11.3057C8.81843 11.3647 8.85365 11.4184 8.89831 11.4636C8.94296 11.5089 8.99617 11.5449 9.05484 11.5694C9.1135 11.5939 9.17646 11.6066 9.24004 11.6066V13.5041C9.24004 13.7777 9.46238 14 9.73598 14C9.9971 14 10.2137 13.797 10.231 13.5369L10.441 11.3441C10.4496 11.2183 10.5538 11.12 10.68 11.12C10.8063 11.12 10.9105 11.2178 10.9191 11.3431L11.1291 13.5369C11.1464 13.7975 11.363 14 11.6241 14C11.8977 14 12.12 13.7777 12.12 13.5041V11.6066C12.1836 11.6066 12.2466 11.5939 12.3053 11.5694C12.3639 11.5449 12.4171 11.5089 12.4618 11.4636C12.5064 11.4184 12.5417 11.3647 12.5654 11.3057C12.5891 11.2467 12.6009 11.1836 12.6 11.12V8.72C12.6 7.93041 11.9496 7.28 11.16 7.28H10.68H10.2Z" fill="#595959"/>
</svg>
