<svg width="16" height="16" viewBox="0 0 16 16" fill="none" xmlns="http://www.w3.org/2000/svg">
<path fill-rule="evenodd" clip-rule="evenodd" d="M1.5 8C1.5 4.41136 4.41136 1.5 8 1.5C11.5886 1.5 14.5 4.41136 14.5 8C14.5 11.5886 11.5886 14.5 8 14.5C4.41136 14.5 1.5 11.5886 1.5 8ZM8 2.5C4.96364 2.5 2.5 4.96364 2.5 8C2.5 11.0364 4.96364 13.5 8 13.5C11.0364 13.5 13.5 11.0364 13.5 8C13.5 4.96364 11.0364 2.5 8 2.5Z" fill="white"/>
<path fill-rule="evenodd" clip-rule="evenodd" d="M5.64645 5.64645C5.84171 5.45118 6.15829 5.45118 6.35355 5.64645L10.3536 9.64645C10.5488 9.84171 10.5488 10.1583 10.3536 10.3536C10.1583 10.5488 9.84171 10.5488 9.64645 10.3536L5.64645 6.35355C5.45118 6.15829 5.45118 5.84171 5.64645 5.64645Z" fill="white"/>
<path fill-rule="evenodd" clip-rule="evenodd" d="M10.3536 5.64645C10.5488 5.84171 10.5488 6.15829 10.3536 6.35355L6.35355 10.3536C6.15829 10.5488 5.84171 10.5488 5.64645 10.3536C5.45118 10.1583 5.45118 9.84171 5.64645 9.64645L9.64645 5.64645C9.84171 5.45118 10.1583 5.45118 10.3536 5.64645Z" fill="white"/>
</svg>
