<svg width="20" height="20" viewBox="0 0 20 20" fill="none" xmlns="http://www.w3.org/2000/svg">
<path fill-rule="evenodd" clip-rule="evenodd" d="M7.34835 1.76241C8.05161 1.05915 9.00544 0.664062 10 0.664062C10.9946 0.664062 11.9484 1.05915 12.6517 1.76241C13.3549 2.46567 13.75 3.4195 13.75 4.41406V8.125C13.75 8.47018 13.4702 8.75 13.125 8.75C12.7798 8.75 12.5 8.47018 12.5 8.125V4.41406C12.5 3.75102 12.2366 3.11514 11.7678 2.6463C11.2989 2.17745 10.663 1.91406 10 1.91406C9.33696 1.91406 8.70107 2.17745 8.23223 2.6463C7.76339 3.11514 7.5 3.75102 7.5 4.41406V8.125C7.5 8.47018 7.22018 8.75 6.875 8.75C6.52982 8.75 6.25 8.47018 6.25 8.125V4.41406C6.25 3.4195 6.64509 2.46567 7.34835 1.76241Z" fill="white"/>
<path fill-rule="evenodd" clip-rule="evenodd" d="M5.625 8.75C4.93464 8.75 4.375 9.30964 4.375 10V16.875C4.375 17.5654 4.93464 18.125 5.625 18.125H14.375C15.0654 18.125 15.625 17.5654 15.625 16.875V10C15.625 9.30964 15.0654 8.75 14.375 8.75H5.625ZM3.125 10C3.125 8.61929 4.24429 7.5 5.625 7.5H14.375C15.7557 7.5 16.875 8.61929 16.875 10V16.875C16.875 18.2557 15.7557 19.375 14.375 19.375H5.625C4.24429 19.375 3.125 18.2557 3.125 16.875V10Z" fill="white"/>
</svg>
