<svg width="20" height="20" viewBox="0 0 20 20" fill="none" xmlns="http://www.w3.org/2000/svg">
<rect x="0.5" y="0.5" width="19" height="19" rx="9.5" fill="#FDE9E9"/>
<path fill-rule="evenodd" clip-rule="evenodd" d="M13.7469 6.25308C13.8995 6.40563 13.8995 6.65296 13.7469 6.80551L6.80503 13.7474C6.65248 13.8999 6.40515 13.8999 6.2526 13.7474C6.10005 13.5949 6.10005 13.3475 6.2526 13.195L13.1945 6.25308C13.347 6.10053 13.5944 6.10053 13.7469 6.25308Z" fill="#EB2227"/>
<path fill-rule="evenodd" clip-rule="evenodd" d="M13.7469 13.7474C13.5944 13.8999 13.347 13.8999 13.1945 13.7474L6.2526 6.80551C6.10005 6.65296 6.10005 6.40563 6.2526 6.25308C6.40515 6.10053 6.65248 6.10053 6.80503 6.25308L13.7469 13.195C13.8995 13.3475 13.8995 13.5949 13.7469 13.7474Z" fill="#EB2227"/>
<rect x="0.5" y="0.5" width="19" height="19" rx="9.5" stroke="#F2F3F5"/>
</svg>
