<svg width="53" height="44" viewBox="0 0 53 44" fill="none" xmlns="http://www.w3.org/2000/svg">
<path d="M14.5 22C14.5 21.4696 14.7107 20.9609 15.0858 20.5858C15.4609 20.2107 15.9696 20 16.5 20H34.5V7C34.5 3 30.2762 0 26.5 0H7.5C5.64409 0.00198528 3.86477 0.740121 2.55245 2.05245C1.24012 3.36477 0.501985 5.14409 0.5 7V37C0.501985 38.8559 1.24012 40.6352 2.55245 41.9476C3.86477 43.2599 5.64409 43.998 7.5 44H27.5C29.3559 43.998 31.1352 43.2599 32.4476 41.9476C33.7599 40.6352 34.498 38.8559 34.5 37V24H16.5C15.9696 24 15.4609 23.7893 15.0858 23.4142C14.7107 23.0391 14.5 22.5304 14.5 22Z" fill="#BC2228"/>
<path d="M51.9137 20.5871L41.9137 10.5872C41.5356 10.2279 41.0321 10.0306 40.5106 10.0373C39.9891 10.044 39.4908 10.2541 39.122 10.6229C38.7532 10.9917 38.543 11.49 38.5364 12.0115C38.5297 12.533 38.727 13.0365 39.0863 13.4146L45.6712 20.0009H34.5V24.0009H45.6712L39.0863 30.5871C38.8927 30.771 38.7379 30.9917 38.6311 31.2364C38.5242 31.481 38.4674 31.7445 38.464 32.0115C38.4605 32.2784 38.5106 32.5433 38.6112 32.7906C38.7117 33.0379 38.8608 33.2625 39.0496 33.4513C39.2383 33.64 39.463 33.7891 39.7103 33.8897C39.9576 33.9903 40.2225 34.0403 40.4894 34.0369C40.7563 34.0335 41.0199 33.9767 41.2645 33.8698C41.5091 33.7629 41.7299 33.6081 41.9137 33.4146L51.9137 23.4146C52.2885 23.0396 52.4991 22.5311 52.4991 22.0009C52.4991 21.4707 52.2885 20.9622 51.9137 20.5871V20.5871Z" fill="#EB2227"/>
</svg>
