<svg width="24" height="24" viewBox="0 0 24 24" fill="none" xmlns="http://www.w3.org/2000/svg">
<g clip-path="url(#clip0_26274_63591)">
<path d="M9.06641 21.0234C10.1343 21.0234 11 20.1577 11 19.0898C11 18.0219 10.1343 17.1562 9.06641 17.1562C7.99851 17.1562 7.13281 18.0219 7.13281 19.0898C7.13281 20.1577 7.99851 21.0234 9.06641 21.0234Z" fill="#262626"/>
<path d="M16.8008 21.0234C17.8687 21.0234 18.7344 20.1577 18.7344 19.0898C18.7344 18.0219 17.8687 17.1562 16.8008 17.1562C15.7329 17.1562 14.8672 18.0219 14.8672 19.0898C14.8672 20.1577 15.7329 21.0234 16.8008 21.0234Z" fill="#262626"/>
<path d="M0.644527 4.26562H3.42046C3.45634 4.39482 6.71808 16.1386 6.51153 15.3951C6.58896 15.6739 6.84325 15.8671 7.13277 15.8671H18.7343C19.0219 15.8671 19.2749 15.6764 19.3543 15.3994L21.9753 6.37606C22.0307 6.18158 21.9917 5.97258 21.8702 5.81085C21.7481 5.64972 21.5574 5.55467 21.3554 5.55467H5.11609L4.53137 3.44861C4.45394 3.16979 4.19966 2.97656 3.91013 2.97656H0.644527C0.288276 2.97656 0 3.26484 0 3.62109C0 3.97734 0.288276 4.26562 0.644527 4.26562ZM16.1562 13.289H9.71088C9.35463 13.289 9.06635 13.0007 9.06635 12.6445C9.06635 12.2882 9.35463 11.9999 9.71088 11.9999H16.1562C16.5124 11.9999 16.8007 12.2882 16.8007 12.6445C16.8007 13.0007 16.5124 13.289 16.1562 13.289ZM8.42183 9.42184H17.4452C17.8015 9.42184 18.0897 9.71011 18.0897 10.0664C18.0897 10.4226 17.8015 10.7109 17.4452 10.7109H8.42183C8.06557 10.7109 7.7773 10.4226 7.7773 10.0664C7.7773 9.71011 8.06557 9.42184 8.42183 9.42184Z" fill="#262626"/>
</g>
<defs>
<clipPath id="clip0_26274_63591">
<rect width="22" height="22" fill="white" transform="translate(0 1)"/>
</clipPath>
</defs>
</svg>
