<svg width="12" height="12" viewBox="0 0 12 12" fill="none" xmlns="http://www.w3.org/2000/svg">
<g clip-path="url(#clip0_26302_34404)">
<path fill-rule="evenodd" clip-rule="evenodd" d="M2.25 2.25C1.83579 2.25 1.5 2.58579 1.5 3V9.75C1.5 10.1642 1.83579 10.5 2.25 10.5H9.75C10.1642 10.5 10.5 10.1642 10.5 9.75V3C10.5 2.58579 10.1642 2.25 9.75 2.25H2.25ZM0.75 3C0.75 2.17157 1.42157 1.5 2.25 1.5H9.75C10.5784 1.5 11.25 2.17157 11.25 3V9.75C11.25 10.5784 10.5784 11.25 9.75 11.25H2.25C1.42157 11.25 0.75 10.5784 0.75 9.75V3Z" fill="#8C8C8C"/>
<path d="M9.32391 1.875H2.67609C1.82086 1.875 1.125 2.58164 1.125 3.45V4.875H1.5C1.5 4.5 1.875 4.125 2.25 4.125H9.75C10.125 4.125 10.5 4.5 10.5 4.875H10.875V3.45C10.875 2.58164 10.1791 1.875 9.32391 1.875Z" fill="#8C8C8C"/>
<path d="M6.9375 6C7.24816 6 7.5 5.74816 7.5 5.4375C7.5 5.12684 7.24816 4.875 6.9375 4.875C6.62684 4.875 6.375 5.12684 6.375 5.4375C6.375 5.74816 6.62684 6 6.9375 6Z" fill="#8C8C8C"/>
<path d="M8.8125 6C9.12316 6 9.375 5.74816 9.375 5.4375C9.375 5.12684 9.12316 4.875 8.8125 4.875C8.50184 4.875 8.25 5.12684 8.25 5.4375C8.25 5.74816 8.50184 6 8.8125 6Z" fill="#8C8C8C"/>
<path d="M6.9375 7.875C7.24816 7.875 7.5 7.62316 7.5 7.3125C7.5 7.00184 7.24816 6.75 6.9375 6.75C6.62684 6.75 6.375 7.00184 6.375 7.3125C6.375 7.62316 6.62684 7.875 6.9375 7.875Z" fill="#8C8C8C"/>
<path d="M8.8125 7.875C9.12316 7.875 9.375 7.62316 9.375 7.3125C9.375 7.00184 9.12316 6.75 8.8125 6.75C8.50184 6.75 8.25 7.00184 8.25 7.3125C8.25 7.62316 8.50184 7.875 8.8125 7.875Z" fill="#8C8C8C"/>
<path d="M3.1875 7.875C3.49816 7.875 3.75 7.62316 3.75 7.3125C3.75 7.00184 3.49816 6.75 3.1875 6.75C2.87684 6.75 2.625 7.00184 2.625 7.3125C2.625 7.62316 2.87684 7.875 3.1875 7.875Z" fill="#8C8C8C"/>
<path d="M5.0625 7.875C5.37316 7.875 5.625 7.62316 5.625 7.3125C5.625 7.00184 5.37316 6.75 5.0625 6.75C4.75184 6.75 4.5 7.00184 4.5 7.3125C4.5 7.62316 4.75184 7.875 5.0625 7.875Z" fill="#8C8C8C"/>
<path d="M3.1875 9.75C3.49816 9.75 3.75 9.49816 3.75 9.1875C3.75 8.87684 3.49816 8.625 3.1875 8.625C2.87684 8.625 2.625 8.87684 2.625 9.1875C2.625 9.49816 2.87684 9.75 3.1875 9.75Z" fill="#8C8C8C"/>
<path d="M5.0625 9.75C5.37316 9.75 5.625 9.49816 5.625 9.1875C5.625 8.87684 5.37316 8.625 5.0625 8.625C4.75184 8.625 4.5 8.87684 4.5 9.1875C4.5 9.49816 4.75184 9.75 5.0625 9.75Z" fill="#8C8C8C"/>
<path d="M6.9375 9.75C7.24816 9.75 7.5 9.49816 7.5 9.1875C7.5 8.87684 7.24816 8.625 6.9375 8.625C6.62684 8.625 6.375 8.87684 6.375 9.1875C6.375 9.49816 6.62684 9.75 6.9375 9.75Z" fill="#8C8C8C"/>
<path fill-rule="evenodd" clip-rule="evenodd" d="M3 0.75C3.20711 0.75 3.375 0.917893 3.375 1.125V1.875C3.375 2.08211 3.20711 2.25 3 2.25C2.79289 2.25 2.625 2.08211 2.625 1.875V1.125C2.625 0.917893 2.79289 0.75 3 0.75Z" fill="#8C8C8C"/>
<path fill-rule="evenodd" clip-rule="evenodd" d="M9 0.75C9.20711 0.75 9.375 0.917893 9.375 1.125V1.875C9.375 2.08211 9.20711 2.25 9 2.25C8.79289 2.25 8.625 2.08211 8.625 1.875V1.125C8.625 0.917893 8.79289 0.75 9 0.75Z" fill="#8C8C8C"/>
</g>
<defs>
<clipPath id="clip0_26302_34404">
<rect width="12" height="12" fill="white"/>
</clipPath>
</defs>
</svg>
