<svg width="53" height="52" viewBox="0 0 53 52" fill="none" xmlns="http://www.w3.org/2000/svg">
<path d="M26.5 0C12.1637 0 0.5 11.6637 0.5 26C0.5 40.3363 12.1637 52 26.5 52C40.8363 52 52.5 40.3363 52.5 26C52.5 11.6637 40.8363 0 26.5 0ZM35.9137 32.5863C36.1073 32.7701 36.2621 32.9909 36.3689 33.2355C36.4758 33.4801 36.5326 33.7437 36.536 34.0106C36.5395 34.2775 36.4894 34.5424 36.3888 34.7897C36.2882 35.037 36.1392 35.2617 35.9504 35.4504C35.7617 35.6392 35.537 35.7882 35.2897 35.8888C35.0424 35.9894 34.7775 36.0395 34.5106 36.036C34.2437 36.0326 33.9801 35.9758 33.7355 35.8689C33.4909 35.7621 33.2701 35.6073 33.0863 35.4137L26.5 28.8288L19.9137 35.4137C19.5356 35.773 19.0321 35.9703 18.5106 35.9636C17.9891 35.957 17.4908 35.7468 17.122 35.378C16.7532 35.0092 16.543 34.5109 16.5364 33.9894C16.5297 33.4679 16.727 32.9644 17.0863 32.5863L23.6712 26L17.0863 19.4137C16.727 19.0356 16.5297 18.5321 16.5364 18.0106C16.543 17.4891 16.7532 16.9908 17.122 16.622C17.4908 16.2532 17.9891 16.043 18.5106 16.0364C19.0321 16.0297 19.5356 16.227 19.9137 16.5863L26.5 23.1712L33.0863 16.5863C33.4644 16.227 33.9679 16.0297 34.4894 16.0364C35.0109 16.043 35.5092 16.2532 35.878 16.622C36.2468 16.9908 36.457 17.4891 36.4636 18.0106C36.4703 18.5321 36.273 19.0356 35.9137 19.4137L29.3288 26L35.9137 32.5863Z" fill="#BC2228"/>
</svg>
