<svg width="41" height="40" viewBox="0 0 41 40" fill="none" xmlns="http://www.w3.org/2000/svg">
<path d="M20.5 3.75C11.5398 3.75 4.25 11.0398 4.25 20C4.25 28.9602 11.5398 36.25 20.5 36.25C29.4602 36.25 36.75 28.9602 36.75 20C36.75 11.0398 29.4602 3.75 20.5 3.75ZM26.3836 24.1164C26.5046 24.2313 26.6013 24.3693 26.6681 24.5222C26.7349 24.6751 26.7704 24.8398 26.7725 25.0066C26.7747 25.1735 26.7434 25.339 26.6805 25.4936C26.6177 25.6481 26.5245 25.7885 26.4065 25.9065C26.2885 26.0245 26.1481 26.1177 25.9936 26.1805C25.839 26.2434 25.6735 26.2747 25.5066 26.2725C25.3398 26.2704 25.1751 26.2349 25.0222 26.1681C24.8693 26.1013 24.7313 26.0046 24.6164 25.8836L20.5 21.768L16.3836 25.8836C16.1473 26.1081 15.8326 26.2314 15.5066 26.2273C15.1807 26.2231 14.8692 26.0918 14.6387 25.8613C14.4082 25.6308 14.2769 25.3193 14.2727 24.9934C14.2686 24.6674 14.3919 24.3527 14.6164 24.1164L18.732 20L14.6164 15.8836C14.3919 15.6473 14.2686 15.3326 14.2727 15.0066C14.2769 14.6807 14.4082 14.3692 14.6387 14.1387C14.8692 13.9082 15.1807 13.7769 15.5066 13.7727C15.8326 13.7686 16.1473 13.8919 16.3836 14.1164L20.5 18.232L24.6164 14.1164C24.8527 13.8919 25.1674 13.7686 25.4934 13.7727C25.8193 13.7769 26.1308 13.9082 26.3613 14.1387C26.5918 14.3692 26.7231 14.6807 26.7273 15.0066C26.7314 15.3326 26.6081 15.6473 26.3836 15.8836L22.268 20L26.3836 24.1164Z" fill="url(#paint0_linear_26672_62928)"/>
<defs>
<linearGradient id="paint0_linear_26672_62928" x1="10.2422" y1="33" x2="6.0391" y2="10.4459" gradientUnits="userSpaceOnUse">
<stop stop-color="#BA0B00"/>
<stop offset="1" stop-color="#EF7272"/>
</linearGradient>
</defs>
</svg>
