<svg width="20" height="20" viewBox="0 0 20 20" fill="none" xmlns="http://www.w3.org/2000/svg">
<path fill-rule="evenodd" clip-rule="evenodd" d="M15.9947 4.00337C16.2388 4.24745 16.2388 4.64318 15.9947 4.88725L4.88765 15.9943C4.64358 16.2384 4.24785 16.2384 4.00377 15.9943C3.75969 15.7502 3.75969 15.3545 4.00377 15.1104L15.1108 4.00337C15.3549 3.75929 15.7506 3.75929 15.9947 4.00337Z" fill="white"/>
<path fill-rule="evenodd" clip-rule="evenodd" d="M15.9947 15.9943C15.7506 16.2384 15.3549 16.2384 15.1108 15.9943L4.00377 4.88725C3.75969 4.64318 3.75969 4.24745 4.00377 4.00337C4.24785 3.75929 4.64358 3.75929 4.88765 4.00337L15.9947 15.1104C16.2388 15.3545 16.2388 15.7502 15.9947 15.9943Z" fill="white"/>
</svg>
