<svg width="32" height="32" viewBox="0 0 32 32" fill="none" xmlns="http://www.w3.org/2000/svg">
<path fill-rule="evenodd" clip-rule="evenodd" d="M5 16C5 15.4477 5.44772 15 6 15H26C26.5523 15 27 15.4477 27 16C27 16.5523 26.5523 17 26 17H6C5.44772 17 5 16.5523 5 16Z" fill="#262626"/>
<path fill-rule="evenodd" clip-rule="evenodd" d="M5 11C5 10.4477 5.44772 10 6 10H26C26.5523 10 27 10.4477 27 11C27 11.5523 26.5523 12 26 12H6C5.44772 12 5 11.5523 5 11Z" fill="#262626"/>
<path fill-rule="evenodd" clip-rule="evenodd" d="M5 21C5 20.4477 5.44772 20 6 20H26C26.5523 20 27 20.4477 27 21C27 21.5523 26.5523 22 26 22H6C5.44772 22 5 21.5523 5 21Z" fill="#262626"/>
</svg>
