<svg width="157" height="157" viewBox="0 0 157 157" fill="none" xmlns="http://www.w3.org/2000/svg">
<path d="M75.2618 154.219C115.9 154.219 148.846 121.273 148.846 80.49C148.846 39.7067 115.755 6.76074 75.2618 6.76074C34.6236 6.76074 1.67773 39.7067 1.67773 80.49C1.67773 121.273 34.6236 154.219 75.2618 154.219Z" fill="#F1F3F9" stroke="#D6DCE8" stroke-width="2" stroke-miterlimit="10"/>
<path d="M144.056 32.1611C147.342 32.1611 150.007 29.4964 150.007 26.2105C150.007 22.9232 147.342 20.2599 144.056 20.2599C140.769 20.2599 138.105 22.9232 138.105 26.2105C138.105 29.4964 140.769 32.1611 144.056 32.1611Z" fill="#F1F3F9"/>
<path d="M152.766 8.93932C155.009 8.93932 156.829 7.11933 156.829 4.87553C156.829 2.63027 155.009 0.811646 152.766 0.811646C150.52 0.811646 148.702 2.63027 148.702 4.87553C148.702 7.11933 150.52 8.93932 152.766 8.93932Z" fill="#F1F3F9"/>
<path d="M5.597 32.0159C7.8408 32.0159 9.66079 30.1959 9.66079 27.9521C9.66079 25.7068 7.8408 23.8883 5.597 23.8883C3.35174 23.8883 1.5332 25.7068 1.5332 27.9521C1.5332 30.1959 3.35174 32.0159 5.597 32.0159Z" fill="#F1F3F9"/>
<path d="M96.5973 41.3047L118.803 121.13C119.529 123.887 117.932 126.645 115.175 127.37L36.9463 148.125C34.1887 148.851 31.4312 147.254 30.7055 144.496L3.41991 41.4498C2.69423 38.6922 4.29073 35.9346 7.04831 35.209L63.6514 20.2599L96.5973 41.3047Z" fill="white" stroke="#D6DCE8" stroke-width="2" stroke-miterlimit="10"/>
<path d="M95.4369 91.8121L53.2022 102.988L48.5578 104.149L34.4797 107.922C33.8992 108.067 33.4637 108.793 33.754 109.519C33.8992 110.244 34.6248 110.68 35.2054 110.535L49.2835 106.761L53.9279 105.6L96.1625 94.4245C96.7431 94.2794 97.1785 93.5538 96.8882 92.8281C96.7431 92.1024 96.0174 91.667 95.4369 91.8121Z" fill="#D6DCE8"/>
<path d="M92.6788 81.9428L77.0041 86.0066L71.6341 87.4579L32.0119 98.0529C31.4314 98.198 30.996 98.9237 31.2862 99.6494C31.4314 100.375 32.1571 100.811 32.7376 100.665L72.5048 90.0704L77.8749 88.619L93.5496 84.5552C94.1301 84.4101 94.5655 83.6844 94.2753 82.9588C93.985 82.3782 93.2593 81.7976 92.6788 81.9428Z" fill="#D6DCE8"/>
<path d="M90.3565 71.9283L86.2926 72.9442L82.2288 73.9602L29.2541 88.0384C28.6736 88.1836 28.2382 88.9092 28.5284 89.6349C28.6736 90.3606 29.3992 90.796 29.9798 90.6509L82.9545 76.5726L87.4537 75.4116L91.0821 74.3956C91.6627 74.2505 92.0981 73.5248 91.8078 72.7991C91.6627 72.2186 91.0821 71.7831 90.3565 71.9283Z" fill="#D6DCE8"/>
<path d="M65.8286 123.306L62.9258 124.032C62.3453 124.177 61.6196 123.742 61.4745 123.016C61.3293 122.29 61.6196 121.565 62.2002 121.42L65.1029 120.694C65.6834 120.549 66.4091 120.984 66.5542 121.71C66.6994 122.581 66.4091 123.161 65.8286 123.306Z" fill="#D6DCE8"/>
<path d="M56.9754 125.629L40.2847 129.983C39.7042 130.128 38.9785 129.693 38.8334 128.967C38.6882 128.241 38.9785 127.516 39.5591 127.37L56.2497 123.016C56.8302 122.871 57.5559 123.307 57.7011 124.032C57.9913 124.758 57.7011 125.484 56.9754 125.629Z" fill="#D6DCE8"/>
<path d="M88.3241 61.914L75.1167 65.3972L71.9237 66.2681L26.7863 78.1692C26.2058 78.3144 25.7704 79.04 26.0607 79.7657C26.2058 80.4914 26.9315 80.9268 27.512 80.7817L72.5042 69.0256L75.6972 68.1548L88.7595 64.6715C89.4851 64.5264 89.7755 63.8008 89.6303 62.9299C89.6303 62.3494 88.9046 61.7688 88.3241 61.914Z" fill="#D6DCE8"/>
<path d="M57.1199 39.9984L19.6748 49.8677C18.804 50.158 17.9332 49.5774 17.6429 48.7066C17.3526 47.8358 17.9331 46.965 18.804 46.6747L56.2492 36.8055C57.12 36.5152 57.9907 37.0957 58.281 37.9666C58.5713 38.8374 57.9907 39.7081 57.1199 39.9984Z" fill="#D6DCE8"/>
<path d="M36.511 55.0925L22.1426 58.866C21.2718 59.1563 20.4009 58.5757 20.1107 57.7049C19.8204 56.8341 20.4009 55.9634 21.2717 55.6731L35.4951 51.8995C36.3659 51.6092 37.2367 52.1897 37.527 53.0606C37.8173 53.9314 37.2367 54.8022 36.511 55.0925Z" fill="#D6DCE8"/>
<path d="M63.6514 20.2599L69.4568 42.3207C70.3276 45.3685 73.6658 47.2553 76.7136 46.3844L96.5973 41.3047" fill="#D6DCE8"/>
<path d="M155.233 63.8008L141.881 145.658C141.445 148.415 138.688 150.302 135.93 149.721L56.3955 135.788C53.6379 135.353 51.7511 132.595 52.1865 129.838L70.6188 24.9043C71.0542 22.1467 73.8119 20.26 76.5694 20.8405L134.334 31L155.233 63.8008Z" fill="white" stroke="#D6DCE8" stroke-width="2" stroke-miterlimit="10"/>
<path d="M133.026 109.228L90.0659 101.681L85.4216 100.81L71.0531 98.3431C70.4725 98.1979 69.7469 98.7785 69.7469 99.5041C69.6017 100.23 70.0371 100.956 70.6177 101.101L84.9862 103.568L89.6305 104.439L132.591 111.986C133.171 112.131 133.897 111.551 133.897 110.825C134.042 110.099 133.752 109.373 133.026 109.228Z" fill="#D6DCE8"/>
<path d="M134.768 99.2141L118.803 96.4564L113.433 95.4405L72.9399 88.3288C72.3593 88.1837 71.6336 88.7642 71.6336 89.4899C71.4885 90.2156 71.9238 90.9412 72.5044 91.0864L112.997 98.1981L118.367 99.2141L134.332 101.972C134.913 102.117 135.639 101.536 135.639 100.811C135.784 100.085 135.348 99.3592 134.768 99.2141Z" fill="#D6DCE8"/>
<path d="M136.8 89.0545L132.591 88.3288L128.382 87.6032L74.391 78.1693C73.8105 78.0242 73.0848 78.6047 73.0848 79.3304C72.9396 80.0561 73.375 80.7817 73.9556 80.9268L127.946 90.3607L132.591 91.2316L136.219 91.812C136.8 91.9572 137.525 91.3767 137.525 90.651C137.815 89.9253 137.525 89.1996 136.8 89.0545Z" fill="#D6DCE8"/>
<path d="M92.9692 125.484L90.0665 125.048C89.4859 124.903 89.0505 124.177 89.1956 123.452C89.3407 122.726 89.9213 122.145 90.5019 122.291L93.4046 122.726C93.9851 122.871 94.4205 123.597 94.2754 124.323C94.1302 125.193 93.5497 125.484 92.9692 125.484Z" fill="#D6DCE8"/>
<path d="M84.1147 123.887L67.1339 120.984C66.5533 120.839 66.1179 120.113 66.263 119.388C66.4081 118.662 66.9887 118.082 67.5693 118.227L84.5502 121.129C85.1307 121.275 85.5661 122 85.421 122.726C85.2758 123.597 84.6953 124.032 84.1147 123.887Z" fill="#D6DCE8"/>
<path d="M139.122 79.185L125.624 76.8629L122.286 76.2823L76.2777 68.1547C75.6972 68.0096 74.9715 68.5901 74.9715 69.3158C74.8264 70.0415 75.2618 70.7672 75.8424 70.9123L121.85 79.0399L125.189 79.6205L138.541 81.9426C139.267 82.0878 139.847 81.5073 139.992 80.7816C140.138 80.0559 139.702 79.3302 139.122 79.185Z" fill="#D6DCE8"/>
<path d="M120.109 46.2392L81.9383 39.5629C81.0674 39.4178 80.487 38.547 80.6321 37.6761C80.7772 36.8053 81.648 36.2247 82.5188 36.3699L120.69 43.0462C121.56 43.1913 122.141 44.0621 121.996 44.9329C121.851 45.6586 120.98 46.3843 120.109 46.2392Z" fill="#D6DCE8"/>
<path d="M95.0009 51.1739L80.3422 48.5614C79.4713 48.4163 78.8908 47.5455 79.0359 46.6747C79.181 45.8039 80.0519 45.2233 80.9227 45.3684L95.4363 47.9808C96.3072 48.126 96.8877 48.9969 96.7425 49.8677C96.5974 50.7385 95.7265 51.319 95.0009 51.1739Z" fill="#D6DCE8"/>
<path d="M134.188 31L130.269 53.4961C129.688 56.6891 132.01 59.7369 135.203 60.3174L155.232 63.8007" fill="#D6DCE8"/>
<path d="M100.517 137.965C118.392 137.965 132.882 123.475 132.882 105.6C132.882 87.725 118.392 73.2346 100.517 73.2346C82.6418 73.2346 68.1514 87.725 68.1514 105.6C68.1514 123.475 82.6418 137.965 100.517 137.965Z" fill="white"/>
<path d="M147.455 155.585C146.198 155.585 144.942 155.083 143.937 153.952L122.957 132.971L122.202 133.473C115.419 138.499 107.505 141.138 99.464 141.138C89.7907 141.138 80.1174 137.242 72.9564 130.459C65.4195 123.298 61.2729 113.624 61.2729 103.072C61.2729 82.0921 78.3583 65.0067 99.3392 65.0067C113.66 65.0067 126.223 72.5437 133.006 85.3577C139.665 98.047 138.786 112.871 130.62 124.806L130.118 125.559L151.224 146.665C153.359 148.801 152.857 150.936 152.479 152.067C151.475 154.077 149.465 155.585 147.455 155.585ZM99.3392 75.4333C84.0114 75.4333 71.701 87.8714 71.701 103.072C71.701 120.408 85.8967 130.836 99.7151 130.836C108.133 130.836 115.796 127.067 121.198 120.283C127.857 111.992 128.988 100.81 124.339 91.1371C119.565 81.4637 110.017 75.4333 99.3392 75.4333Z" fill="#D6DCE8" stroke="#AAB2C5" stroke-width="2" stroke-miterlimit="10"/>
<path d="M97.469 110.825C97.3238 110.244 97.3239 109.664 97.3239 108.938C97.3239 106.471 98.3398 104.294 100.952 102.407L103.129 100.81C104.436 99.7945 105.016 98.6334 105.016 97.1821C105.016 95.1502 103.565 93.1183 100.517 93.1183C97.3239 93.1183 95.8725 95.7307 95.8725 98.198C95.8725 98.7786 95.8725 99.214 96.0176 99.6494L90.2122 99.5042C90.067 98.9237 89.9219 98.198 89.9219 97.4723C89.9219 92.5377 93.5503 87.8933 100.372 87.8933C107.338 87.8933 111.112 92.3925 111.112 96.8918C111.112 100.52 109.225 102.987 106.613 104.874L104.726 106.181C103.129 107.342 102.258 108.793 102.258 110.535V110.825H97.469ZM99.9363 113.728C101.968 113.728 103.565 115.324 103.565 117.356C103.565 119.388 101.968 120.984 99.9363 120.984C97.9044 120.984 96.3079 119.388 96.3079 117.356C96.453 115.469 97.9044 113.728 99.9363 113.728Z" fill="#B2C0D1"/>
</svg>
