<svg width="24" height="24" viewBox="0 0 24 24" fill="none" xmlns="http://www.w3.org/2000/svg">
<path d="M12 1C11.262 1 10.6293 1.43639 10.3385 2.06345C8.77776 2.32369 7.3401 2.94048 6.10791 3.8311C5.94057 3.78093 5.7671 3.7453 5.58333 3.7453C4.57042 3.7453 3.75 4.56432 3.75 5.57551C3.75 5.75896 3.78568 5.93213 3.83594 6.09919C2.94379 7.32927 2.32596 8.76448 2.06527 10.3226C1.43714 10.6129 1 11.2445 1 11.9812C1 12.7151 1.43389 13.3445 2.05811 13.6363C2.3174 15.1955 2.94691 16.6265 3.83773 17.8579C3.78642 18.0265 3.75 18.2015 3.75 18.3869C3.75 19.3981 4.57042 20.2171 5.58333 20.2171C5.76373 20.2171 5.93432 20.1833 6.09896 20.1349C6.19455 20.204 6.29808 20.2622 6.39616 20.3279L5.69613 21.6094C5.63172 21.7152 5.58948 21.8329 5.57196 21.9555C5.55444 22.078 5.562 22.2028 5.59418 22.3224C5.62636 22.4419 5.6825 22.5537 5.7592 22.6509C5.8359 22.7482 5.93156 22.8289 6.0404 22.8882C6.14924 22.9475 6.269 22.9841 6.39243 22.9959C6.51586 23.0076 6.6404 22.9943 6.75851 22.9566C6.87662 22.9189 6.98584 22.8577 7.07958 22.7767C7.17332 22.6957 7.24962 22.5965 7.30387 22.4852L12 13.8901L15.1206 19.6023C14.6013 19.8147 14.0526 19.9657 13.486 20.0688C13.1534 19.6061 12.6143 19.302 12 19.302C10.9871 19.302 10.1667 20.121 10.1667 21.1322C10.1667 22.1434 10.9871 22.9624 12 22.9624C12.74 22.9624 13.3735 22.5234 13.6632 21.8936C14.479 21.7579 15.2603 21.5279 15.9979 21.2091L16.6961 22.4852C16.7504 22.5965 16.8267 22.6957 16.9204 22.7767C17.0142 22.8577 17.1234 22.9189 17.2415 22.9566C17.3596 22.9943 17.4841 23.0076 17.6076 22.9959C17.731 22.9841 17.8508 22.9475 17.9596 22.8882C18.0684 22.8289 18.1641 22.7482 18.2408 22.6509C18.3175 22.5537 18.3736 22.4419 18.4058 22.3224C18.438 22.2028 18.4456 22.078 18.428 21.9555C18.4105 21.8329 18.3683 21.7152 18.3039 21.6094L13.5612 12.9303C13.7305 12.653 13.8333 12.3299 13.8333 11.9812C13.8333 10.97 13.0129 10.151 12 10.151C10.9871 10.151 10.1667 10.97 10.1667 11.9812C10.1667 12.3299 10.2695 12.653 10.4388 12.9303L7.40771 18.4781C7.40927 18.4472 7.41667 18.4182 7.41667 18.3869C7.41667 17.3757 6.59625 16.5567 5.58333 16.5567C5.44759 16.5567 5.31677 16.5735 5.18945 16.6014C4.55611 15.6733 4.11016 14.6136 3.90039 13.4647C4.36319 13.1325 4.66667 12.594 4.66667 11.9812C4.66667 11.3643 4.35954 10.8221 3.89144 10.4906C4.10043 9.34478 4.53836 8.28012 5.16797 7.35388C5.30211 7.38505 5.43965 7.40571 5.58333 7.40571C6.59625 7.40571 7.41667 6.5867 7.41667 5.57551C7.41667 5.43207 7.39597 5.29477 7.36475 5.16085C8.29257 4.53232 9.35906 4.09513 10.5068 3.8865C10.8389 4.35381 11.3821 4.66041 12 4.66041C12.6179 4.66041 13.1611 4.35381 13.4932 3.8865C14.6409 4.09513 15.7074 4.53232 16.6353 5.16085C16.604 5.29477 16.5833 5.43207 16.5833 5.57551C16.5833 6.5867 17.4037 7.40571 18.4167 7.40571C18.5603 7.40571 18.6979 7.38505 18.832 7.35388C19.4616 8.28012 19.8996 9.34478 20.1086 10.4906C19.6405 10.8221 19.3333 11.3643 19.3333 11.9812C19.3333 12.599 19.6411 13.1422 20.1104 13.4736C19.9003 14.6197 19.4524 15.678 18.8195 16.605C18.6893 16.5757 18.5558 16.5567 18.4167 16.5567C18.1417 16.5567 17.8833 16.6221 17.6486 16.7301L19.396 19.9294C19.9075 19.6045 20.25 19.0367 20.25 18.3869C20.25 18.2074 20.2158 18.0378 20.1676 17.874C21.0621 16.641 21.6878 15.1979 21.9473 13.6327C22.5683 13.3397 23 12.7128 23 11.9812C23 11.2445 22.5629 10.6129 21.9347 10.3226C21.674 8.76448 21.0562 7.32927 20.1641 6.09919C20.2143 5.93213 20.25 5.75896 20.25 5.57551C20.25 4.56432 19.4296 3.7453 18.4167 3.7453C18.2329 3.7453 18.0594 3.78093 17.8921 3.8311C16.6599 2.94048 15.2222 2.32369 13.6615 2.06345C13.3707 1.43639 12.738 1 12 1Z" fill="#8C8C8C"/>
</svg>
