<svg width="147" height="147" viewBox="0 0 147 147" fill="none" xmlns="http://www.w3.org/2000/svg">
<path d="M53.0508 51.7391V42.3492C53.0508 32.9592 60.5404 25.2461 70.0421 25.2461C79.3202 25.2461 87.0334 32.8475 87.0334 42.3492V51.7391" stroke="#D6DCE8" stroke-width="1.8941" stroke-miterlimit="10" stroke-linecap="round" stroke-linejoin="round"/>
<path d="M111.178 121.493C111.625 121.269 111.737 121.045 112.184 120.934" stroke="#FF78B7" stroke-width="0.6123" stroke-linecap="round" stroke-linejoin="round"/>
<path d="M18.9551 129.43H138.9" stroke="#D6DCE8" stroke-width="2" stroke-miterlimit="10" stroke-linecap="round" stroke-linejoin="round"/>
<path d="M8 129.43H12.9185" stroke="#D6DCE8" stroke-width="2" stroke-miterlimit="10" stroke-linecap="round" stroke-linejoin="round"/>
<path d="M119.672 33.9648H24.4316V129.429H119.672V33.9648Z" fill="#F1F3F9" stroke="#D6DCE8" stroke-width="2" stroke-miterlimit="10"/>
<path d="M119.897 33.9648H50.9258V129.429H119.785V33.9648H119.897Z" fill="white" stroke="#D6DCE8" stroke-width="2" stroke-miterlimit="10"/>
<path d="M37.6223 33.9648H24.4316V129.429H37.6223V33.9648Z" fill="#F1F3F9" stroke="#D6DCE8" stroke-width="2" stroke-miterlimit="10"/>
<path d="M50.9246 129.428H24.4316V129.205L37.8458 115.902L50.9246 129.428Z" fill="#F1F3F9" stroke="#D6DCE8" stroke-width="2" stroke-miterlimit="10"/>
<path d="M67.5806 55.2041C69.4809 55.2041 71.0459 53.6391 71.0459 51.7388C71.0459 49.8384 69.4809 48.2734 67.5806 48.2734C65.6802 48.2734 64.1152 49.8384 64.1152 51.7388C64.1152 53.6391 65.6802 55.2041 67.5806 55.2041Z" fill="#D6DCE8"/>
<path d="M101.563 55.2041C103.463 55.2041 105.028 53.6391 105.028 51.7388C105.028 49.8384 103.463 48.2734 101.563 48.2734C99.6626 48.2734 98.0977 49.8384 98.0977 51.7388C98.2094 53.6391 99.6626 55.2041 101.563 55.2041Z" fill="#D6DCE8"/>
<path d="M67.582 51.7391V42.3492C67.582 32.9592 75.0716 25.2461 84.5733 25.2461C93.8515 25.2461 101.565 32.8475 101.565 42.3492V51.7391" stroke="#D6DCE8" stroke-width="1.8941" stroke-miterlimit="10" stroke-linecap="round" stroke-linejoin="round"/>
<path d="M112.401 21.4003C114.815 19.8529 117.663 18.9863 120.696 18.9863C128.99 18.9863 135.737 25.6712 135.737 33.9655C135.737 42.2598 128.99 48.9447 120.696 48.9447C112.401 48.9447 105.654 42.2598 105.654 33.9655C105.531 28.7042 108.254 24.1238 112.401 21.4003Z" fill="#D6DCE8" stroke="#AAB2C5" stroke-width="2" stroke-miterlimit="10"/>
<path d="M121.812 33.827L121.81 33.8583V33.8895C121.81 35.0482 121.568 35.7334 121.321 36.0973C121.09 36.4376 120.857 36.5069 120.695 36.5069C120.532 36.5069 120.299 36.4376 120.068 36.0973C119.821 35.7334 119.58 35.0482 119.58 33.8895C119.58 32.8189 119.816 32.1219 120.076 31.7261C120.333 31.3356 120.577 31.2722 120.695 31.2722C120.903 31.2722 121.946 31.6786 121.812 33.827ZM114.105 33.8895C114.105 38.3634 116.984 41.672 120.695 41.672C124.405 41.672 127.284 38.3634 127.284 33.8895C127.284 29.3836 124.377 26.2578 120.695 26.2578C117.012 26.2578 114.105 29.3836 114.105 33.8895Z" fill="white" stroke="#AAB2C5" stroke-width="2"/>
<path d="M73.8124 82.3667C69.9724 82.3667 66.7469 79.9099 65.5181 76.3783C65.2109 75.6105 65.6717 74.8427 66.4397 74.5356C67.2077 74.2285 67.9757 74.6892 68.2829 75.4569C69.0508 77.7602 71.3548 79.4493 73.8124 79.4493C76.2699 79.4493 78.5739 77.9138 79.3419 75.4569C79.6491 74.6892 80.4171 74.2285 81.185 74.5356C81.953 74.8427 82.4138 75.6105 82.1066 76.3783C80.8778 80.0635 77.6523 82.3667 73.8124 82.3667Z" fill="#9FA8BA"/>
<path d="M97.0057 82.3667C93.1658 82.3667 89.9402 79.9099 88.7115 76.3783C88.4043 75.6105 88.8651 74.8427 89.633 74.5356C90.401 74.2285 91.169 74.6892 91.4762 75.4569C92.2442 77.7602 94.5482 79.4493 97.0057 79.4493C99.4633 79.4493 101.767 77.9138 102.535 75.4569C102.842 74.6892 103.61 74.2285 104.378 74.5356C105.146 74.8427 105.607 75.6105 105.3 76.3783C104.071 80.0635 100.846 82.3667 97.0057 82.3667Z" fill="#9FA8BA"/>
<path d="M85.4878 101.169C87.4389 101.169 89.0206 99.5876 89.0206 97.6371C89.0206 95.6866 87.4389 94.1055 85.4878 94.1055C83.5367 94.1055 81.9551 95.6866 81.9551 97.6371C81.9551 99.5876 83.5367 101.169 85.4878 101.169Z" fill="#9FA8BA"/>
<path d="M21.1465 23.1976V18H41.2343V23.1976L27.5273 39.7355H41.4707V44.9332H20.4375V39.7355L34.1445 23.1976H21.1465Z" fill="#9FA8BA"/>
<path d="M37.6914 62.1806V58.873H50.6894V62.1806L41.9453 72.8121H50.9258V76.1197H37.2188V72.8121L45.9629 62.1806H37.6914Z" fill="#9FA8BA"/>
</svg>
