<svg width="21" height="20" viewBox="0 0 21 20" fill="none" xmlns="http://www.w3.org/2000/svg">
<g clip-path="url(#clip0_24046_12667)">
<path d="M20.1551 16.5517H0.844843C0.654414 16.5517 0.5 16.3973 0.5 16.2069V3.79309C0.5 3.60266 0.654414 3.44824 0.844843 3.44824H20.1552C20.3456 3.44824 20.5 3.60266 20.5 3.79309V16.2069C20.5 16.3973 20.3455 16.5517 20.1551 16.5517Z" fill="#F5F5F5"/>
<path d="M20.5 4.45625H0.5V3.79309C0.5 3.60266 0.654414 3.44824 0.844843 3.44824H20.1552C20.3456 3.44824 20.5 3.60266 20.5 3.79309L20.5 4.45625Z" fill="#FF4B55"/>
<path d="M20.5 7.47998H0.5V8.48795H20.5V7.47998Z" fill="#FF4B55"/>
<path d="M20.5 5.46411H0.5V6.47208H20.5V5.46411Z" fill="#FF4B55"/>
<path d="M20.5 10.5039H0.844843C0.654414 10.5039 0.5 10.3494 0.5 10.159V9.49585H20.5V10.5039Z" fill="#FF4B55"/>
<path d="M20.5 13.5281H0.5V14.536H20.5V13.5281Z" fill="#FF4B55"/>
<path d="M20.1551 16.5517H0.844843C0.654414 16.5517 0.5 16.3973 0.5 16.2068V15.5437H20.5V16.2069C20.5 16.3973 20.3455 16.5517 20.1551 16.5517Z" fill="#FF4B55"/>
<path d="M20.5 11.5122H0.5V12.5202H20.5V11.5122Z" fill="#FF4B55"/>
<path d="M9.46549 3.44824H0.844843C0.654414 3.44824 0.5 3.60262 0.5 3.79305V10.159C0.5 10.3495 0.654414 10.5039 0.844843 10.5039H9.46553C9.65596 10.5039 9.81037 10.3495 9.81037 10.159V3.79305C9.81033 3.60262 9.65592 3.44824 9.46549 3.44824Z" fill="#41479B"/>
<path d="M1.46822 4.24L1.54454 4.46891L1.78583 4.47075C1.81708 4.47102 1.83001 4.51086 1.8049 4.52942L1.61079 4.67278L1.68361 4.90282C1.69306 4.93258 1.65911 4.95727 1.63368 4.93907L1.4374 4.79879L1.24111 4.93911C1.21568 4.95727 1.18181 4.93262 1.19119 4.90286L1.264 4.67282L1.0699 4.52946C1.04478 4.51086 1.05771 4.47106 1.08896 4.47079L1.33025 4.46895L1.40658 4.24004C1.41642 4.21036 1.45829 4.21036 1.46822 4.24Z" fill="#F5F5F5"/>
<path d="M1.46822 5.43724L1.54454 5.66615L1.78583 5.66798C1.81708 5.66826 1.83001 5.7081 1.8049 5.72665L1.61079 5.87001L1.68361 6.10005C1.69306 6.12982 1.65911 6.15451 1.63368 6.1363L1.4374 5.99603L1.24111 6.13634C1.21568 6.15451 1.18181 6.12986 1.19119 6.10009L1.264 5.87005L1.0699 5.72669C1.04478 5.7081 1.05771 5.6683 1.08896 5.66802L1.33025 5.66619L1.40658 5.43728C1.41642 5.40763 1.45829 5.40763 1.46822 5.43724Z" fill="#F5F5F5"/>
<path d="M1.46822 6.63451L1.54454 6.86341L1.78583 6.86525C1.81708 6.86552 1.83001 6.90537 1.8049 6.92392L1.61079 7.06728L1.68361 7.29732C1.69306 7.32708 1.65911 7.35177 1.63368 7.33357L1.4374 7.1933L1.24111 7.33361C1.21568 7.35177 1.18181 7.32712 1.19119 7.29736L1.264 7.06732L1.0699 6.92396C1.04478 6.90537 1.05771 6.86556 1.08896 6.86529L1.33025 6.86345L1.40658 6.63455C1.41642 6.6049 1.45829 6.6049 1.46822 6.63451Z" fill="#F5F5F5"/>
<path d="M1.46822 7.83205L1.54454 8.06095L1.78583 8.06279C1.81708 8.06306 1.83001 8.1029 1.8049 8.12146L1.61079 8.26482L1.68361 8.49486C1.69306 8.52462 1.65911 8.54931 1.63368 8.53111L1.4374 8.39083L1.24111 8.53115C1.21568 8.54931 1.18181 8.52466 1.19119 8.4949L1.264 8.26486L1.0699 8.1215C1.04478 8.1029 1.05771 8.0631 1.08896 8.06283L1.33025 8.06099L1.40658 7.83208C1.41642 7.8024 1.45829 7.8024 1.46822 7.83205Z" fill="#F5F5F5"/>
<path d="M1.46822 9.02958L1.54454 9.25849L1.78583 9.26033C1.81708 9.2606 1.83001 9.30044 1.8049 9.319L1.61079 9.46236L1.68361 9.6924C1.69306 9.72216 1.65911 9.74685 1.63368 9.72865L1.4374 9.58837L1.24111 9.72868C1.21568 9.74685 1.18181 9.7222 1.19119 9.69243L1.264 9.4624L1.0699 9.31904C1.04478 9.30044 1.05771 9.26064 1.08896 9.26037L1.33025 9.25853L1.40658 9.02962C1.41642 8.9999 1.45829 8.9999 1.46822 9.02958Z" fill="#F5F5F5"/>
<path d="M2.39766 4.82689L2.47399 5.0558L2.71528 5.05764C2.74653 5.05791 2.75946 5.09775 2.73434 5.11631L2.54024 5.25967L2.61305 5.48971C2.6225 5.51947 2.58856 5.54416 2.56313 5.52596L2.36684 5.38564L2.17055 5.52596C2.14512 5.54412 2.11125 5.51947 2.12063 5.48971L2.19344 5.25967L1.99934 5.11631C1.97422 5.09771 1.98715 5.05791 2.0184 5.05764L2.25969 5.0558L2.33602 4.82689C2.34582 4.79729 2.38778 4.79729 2.39766 4.82689Z" fill="#F5F5F5"/>
<path d="M2.39766 6.02419L2.47399 6.2531L2.71528 6.25493C2.74653 6.2552 2.75946 6.29505 2.73434 6.3136L2.54024 6.45696L2.61305 6.687C2.6225 6.71677 2.58856 6.74145 2.56313 6.72325L2.36684 6.58294L2.17055 6.72325C2.14512 6.74141 2.11125 6.71681 2.12063 6.687L2.19344 6.45696L1.99934 6.3136C1.97422 6.29501 1.98715 6.2552 2.0184 6.25493L2.25969 6.2531L2.33602 6.02419C2.34582 5.99454 2.38778 5.99454 2.39766 6.02419Z" fill="#F5F5F5"/>
<path d="M2.39766 7.2217L2.47399 7.4506L2.71528 7.45244C2.74653 7.45271 2.75946 7.49256 2.73434 7.51111L2.54024 7.65447L2.61305 7.88451C2.6225 7.91428 2.58856 7.93896 2.56313 7.92076L2.36684 7.78045L2.17055 7.92076C2.14512 7.93892 2.11125 7.91428 2.12063 7.88451L2.19344 7.65447L1.99934 7.51111C1.97422 7.49252 1.98715 7.45271 2.0184 7.45244L2.25969 7.4506L2.33602 7.2217C2.34582 7.19205 2.38778 7.19205 2.39766 7.2217Z" fill="#F5F5F5"/>
<path d="M2.39766 8.41918L2.47399 8.64809L2.71528 8.64992C2.74653 8.65019 2.75946 8.69004 2.73434 8.70859L2.54024 8.85195L2.61305 9.08199C2.6225 9.11176 2.58856 9.13644 2.56313 9.11824L2.36684 8.97793L2.17055 9.11824C2.14512 9.1364 2.11125 9.11176 2.12063 9.08199L2.19344 8.85195L1.99934 8.70859C1.97422 8.69 1.98715 8.65019 2.0184 8.64992L2.25969 8.64809L2.33602 8.41918C2.34582 8.38957 2.38778 8.38957 2.39766 8.41918Z" fill="#F5F5F5"/>
<path d="M3.3271 4.23977L3.40343 4.46867L3.64472 4.47051C3.67597 4.47078 3.6889 4.51062 3.66378 4.52918L3.46968 4.67254L3.54249 4.90258C3.55195 4.93234 3.518 4.95703 3.49257 4.93883L3.29628 4.79851L3.09999 4.93883C3.07456 4.95699 3.0407 4.93234 3.05007 4.90258L3.12288 4.67254L2.92878 4.52918C2.90367 4.51059 2.9166 4.47078 2.94785 4.47051L3.18913 4.46867L3.26546 4.23977C3.27531 4.21012 3.31722 4.21012 3.3271 4.23977Z" fill="#F5F5F5"/>
<path d="M3.3271 5.43725L3.40343 5.66615L3.64472 5.66799C3.67597 5.66826 3.6889 5.7081 3.66378 5.72666L3.46968 5.87002L3.54249 6.10006C3.55195 6.12982 3.518 6.15451 3.49257 6.13631L3.29628 5.99599L3.09999 6.13631C3.07456 6.15447 3.0407 6.12982 3.05007 6.10006L3.12288 5.87002L2.92878 5.72666C2.90367 5.70807 2.9166 5.66826 2.94785 5.66799L3.18913 5.66615L3.26546 5.43725C3.27531 5.40764 3.31722 5.40764 3.3271 5.43725Z" fill="#F5F5F5"/>
<path d="M3.3271 6.63451L3.40343 6.86342L3.64472 6.86525C3.67597 6.86553 3.6889 6.90537 3.66378 6.92393L3.46968 7.06728L3.54249 7.29732C3.55195 7.32709 3.518 7.35178 3.49257 7.33357L3.29628 7.19326L3.09999 7.33357C3.07456 7.35174 3.0407 7.32709 3.05007 7.29732L3.12288 7.06728L2.92878 6.92393C2.90367 6.90533 2.9166 6.86553 2.94785 6.86525L3.18913 6.86342L3.26546 6.63451C3.27531 6.6049 3.31722 6.6049 3.3271 6.63451Z" fill="#F5F5F5"/>
<path d="M3.3271 7.83205L3.40343 8.06096L3.64472 8.06279C3.67597 8.06307 3.6889 8.10291 3.66378 8.12146L3.46968 8.26482L3.54249 8.49486C3.55195 8.52463 3.518 8.54931 3.49257 8.53111L3.29628 8.3908L3.09999 8.53111C3.07456 8.54928 3.0407 8.52463 3.05007 8.49486L3.12288 8.26482L2.92878 8.12146C2.90367 8.10287 2.9166 8.06307 2.94785 8.06279L3.18913 8.06096L3.26546 7.83205C3.27531 7.8024 3.31722 7.8024 3.3271 7.83205Z" fill="#F5F5F5"/>
<path d="M3.3271 9.02959L3.40343 9.2585L3.64472 9.26033C3.67597 9.2606 3.6889 9.30045 3.66378 9.319L3.46968 9.46236L3.54249 9.6924C3.55195 9.72217 3.518 9.74685 3.49257 9.72865L3.29628 9.58834L3.09999 9.72865C3.07456 9.74681 3.0407 9.72217 3.05007 9.6924L3.12288 9.46236L2.92878 9.319C2.90367 9.30041 2.9166 9.2606 2.94785 9.26033L3.18913 9.2585L3.26546 9.02959C3.27531 8.9999 3.31722 8.9999 3.3271 9.02959Z" fill="#F5F5F5"/>
<path d="M4.25655 4.82689L4.33287 5.0558L4.57416 5.05764C4.60541 5.05791 4.61834 5.09775 4.59323 5.11631L4.39912 5.25967L4.47194 5.48971C4.48139 5.51947 4.44744 5.54416 4.42201 5.52596L4.22573 5.38564L4.02944 5.52596C4.00401 5.54412 3.97014 5.51947 3.97952 5.48971L4.05233 5.25967L3.85823 5.11631C3.83311 5.09771 3.84604 5.05791 3.87729 5.05764L4.11858 5.0558L4.19491 4.82689C4.20471 4.79729 4.24666 4.79729 4.25655 4.82689Z" fill="#F5F5F5"/>
<path d="M4.25655 6.02419L4.33287 6.2531L4.57416 6.25493C4.60541 6.2552 4.61834 6.29505 4.59323 6.3136L4.39912 6.45696L4.47194 6.687C4.48139 6.71677 4.44744 6.74145 4.42201 6.72325L4.22573 6.58294L4.02944 6.72325C4.00401 6.74141 3.97014 6.71681 3.97952 6.687L4.05233 6.45696L3.85823 6.3136C3.83311 6.29501 3.84604 6.2552 3.87729 6.25493L4.11858 6.2531L4.19491 6.02419C4.20471 5.99454 4.24666 5.99454 4.25655 6.02419Z" fill="#F5F5F5"/>
<path d="M4.25655 7.2217L4.33287 7.4506L4.57416 7.45244C4.60541 7.45271 4.61834 7.49256 4.59323 7.51111L4.39912 7.65447L4.47194 7.88451C4.48139 7.91428 4.44744 7.93896 4.42201 7.92076L4.22573 7.78045L4.02944 7.92076C4.00401 7.93892 3.97014 7.91428 3.97952 7.88451L4.05233 7.65447L3.85823 7.51111C3.83311 7.49252 3.84604 7.45271 3.87729 7.45244L4.11858 7.4506L4.19491 7.2217C4.20471 7.19205 4.24666 7.19205 4.25655 7.2217Z" fill="#F5F5F5"/>
<path d="M4.25655 8.41918L4.33287 8.64809L4.57416 8.64992C4.60541 8.65019 4.61834 8.69004 4.59323 8.70859L4.39912 8.85195L4.47194 9.08199C4.48139 9.11176 4.44744 9.13644 4.42201 9.11824L4.22573 8.97793L4.02944 9.11824C4.00401 9.1364 3.97014 9.11176 3.97952 9.08199L4.05233 8.85195L3.85823 8.70859C3.83311 8.69 3.84604 8.65019 3.87729 8.64992L4.11858 8.64809L4.19491 8.41918C4.20471 8.38957 4.24666 8.38957 4.25655 8.41918Z" fill="#F5F5F5"/>
<path d="M5.18578 4.23977L5.26211 4.46867L5.5034 4.47051C5.53465 4.47078 5.54758 4.51062 5.52246 4.52918L5.32836 4.67254L5.40117 4.90258C5.41063 4.93234 5.37668 4.95703 5.35125 4.93883L5.15493 4.79851L4.95864 4.93883C4.93321 4.95699 4.89934 4.93234 4.90872 4.90258L4.98153 4.67254L4.78743 4.52918C4.76231 4.51059 4.77524 4.47078 4.80649 4.47051L5.04778 4.46867L5.12411 4.23977C5.13399 4.21012 5.1759 4.21012 5.18578 4.23977Z" fill="#F5F5F5"/>
<path d="M5.18578 5.43725L5.26211 5.66615L5.5034 5.66799C5.53465 5.66826 5.54758 5.7081 5.52246 5.72666L5.32836 5.87002L5.40117 6.10006C5.41063 6.12982 5.37668 6.15451 5.35125 6.13631L5.15493 5.99599L4.95864 6.13631C4.93321 6.15447 4.89934 6.12982 4.90872 6.10006L4.98153 5.87002L4.78743 5.72666C4.76231 5.70807 4.77524 5.66826 4.80649 5.66799L5.04778 5.66615L5.12411 5.43725C5.13399 5.40764 5.1759 5.40764 5.18578 5.43725Z" fill="#F5F5F5"/>
<path d="M5.18578 6.63451L5.26211 6.86342L5.5034 6.86525C5.53465 6.86553 5.54758 6.90537 5.52246 6.92393L5.32836 7.06728L5.40117 7.29732C5.41063 7.32709 5.37668 7.35178 5.35125 7.33357L5.15493 7.19326L4.95864 7.33357C4.93321 7.35174 4.89934 7.32709 4.90872 7.29732L4.98153 7.06728L4.78743 6.92393C4.76231 6.90533 4.77524 6.86553 4.80649 6.86525L5.04778 6.86342L5.12411 6.63451C5.13399 6.6049 5.1759 6.6049 5.18578 6.63451Z" fill="#F5F5F5"/>
<path d="M5.18578 7.83205L5.26211 8.06096L5.5034 8.06279C5.53465 8.06307 5.54758 8.10291 5.52246 8.12146L5.32836 8.26482L5.40117 8.49486C5.41063 8.52463 5.37668 8.54931 5.35125 8.53111L5.15493 8.3908L4.95864 8.53111C4.93321 8.54928 4.89934 8.52463 4.90872 8.49486L4.98153 8.26482L4.78743 8.12146C4.76231 8.10287 4.77524 8.06307 4.80649 8.06279L5.04778 8.06096L5.12411 7.83205C5.13399 7.8024 5.1759 7.8024 5.18578 7.83205Z" fill="#F5F5F5"/>
<path d="M5.18578 9.02959L5.26211 9.2585L5.5034 9.26033C5.53465 9.2606 5.54758 9.30045 5.52246 9.319L5.32836 9.46236L5.40117 9.6924C5.41063 9.72217 5.37668 9.74685 5.35125 9.72865L5.15493 9.58834L4.95864 9.72865C4.93321 9.74681 4.89934 9.72217 4.90872 9.6924L4.98153 9.46236L4.78743 9.319C4.76231 9.30041 4.77524 9.2606 4.80649 9.26033L5.04778 9.2585L5.12411 9.02959C5.13399 8.9999 5.1759 8.9999 5.18578 9.02959Z" fill="#F5F5F5"/>
<path d="M6.11543 4.82689L6.19176 5.0558L6.43305 5.05764C6.4643 5.05791 6.47723 5.09775 6.45211 5.11631L6.25801 5.25967L6.33082 5.48971C6.34028 5.51947 6.30633 5.54416 6.2809 5.52596L6.08461 5.38564L5.88832 5.52596C5.86289 5.54412 5.82903 5.51947 5.8384 5.48971L5.91121 5.25967L5.71711 5.11631C5.692 5.09771 5.70493 5.05791 5.73618 5.05764L5.97746 5.0558L6.05379 4.82689C6.06368 4.79729 6.10555 4.79729 6.11543 4.82689Z" fill="#F5F5F5"/>
<path d="M6.11543 6.02419L6.19176 6.2531L6.43305 6.25493C6.4643 6.2552 6.47723 6.29505 6.45211 6.3136L6.25801 6.45696L6.33082 6.687C6.34028 6.71677 6.30633 6.74145 6.2809 6.72325L6.08461 6.58294L5.88832 6.72325C5.86289 6.74141 5.82903 6.71681 5.8384 6.687L5.91121 6.45696L5.71711 6.3136C5.692 6.29501 5.70493 6.2552 5.73618 6.25493L5.97746 6.2531L6.05379 6.02419C6.06368 5.99454 6.10555 5.99454 6.11543 6.02419Z" fill="#F5F5F5"/>
<path d="M6.11543 7.2217L6.19176 7.4506L6.43305 7.45244C6.4643 7.45271 6.47723 7.49256 6.45211 7.51111L6.25801 7.65447L6.33082 7.88451C6.34028 7.91428 6.30633 7.93896 6.2809 7.92076L6.08461 7.78045L5.88832 7.92076C5.86289 7.93892 5.82903 7.91428 5.8384 7.88451L5.91121 7.65447L5.71711 7.51111C5.692 7.49252 5.70493 7.45271 5.73618 7.45244L5.97746 7.4506L6.05379 7.2217C6.06368 7.19205 6.10555 7.19205 6.11543 7.2217Z" fill="#F5F5F5"/>
<path d="M6.11543 8.41918L6.19176 8.64809L6.43305 8.64992C6.4643 8.65019 6.47723 8.69004 6.45211 8.70859L6.25801 8.85195L6.33082 9.08199C6.34028 9.11176 6.30633 9.13644 6.2809 9.11824L6.08461 8.97793L5.88832 9.11824C5.86289 9.1364 5.82903 9.11176 5.8384 9.08199L5.91121 8.85195L5.71711 8.70859C5.692 8.69 5.70493 8.65019 5.73618 8.64992L5.97746 8.64809L6.05379 8.41918C6.06368 8.38957 6.10555 8.38957 6.11543 8.41918Z" fill="#F5F5F5"/>
<path d="M7.04488 4.23977L7.1212 4.46867L7.36249 4.47051C7.39374 4.47078 7.40667 4.51062 7.38156 4.52918L7.18745 4.67254L7.26027 4.90258C7.26972 4.93234 7.23577 4.95703 7.21035 4.93883L7.01406 4.79851L6.81777 4.93883C6.79234 4.95699 6.75847 4.93234 6.76785 4.90258L6.84066 4.67254L6.64656 4.52918C6.62144 4.51059 6.63437 4.47078 6.66562 4.47051L6.90691 4.46867L6.98324 4.23977C6.99304 4.21012 7.03499 4.21012 7.04488 4.23977Z" fill="#F5F5F5"/>
<path d="M7.04488 5.43725L7.1212 5.66615L7.36249 5.66799C7.39374 5.66826 7.40667 5.7081 7.38156 5.72666L7.18745 5.87002L7.26027 6.10006C7.26972 6.12982 7.23577 6.15451 7.21035 6.13631L7.01406 5.99599L6.81777 6.13631C6.79234 6.15447 6.75847 6.12982 6.76785 6.10006L6.84066 5.87002L6.64656 5.72666C6.62144 5.70807 6.63437 5.66826 6.66562 5.66799L6.90691 5.66615L6.98324 5.43725C6.99304 5.40764 7.03499 5.40764 7.04488 5.43725Z" fill="#F5F5F5"/>
<path d="M7.04488 6.63451L7.1212 6.86342L7.36249 6.86525C7.39374 6.86553 7.40667 6.90537 7.38156 6.92393L7.18745 7.06728L7.26027 7.29732C7.26972 7.32709 7.23577 7.35178 7.21035 7.33357L7.01406 7.19326L6.81777 7.33357C6.79234 7.35174 6.75847 7.32709 6.76785 7.29732L6.84066 7.06728L6.64656 6.92393C6.62144 6.90533 6.63437 6.86553 6.66562 6.86525L6.90691 6.86342L6.98324 6.63451C6.99304 6.6049 7.03499 6.6049 7.04488 6.63451Z" fill="#F5F5F5"/>
<path d="M7.04488 7.83205L7.1212 8.06096L7.36249 8.06279C7.39374 8.06307 7.40667 8.10291 7.38156 8.12146L7.18745 8.26482L7.26027 8.49486C7.26972 8.52463 7.23577 8.54931 7.21035 8.53111L7.01406 8.3908L6.81777 8.53111C6.79234 8.54928 6.75847 8.52463 6.76785 8.49486L6.84066 8.26482L6.64656 8.12146C6.62144 8.10287 6.63437 8.06307 6.66562 8.06279L6.90691 8.06096L6.98324 7.83205C6.99304 7.8024 7.03499 7.8024 7.04488 7.83205Z" fill="#F5F5F5"/>
<path d="M7.04488 9.02959L7.1212 9.2585L7.36249 9.26033C7.39374 9.2606 7.40667 9.30045 7.38156 9.319L7.18745 9.46236L7.26027 9.6924C7.26972 9.72217 7.23577 9.74685 7.21035 9.72865L7.01406 9.58834L6.81777 9.72865C6.79234 9.74681 6.75847 9.72217 6.76785 9.6924L6.84066 9.46236L6.64656 9.319C6.62144 9.30041 6.63437 9.2606 6.66562 9.26033L6.90691 9.2585L6.98324 9.02959C6.99304 8.9999 7.03499 8.9999 7.04488 9.02959Z" fill="#F5F5F5"/>
<path d="M7.97408 4.82689L8.0504 5.0558L8.29169 5.05764C8.32294 5.05791 8.33587 5.09775 8.31076 5.11631L8.11665 5.25967L8.18947 5.48971C8.19892 5.51947 8.16497 5.54416 8.13954 5.52596L7.94326 5.38564L7.74697 5.52596C7.72154 5.54412 7.68767 5.51947 7.69705 5.48971L7.76986 5.25967L7.57576 5.11631C7.55064 5.09771 7.56357 5.05791 7.59482 5.05764L7.83611 5.0558L7.91244 4.82689C7.92228 4.79729 7.96423 4.79729 7.97408 4.82689Z" fill="#F5F5F5"/>
<path d="M7.97408 6.02419L8.0504 6.2531L8.29169 6.25493C8.32294 6.2552 8.33587 6.29505 8.31076 6.3136L8.11665 6.45696L8.18947 6.687C8.19892 6.71677 8.16497 6.74145 8.13954 6.72325L7.94326 6.58294L7.74697 6.72325C7.72154 6.74141 7.68767 6.71681 7.69705 6.687L7.76986 6.45696L7.57576 6.3136C7.55064 6.29501 7.56357 6.2552 7.59482 6.25493L7.83611 6.2531L7.91244 6.02419C7.92228 5.99454 7.96423 5.99454 7.97408 6.02419Z" fill="#F5F5F5"/>
<path d="M7.97408 7.2217L8.0504 7.4506L8.29169 7.45244C8.32294 7.45271 8.33587 7.49256 8.31076 7.51111L8.11665 7.65447L8.18947 7.88451C8.19892 7.91428 8.16497 7.93896 8.13954 7.92076L7.94326 7.78045L7.74697 7.92076C7.72154 7.93892 7.68767 7.91428 7.69705 7.88451L7.76986 7.65447L7.57576 7.51111C7.55064 7.49252 7.56357 7.45271 7.59482 7.45244L7.83611 7.4506L7.91244 7.2217C7.92228 7.19205 7.96423 7.19205 7.97408 7.2217Z" fill="#F5F5F5"/>
<path d="M7.97408 8.41918L8.0504 8.64809L8.29169 8.64992C8.32294 8.65019 8.33587 8.69004 8.31076 8.70859L8.11665 8.85195L8.18947 9.08199C8.19892 9.11176 8.16497 9.13644 8.13954 9.11824L7.94326 8.97793L7.74697 9.11824C7.72154 9.1364 7.68767 9.11176 7.69705 9.08199L7.76986 8.85195L7.57576 8.70859C7.55064 8.69 7.56357 8.65019 7.59482 8.64992L7.83611 8.64809L7.91244 8.41918C7.92228 8.38957 7.96423 8.38957 7.97408 8.41918Z" fill="#F5F5F5"/>
<path d="M8.90352 4.23977L8.97985 4.46867L9.22114 4.47051C9.25239 4.47078 9.26532 4.51062 9.2402 4.52918L9.0461 4.67254L9.11891 4.90258C9.12836 4.93234 9.09442 4.95703 9.06899 4.93883L8.8727 4.79851L8.67641 4.93883C8.65098 4.95699 8.61711 4.93234 8.62649 4.90258L8.6993 4.67254L8.5052 4.52918C8.48008 4.51059 8.49301 4.47078 8.52426 4.47051L8.76555 4.46867L8.84188 4.23977C8.85172 4.21012 8.8936 4.21012 8.90352 4.23977Z" fill="#F5F5F5"/>
<path d="M8.90352 5.43725L8.97985 5.66615L9.22114 5.66799C9.25239 5.66826 9.26532 5.7081 9.2402 5.72666L9.0461 5.87002L9.11891 6.10006C9.12836 6.12982 9.09442 6.15451 9.06899 6.13631L8.8727 5.99599L8.67641 6.13631C8.65098 6.15447 8.61711 6.12982 8.62649 6.10006L8.6993 5.87002L8.5052 5.72666C8.48008 5.70807 8.49301 5.66826 8.52426 5.66799L8.76555 5.66615L8.84188 5.43725C8.85172 5.40764 8.8936 5.40764 8.90352 5.43725Z" fill="#F5F5F5"/>
<path d="M8.90352 6.63451L8.97985 6.86342L9.22114 6.86525C9.25239 6.86553 9.26532 6.90537 9.2402 6.92393L9.0461 7.06728L9.11891 7.29732C9.12836 7.32709 9.09442 7.35178 9.06899 7.33357L8.8727 7.19326L8.67641 7.33357C8.65098 7.35174 8.61711 7.32709 8.62649 7.29732L8.6993 7.06728L8.5052 6.92393C8.48008 6.90533 8.49301 6.86553 8.52426 6.86525L8.76555 6.86342L8.84188 6.63451C8.85172 6.6049 8.8936 6.6049 8.90352 6.63451Z" fill="#F5F5F5"/>
<path d="M8.90352 7.83205L8.97985 8.06096L9.22114 8.06279C9.25239 8.06307 9.26532 8.10291 9.2402 8.12146L9.0461 8.26482L9.11891 8.49486C9.12836 8.52463 9.09442 8.54931 9.06899 8.53111L8.8727 8.3908L8.67641 8.53111C8.65098 8.54928 8.61711 8.52463 8.62649 8.49486L8.6993 8.26482L8.5052 8.12146C8.48008 8.10287 8.49301 8.06307 8.52426 8.06279L8.76555 8.06096L8.84188 7.83205C8.85172 7.8024 8.8936 7.8024 8.90352 7.83205Z" fill="#F5F5F5"/>
<path d="M8.90352 9.02959L8.97985 9.2585L9.22114 9.26033C9.25239 9.2606 9.26532 9.30045 9.2402 9.319L9.0461 9.46236L9.11891 9.6924C9.12836 9.72217 9.09442 9.74685 9.06899 9.72865L8.8727 9.58834L8.67641 9.72865C8.65098 9.74681 8.61711 9.72217 8.62649 9.6924L8.6993 9.46236L8.5052 9.319C8.48008 9.30041 8.49301 9.2606 8.52426 9.26033L8.76555 9.2585L8.84188 9.02959C8.85172 8.9999 8.8936 8.9999 8.90352 9.02959Z" fill="#F5F5F5"/>
</g>
<defs>
<clipPath id="clip0_24046_12667">
<rect width="20" height="20" fill="white" transform="translate(0.5)"/>
</clipPath>
</defs>
</svg>
