<svg width="147" height="147" viewBox="0 0 147 147" fill="none" xmlns="http://www.w3.org/2000/svg">
<path d="M74.3845 138.846C105.332 138.846 130.421 113.756 130.421 82.6982C130.421 51.6403 105.221 26.5508 74.3845 26.5508C43.4371 26.5508 18.3477 51.6403 18.3477 82.6982C18.3477 113.756 43.4371 138.846 74.3845 138.846Z" fill="#F1F3F9" stroke="#D6DCE8" stroke-width="2" stroke-miterlimit="10"/>
<path d="M133.903 118.926C136.406 118.926 138.434 116.893 138.434 114.395C138.434 111.897 136.406 109.863 133.903 109.863C131.4 109.863 129.371 111.897 129.371 114.395C129.371 116.893 131.4 118.926 133.903 118.926Z" fill="#EFF2F8"/>
<path d="M140.534 101.244C142.244 101.244 143.629 99.8626 143.629 98.1495C143.629 96.4363 142.244 95.0547 140.534 95.0547C138.825 95.0547 137.439 96.4363 137.439 98.1495C137.439 99.8626 138.825 101.244 140.534 101.244Z" fill="#EFF2F8"/>
<path d="M21.3311 45.7831C23.0409 45.7831 24.4258 44.4017 24.4258 42.6885C24.4258 40.9864 23.0409 39.5938 21.3311 39.5938C19.6223 39.5938 18.2363 40.9864 18.2363 42.6885C18.2363 44.4017 19.6223 45.7831 21.3311 45.7831Z" fill="#EFF2F8"/>
<path d="M6.85283 108.76C10.0272 108.76 12.6002 106.185 12.6002 103.013C12.6002 99.8408 10.0272 97.2656 6.85283 97.2656C3.67962 97.2656 1.10547 99.8408 1.10547 103.013C1.10547 106.185 3.67962 108.76 6.85283 108.76Z" fill="#EFF2F8"/>
<path d="M81.4158 103.055H68.9628C66.0769 103.055 63.6465 105.718 63.6465 108.879V115.699C63.6465 122.684 68.8102 128.343 75.1887 128.343C81.5672 128.343 86.731 122.684 86.731 115.699V108.879C86.731 105.553 84.3005 103.055 81.4158 103.055Z" fill="white" stroke="#D6DCE8" stroke-width="2" stroke-miterlimit="10"/>
<path fill-rule="evenodd" clip-rule="evenodd" d="M80.3116 37.703C92.496 40.5214 101.572 51.4303 101.572 64.4725V67.965C101.572 97.4203 123.745 116.696 123.745 116.696H24.2715C24.2715 116.696 46.5967 97.4203 46.5967 67.965V64.4725C46.5967 51.4303 55.6731 40.5214 67.8586 37.703V36.5314C67.8586 33.0387 70.5919 30.3086 74.0846 30.3086C77.5772 30.3086 80.3116 33.0387 80.3116 36.5314V37.703Z" fill="white"/>
<path d="M80.3108 37.7028H79.2055V38.576L80.061 38.7749L80.3108 37.7028ZM123.744 116.696V117.801H126.7L124.47 115.867L123.744 116.696ZM24.2706 116.696L23.5489 115.856L21.3008 117.801H24.2706V116.696ZM67.8578 37.7028L68.1065 38.7749L68.963 38.576V37.7028H67.8578ZM102.677 64.4722C102.677 50.8996 93.2346 39.5486 80.5595 36.6197L80.061 38.7749C91.7569 41.4828 100.466 51.9607 100.466 64.4722H102.677ZM102.677 67.9648V64.4722H100.466V67.9648H102.677ZM123.744 116.696C124.47 115.867 124.47 115.867 124.47 115.867C124.47 115.867 124.469 115.867 124.468 115.867C124.467 115.856 124.464 115.856 124.459 115.856C124.449 115.845 124.436 115.834 124.416 115.812C124.378 115.779 124.319 115.734 124.242 115.657C124.086 115.513 123.855 115.303 123.56 115.016C122.968 114.441 122.117 113.59 121.095 112.474C119.049 110.241 116.317 106.958 113.585 102.77C108.116 94.3806 102.677 82.4106 102.677 67.9648H100.466C100.466 82.9743 106.115 95.3643 111.732 103.974C114.543 108.285 117.354 111.667 119.466 113.977C120.521 115.126 121.403 116.011 122.024 116.607C122.335 116.906 122.58 117.138 122.751 117.293C122.835 117.37 122.901 117.425 122.946 117.47C122.968 117.492 122.986 117.503 122.998 117.514C123.005 117.514 123.009 117.525 123.013 117.525C123.015 117.525 123.016 117.525 123.017 117.525C123.018 117.536 123.018 117.536 123.018 117.536C123.019 117.536 123.019 117.536 123.744 116.696ZM24.2706 117.801H123.744V115.591H24.2706V117.801ZM45.4906 67.9648C45.4906 82.4106 40.0162 94.3806 34.5098 102.77C31.7588 106.958 29.0078 110.241 26.9476 112.474C25.9175 113.59 25.0609 114.441 24.4663 115.016C24.1678 115.303 23.9357 115.513 23.7788 115.657C23.7003 115.723 23.6417 115.779 23.603 115.812C23.5831 115.834 23.5688 115.845 23.5599 115.856C23.5555 115.856 23.5522 115.856 23.55 115.856C23.5489 115.856 23.5489 115.856 23.5489 115.867C23.5478 115.867 23.5489 115.867 23.5478 115.867C23.5489 115.867 23.5489 115.856 24.2706 116.696C24.9935 117.536 24.9935 117.536 24.9946 117.536H24.9957C24.9968 117.536 24.9979 117.525 25.0001 117.525C25.0034 117.525 25.0089 117.525 25.0145 117.514C25.0266 117.503 25.0443 117.492 25.0675 117.47C25.1128 117.425 25.1791 117.37 25.2643 117.293C25.4356 117.138 25.682 116.906 25.9948 116.607C26.6204 116.011 27.5079 115.126 28.5712 113.977C30.6977 111.667 33.5272 108.296 36.3578 103.985C42.0134 95.3643 47.7011 82.9743 47.7011 67.9648H45.4906ZM45.4906 64.4722V67.9648H47.7011V64.4722H45.4906ZM67.608 36.6197C54.9328 39.5486 45.4906 50.8996 45.4906 64.4722H47.7011C47.7011 51.9607 56.4117 41.4828 68.1065 38.7749L67.608 36.6197ZM68.963 37.7028V36.5312H66.7525V37.7028H68.963ZM68.963 36.5312C68.963 33.6575 71.2012 31.4137 74.0837 31.4137V29.2031C69.981 29.2031 66.7525 32.4306 66.7525 36.5312H68.963ZM74.0837 31.4137C76.9662 31.4137 79.2055 33.6575 79.2055 36.5312H81.416C81.416 32.4306 78.1864 29.2031 74.0837 29.2031V31.4137ZM79.2055 36.5312V37.7028H81.416V36.5312H79.2055Z" fill="#D6DCE8"/>
<path d="M62.5413 79.9578C58.7447 79.9578 55.5561 77.5261 54.3414 74.0334C54.0374 73.2818 54.4928 72.5193 55.2521 72.2098C56.0114 71.9114 56.7707 72.3647 57.0747 73.1273C57.834 75.4041 60.112 77.0729 62.5413 77.0729C64.9718 77.0729 67.2497 75.5589 68.0091 73.1273C68.313 72.3647 69.0723 71.9114 69.8316 72.2098C70.5909 72.5193 71.0463 73.2818 70.7424 74.0334C69.5277 77.6808 66.3379 79.9578 62.5413 79.9578Z" fill="#AAB2C5"/>
<path d="M85.473 79.9578C81.6764 79.9578 78.4877 77.5261 77.273 74.0334C76.9691 73.2818 77.4244 72.5193 78.1838 72.2098C78.9431 71.9114 79.7024 72.3647 80.0063 73.1273C80.7656 75.4041 83.0436 77.0729 85.473 77.0729C87.9034 77.0729 90.1814 75.5589 90.9407 73.1273C91.2446 72.3647 92.0039 71.9114 92.7633 72.2098C93.5226 72.5193 93.9779 73.2818 93.674 74.0334C92.4593 77.6808 89.2706 79.9578 85.473 79.9578Z" fill="#AAB2C5"/>
<path d="M74.0844 98.5478C76.0142 98.5478 77.577 96.9782 77.577 95.055C77.577 93.1208 76.0142 91.5625 74.0844 91.5625C72.1557 91.5625 70.5918 93.1208 70.5918 95.055C70.5918 96.9782 72.1557 98.5478 74.0844 98.5478Z" fill="#AAB2C5"/>
<path d="M92.8003 12.8779V7.73828H112.663V12.8779L99.1103 29.2356H112.896V34.3752H92.0996V29.2356L105.652 12.8779H92.8003Z" fill="#AAB2C5"/>
<path d="M109.157 51.42V48.1484H122.009V51.42L113.364 61.931H122.242V65.2026H108.689V61.931L117.336 51.42H109.157Z" fill="#AAB2C5"/>
</svg>
