<svg width="147" height="147" viewBox="0 0 147 147" fill="none" xmlns="http://www.w3.org/2000/svg">
<path d="M51.6443 86.3372C51.647 86.3839 51.6523 86.4773 51.7024 86.5205C51.705 86.5672 51.7578 86.6571 51.7604 86.7038C51.8106 86.7471 51.8158 86.8404 51.866 86.8837C51.9161 86.9269 51.9662 86.9702 52.019 87.0601C52.2749 87.3697 52.7182 87.6189 53.209 87.8646C53.3066 87.9044 53.4517 87.9407 53.5494 87.9805C53.5995 88.0238 53.6945 88.0169 53.7446 88.0601C53.7947 88.1034 53.8897 88.0965 53.9399 88.1397L54.1325 88.1727C54.3752 88.2488 54.6655 88.3215 54.9531 88.3476C55.0982 88.3839 55.1932 88.377 55.3383 88.4134C55.4333 88.4065 55.5309 88.4463 55.6734 88.436C55.7684 88.4291 55.866 88.4689 55.961 88.462C56.7262 88.5003 57.436 88.402 58.0403 88.1237C60.1328 87.1751 60.8954 85.479 60.8954 85.479C60.8954 85.479 61.4733 85.5777 62.381 85.6057C64.104 85.7151 66.9722 85.8354 69.4288 85.4228C70.2309 85.2709 71.0753 85.0222 71.9646 84.7233C72.2443 84.6093 72.524 84.4952 72.8512 84.3778C73.4106 84.1497 73.9198 83.8784 74.4766 83.6036C75.9596 82.8397 77.3343 81.8493 78.4664 80.7828C78.6036 80.6791 78.7382 80.5287 78.8754 80.425C79.506 79.7698 80.0391 79.0748 80.4296 78.3902C81.2028 76.8808 82.2742 75.5842 83.4432 74.3275C85.198 72.4657 87.2984 70.8132 89.2036 69.0811C89.7947 68.5695 90.3831 68.0111 90.9267 67.5029C92.6894 65.7812 94.2463 63.7931 95.265 61.5627C96.368 59.1387 96.2441 56.9443 95.9092 54.3902C95.9013 54.2501 95.5214 52.5899 95.6137 52.5364C96.437 51.9141 97.0097 51.0756 97.2868 50.071C97.936 48.055 97.5087 45.5544 96.514 43.9857C96.4085 43.8059 96.3029 43.626 96.2 43.4928C95.1578 41.9275 93.9099 40.0959 92.5563 38.9283L90.0999 36.8092L69.8667 38.2761C69.8667 38.2761 69.7057 39.6473 69.4681 41.3523C69.4285 41.4958 69.4365 41.6358 69.3969 41.7794C69.3652 42.0629 69.3335 42.3465 69.2543 42.6335C69.2147 42.777 69.2227 42.9171 69.1831 43.0606C69.1857 43.1073 69.1857 43.1073 69.1408 43.1575C69.1118 43.4877 69.0326 43.7747 69.0036 44.105C68.8663 45.0526 68.6763 45.9102 68.4309 46.6312C68.4335 46.6779 68.3913 46.7747 68.3939 46.8214C68.2725 47.2053 68.1485 47.5424 68.0192 47.7862C66.9821 49.6897 61.4829 55.339 57.6118 58.5732C53.7408 61.8073 52.1705 66.9374 51.5816 75.0904C50.8476 83.2071 51.3674 84.8102 51.6443 86.3372Z" fill="white" stroke="#D6DCE8" stroke-width="1.59045" stroke-miterlimit="10" stroke-linejoin="round"/>
<path opacity="0.3" d="M51.6599 86.328C51.8903 87.8629 55.8824 89.0313 57.9832 88.0798C60.1317 87.1249 60.8497 85.4273 60.8497 85.4273C60.8497 85.4273 65.6233 86.0219 69.4195 85.4179C72.2646 84.9297 76.0344 83.0111 78.4425 80.7209L77.7065 73.6275C77.7065 73.6275 77.0684 67.4204 76.6288 64.7252C76.2369 62.0266 78.433 61.9146 78.1391 58.4095C77.7976 54.908 78.8761 48.5765 80.4129 42.7291L73.6579 38.4225L69.3636 41.2255C69.0668 43.5978 68.5183 46.5997 67.9592 47.7216C66.918 49.6306 61.397 55.2965 57.5106 58.54C53.6242 61.7836 52.0477 66.9287 51.4565 75.1055C50.8601 83.1887 51.3818 84.7965 51.6599 86.328Z" fill="#C4D1E4"/>
<path opacity="0.2" d="M51.681 86.3378C51.6836 86.3844 51.6889 86.4777 51.739 86.5209C51.7416 86.5676 51.7943 86.6574 51.797 86.7041C51.8471 86.7473 51.8523 86.8406 51.9024 86.8838C51.9525 86.927 52.0026 86.9702 52.0553 87.0601C52.3111 87.3694 52.754 87.6183 53.2444 87.8638C53.342 87.9036 53.487 87.9399 53.5845 87.9797C53.6346 88.0229 53.7295 88.016 53.7796 88.0592C53.8297 88.1024 53.9247 88.0955 53.9747 88.1387L54.1672 88.1716C54.4098 88.2477 54.6998 88.3204 54.9872 88.3464C55.1322 88.3827 55.2271 88.3758 55.3721 88.4121C56.0129 87.9441 56.3767 87.6367 56.3767 87.6367C56.3767 87.6367 56.3767 87.6367 55.9972 85.9781C55.8733 85.4718 55.7388 84.779 55.5438 83.8563C54.7082 80.0293 54.7033 72.348 59.9845 72.1994C59.1937 68.3222 61.1319 63.8257 62.8748 60.9359C64.6679 58.0892 66.176 59.4788 67.9424 61.2243C68.0875 60.4175 67.0541 57.3074 65.8519 54.5842C68.1298 56.9483 70.0783 57.697 75.1828 57.7954C72.7993 56.0946 72.4593 55.1356 70.3765 51.1648C72.7626 52.0691 77.5797 52.9846 80.4483 53.1513C87.38 53.5388 93.294 52.7822 97.1462 50.1142C97.795 48.0999 97.368 45.6016 96.374 44.0342C96.2686 43.8545 96.1631 43.6748 96.0603 43.5418C92.3875 43.4801 86.1413 43.4177 80.2749 43.3277C75.9824 43.2642 71.8799 43.1869 69.114 43.1532C69.1167 43.1998 69.1167 43.1998 69.0719 43.2499C69.0428 43.5799 68.9637 43.8667 68.9347 44.1966C68.7975 45.1434 68.6077 46.0002 68.3624 46.7206C68.365 46.7672 68.3229 46.864 68.3255 46.9106C68.2042 47.2941 68.0802 47.631 67.951 47.8745C66.9147 49.7764 61.4197 55.4207 57.5516 58.6519C53.6835 61.8832 52.1144 67.0087 51.526 75.1545C50.8849 83.2104 51.4042 84.8122 51.681 86.3378Z" fill="#BFC8D6"/>
<path d="M91.8183 48.5437C91.3569 48.895 90.8463 49.2019 90.3339 49.462C89.6355 49.8252 88.8879 50.1439 88.1385 50.4158C85.8429 51.2337 83.44 51.7286 80.9664 51.6171C78.9211 51.5312 76.7721 51.2159 74.8421 50.4205C74.1678 50.1725 73.4899 49.8309 72.9068 49.4846C69.552 47.4464 67.6864 45.8503 67.82 41.9026C67.9537 37.9549 68.4551 34.9273 68.4551 34.9273C68.4899 34.5971 68.9003 34.1545 69.0318 33.8664C69.2562 33.5268 69.4314 33.1428 69.6559 32.8032C70.0573 32.1264 70.5044 31.4004 70.955 30.768C71.9475 29.405 73.1386 28.2666 74.581 27.4911C76.9078 26.2493 79.6023 25.9276 82.2127 25.8915C84.1104 25.844 86.0609 25.9346 87.8907 26.5943C89.4799 27.172 90.7973 28.0917 91.9359 29.3018C93.1728 30.6009 94.087 32.1506 95.1397 33.5995C95.1397 33.5995 95.8707 36.5659 96.3058 40.4852C96.7409 44.4046 95.0026 46.1332 91.8183 48.5437Z" fill="white" stroke="#D6DCE8" stroke-width="1.59045" stroke-miterlimit="10" stroke-linejoin="round"/>
<path d="M76.7925 40.982C76.2414 41.4788 75.5946 43.201 72.9468 42.3C69.1902 40.9847 69.3865 36.1866 71.3684 34.5857C74.9159 31.6864 78.7109 32.7651 79.4164 36.2977C80.1309 40.0647 77.8966 40.0351 76.7925 40.982Z" fill="#F1F3F9" stroke="#D6DCE8" stroke-width="1.59045" stroke-miterlimit="10"/>
<path d="M70.4741 28.9276C71.6619 27.5983 73.1576 28.0885 72.4562 29.6758C71.3152 32.2259 69.4526 33.3535 68.298 43.0079C68.0775 44.7124 62.5401 40.7068 62.9279 34.6659C62.9798 33.5342 64.3975 33.2285 64.3975 33.2285C65.248 33.0451 68.6017 31.0436 70.4741 28.9276Z" fill="#D6DCE8" stroke="#AAB2C5" stroke-width="1.59045" stroke-miterlimit="10"/>
<path d="M90.1717 46.8514C90.2166 48.0206 89.928 49.1595 89.3955 50.1231C88.7906 50.4343 88.1365 50.7011 87.4824 50.9679C85.4691 51.6772 83.3503 52.1106 81.2592 52.0271C79.5014 51.974 77.5908 51.6473 75.9044 50.9815C75.2019 49.9856 74.8274 48.8796 74.779 47.6169C74.632 43.782 77.9711 40.5234 82.2337 40.3114C86.449 40.1017 90.0247 43.0164 90.1717 46.8514Z" fill="#F1F3F9" stroke="#D6DCE8" stroke-width="1.59045" stroke-miterlimit="10"/>
<path d="M74.6405 40.573C76.1857 40.4961 77.391 39.1962 77.3325 37.6695C77.274 36.1428 75.9739 34.9675 74.4287 35.0444C72.8835 35.1213 71.6783 36.4212 71.7368 37.9479C71.7952 39.4746 73.0953 40.6499 74.6405 40.573Z" fill="white"/>
<path d="M77.0567 37.9694C77.1016 39.1407 76.1434 40.1742 74.9579 40.2332C73.7723 40.2922 72.7388 39.3579 72.6939 38.1865C72.8908 38.3645 73.1333 38.4933 73.4178 38.4791C73.9394 38.4531 74.3975 38.0079 74.376 37.4456C74.3562 36.9302 73.9133 36.5298 73.3898 36.5089C73.7566 36.162 74.2711 35.9487 74.7927 35.9227C76.0257 35.8613 77.01 36.7512 77.0567 37.9694Z" fill="#989FB0"/>
<path d="M90.1073 39.8972C91.6525 39.8204 92.8578 38.5204 92.7993 36.9937C92.7408 35.467 91.4407 34.2917 89.8955 34.3686C88.3503 34.4455 87.1451 35.7454 87.2036 37.2721C87.262 38.7988 88.5621 39.9741 90.1073 39.8972Z" fill="white"/>
<path d="M87.5025 37.5381C87.5474 38.7094 88.5809 39.6438 89.7664 39.5848C90.952 39.5258 91.9102 38.4923 91.8653 37.321C91.6828 37.5178 91.4511 37.6702 91.1665 37.6843C90.6449 37.7103 90.1545 37.3122 90.133 36.75C90.1132 36.2346 90.5239 35.7917 91.0437 35.7189C90.6518 35.4098 90.123 35.2483 89.6013 35.2743C88.4158 35.3333 87.4558 36.3199 87.5025 37.5381Z" fill="#989FB0"/>
<path d="M82.2272 40.7479C81.8487 40.7667 81.472 40.8322 81.0971 40.9443C80.6294 41.1077 79.9286 41.3762 79.9519 41.9827C79.9806 42.729 81.8053 43.3395 82.2784 43.316C82.7515 43.2925 84.5243 42.5501 84.4939 41.7571C84.4653 41.0107 83.7466 40.8127 83.128 40.7499C82.8423 40.7174 82.5093 40.6872 82.2272 40.7479Z" fill="#989FB0"/>
<path d="M82.4772 43.1792L82.3249 42.9512L82.1907 43.1935C82.1907 43.1935 82.1106 44.8466 81.7484 45.3828C81.9999 45.7002 82.2387 45.6883 82.3324 45.6366C82.4775 45.6765 82.7163 45.6646 82.8947 45.326C82.5901 44.8699 82.4772 43.1792 82.4772 43.1792Z" fill="#989FB0"/>
<path d="M74.0016 31.8328C73.3453 32.0531 72.7838 32.2686 72.3243 32.6667C71.8647 33.0647 71.5071 33.6453 71.3409 34.2633C71.3427 34.3101 71.2953 34.3125 71.2479 34.3148C71.2005 34.3172 71.1987 34.2704 71.1987 34.2704C71.1862 33.9427 71.314 33.5611 71.4454 33.2732C71.575 32.9384 71.8012 32.6458 72.0766 32.3976C72.3519 32.1494 72.6291 31.948 72.9554 31.791C73.2836 31.6809 73.6609 31.6152 73.9962 31.6924C74.0454 31.7368 74.0946 31.7813 74.0016 31.8328C74.049 31.8304 74.049 31.8304 74.0016 31.8328Z" fill="#989FB0"/>
<path d="M89.9745 31.1506C90.6452 31.3049 91.221 31.4638 91.7093 31.8147C92.1975 32.1656 92.5981 32.7085 92.811 33.3076C92.8128 33.3544 92.8602 33.3521 92.9076 33.3497C92.955 33.3474 92.9532 33.3006 92.9532 33.3006C92.9406 32.9729 92.7841 32.6055 92.6312 32.3317C92.4765 32.0111 92.2288 31.742 91.9354 31.5221C91.6421 31.3022 91.3506 31.1291 91.0135 31.0051C90.6782 30.928 90.2973 30.9001 89.9691 31.0102C89.9235 31.0594 89.9253 31.1062 89.9745 31.1506C89.9745 31.1506 89.9271 31.153 89.9745 31.1506Z" fill="#989FB0"/>
<path d="M93.0425 27.5051C91.7575 26.2988 90.3049 26.9356 91.1252 28.4472C92.457 30.8743 94.3987 31.8127 96.2876 41.3157C96.6378 42.9919 101.848 38.4518 100.999 32.4724C100.861 31.3502 99.4251 31.1864 99.4251 31.1864C98.5637 31.0881 95.0696 29.4272 93.0425 27.5051Z" fill="#D6DCE8" stroke="#AAB2C5" stroke-width="1.59045" stroke-miterlimit="10"/>
<path d="M87.3202 48.3714C87.6618 50.7495 85.7179 51.6652 83.1684 51.9775C80.619 52.2898 78.4838 51.8737 78.1422 49.4955C77.8006 47.1174 79.5669 44.965 82.1163 44.6528C84.6658 44.3405 86.9786 45.9932 87.3202 48.3714Z" fill="#D6DCE8" stroke="#AAB2C5" stroke-width="1.59045" stroke-miterlimit="10"/>
<path d="M34.3379 42.2277C35.2129 42.2277 35.8935 41.4416 35.8935 40.5572C35.8935 39.6728 35.2129 38.8867 34.2407 38.8867C33.3657 38.8867 32.5879 39.5746 32.5879 40.5572C32.6851 41.4416 33.4629 42.2277 34.3379 42.2277Z" fill="#EAEEF9"/>
<path d="M32.668 127.801H123.927" stroke="#D6DCE8" stroke-width="2" stroke-miterlimit="10" stroke-linejoin="round"/>
<path d="M22.2891 127.801H30.0863" stroke="#D6DCE8" stroke-width="2" stroke-miterlimit="10" stroke-linejoin="round"/>
<path d="M33.9706 40.8084L29.9219 41.6211L32.9397 56.7676L36.9884 55.9549L33.9706 40.8084Z" fill="#F1F3F9" stroke="#D6DCE8" stroke-width="2" stroke-miterlimit="10"/>
<path d="M48.8523 56.8862L46.2249 43.5121H25.018C24.0796 43.5121 23.3289 43.1354 22.7659 42.5703L21.2645 40.875C20.7015 40.3099 21.0769 39.1797 22.0152 39.1797H47.9139C48.8523 39.1797 49.7906 39.9332 49.9783 40.875L52.9811 55.9444L48.8523 56.8862Z" fill="#F1F3F9" stroke="#D6DCE8" stroke-width="2" stroke-miterlimit="10"/>
<path d="M110.597 127.525C114.639 127.525 117.916 124.236 117.916 120.178C117.916 116.121 114.639 112.832 110.597 112.832C106.554 112.832 103.277 116.121 103.277 120.178C103.277 124.236 106.554 127.525 110.597 127.525Z" fill="white" stroke="#D6DCE8" stroke-width="2" stroke-miterlimit="10"/>
<path d="M58.9872 127.525C63.0295 127.525 66.3064 124.236 66.3064 120.178C66.3064 116.121 63.0295 112.832 58.9872 112.832C54.9449 112.832 51.668 116.121 51.668 120.178C51.668 124.236 54.9449 127.525 58.9872 127.525Z" fill="white" stroke="#D6DCE8" stroke-width="2" stroke-miterlimit="10"/>
<path d="M58.3489 102.788L54.3027 103.613L57.7403 120.596L61.7866 119.771L58.3489 102.788Z" fill="#F1F3F9" stroke="#D6DCE8" stroke-width="2" stroke-miterlimit="10"/>
<path d="M110.409 122.25H46.9762C46.0378 122.25 45.0994 121.497 44.9118 120.555L40.4076 98.7042C40.22 97.574 40.9707 96.4438 42.0967 96.2554C43.2227 96.067 44.3488 96.8205 44.5364 97.9507L48.6652 118.106H110.597C111.723 118.106 112.661 119.048 112.661 120.178C112.661 121.308 111.723 122.25 110.409 122.25Z" fill="#F1F3F9" stroke="#D6DCE8" stroke-width="2" stroke-miterlimit="10"/>
<path d="M46.6005 127.525C50.6427 127.525 53.9197 124.236 53.9197 120.178C53.9197 116.121 50.6427 112.832 46.6005 112.832C42.5582 112.832 39.2812 116.121 39.2812 120.178C39.2812 124.236 42.5582 127.525 46.6005 127.525Z" fill="white" stroke="#D6DCE8" stroke-width="2" stroke-miterlimit="10"/>
<path d="M46.6009 123.756C48.5702 123.756 50.1667 122.153 50.1667 120.177C50.1667 118.2 48.5702 116.598 46.6009 116.598C44.6316 116.598 43.0352 118.2 43.0352 120.177C43.0352 122.153 44.6316 123.756 46.6009 123.756Z" fill="#F1F3F9" stroke="#D6DCE8" stroke-width="2" stroke-miterlimit="10"/>
<path d="M98.2098 127.525C102.252 127.525 105.529 124.236 105.529 120.178C105.529 116.121 102.252 112.832 98.2098 112.832C94.1675 112.832 90.8906 116.121 90.8906 120.178C90.8906 124.236 94.1675 127.525 98.2098 127.525Z" fill="white" stroke="#D6DCE8" stroke-width="2" stroke-miterlimit="10"/>
<path d="M98.2103 123.756C100.18 123.756 101.776 122.153 101.776 120.177C101.776 118.2 100.18 116.598 98.2103 116.598C96.241 116.598 94.6445 118.2 94.6445 120.177C94.6445 122.153 96.241 123.756 98.2103 123.756Z" fill="#F1F3F9" stroke="#D6DCE8" stroke-width="2" stroke-miterlimit="10"/>
<path d="M125.609 55.3789L117.915 99.6453C117.352 102.471 115.1 104.354 112.284 104.354H46.224C43.4089 104.354 41.1569 102.471 40.5938 99.6453L31.9609 55.3789H125.609Z" fill="white" stroke="#D6DCE8" stroke-width="2" stroke-miterlimit="10"/>
<path d="M71.1853 98.3254C72.1237 98.3254 73.062 97.5719 73.062 96.4417V63.4774C73.062 62.5356 72.3113 61.5938 71.1853 61.5938C70.247 61.5938 69.3086 62.3472 69.3086 63.4774V96.4417C69.3086 97.5719 70.0593 98.3254 71.1853 98.3254Z" fill="#D6DCE8"/>
<path d="M80.7555 98.326C81.6938 98.5144 82.6322 97.7609 82.8198 96.6307L86.0103 63.8548C86.1979 62.913 85.4473 61.9711 84.3212 61.7828C83.3829 61.5944 82.4445 62.3479 82.2568 63.4781L79.0664 96.254C79.0664 97.3842 79.6294 98.1377 80.7555 98.326Z" fill="#D6DCE8"/>
<path d="M90.5159 98.1401C91.4543 98.3284 92.3926 97.575 92.5803 96.6331L98.5858 64.2339C98.7735 63.2921 98.0228 62.3502 97.0844 62.1619C96.1461 61.9735 95.2077 62.727 95.0201 63.6688L89.2022 96.068C88.8269 97.0099 89.5776 97.9517 90.5159 98.1401Z" fill="#D6DCE8"/>
<path d="M61.4261 98.326C60.4878 98.5144 59.5494 97.7609 59.3617 96.6307L56.1713 63.8548C55.9836 62.913 56.7343 61.9711 57.8604 61.7828C58.7987 61.5944 59.7371 62.3479 59.9248 63.4781L63.1152 96.254C63.1152 97.3842 62.5522 98.1377 61.4261 98.326Z" fill="#D6DCE8"/>
<path d="M51.6672 98.1401C50.7288 98.3284 49.7905 97.575 49.6028 96.6331L43.5973 64.2339C43.4096 63.2921 44.1603 62.3502 45.0987 62.1619C46.037 61.9735 46.9754 62.727 47.1631 63.6688L52.9809 96.068C53.3562 97.0099 52.6056 97.9517 51.6672 98.1401Z" fill="#D6DCE8"/>
<path d="M125.61 55.3789L117.916 99.6453C117.353 102.471 115.101 104.354 112.286 104.354H94.832C98.0225 104.354 100.65 102.094 101.213 99.0802L109.283 55.3789H125.61Z" fill="#F1F3F9" stroke="#D6DCE8" stroke-width="2" stroke-miterlimit="10"/>
</svg>
