<svg width="16" height="16" viewBox="0 0 16 16" fill="none" xmlns="http://www.w3.org/2000/svg">
<path d="M2.5 13C2.5 13.5304 2.71071 14.0391 3.08579 14.4142C3.46086 14.7893 3.96957 15 4.5 15H7.375C7.40815 15 7.43995 14.9868 7.46339 14.9634C7.48683 14.9399 7.5 14.9082 7.5 14.875V9.125C7.5 9.09185 7.48683 9.06005 7.46339 9.03661C7.43995 9.01317 7.40815 9 7.375 9H2.75C2.6837 9 2.62011 9.02634 2.57322 9.07322C2.52634 9.12011 2.5 9.1837 2.5 9.25V13Z" fill="#F27024"/>
<path d="M7.5 7.87516V4.50016H8.5V7.87516C8.5 7.90831 8.51317 7.94011 8.53661 7.96355C8.56005 7.98699 8.59185 8.00016 8.625 8.00016H13C13.1703 8.00015 13.3394 7.97109 13.5 7.91422C13.7922 7.81048 14.0452 7.61889 14.2242 7.36573C14.4032 7.11257 14.4996 6.81023 14.5 6.50016V6.00016C14.5 5.60233 14.342 5.2208 14.0607 4.9395C13.7794 4.65819 13.3978 4.50016 13 4.50016H11.7331C11.7222 4.49999 11.7116 4.49697 11.7022 4.49141C11.6929 4.48586 11.6851 4.47795 11.6797 4.46848C11.6744 4.45901 11.6716 4.4483 11.6716 4.43741C11.6717 4.42652 11.6746 4.41584 11.68 4.40641C11.9693 3.91793 12.0633 3.33814 11.9431 2.78329C11.8228 2.22844 11.4973 1.73955 11.0317 1.41465C10.5662 1.08975 9.99498 0.952855 9.43272 1.03142C8.87045 1.10999 8.35868 1.39821 8 1.83828C7.64132 1.39821 7.12955 1.10999 6.56728 1.03142C6.00502 0.952855 5.43383 1.08975 4.96827 1.41465C4.5027 1.73955 4.17716 2.22844 4.05693 2.78329C3.93671 3.33814 4.03068 3.91793 4.32 4.40641C4.32545 4.41584 4.32833 4.42652 4.32838 4.43741C4.32842 4.4483 4.32562 4.45901 4.32025 4.46848C4.31489 4.47795 4.30714 4.48586 4.29778 4.49141C4.28841 4.49697 4.27776 4.49999 4.26687 4.50016H3C2.60218 4.50016 2.22064 4.65819 1.93934 4.9395C1.65804 5.2208 1.5 5.60233 1.5 6.00016V6.50016C1.50044 6.81023 1.59678 7.11257 1.77581 7.36573C1.95484 7.61889 2.2078 7.81048 2.5 7.91422C2.66057 7.97109 2.82966 8.00015 3 8.00016H7.375C7.40815 8.00016 7.43995 7.98699 7.46339 7.96355C7.48683 7.94011 7.5 7.90831 7.5 7.87516ZM8.5 3.25016C8.5 3.00293 8.57331 2.76126 8.71066 2.5557C8.84801 2.35013 9.04324 2.18992 9.27165 2.09531C9.50005 2.0007 9.75139 1.97595 9.99386 2.02418C10.2363 2.07241 10.4591 2.19146 10.6339 2.36628C10.8087 2.54109 10.9278 2.76382 10.976 3.0063C11.0242 3.24877 10.9995 3.50011 10.9048 3.72851C10.8102 3.95692 10.65 4.15214 10.4445 4.2895C10.2389 4.42685 9.99723 4.50016 9.75 4.50016H8.5V3.25016ZM6.16062 2.00328C6.33187 1.99101 6.50382 2.01414 6.66573 2.07124C6.82765 2.12834 6.97606 2.21819 7.10173 2.33517C7.22739 2.45216 7.32761 2.59378 7.39613 2.7512C7.46465 2.90862 7.50001 3.07847 7.5 3.25016V4.50016H6.25C5.92678 4.49933 5.61644 4.37333 5.38413 4.1486C5.15181 3.92388 5.01557 3.6179 5.00401 3.29488C4.99244 2.97187 5.10645 2.65693 5.32211 2.41617C5.53776 2.1754 5.83829 2.02754 6.16062 2.0036V2.00328Z" fill="#F27024"/>
<path d="M8.625 15H11.5C12.0304 15 12.5391 14.7893 12.9142 14.4142C13.2893 14.0391 13.5 13.5304 13.5 13V9.25C13.5 9.1837 13.4737 9.12011 13.4268 9.07322C13.3799 9.02634 13.3163 9 13.25 9H8.625C8.59185 9 8.56005 9.01317 8.53661 9.03661C8.51317 9.06005 8.5 9.09185 8.5 9.125V14.875C8.5 14.9082 8.51317 14.9399 8.53661 14.9634C8.56005 14.9868 8.59185 15 8.625 15Z" fill="#F27024"/>
</svg>
