<svg width="32" height="32" viewBox="0 0 32 32" fill="none" xmlns="http://www.w3.org/2000/svg">
<path d="M25.4375 27.1225C25.1758 27.86 24.6923 28.4984 24.0534 28.9502C23.4145 29.402 22.6514 29.6451 21.8689 29.646H6.09256C5.08865 29.646 4.12586 29.2472 3.41599 28.5373C2.70611 27.8275 2.30731 26.8647 2.30731 25.8607V10.0844C2.30826 9.30189 2.5513 8.53882 3.00311 7.89989C3.45491 7.26097 4.09334 6.77748 4.83081 6.51577V22.9167C4.83081 24.0321 5.27392 25.1019 6.06267 25.8906C6.85142 26.6794 7.92119 27.1225 9.03664 27.1225H25.4375Z" fill="#F27024"/>
<path fill-rule="evenodd" clip-rule="evenodd" d="M25.1927 2.354H11.1927C9.99921 2.354 8.85462 2.82811 8.01071 3.67202C7.16679 4.51594 6.69269 5.66053 6.69269 6.854V20.854C6.69269 22.0475 7.16679 23.1921 8.01071 24.036C8.85462 24.8799 9.99921 25.354 11.1927 25.354H25.1927C26.3862 25.354 27.5308 24.8799 28.3747 24.036C29.2186 23.1921 29.6927 22.0475 29.6927 20.854V6.854C29.6927 5.66053 29.2186 4.51594 28.3747 3.67202C27.5308 2.82811 26.3862 2.354 25.1927 2.354Z" fill="#F27024"/>
</svg>
