<svg width="32" height="32" viewBox="0 0 32 32" fill="none" xmlns="http://www.w3.org/2000/svg">
<path d="M14.6667 21.333V25.333C14.6667 27.5329 12.8666 29.333 10.6667 29.333H6.66669C4.46682 29.333 2.66669 27.5329 2.66669 25.333V21.333C2.66669 19.1331 4.46682 17.333 6.66669 17.333H10.6667C12.8666 17.333 14.6667 19.1331 14.6667 21.333Z" fill="#F27024"/>
<path d="M14.6667 6.6665V10.6665C14.6667 12.8664 12.8666 14.6665 10.6667 14.6665H6.66669C4.46682 14.6665 2.66669 12.8664 2.66669 10.6665V6.6665C2.66669 4.46663 4.46682 2.6665 6.66669 2.6665H10.6667C12.8666 2.6665 14.6667 4.46663 14.6667 6.6665Z" fill="#F27024"/>
<path d="M29.3334 21.333V25.333C29.3334 27.5329 27.5332 29.333 25.3334 29.333H21.3334C19.1335 29.333 17.3334 27.5329 17.3334 25.333V21.333C17.3334 19.1331 19.1335 17.333 21.3334 17.333H25.3334C27.5332 17.333 29.3334 19.1331 29.3334 21.333Z" fill="#F27024"/>
<path d="M29.3334 6.6665V10.6665C29.3334 12.8664 27.5332 14.6665 25.3334 14.6665H21.3334C19.1335 14.6665 17.3334 12.8664 17.3334 10.6665V6.6665C17.3334 4.46663 19.1335 2.6665 21.3334 2.6665H25.3334C27.5332 2.6665 29.3334 4.46663 29.3334 6.6665Z" fill="#F27024"/>
</svg>
