<svg width="20" height="20" viewBox="0 0 20 20" fill="none" xmlns="http://www.w3.org/2000/svg">
<path d="M18.275 5.6333L15.4666 16.9083C15.2666 17.75 14.5166 18.3333 13.65 18.3333H2.69997C1.44163 18.3333 0.541645 17.0999 0.916645 15.8916L4.42497 4.625C4.66664 3.84167 5.39165 3.29993 6.20832 3.29993H16.4583C17.25 3.29993 17.9083 3.78326 18.1833 4.44993C18.3416 4.80826 18.375 5.21663 18.275 5.6333Z" stroke="#F27024" stroke-width="1.5" stroke-miterlimit="10"/>
<path d="M13.3333 18.3333H17.3166C18.3916 18.3333 19.2333 17.425 19.1583 16.35L18.3333 5" stroke="#F27024" stroke-width="1.5" stroke-miterlimit="10" stroke-linecap="round" stroke-linejoin="round"/>
<path d="M8.06665 5.31663L8.93332 1.71667" stroke="#F27024" stroke-width="1.5" stroke-miterlimit="10" stroke-linecap="round" stroke-linejoin="round"/>
<path d="M13.65 5.32501L14.4334 1.70837" stroke="#F27024" stroke-width="1.5" stroke-miterlimit="10" stroke-linecap="round" stroke-linejoin="round"/>
<path d="M6.41669 10H13.0834" stroke="#F27024" stroke-width="1.5" stroke-miterlimit="10" stroke-linecap="round" stroke-linejoin="round"/>
<path d="M5.58337 13.3334H12.25" stroke="#F27024" stroke-width="1.5" stroke-miterlimit="10" stroke-linecap="round" stroke-linejoin="round"/>
</svg>
