<svg width="46" height="46" viewBox="0 0 46 46" fill="none" xmlns="http://www.w3.org/2000/svg">
<path d="M43.0792 5.11119H2.92068C1.30776 5.11119 0 6.41887 0 8.03179V37.9684C0 39.5812 1.30776 40.8889 2.92068 40.8889H43.0792C44.6922 40.8889 46 39.5812 46 37.9683V8.03179C46 6.41887 44.6923 5.11119 43.0792 5.11119ZM43.0792 8.03179V29.2728L37.3234 24.0398C36.4583 23.2534 35.1279 23.2848 34.3013 24.1121L28.476 29.9365L16.9901 16.2168C16.1219 15.18 14.5316 15.1698 13.6503 16.1942L2.92068 28.6639V8.03179H43.0792ZM30.6667 15.6985C30.6667 13.4802 32.4642 11.6826 34.6824 11.6826C36.9007 11.6826 38.6983 13.4802 38.6983 15.6985C38.6983 17.9167 36.9008 19.7143 34.6824 19.7143C32.4643 19.7144 30.6667 17.9167 30.6667 15.6985Z" fill="#CFD1D3"/>
</svg>
