<svg width="25" height="24" viewBox="0 0 25 24" fill="none" xmlns="http://www.w3.org/2000/svg">
<g clip-path="url(#clip0_27096_207126)">
<path d="M21.6073 5.25H7.15625C5.5625 5.25 4.25 6.53953 4.25 8.12484V19.6252C4.25 21.2105 5.5625 22.5 7.15625 22.5H21.5938C23.1875 22.5 24.5 21.2728 24.5 19.6875V8.12484C24.5 6.53953 23.2025 5.25 21.6073 5.25ZM17.9909 8.12531C18.4168 8.1279 18.8324 8.25657 19.1853 8.49507C19.5382 8.73357 19.8125 9.07123 19.9737 9.46546C20.1349 9.85968 20.1757 10.2928 20.091 10.7102C20.0063 11.1276 19.8 11.5106 19.4979 11.8108C19.1958 12.1111 18.8116 12.3151 18.3937 12.3973C17.9758 12.4794 17.5429 12.436 17.1496 12.2724C16.7564 12.1088 16.4204 11.8324 16.1841 11.4781C15.9477 11.1238 15.8216 10.7075 15.8216 10.2816C15.8238 9.70806 16.0535 9.15887 16.4602 8.75453C16.8669 8.35018 17.4174 8.12372 17.9909 8.12484V8.12531ZM7.13703 21.0628C6.34016 21.0628 5.73734 20.4183 5.73734 19.6256V16.5867L9.97766 12.7997C10.3922 12.435 10.9296 12.2411 11.4814 12.2571C12.0333 12.273 12.5586 12.4975 12.9514 12.8855L15.8877 15.7969L10.5908 21.0623L7.13703 21.0628ZM23 19.6252C22.9999 19.8141 22.9626 20.0011 22.8903 20.1756C22.8179 20.3501 22.7118 20.5086 22.5781 20.6421C22.4444 20.7756 22.2857 20.8814 22.1111 20.9535C21.9365 21.0256 21.7494 21.0626 21.5605 21.0623H12.6406L18.1287 15.6094C18.5182 15.2808 19.011 15.1 19.5205 15.0986C20.03 15.0973 20.5238 15.2754 20.915 15.6019L23 17.3714V19.6252Z" fill="#EB2227"/>
<path d="M18.5 1.5H3.5C2.70435 1.5 1.94129 1.81607 1.37868 2.37868C0.816071 2.94129 0.5 3.70435 0.5 4.5L0.5 16.5C0.500549 17.1651 0.721737 17.8113 1.12891 18.3372C1.53608 18.8631 2.10622 19.2391 2.75 19.4062V7.125C2.75 6.22989 3.10558 5.37145 3.73851 4.73851C4.37145 4.10558 5.22989 3.75 6.125 3.75H21.4062C21.2391 3.10622 20.8631 2.53608 20.3372 2.12891C19.8113 1.72174 19.1651 1.50055 18.5 1.5Z" fill="#EB2227"/>
</g>
<defs>
<clipPath id="clip0_27096_207126">
<rect width="24" height="24" fill="white" transform="translate(0.5)"/>
</clipPath>
</defs>
</svg>
