<svg width="24" height="24" viewBox="0 0 24 24" fill="none" xmlns="http://www.w3.org/2000/svg">
<g clip-path="url(#clip0_24220_15370)">
<path d="M11.9998 8.70926C12.6384 8.70926 13.1579 8.19043 13.1579 7.55251C13.1579 6.91256 12.6385 6.39177 11.9998 6.39177C11.3611 6.39177 10.8417 6.91256 10.8417 7.55251C10.8417 8.19043 11.3612 8.70926 11.9998 8.70926Z" fill="#8C8C8C" stroke="#8C8C8C" stroke-width="0.1"/>
<path d="M13.9667 15.9206H12.8384V11.5537C12.8384 11.0907 12.4631 10.7153 12 10.7153H10.0334C9.57039 10.7153 9.195 11.0907 9.195 11.5537C9.195 12.0167 9.57039 12.3921 10.0334 12.3921H11.1617V16.759C11.1617 17.222 11.537 17.5974 12.0001 17.5974H13.9669C14.43 17.5974 14.8053 17.222 14.8053 16.759V16.759C14.8052 16.296 14.4299 15.9206 13.9667 15.9206Z" fill="#8C8C8C" stroke="#8C8C8C" stroke-width="0.1"/>
<path d="M12.0003 0.95C5.90701 0.95 0.95 5.90701 0.95 12.0001C0.95 18.0931 5.90701 23.0503 12.0003 23.0503C18.0935 23.0503 23.0505 18.0932 23.0505 12.0001C23.0505 5.90691 18.0933 0.95 12.0003 0.95ZM12.0003 21.3734C6.83172 21.3734 2.62686 17.1685 2.62686 12.0001C2.62686 6.83162 6.83172 2.62676 12.0003 2.62676C17.1688 2.62676 21.3736 6.83162 21.3736 12.0001C21.3736 17.1685 17.1687 21.3734 12.0003 21.3734Z" fill="#8C8C8C" stroke="#8C8C8C" stroke-width="0.1"/>
</g>
<defs>
<clipPath id="clip0_24220_15370">
<rect width="24" height="24" fill="white"/>
</clipPath>
</defs>
</svg>
