<svg width="167" height="53" viewBox="0 0 167 53" fill="none" xmlns="http://www.w3.org/2000/svg">
<circle cx="94.5" cy="19.5" r="16.5" fill="white"/>
<path d="M164.693 0C166.038 0.445101 166.39 1.59299 166.644 2.78774C166.799 3.51864 166.841 4.2636 166.841 5.01325C166.841 15.0538 166.841 25.0897 166.836 35.1302C166.836 36.1797 166.719 37.2245 166.334 38.2178C166.211 38.5317 166.061 38.8316 165.854 39.0986C165.403 39.6843 164.839 39.9607 164.068 39.8155C161.192 39.2814 158.307 38.7941 155.417 38.3396C153.941 38.1054 152.461 37.8805 150.98 37.6649C150.731 37.6274 150.623 37.5759 150.623 37.2761C150.633 25.7222 150.633 14.1683 150.623 2.61438C150.623 2.35201 150.698 2.27704 150.952 2.23956C153.372 1.86943 155.797 1.4946 158.213 1.10104C160.126 0.787126 162.038 0.445101 163.946 0.107761C164.045 0.0890202 164.167 0.107761 164.242 0.00468528H164.698L164.693 0ZM160.182 20.0014V10.7855C160.182 10.7199 160.182 10.6543 160.182 10.5887C160.196 10.4435 160.135 10.406 159.989 10.4201C159.233 10.4903 158.476 10.5512 157.719 10.6075C157.527 10.6215 157.447 10.6777 157.452 10.898C157.461 16.942 157.461 22.9907 157.452 29.0347C157.452 29.2923 157.546 29.3298 157.766 29.3439C158.457 29.3861 159.153 29.4423 159.844 29.5219C160.116 29.5547 160.191 29.4985 160.191 29.2127C160.182 26.1392 160.187 23.0703 160.187 19.9968L160.182 20.0014Z" fill="white"/>
<path d="M2.60821 0C3.09225 0.196782 3.6139 0.229578 4.12144 0.318599C7.40637 0.904258 10.7007 1.44306 14.0044 1.94907C14.1736 1.9725 14.2112 2.04278 14.2112 2.20208C14.2112 5.0601 14.2065 7.91343 14.2112 10.7714C14.2112 10.9682 14.1454 11.001 13.9668 10.987C12.3784 10.8605 10.7853 10.7433 9.19687 10.6168C8.38386 10.5512 7.57555 10.4856 6.76254 10.4107C6.63566 10.4013 6.58866 10.4294 6.58866 10.5653C6.58866 11.0619 6.58866 11.5586 6.58866 12.0599C6.58866 12.2426 6.73435 12.3457 6.82834 12.4675C8.59534 14.7399 10.4234 16.9701 12.3455 19.1159C13.5063 20.4091 14.0749 21.9224 14.1454 23.6278C14.2864 27.0106 14.1877 30.3981 14.1971 33.7855C14.1971 34.5773 14.0467 35.3551 13.7601 36.1C13.7366 36.161 13.7131 36.2219 13.6896 36.2828C13.1726 37.5619 12.2844 38.2787 10.8511 38.4614C7.31238 38.9112 3.78778 39.45 0.253772 39.9513C0.169181 39.9654 0.0845905 39.9888 0 40.0029V30.1357C0.766014 30.0701 1.53673 30.0045 2.30274 29.9342C3.96636 29.789 5.62997 29.6344 7.29828 29.4938C7.47686 29.4798 7.50506 29.4095 7.50506 29.2549C7.50036 28.5942 7.49096 27.9336 7.50506 27.273C7.50976 27.0481 7.43927 26.8888 7.29358 26.7248C5.45139 24.6633 3.70319 22.5268 1.97378 20.3716C0.831807 18.9426 0.249072 17.3261 0.117487 15.5223C0.0939895 15.2365 0.136285 14.9413 0 14.6743V3.83256C0.150383 3.49522 0.108088 3.12039 0.192678 2.769C0.474647 1.58362 0.789512 0.42636 2.15236 0H2.60821Z" fill="white"/>
<path d="M79.8207 7.0138C76.8647 10.851 75.3327 15.1568 75.2998 19.9545C75.2669 24.7523 76.7378 29.0814 79.6515 32.9749C79.4823 32.9749 79.3695 32.9749 79.252 32.9749C75.7227 32.9843 72.1934 32.989 68.6641 33.0077C68.4526 33.0077 68.3962 32.9515 68.3587 32.75C67.7994 29.5359 67.2308 26.3265 66.6621 23.1124C66.6245 22.8875 66.6151 22.6626 66.2674 22.7188C66.1029 22.747 66.0559 22.7938 66.0277 22.9484C65.4638 26.2281 64.8904 29.5031 64.3312 32.7828C64.2842 33.0733 64.1949 33.1764 63.8707 33.1904C61.3329 33.2701 58.7905 33.3919 56.2575 33.5559C56.0037 33.5746 55.9473 33.4903 55.9285 33.2654C55.5855 29.8545 55.2377 26.4483 54.8947 23.0374C54.5563 19.6828 54.2461 16.3234 53.8843 12.9688C53.6493 10.7948 53.4754 8.62085 53.5318 6.43283C53.5365 6.15171 53.6117 6.10017 53.8796 6.11892C56.0789 6.25479 58.2783 6.37661 60.4823 6.48437C60.7361 6.49842 60.7784 6.57339 60.7784 6.80297C60.7737 10.8838 60.7737 14.96 60.7737 19.0409C60.7737 19.411 60.8959 19.5001 61.2577 19.4157C61.3752 19.3876 61.3799 19.3127 61.394 19.2283C61.6337 17.5369 61.8734 15.8455 62.1177 14.1588C62.4561 11.8068 62.7945 9.45483 63.1422 7.10282C63.2127 6.61555 63.2221 6.61555 63.7297 6.62961C65.5625 6.69052 67.4 6.7608 69.2328 6.81702C69.416 6.82171 69.4865 6.85919 69.5147 7.05597C69.7591 8.7661 70.0176 10.4762 70.2713 12.1863C70.6191 14.5384 70.9669 16.8904 71.3146 19.2424C71.3663 19.5797 71.6201 19.3782 71.7752 19.4204C71.9725 19.472 71.9678 19.3267 71.9678 19.1862C71.9678 17.8462 71.9678 16.5015 71.9678 15.1615C71.9678 12.5003 71.9678 9.83902 71.9678 7.17779C71.9678 6.99506 71.9678 6.8873 72.2169 6.89199C74.6935 6.93884 77.1702 6.96695 79.6468 7.00443C79.6985 7.00443 79.7455 7.0138 79.8348 7.02317L79.8207 7.0138Z" fill="white"/>
<path d="M15.7572 2.2395C17.9189 2.53467 20.0431 2.82985 22.1719 3.11565C22.3505 3.13907 22.4257 3.1953 22.4022 3.37802C22.3881 3.47173 22.4022 3.57481 22.4022 3.66851C22.4022 11.7506 22.4022 19.8327 22.4022 27.9148C22.4022 28.2022 22.5401 28.3365 22.8158 28.3177C23.4549 28.2756 24.094 28.2194 24.7332 28.2053C25.0151 28.1959 25.0856 28.121 25.0856 27.8352C25.0762 24.4149 25.0762 20.9993 25.0762 17.5791C25.0762 13.0016 25.0762 8.42875 25.0668 3.85124C25.0668 3.53264 25.1467 3.49984 25.4475 3.54201C27.3743 3.78564 29.3011 4.00585 31.2325 4.22606C31.8623 4.29634 31.8623 4.28228 31.8623 4.90074C31.8623 15.0162 31.8623 25.1318 31.8717 35.2473C31.8717 35.5565 31.7824 35.6315 31.4816 35.6643C29.5172 35.8798 27.5575 36.1047 25.5979 36.3483C23.3938 36.6247 21.1898 36.9246 18.9857 37.2151C18.6755 37.2573 18.3607 37.3228 18.0505 37.3135C17.3926 37.2947 16.9085 36.948 16.542 36.4233C16.0109 35.6596 15.8371 34.7834 15.7666 33.8839C15.7431 33.6027 15.7525 33.3216 15.7525 33.0405C15.7525 22.9016 15.7525 12.7673 15.7525 2.62838V2.24887L15.7572 2.2395Z" fill="white"/>
<path d="M33.4885 19.95C33.4885 14.9087 33.4885 9.8673 33.4791 4.82594C33.4791 4.5214 33.5543 4.46049 33.855 4.49329C35.7536 4.69476 37.6569 4.87748 39.5555 5.06489C39.9549 5.10238 40.3544 5.16328 40.7538 5.17266C40.9935 5.17266 41.0546 5.28042 41.1063 5.48657C41.7172 8.02599 42.3329 10.5654 42.9532 13.1001C43.4044 14.9461 43.8743 16.7875 44.3114 18.6335C44.3959 18.9895 44.6356 18.8865 44.833 18.8771C45.0821 18.8724 44.9552 18.6616 44.9458 18.5585C44.7249 16.2346 44.5181 13.906 44.255 11.5868C44.0341 9.62367 44.0153 7.66054 44.0247 5.69272C44.0247 5.46783 44.1093 5.45846 44.2926 5.47251C46.2522 5.62713 48.2119 5.77237 50.1669 5.91761C50.1904 5.91761 50.2092 5.91761 50.2327 5.91761C50.5523 5.93948 50.712 6.10971 50.712 6.42831C50.712 15.4709 50.712 24.5182 50.7167 33.5607C50.7167 33.8606 50.6556 33.9496 50.3361 33.9684C48.1696 34.1136 46.0079 34.2823 43.8414 34.4603C43.0378 34.5259 43.0331 34.5446 42.8357 33.7669C41.8018 29.6532 40.7679 25.5396 39.7341 21.4306C39.6965 21.2853 39.7341 21.0885 39.4521 21.0839C39.1513 21.0839 39.0808 21.1588 39.109 21.4634C39.3111 23.5296 39.4944 25.5958 39.6824 27.662C39.7811 28.7162 39.9173 29.7704 39.969 30.8245C40.0207 31.9256 39.9972 33.0313 40.0019 34.1323C40.0019 34.7695 40.0019 34.7789 39.3863 34.8398C37.5206 35.0272 35.6502 35.2006 33.7845 35.3927C33.5167 35.4208 33.4697 35.3505 33.4697 35.1022C33.4744 30.0515 33.4744 24.9961 33.4744 19.9453L33.4885 19.95Z" fill="white"/>
<path d="M112.657 6.03452C113.235 5.99235 113.77 5.95019 114.306 5.9127C117.934 5.67844 121.562 5.43012 125.19 5.13963C126.779 5.01313 128.372 4.85852 129.96 4.76481C131.074 4.69922 131.896 5.21928 132.427 6.18914C132.78 6.83102 132.902 7.52912 132.902 8.25066C132.902 12.3175 132.907 16.389 132.902 20.4558C132.902 21.5709 132.498 22.5454 131.704 23.3419C131.525 23.52 131.328 23.6793 131.088 23.7589C130.858 23.8339 130.872 23.951 130.933 24.1384C131.699 26.5185 132.46 28.9034 133.226 31.2882C133.269 31.424 133.297 31.5599 133.297 31.7005C133.297 32.8249 133.292 33.9494 133.297 35.0786C133.297 35.3034 133.259 35.3597 133.015 35.3362C130.651 35.1113 128.282 34.9005 125.914 34.6944C125.693 34.6756 125.632 34.5866 125.59 34.3945C124.936 31.5084 124.274 28.6269 123.62 25.7408C123.559 25.4784 123.465 25.3566 123.179 25.38C122.854 25.4035 122.526 25.3894 122.201 25.366C121.985 25.3472 121.929 25.4128 121.929 25.6283C121.938 27.4228 121.933 29.222 121.933 31.0164C121.933 32.0565 121.933 33.092 121.933 34.1321C121.933 34.3055 121.91 34.3711 121.708 34.357C118.804 34.1696 115.899 33.9916 112.957 33.8135C116.308 29.7467 118.033 25.113 117.976 19.8655C117.92 14.6273 116.097 10.0404 112.647 6.02984L112.657 6.03452ZM125.087 15.3395C125.087 14.5055 125.082 13.6762 125.087 12.8422C125.087 12.6501 125.049 12.5799 124.838 12.5892C123.959 12.6314 123.08 12.6642 122.201 12.6876C121.999 12.6923 121.933 12.7579 121.933 12.9687C121.943 14.5992 121.943 16.2344 121.933 17.8648C121.933 18.0897 122.009 18.1272 122.211 18.1225C123.08 18.1085 123.949 18.0991 124.814 18.1085C125.03 18.1085 125.087 18.0429 125.082 17.832C125.073 16.9981 125.077 16.1688 125.077 15.3348L125.087 15.3395Z" fill="white"/>
<path d="M134.94 19.9406C134.94 14.8664 134.94 9.79229 134.935 4.71813C134.935 4.40891 134.978 4.2824 135.33 4.24492C137.454 4.01534 139.579 3.76234 141.698 3.49996C141.98 3.46717 142.027 3.53276 142.027 3.79982C142.018 11.7929 142.027 19.7907 142.013 27.7837C142.013 28.1164 142.102 28.2148 142.431 28.2335C144.522 28.3554 146.614 28.5053 148.705 28.6318C148.973 28.6458 149.067 28.7021 149.067 29.0019C149.053 31.6866 149.053 34.3666 149.067 37.0512C149.067 37.3464 148.982 37.3745 148.728 37.337C146.365 37.0137 144.001 36.6858 141.632 36.3859C139.532 36.1189 137.431 35.8846 135.33 35.6503C135.029 35.6175 134.94 35.5332 134.94 35.2287C134.95 30.1311 134.95 25.0382 134.95 19.9406H134.94Z" fill="white"/>
<path d="M96.6444 40.017C85.5772 40.017 76.6294 31.1103 76.6341 20.0952C76.6341 9.08016 85.5913 0.178137 96.6585 0.187507C107.721 0.196878 116.664 9.11296 116.66 20.1234C116.655 31.115 107.702 40.0124 96.6492 40.0124L96.6444 40.017ZM83.2838 20.4841C83.2838 20.4841 83.2979 20.5029 83.3073 20.5122L83.3308 20.6294C83.3402 21.2994 83.4201 21.96 83.5517 22.6159C84.0499 25.1272 85.1918 27.3153 86.9447 29.1753C88.1995 30.5106 89.6798 31.532 91.3622 32.2582C92.7063 32.8345 94.1067 33.2046 95.5636 33.2937C96.8371 33.3686 98.1154 33.3358 99.3795 33.0594C102.575 32.3613 105.197 30.7402 107.199 28.1727C108.614 26.3595 109.502 24.3073 109.836 22.0209C110.024 20.7418 110.038 19.4627 109.859 18.1883C109.629 16.5625 109.107 15.0258 108.294 13.5874C107.481 12.149 106.448 10.8934 105.174 9.84386C103.454 8.43359 101.504 7.48248 99.3138 7.04675C98.6699 6.92025 98.0214 6.78438 97.3541 6.83591L97.1097 6.79375C97.011 6.72815 96.917 6.65319 96.8136 6.59696C93.3548 4.69474 89.8725 4.66663 86.4936 6.70004C81.5732 9.66114 80.3608 15.9628 83.2792 20.4888L83.2838 20.4841Z" fill="#F9B319"/>
<path d="M97.3592 6.83591C98.0266 6.78438 98.6751 6.92025 99.3189 7.04675C101.509 7.48248 103.459 8.42891 105.179 9.84386C106.453 10.8934 107.487 12.1443 108.3 13.5874C109.108 15.0258 109.634 16.5625 109.865 18.1883C110.043 19.4627 110.029 20.7371 109.841 22.0209C109.507 24.3073 108.619 26.3641 107.205 28.1727C105.203 30.7402 102.58 32.3613 99.3847 33.0594C98.1205 33.3358 96.8423 33.3686 95.5687 33.2937C94.1119 33.2093 92.7067 32.8345 91.3674 32.2582C89.6803 31.5367 88.2 30.5106 86.9499 29.1753C85.197 27.3106 84.055 25.1272 83.5569 22.6159C83.4253 21.96 83.3501 21.2994 83.336 20.6294C83.4065 20.7137 83.4817 20.7887 83.5381 20.8777C84.0503 21.618 84.6519 22.288 85.3568 22.8502C87.6971 24.7009 90.3429 25.4646 93.3177 25.0007C95.846 24.6072 97.9326 23.4077 99.5257 21.4305C101.401 19.102 102.096 16.4267 101.598 13.4796C101.156 10.8746 99.8312 8.78499 97.7258 7.18262C97.5942 7.08423 97.4062 7.02801 97.3592 6.83591Z" fill="#F27024"/>
<path d="M97.3595 6.83591C97.4065 7.02801 97.5945 7.08423 97.726 7.18262C99.8314 8.78499 101.157 10.8746 101.598 13.4796C102.097 16.4267 101.401 19.102 99.5259 21.4305C97.9328 23.4077 95.8463 24.6072 93.3179 25.0007C90.3432 25.4646 87.6974 24.7056 85.357 22.8502C84.6521 22.2926 84.0553 21.6226 83.5383 20.8777C83.4772 20.7887 83.402 20.7137 83.3362 20.6294C83.3269 20.5919 83.3221 20.5497 83.3128 20.5122C83.3409 20.4888 83.3785 20.4654 83.3316 20.4279C83.2658 19.6033 83.3315 18.7834 83.4819 17.9775C84.4312 12.8659 87.3684 9.39407 92.2324 7.5387C93.802 6.93899 95.4468 6.75626 97.1198 6.78906L97.3642 6.83123L97.3595 6.83591Z" fill="#EB2228"/>
<path d="M83.2895 20.4845C83.2895 20.4845 83.318 20.4467 83.3275 20.4277C83.375 20.4703 83.337 20.4893 83.3085 20.5177C83.299 20.5082 83.2943 20.4987 83.2848 20.4893L83.2895 20.4845Z" fill="#F27024"/>
<path d="M28.5726 45.6409V52.2053H26.5389V45.6409H24.1615V43.9563H30.9501V45.6409H28.5726Z" fill="white"/>
<path d="M37.1946 52.2053V48.7488H33.9006V52.2053H31.8668V43.9563H33.9006V47.0641H37.1946V43.9563H39.2283V52.2053H37.1946Z" fill="white"/>
<path d="M40.9465 52.2053V43.9563H46.6181V45.6409H42.923V47.1803H46.4175V48.7779H42.923V50.4916H46.8472V52.2053H40.9465Z" fill="white"/>
<path d="M59.9379 52.2053H57.933L56.2431 46.6285H56.2148L54.5532 52.2053H52.5193L50.1418 43.9563H52.3188L53.665 49.4459H53.6933L55.1832 43.9563H57.303L58.8213 49.4459H58.8496L60.2245 43.9563H62.3444L59.9379 52.2053Z" fill="white"/>
<path d="M69.6476 48.0517C69.6476 47.7032 69.5909 47.3546 69.4759 47.0351C69.3617 46.7157 69.1892 46.4542 68.9892 46.2509C68.7884 46.0185 68.5309 45.8443 68.2159 45.728C67.9293 45.6119 67.5852 45.5247 67.2419 45.5247C66.8977 45.5247 66.5544 45.5828 66.2678 45.728C65.9811 45.8443 65.7236 46.0185 65.4945 46.2509C65.2653 46.4832 65.122 46.7447 65.0078 47.0351C64.8928 47.3546 64.8354 47.6741 64.8354 48.0517C64.8354 48.4293 64.8928 48.7779 65.0078 49.0973C65.122 49.4169 65.2937 49.6782 65.4945 49.9107C65.6953 50.143 65.9528 50.3173 66.2394 50.4335C66.526 50.5496 66.8694 50.6368 67.2135 50.6368C67.5568 50.6368 67.901 50.5787 68.1868 50.4335C68.4734 50.3173 68.7309 50.114 68.9601 49.9107C69.1609 49.6782 69.3326 49.4169 69.4475 49.0973C69.5909 48.7489 69.6476 48.4003 69.6476 48.0517ZM71.8249 48.0517C71.8249 48.6907 71.7099 49.3007 71.4808 49.8525C71.2516 50.4044 70.9366 50.8692 70.5358 51.2468C70.135 51.6244 69.6476 51.9148 69.0751 52.1472C68.5018 52.3505 67.901 52.4667 67.2419 52.4667C66.5827 52.4667 65.9811 52.3505 65.4086 52.1472C64.8354 51.9439 64.3771 51.6534 63.9479 51.2468C63.5471 50.8692 63.2313 50.4044 63.0021 49.8525C62.773 49.3007 62.6588 48.7197 62.6588 48.0517C62.6588 47.3837 62.773 46.8028 63.0021 46.2509C63.2313 45.728 63.5471 45.2634 63.9479 44.8858C64.3487 44.5082 64.8354 44.2177 65.4086 44.0144C65.9811 43.8111 66.5827 43.7239 67.2419 43.7239C67.901 43.7239 68.5018 43.8111 69.0751 44.0144C69.6476 44.2177 70.135 44.5082 70.5358 44.8858C70.9366 45.2634 71.2516 45.699 71.4808 46.2509C71.7099 46.7737 71.8249 47.3837 71.8249 48.0517Z" fill="white"/>
<path d="M77.6105 46.4832C77.6105 46.2799 77.5814 46.1347 77.4956 46.0185C77.4097 45.9023 77.2948 45.8152 77.1806 45.728C77.0373 45.67 76.8939 45.6119 76.7506 45.5828C76.579 45.5538 76.4356 45.5538 76.2923 45.5538H75.204V47.4708H76.1781C76.3498 47.4708 76.5215 47.4708 76.6939 47.4417C76.8656 47.4127 77.0373 47.3546 77.1806 47.2966C77.3239 47.2384 77.4381 47.1223 77.5247 47.0061C77.553 46.8608 77.6105 46.6865 77.6105 46.4832ZM77.6964 52.2052L75.8632 48.9231H75.1757V52.2052H73.1992V43.9563H76.4073C76.8081 43.9563 77.2089 43.9853 77.5814 44.0724C77.9539 44.1596 78.298 44.3049 78.613 44.4791C78.928 44.6825 79.1571 44.9438 79.3571 45.2634C79.5296 45.5829 79.6438 45.9895 79.6438 46.4542C79.6438 47.0061 79.5004 47.4708 79.1855 47.8775C78.8705 48.2841 78.4405 48.5164 77.8964 48.6907L80.1021 52.2343H77.6964V52.2052Z" fill="white"/>
<path d="M81.0771 52.2053V43.9563H83.1111V50.4625H86.3759V52.2053H81.0771Z" fill="white"/>
<path d="M93.0787 48.0517C93.0787 47.587 92.9928 47.2094 92.8495 46.8899C92.7062 46.5704 92.477 46.3381 92.2195 46.1638C91.9612 45.9895 91.6754 45.8443 91.3313 45.7862C91.0163 45.699 90.6729 45.67 90.3288 45.67H89.3264V50.4916H90.3005C90.6729 50.4916 91.0163 50.4625 91.3604 50.3754C91.7037 50.2883 91.9904 50.172 92.2479 49.9687C92.5062 49.7945 92.7062 49.5331 92.8778 49.2136C92.9928 48.894 93.0787 48.5164 93.0787 48.0517ZM95.1694 48.0517C95.1694 48.7779 95.0268 49.3878 94.7685 49.9107C94.4819 50.4335 94.1386 50.8692 93.6803 51.2177C93.222 51.5663 92.7353 51.7986 92.162 51.9729C91.5896 52.1182 91.0163 52.2053 90.4438 52.2053H87.2924V43.9563H90.3288C90.9304 43.9563 91.5029 44.0144 92.0762 44.1596C92.6487 44.3049 93.1645 44.5082 93.6228 44.8276C94.0811 45.1471 94.4536 45.5538 94.7111 46.1056C95.0552 46.6285 95.1694 47.2675 95.1694 48.0517Z" fill="white"/>
<path d="M106.112 48.0517C106.112 47.7032 106.055 47.3546 105.94 47.0351C105.825 46.7157 105.654 46.4542 105.453 46.2509C105.252 46.0185 104.995 45.8443 104.68 45.728C104.393 45.6119 104.05 45.5247 103.706 45.5247C103.362 45.5247 103.018 45.5828 102.732 45.728C102.446 45.8443 102.187 46.0185 101.958 46.2509C101.729 46.4832 101.587 46.7447 101.472 47.0351C101.357 47.3546 101.3 47.6741 101.3 48.0517C101.3 48.4293 101.357 48.7779 101.472 49.0973C101.587 49.4169 101.758 49.6782 101.958 49.9107C102.159 50.143 102.417 50.3173 102.703 50.4335C102.99 50.5496 103.333 50.6368 103.677 50.6368C104.021 50.6368 104.365 50.5787 104.651 50.4335C104.937 50.3173 105.195 50.114 105.425 49.9107C105.625 49.6782 105.797 49.4169 105.911 49.0973C106.026 48.7489 106.112 48.4003 106.112 48.0517ZM108.289 48.0517C108.289 48.6907 108.174 49.3007 107.945 49.8525C107.716 50.4044 107.401 50.8692 107 51.2468C106.599 51.6244 106.112 51.9148 105.539 52.1472C104.966 52.3505 104.365 52.4667 103.706 52.4667C103.047 52.4667 102.446 52.3505 101.872 52.1472C101.3 51.9439 100.842 51.6534 100.412 51.2468C100.011 50.8692 99.6958 50.4044 99.4667 49.8525C99.2375 49.3007 99.1226 48.7197 99.1226 48.0517C99.1226 47.3837 99.2375 46.8028 99.4667 46.2509C99.6958 45.728 100.011 45.2634 100.412 44.8858C100.812 44.5082 101.3 44.2177 101.872 44.0144C102.446 43.8111 103.047 43.7239 103.706 43.7239C104.365 43.7239 104.966 43.8111 105.539 44.0144C106.112 44.2177 106.599 44.5082 107 44.8858C107.401 45.2634 107.716 45.699 107.945 46.2509C108.174 46.7737 108.289 47.3837 108.289 48.0517Z" fill="white"/>
<path d="M111.64 45.6409V47.3546H114.877V49.0102H111.64V52.2053H109.606V43.9563H115.163V45.6409H111.64Z" fill="white"/>
<path d="M128.225 52.2053H126.22L124.558 46.6285H124.501L122.84 52.2053H120.834L118.429 43.9563H120.634L121.952 49.4459H121.98L123.498 43.9563H125.618L127.108 49.4459H127.165L128.511 43.9563H130.631L128.225 52.2053Z" fill="white"/>
<path d="M137.964 48.0517C137.964 47.7032 137.906 47.3546 137.791 47.0351C137.677 46.7157 137.505 46.4542 137.304 46.2509C137.104 46.0185 136.846 45.8443 136.531 45.728C136.245 45.6119 135.901 45.5247 135.557 45.5247C135.214 45.5247 134.87 45.5828 134.583 45.728C134.297 45.8443 134.039 46.0185 133.81 46.2509C133.581 46.4832 133.438 46.7447 133.323 47.0351C133.209 47.3546 133.151 47.6741 133.151 48.0517C133.151 48.4293 133.209 48.7779 133.323 49.0973C133.438 49.4169 133.61 49.6782 133.81 49.9107C134.01 50.143 134.268 50.3173 134.555 50.4335C134.841 50.5496 135.185 50.6368 135.529 50.6368C135.872 50.6368 136.216 50.5787 136.503 50.4335C136.789 50.3173 137.047 50.114 137.276 49.9107C137.476 49.6782 137.649 49.4169 137.763 49.0973C137.878 48.7489 137.964 48.4003 137.964 48.0517ZM140.14 48.0517C140.14 48.6907 140.026 49.3007 139.797 49.8525C139.568 50.4044 139.253 50.8692 138.851 51.2468C138.45 51.6244 137.964 51.9148 137.39 52.1472C136.818 52.3505 136.216 52.4667 135.557 52.4667C134.899 52.4667 134.297 52.3505 133.724 52.1472C133.151 51.9439 132.693 51.6534 132.263 51.2468C131.862 50.8692 131.547 50.4044 131.318 49.8525C131.089 49.3007 130.974 48.7197 130.974 48.0517C130.974 47.3837 131.089 46.8028 131.318 46.2509C131.547 45.728 131.862 45.2634 132.263 44.8858C132.664 44.5082 133.151 44.2177 133.724 44.0144C134.297 43.8111 134.899 43.7239 135.557 43.7239C136.216 43.7239 136.818 43.8111 137.39 44.0144C137.964 44.2177 138.45 44.5082 138.851 44.8858C139.253 45.2634 139.568 45.699 139.797 46.2509C139.997 46.7737 140.14 47.3837 140.14 48.0517Z" fill="white"/>
<path d="M150.396 52.2053H148.391L146.73 46.6285H146.672L145.011 52.2053H143.006L140.599 43.9563H142.805L144.123 49.4459H144.152L145.67 43.9563H147.789L149.279 49.4459H149.307L150.682 43.9563H152.802L150.396 52.2053Z" fill="white"/>
</svg>
