<svg width="105" height="104" viewBox="0 0 105 104" fill="none" xmlns="http://www.w3.org/2000/svg">
<path d="M98.4999 55.1667C98.4999 42.0311 92.5871 30.2764 83.2779 22.419C75.8218 16.1256 54.8749 15.4048 54.8749 15.4048L39.6936 15.4923C39.5807 15.5401 39.4442 15.507 39.3319 15.5557C24.4523 22.0127 14.7964 37.3119 14.7964 55.0962C14.7964 78.753 32.4343 94.8506 56.0911 94.8506C63.2034 94.8506 69.4851 96.2678 75.3883 93.2003C89.1202 86.065 98.4999 71.7112 98.4999 55.1667Z" fill="#94CCD4"/>
<path d="M83.2783 22.4187C78.9227 25.2676 74.2468 28.0942 72.4938 28.4774C67.6828 29.8842 61.4205 26.9039 60.1339 33.9992C60.0969 35.3691 59.9766 36.6704 59.7711 37.8847C59.5416 39.2397 59.0381 40.5151 58.3069 41.648C57.5757 42.7809 55.6296 43.1115 54.4968 43.889C51.3777 46.0325 48.8433 46.161 45.4854 44.4117C45.4003 44.3673 45.3132 44.321 45.2262 44.2747C39.6322 41.5332 36.3459 35.2284 42.1455 30.621C45.9569 27.4741 45.3804 21.9232 42.7167 18.4542L41.1136 16.5994C42.3581 16.0853 41.8515 14.5858 43.1517 14.1891C47.1103 12.9814 51.3121 12.332 55.6652 12.332C66.1871 12.332 75.8221 16.1249 83.2783 22.4187Z" fill="#B7E546"/>
<path d="M88.8863 44.5638C88.8624 41.028 87.4348 37.6442 84.9167 35.16C82.7685 32.7021 82.0255 31.2377 79.073 33.9512C76.2745 37.4322 79.0347 41.7527 73.0865 47.6888C72.033 48.7612 71.442 50.2291 71.5014 51.7339C71.4992 51.7335 71.5001 51.468 71.4981 51.4677C71.7119 55.1949 74.2577 58.1994 77.8862 58.1994C82.5473 58.1992 88.8863 52.7277 88.8863 44.5638Z" fill="#B7E546"/>
<path d="M75.476 47.4124C74.4227 48.486 73.8304 49.9539 73.8896 51.4589C73.8878 51.457 73.8878 51.4552 73.8859 51.4552C74.0636 54.541 76.7385 57.1381 79.7132 57.9415C79.0894 58.1118 78.4748 58.1988 77.8862 58.1988C74.258 58.1988 70.3984 55.1833 70.1837 51.4552C70.1856 51.4552 70.1856 51.457 70.1874 51.4589C70.1282 49.9539 70.7205 48.486 71.7738 47.4124C77.7214 41.4777 74.2747 36.8407 77.0735 33.3606C78.7599 31.8094 80.3796 31.8168 81.8568 32.5665C81.4995 32.7646 81.1404 33.0256 80.7757 33.3606C77.9769 36.8407 81.4236 41.4777 75.476 47.4124Z" fill="#ABD641"/>
<path d="M92.91 9.2409V30.6223L91.5476 31.9158C91.5476 33.7049 89.5136 33.9745 87.7244 33.9745L77.9451 33.901C77.4901 33.901 77.0466 34.0446 76.6782 34.3115L68.6083 39.915C67.8944 40.4322 66.895 39.9221 66.895 39.0406L67.6524 36.3455C67.6524 35.1527 66.6854 34.1859 65.4927 34.1859H62.9012C61.1121 34.1859 59.6616 32.7355 59.6616 30.9462L59.271 10.8884C59.271 9.09929 59.9816 7.21227 61.7707 7.21227L62.6737 6.00146H89.6704C91.4597 6.00128 92.91 7.45162 92.91 9.2409Z" fill="#EB2227"/>
<path d="M92.9102 30.6222V31.7022C92.9102 33.4913 91.4598 34.9418 89.6705 34.9418H78.077C77.6213 34.9418 77.1785 35.0865 76.8114 35.3522L68.0579 41.6909C67.3453 42.2092 66.3453 41.6996 66.3453 40.8163V37.1015C66.3453 35.9086 65.3783 34.9418 64.1856 34.9418H61.5939C59.8048 34.9418 58.3542 33.4914 58.3542 31.7022V9.24084C58.3542 7.45175 59.8046 6.00122 61.5939 6.00122H62.6738V30.1904C62.6738 30.429 62.8672 30.6222 63.1057 30.6222H64.1856C66.6715 30.6222 68.8341 32.0281 69.9201 34.0884C70.1053 34.4396 70.5542 34.5505 70.8757 34.3174L74.2758 31.8532C75.3881 31.0476 76.7033 30.6222 78.0769 30.6222H92.9102Z" fill="#D41F23"/>
<path d="M65.8465 94.2582C41.6229 94.2582 21.9845 74.6772 21.9845 50.524C21.9845 36.139 28.5797 23.5265 39.3327 15.5557C23.7781 21.9762 12.8308 37.2932 12.8308 55.1666C12.8308 62.4501 14.6486 69.309 17.8555 75.3144C17.8555 75.3144 28.0345 83.376 33.1817 87.1641C40.2822 92.3897 54.0788 95.7604 54.0788 95.7604C54.0788 95.7604 69.4304 96.2813 75.3169 93.2344C72.2661 93.9047 69.0989 94.2582 65.8465 94.2582Z" fill="#6FBBC6"/>
<path d="M75.3861 93.1958C71.944 88.4016 65.6135 83.1164 65.8857 76.7506C65.9784 74.5804 65.692 72.4029 64.9775 70.3506C64.9662 70.3228 64.9571 70.2956 64.9481 70.2686C64.5867 69.2521 64.044 68.3116 63.3681 67.4732C61.5026 65.1556 57.5218 59.1092 55.5754 58.2614C51.8585 55.9625 46.8265 57.6744 44.838 61.449C43.112 65.8152 42.6359 71.7976 38.1272 74.1526C35.432 75.6142 31.5474 75.2858 29.4972 72.8657C25.9399 68.2453 20.9595 72.7128 17.8596 75.3125C19.0913 77.6136 24.1169 79.3005 25.7422 81.3415C32.4858 89.8124 38.4876 93.0777 48.369 94.8509C57.5601 96.5187 66.9915 97.5561 75.2859 93.2467C75.3193 93.2293 75.3528 93.213 75.3861 93.1958Z" fill="#B7E546"/>
<path d="M75.3002 93.2382C67.9365 97.0694 59.4334 98.6319 51.184 97.766V97.7641C37.2416 96.4008 24.3746 87.7037 17.8604 75.312C20.3112 73.2555 23.9412 70.029 27.1122 71.0601C34.4888 84.8638 49.0682 94.2581 65.8466 94.2581C69.0934 94.2581 72.2551 93.9064 75.3002 93.2382Z" fill="#ABD641"/>
<path d="M84.8526 56.1528V77.5342L83.4902 78.8277C83.4902 80.6168 81.4562 80.8863 79.6669 80.8863L69.8877 80.8128C69.4327 80.8128 68.9892 80.9565 68.6208 81.2234L60.5509 86.8269C59.8369 87.3441 58.8375 86.8339 58.8375 85.9524L59.595 83.2574C59.595 82.0646 58.628 81.0977 57.4353 81.0977H54.8436C53.0545 81.0977 51.604 79.6474 51.604 77.8581L51.2134 57.8003C51.2134 56.0112 51.924 54.1241 53.7131 54.1241L54.6161 52.9133H81.6128C83.4021 52.9131 84.8526 54.3637 84.8526 56.1528Z" fill="#F27024"/>
<path d="M84.8528 77.5341V78.614C84.8528 80.4033 83.4024 81.8537 81.6132 81.8537H70.0197C69.5639 81.8537 69.1211 81.9984 68.7541 82.264L60.0006 88.6028C59.2879 89.1211 58.2879 88.6115 58.2879 87.7281V84.0133C58.2879 82.8205 57.3209 81.8537 56.1282 81.8537H53.5365C51.7474 81.8537 50.2969 80.4033 50.2969 78.614V56.1527C50.2969 54.3636 51.7472 52.9131 53.5365 52.9131H54.6164V77.1022C54.6164 77.3408 54.8099 77.5341 55.0483 77.5341H56.1282C58.6141 77.5341 60.7767 78.94 61.8628 81.0003C62.0479 81.3515 62.4968 81.4623 62.8183 81.2293L66.2184 78.7651C67.3308 77.9595 68.646 77.5341 70.0195 77.5341H84.8528Z" fill="#D46B08"/>
<path d="M43.5518 33.0126L43.4981 33.0571C42.7836 33.6253 40.3031 35.8966 38.5446 37.844C37.8375 35.1729 38.452 32.337 41.1954 30.1582C45.0068 27.0113 43.6 20.8805 40.9362 17.4115L39.332 15.5558C40.576 15.0412 41.8507 14.5849 43.152 14.1887C44.3034 15.938 45.327 17.4115 45.327 17.4115C48.087 22.552 48.2111 29.1679 43.5518 33.0126Z" fill="#ABD641"/>
<path d="M58.4623 41.3963C58.4123 41.4814 58.3605 41.5647 58.3068 41.648C57.5756 42.7809 56.6205 43.7694 55.4876 44.5468C52.3685 46.6904 48.3238 46.9311 44.9659 45.1818C44.8808 45.1374 44.7938 45.0911 44.7068 45.0448C39.4422 42.4644 35.8418 35.6393 40.2678 31.0042C38.8591 35.258 42.1855 40.169 46.6634 42.2681C46.7541 42.3144 46.8448 42.3607 46.9336 42.4051C50.4433 44.1544 54.6713 43.9138 57.9311 41.7702C58.1125 41.6517 58.2902 41.5277 58.4623 41.3963Z" fill="#ABD641"/>
<path d="M50.7158 97.7134C50.7279 97.7147 50.74 97.7162 50.7521 97.7175C50.74 97.7162 50.7279 97.7149 50.7158 97.7134Z" fill="#94CCD4"/>
<path d="M37.4385 93.9353C37.4805 93.9551 37.5229 93.9744 37.5649 93.994C37.5227 93.9744 37.4805 93.9551 37.4385 93.9353Z" fill="#94CCD4"/>
<path d="M75.3166 93.2346C74.5521 93.6308 73.7765 94.0028 72.9861 94.3508C73.7635 94.0065 74.5299 93.6382 75.2852 93.2457C75.2907 93.2439 75.2944 93.2402 75.3 93.2383C75.3055 93.2365 75.3111 93.2365 75.3166 93.2346Z" fill="#94CCD4"/>
<path d="M7.99072 31.3618L8.26247 49.9908C8.26247 51.815 9.7489 53.2939 11.5826 53.2939L22.0053 53.6345C22.4716 53.6345 22.926 53.7811 23.3036 54.0532L30.4169 60.0667C31.1486 60.5941 32.1728 60.0739 32.1728 59.175L32.6223 56.2679C32.6223 55.0517 33.6132 54.0658 34.8357 54.0658L38.2758 54.0532C40.1095 54.0532 41.915 53.6178 41.915 51.7936V28.8915C41.915 27.0672 40.4286 25.5884 38.5949 25.5884H9.82017C7.98647 25.5884 7.99072 29.5375 7.99072 31.3618Z" fill="#FFA940"/>
<path d="M25.8259 31.7497C25.8218 31.7391 25.8177 31.7286 25.8135 31.718C25.541 31.0522 24.9001 30.6216 24.1808 30.6208C24.1801 30.6208 24.1797 30.6208 24.179 30.6208C23.4605 30.6208 22.8195 31.0501 22.5459 31.7147C22.5407 31.7273 22.5357 31.74 22.5307 31.753L16.3319 48.179C16.0613 48.8963 16.4234 49.6974 17.1407 49.9681C17.8582 50.2387 18.6593 49.8766 18.9298 49.1593L20.1347 45.9667H28.2693L29.4868 49.1634C29.6978 49.7174 30.225 50.058 30.7844 50.058C30.9486 50.058 31.1158 50.0286 31.2783 49.9668C31.9949 49.6939 32.3544 48.8918 32.0815 48.1753L25.8259 31.7497ZM21.1824 43.19L24.1832 35.2382L27.2118 43.19H21.1824Z" fill="white"/>
<path d="M41.9154 51.3942V51.794C41.9154 53.6173 40.4289 55.0964 38.5945 55.0964H35.9382C34.7164 55.0964 33.7261 56.083 33.7261 57.2992V61.0884C33.7261 61.9862 32.7006 62.5064 31.9694 61.9788L23.0008 55.5147C22.6231 55.2426 22.1678 55.0964 21.7013 55.0964H9.82089C7.98644 55.0964 6.5 53.6173 6.5 51.794V28.8921C6.5 27.0669 7.98644 25.5879 9.82089 25.5879H10.2022V50.4686C10.2022 50.9797 10.6167 51.3942 11.1278 51.3942H21.7013C22.9452 51.3942 24.1577 51.7866 25.1647 52.5122L29.3019 55.4944C29.6981 55.7794 30.2497 55.6054 30.4274 55.1519C31.29 52.9547 33.4355 51.3942 35.9382 51.3942H41.9154Z" fill="#FA8C16"/>
<path d="M69.6547 28.8178L69.6543 28.8182L69.6637 28.8273C69.8944 29.0491 70.2123 29.15 70.5951 29.15H79.6482C79.952 29.15 80.2073 29.0649 80.3896 28.8737C80.5707 28.6837 80.65 28.4199 80.65 28.1064C80.65 27.807 80.5691 27.553 80.3896 27.3646C80.2073 27.1734 79.952 27.0883 79.6482 27.0883H71.5969V20.9032H79.1372C79.441 20.9032 79.6963 20.8181 79.8785 20.6269C80.0596 20.4369 80.1389 20.1731 80.1389 19.8596C80.1389 19.5493 80.0611 19.2899 79.8755 19.1146C79.6934 18.9257 79.4393 18.8415 79.1372 18.8415H71.5969V12.9117H79.6482C79.952 12.9117 80.2073 12.8266 80.3896 12.6354C80.5707 12.4454 80.65 12.1816 80.65 11.8681C80.65 11.5687 80.5691 11.3147 80.3896 11.1263C80.2073 10.9351 79.952 10.85 79.6482 10.85H70.5951C70.2087 10.85 69.8892 10.9615 69.6591 11.2029C69.4442 11.4284 69.35 11.7531 69.35 12.1489V27.8511C69.35 28.248 69.4446 28.5774 69.6547 28.8178Z" fill="white" stroke="white" stroke-width="0.3"/>
<path d="M77.0388 61.5257C77.8056 61.5257 78.4272 60.9041 78.4272 60.1374C78.4272 59.3706 77.8056 58.749 77.0388 58.749H69.8519V56.3883C69.8519 55.6216 69.2303 55 68.4636 55C67.6969 55 67.0753 55.6216 67.0753 56.3883V58.749H59.8883C59.1216 58.749 58.5 59.3706 58.5 60.1374C58.5 60.9041 59.1216 61.5257 59.8883 61.5257H62.767C63.4336 64.4803 64.7521 67.1973 66.5884 69.5082C65.1832 70.8497 63.5393 71.9619 61.7061 72.779L59.7934 73.6314C59.0929 73.9435 58.7782 74.7643 59.0903 75.4645C59.3206 75.9814 59.8278 76.2881 60.3593 76.2881C60.5481 76.2881 60.74 76.2494 60.9235 76.1676L62.8362 75.3152C64.9463 74.3748 66.8411 73.0981 68.4636 71.5587C70.0861 73.0981 71.9809 74.3748 74.0909 75.3152L76.0037 76.1676C76.1873 76.2494 76.3791 76.2881 76.5679 76.2881C77.0994 76.2881 77.6066 75.9812 77.8368 75.4645C78.1489 74.7643 77.8343 73.9435 77.1338 73.6314L75.2211 72.779C73.3877 71.9621 71.7439 70.8497 70.3388 69.5082C72.1751 67.1973 73.4934 64.4803 74.16 61.5257H77.0388ZM68.4636 67.3924C67.1626 65.6548 66.1919 63.6693 65.6249 61.5257H71.3021C70.7351 63.6693 69.7645 65.6548 68.4636 67.3924Z" fill="#FAF8F8"/>
</svg>
