<svg width="163" height="54" viewBox="0 0 163 54" fill="none" xmlns="http://www.w3.org/2000/svg">
<path d="M113.961 19.317C113.961 23.1073 112.814 26.8125 110.665 29.9641C108.516 33.1156 105.462 35.5719 101.889 37.0224C98.316 38.4729 94.3842 38.8524 90.5909 38.113C86.7977 37.3735 83.3133 35.5483 80.5786 32.8682C77.8438 30.188 75.9814 26.7733 75.2268 23.0558C74.4723 19.3383 74.8595 15.485 76.3396 11.9832C77.8197 8.48141 80.3261 5.48837 83.5418 3.38258C86.7576 1.27679 90.5383 0.152832 94.4059 0.152832C99.5922 0.152832 104.566 2.17191 108.233 5.76589C111.9 9.35988 113.961 14.2344 113.961 19.317Z" fill="#FAB317"/>
<path d="M31.1148 4.09846V34.2267C26.7198 34.7 22.3352 35.2409 17.961 35.8495C16.4086 36.0675 15.3737 34.465 15.3737 31.9801V2.10547C17.961 2.48074 19.2494 2.6633 21.873 3.00308V27.2436L24.4603 27.0813V3.33271C27.0993 3.65727 28.4292 3.8094 31.1045 4.09846" fill="#E9161C"/>
<path d="M43.9269 18.1354C43.6198 14.9879 43.3076 11.837 42.9903 8.68267V5.21902C45.5776 5.42694 46.9074 5.52329 49.5413 5.72614V32.6544C46.5142 32.8522 45.0135 32.9637 42.0278 33.2122C40.917 28.8949 39.8165 24.5861 38.7264 20.2857H38.2089C38.5022 23.4941 38.8006 26.7058 39.1041 29.921V33.4709C36.5168 33.6991 35.2542 33.8208 32.7135 34.0845V4.26562C35.6423 4.5699 37.1223 4.71189 40.0925 4.97053C41.1688 9.3656 42.2624 13.7607 43.3732 18.1557H43.9527" fill="#E9161C"/>
<path d="M131.823 4.1035C134.612 3.8043 135.999 3.64202 138.747 3.30225V27.0965C141.515 27.2689 142.886 27.3602 145.613 27.5478V35.9356C141.024 35.2865 136.429 34.7388 131.823 34.2266V4.1035Z" fill="#E9161C"/>
<path d="M147.161 36.1589V2.18158C151.58 1.52232 155.994 0.822494 160.413 0.0313816C161.929 -0.242465 163 1.55275 163 4.43321V33.8971C163 36.7522 161.939 38.5677 160.413 38.2989C156.014 37.5027 151.616 36.7775 147.181 36.1589M153.846 28.1717L156.501 28.3897V9.99128L153.846 10.2093V28.1717Z" fill="#E9161C"/>
<path d="M13.8524 10.5642C13.8524 8.64224 13.8524 6.15227 13.8524 1.88229C10.0853 1.30417 6.31819 0.700693 2.5873 0.0262194C1.03492 -0.242556 0 1.57802 0 4.43312V12.6789C0 15.818 0.315651 17.527 1.71797 19.3425C3.50838 21.6043 5.38159 23.8154 7.30136 25.9351V28.344C4.35184 28.5874 2.88743 28.7193 0 28.988C0 30.9354 0 34.1658 0 38.4408C3.26 37.9337 8.33111 37.3099 11.2341 36.8434C12.7606 36.605 13.8524 34.6678 13.8524 32.1525V24.2971C13.8524 21.5333 13.5161 20.0272 12.0723 18.4145C10.1267 16.2288 8.23279 13.9823 6.41133 11.6647V9.98105C8.95724 10.1991 11.2651 10.3665 13.8524 10.5642Z" fill="#E9161C"/>
<path d="M94.9126 6.50732C96.1381 7.28358 97.1707 8.31888 97.9346 9.53726C98.6986 10.7556 99.1745 12.1262 99.3275 13.5483C99.4805 14.9705 99.3066 16.4082 98.8187 17.7559C98.3308 19.1036 97.5412 20.3272 96.5078 21.3368C95.4744 22.3465 94.2235 23.1165 92.8468 23.5906C91.4701 24.0646 90.0026 24.2306 88.552 24.0763C87.1013 23.922 85.7043 23.4514 84.4634 22.699C83.2225 21.9466 82.1693 20.9314 81.381 19.728C81.4715 22.2125 82.2998 24.6171 83.7643 26.647C85.2288 28.677 87.2658 30.244 89.6257 31.156C91.9856 32.068 94.5657 32.2853 97.0498 31.7814C99.5338 31.2774 101.814 30.0741 103.61 28.3189C105.407 26.5637 106.642 24.3329 107.164 21.9C107.685 19.4671 107.472 16.9378 106.548 14.6223C105.625 12.3068 104.032 10.3057 101.965 8.8642C99.8985 7.42275 97.4474 6.60365 94.9126 6.50732Z" fill="#F27024"/>
<path d="M81.3705 19.2716C81.3705 19.4238 81.3705 19.5759 81.3705 19.728C82.1588 20.9314 83.212 21.9466 84.4529 22.699C85.6938 23.4514 87.0908 23.922 88.5415 24.0763C89.9921 24.2306 91.4596 24.0646 92.8363 23.5906C94.213 23.1165 95.4639 22.3465 96.4973 21.3368C97.5307 20.3272 98.3203 19.1036 98.8082 17.7559C99.2961 16.4082 99.47 14.9705 99.317 13.5483C99.164 12.1262 98.6881 10.7556 97.9241 9.53726C97.1602 8.31888 96.1276 7.28358 94.9021 6.50732H94.3846C90.9329 6.51269 87.6244 7.85955 85.1846 10.2524C82.7449 12.6453 81.3732 15.8889 81.3705 19.2716Z" fill="#E9161C"/>
<g style="mix-blend-mode:lighten">
<mask id="mask0_24655_16878" style="mask-type:luminance" maskUnits="userSpaceOnUse" x="79" y="4" width="16" height="16">
<path d="M94.9068 4.98096H79.8331V19.7332H94.9068V4.98096Z" fill="white"/>
</mask>
<g mask="url(#mask0_24655_16878)">
<path d="M81.3698 19.2716C81.3698 15.8836 82.7431 12.6343 85.1876 10.2387C87.6321 7.84299 90.9475 6.49712 94.4046 6.49712H94.9221C93.0464 5.30904 90.8122 4.78623 88.5912 5.0157C86.3702 5.24516 84.2964 6.21306 82.7148 7.75832C81.1332 9.30359 80.1392 11.333 79.8983 13.509C79.6573 15.6849 80.1839 17.876 81.3905 19.7178C81.3905 19.5657 81.3905 19.4135 81.3905 19.2614" fill="white"/>
</g>
</g>
<path d="M76.4286 29.6877C76.013 28.995 75.6398 28.2787 75.3109 27.5426C75.3109 27.5426 75.3109 27.5071 75.3109 27.4868C75.2005 27.2501 75.097 27.0067 75.0005 26.7565C74.9039 26.5064 74.8107 26.2579 74.721 26.0111V25.9756C74.6382 25.7372 74.5606 25.4684 74.483 25.2453L74.4519 25.149C74.3795 24.9005 74.3071 24.6418 74.245 24.4035C74.1829 24.1601 74.1259 23.8964 74.0742 23.6682C74.0718 23.6378 74.0718 23.6073 74.0742 23.5769C74.0224 23.3335 73.9759 23.0698 73.9293 22.8365C73.9293 22.7959 73.9293 22.7503 73.9293 22.7046C73.8879 22.4561 73.8465 22.1975 73.8155 21.949C73.8179 21.939 73.8179 21.9286 73.8155 21.9186C73.7844 21.6752 73.7585 21.4115 73.7379 21.1782C73.7353 21.1326 73.7353 21.0869 73.7379 21.0413C73.7379 20.7928 73.7016 20.5341 73.6861 20.2958C73.6887 20.2468 73.6887 20.1977 73.6861 20.1487C73.6861 19.8901 73.6861 19.6416 73.6861 19.3678C73.6861 19.0939 73.6861 18.8302 73.6861 18.5665C73.6886 18.5192 73.6886 18.4718 73.6861 18.4245C73.6861 18.1709 73.7172 17.9174 73.7379 17.6638V17.5168C73.7379 17.2581 73.7896 17.0096 73.8206 16.7409C73.8206 16.7409 73.8206 16.7104 73.8206 16.6952C73.8569 16.4467 73.8931 16.1881 73.9345 15.9548C73.937 15.9143 73.937 15.8736 73.9345 15.8331C73.9811 15.5846 74.0276 15.326 74.0794 15.0978C74.0794 15.0471 74.1052 15.0014 74.1156 14.9507C74.1673 14.7073 74.2294 14.4436 74.2915 14.2205C74.2915 14.19 74.2915 14.1647 74.2915 14.1393C74.3536 13.906 74.4209 13.6778 74.4933 13.4496L74.5244 13.3482C74.5968 13.1099 74.6745 12.8766 74.7572 12.6433C74.7776 12.5971 74.7949 12.5497 74.809 12.5013C74.8918 12.2731 74.9798 12.0398 75.0729 11.8167L75.1143 11.7153C75.2023 11.4972 75.3006 11.2791 75.3989 11.0661L75.4299 10.9901C75.5334 10.7669 75.6421 10.5438 75.7508 10.3257C75.7508 10.2801 75.7973 10.2395 75.818 10.1939C75.9267 9.97583 76.0457 9.76284 76.1596 9.54985L76.2217 9.44335C76.3407 9.23543 76.4649 9.02751 76.5891 8.82466C76.5881 8.81115 76.5881 8.79759 76.5891 8.78409C76.7201 8.5711 76.8547 8.36318 76.9927 8.16033L77.0703 8.03862C77.2048 7.84084 77.3445 7.64306 77.4894 7.45035L77.5671 7.34386C77.7171 7.14101 77.8672 6.94323 78.0276 6.74545C75.4817 6.74545 72.615 6.69981 70.3123 6.6491V18.6578H69.7068C69.0962 14.6008 68.4891 10.5607 67.8854 6.53753C65.4223 6.46654 64.1959 6.42597 61.7483 6.32454C61.148 10.4322 60.5495 14.5382 59.9527 18.6426H59.3835V6.22312C56.5375 6.09126 55.1248 6.0152 52.3098 5.84277V9.12893C53.0929 16.8372 53.8829 24.5438 54.6798 32.2487C57.3809 32.0966 60.0821 31.9681 62.7832 31.8633C63.3593 28.5399 63.9406 25.1997 64.5271 21.8425H65.0445C65.6379 25.1456 66.2312 28.447 66.8246 31.7466C69.3136 31.6655 74.7469 31.7162 77.8206 31.701C77.3228 31.051 76.8632 30.3738 76.4442 29.6725" fill="#E9161C"/>
<path d="M127.812 22.9328C128.966 22.5829 129.83 21.0311 129.83 19.6315V7.96762C129.83 5.80728 128.583 4.41776 126.803 4.55976C122.007 4.9756 115.109 5.44215 110.007 5.77178C111.029 6.90279 111.921 8.1409 112.666 9.46364C112.811 9.72227 112.951 9.97076 113.085 10.2497C113.085 10.2497 113.085 10.275 113.085 10.2902C113.215 10.5489 113.339 10.7974 113.458 11.0763V11.1321C113.577 11.3958 113.686 11.6392 113.794 11.9283V11.979C113.898 12.2528 114.001 12.5317 114.1 12.8107C114.296 13.3786 114.462 13.9568 114.617 14.545V14.6109C114.684 14.8848 114.747 15.1637 114.798 15.4426C114.801 15.4798 114.801 15.5171 114.798 15.5542C114.85 15.8213 114.897 16.0951 114.938 16.3757V16.5025C114.979 16.7764 115.01 17.0553 115.041 17.3291C115.039 17.3697 115.039 17.4103 115.041 17.4508C115.041 17.7399 115.088 18.0239 115.104 18.3079V18.3941C115.104 18.6984 115.104 19.0026 115.104 19.3069C115.104 19.6112 115.104 19.885 115.104 20.1741C115.101 20.2095 115.101 20.2451 115.104 20.2806C115.104 20.5544 115.067 20.8283 115.047 21.097V21.234C115.023 21.5044 114.991 21.7732 114.954 22.0403V22.162C114.917 22.4359 114.871 22.7046 114.824 22.9734V23.0343C114.772 23.3132 114.715 23.5921 114.648 23.871C114.581 24.1499 114.514 24.4187 114.436 24.6926C114.434 24.7195 114.434 24.7467 114.436 24.7737C114.358 25.0374 114.281 25.2808 114.193 25.5597C114.191 25.5884 114.191 25.6173 114.193 25.6459C114.105 25.9096 114.012 26.1531 113.913 26.4269C113.911 26.4437 113.911 26.4608 113.913 26.4776C113.611 27.3086 113.255 28.1199 112.847 28.9067C112.708 29.1603 112.568 29.4139 112.418 29.6573C111.812 30.6633 111.12 31.6167 110.348 32.5073C113.22 32.6747 116.413 32.837 119.145 33.0398V24.3781L120.697 24.4238C121.387 27.3921 122.077 30.3639 122.767 33.339C125.779 33.5824 127.269 33.7193 130.239 34.0033V30.3064C129.277 27.3093 128.796 25.864 127.812 22.9328ZM122.198 17.3849H119.129V12.197L122.198 12.0804V17.3849Z" fill="#E9161C"/>
<path d="M23.1614 43.2584C23.1786 43.2748 23.1922 43.2946 23.2011 43.3164C23.21 43.3382 23.2141 43.3617 23.2132 43.3852V45.1906C23.2141 45.2141 23.21 45.2375 23.2011 45.2594C23.1922 45.2812 23.1786 45.301 23.1614 45.3173C23.144 45.335 23.1231 45.3491 23.0999 45.3587C23.0768 45.3683 23.052 45.3732 23.0269 45.3731H20.3206C20.31 45.3714 20.2991 45.3721 20.2888 45.3753C20.2786 45.3785 20.2693 45.384 20.2617 45.3915C20.2541 45.3989 20.2484 45.4081 20.2451 45.4181C20.2419 45.4281 20.2411 45.4388 20.2429 45.4492V53.6392C20.2425 53.6864 20.2241 53.7316 20.1912 53.766C20.1735 53.783 20.1524 53.7963 20.1293 53.8051C20.1061 53.8138 20.0814 53.8178 20.0566 53.8167H17.8626C17.8378 53.8178 17.8131 53.8138 17.79 53.8051C17.7668 53.7963 17.7458 53.783 17.7281 53.766C17.7108 53.7496 17.6973 53.7299 17.6884 53.708C17.6795 53.6862 17.6754 53.6627 17.6763 53.6392V45.4492C17.6781 45.4388 17.6774 45.4281 17.6741 45.4181C17.6709 45.4081 17.6652 45.3989 17.6576 45.3915C17.65 45.384 17.6407 45.3785 17.6304 45.3753C17.6202 45.3721 17.6093 45.3714 17.5987 45.3731H15.0062C14.9576 45.3707 14.9117 45.3507 14.8773 45.3169C14.8429 45.2832 14.8224 45.2382 14.8199 45.1906V43.3852C14.8224 43.3376 14.8429 43.2925 14.8773 43.2588C14.9117 43.2251 14.9576 43.2051 15.0062 43.2026H23.0269C23.052 43.2026 23.0768 43.2075 23.0999 43.2171C23.1231 43.2267 23.144 43.2407 23.1614 43.2584Z" fill="#E9161C"/>
<path d="M29.3502 43.2584C29.3667 43.2409 29.3867 43.2268 29.4089 43.2172C29.4312 43.2076 29.4553 43.2027 29.4796 43.2026H31.6788C31.7274 43.2051 31.7733 43.2251 31.8077 43.2588C31.8421 43.2925 31.8626 43.3376 31.8651 43.3852V53.6392C31.865 53.6631 31.86 53.6867 31.8502 53.7085C31.8404 53.7303 31.8261 53.7499 31.8081 53.766C31.7914 53.7829 31.7713 53.7962 31.749 53.8049C31.7267 53.8136 31.7028 53.8177 31.6788 53.8167H29.4951C29.4711 53.8177 29.4472 53.8136 29.4249 53.8049C29.4026 53.7962 29.3824 53.7829 29.3657 53.766C29.3478 53.7499 29.3335 53.7303 29.3237 53.7085C29.3139 53.6867 29.3088 53.6631 29.3088 53.6392V49.5822C29.3106 49.5719 29.3099 49.5612 29.3066 49.5512C29.3033 49.5411 29.2977 49.532 29.2901 49.5246C29.2825 49.5171 29.2732 49.5115 29.2629 49.5083C29.2527 49.5052 29.2418 49.5044 29.2312 49.5062H26.3231C26.3125 49.5044 26.3016 49.5052 26.2914 49.5083C26.2811 49.5115 26.2718 49.5171 26.2642 49.5246C26.2566 49.532 26.2509 49.5411 26.2477 49.5512C26.2444 49.5612 26.2436 49.5719 26.2455 49.5822V53.6392C26.2464 53.6627 26.2423 53.6862 26.2334 53.708C26.2245 53.7299 26.2109 53.7496 26.1937 53.766C26.176 53.783 26.1549 53.7963 26.1318 53.8051C26.1087 53.8138 26.0839 53.8178 26.0592 53.8167H23.8651C23.8404 53.8178 23.8156 53.8138 23.7925 53.8051C23.7693 53.7963 23.7483 53.783 23.7306 53.766C23.7134 53.7496 23.6998 53.7299 23.6909 53.708C23.682 53.6862 23.6779 53.6627 23.6788 53.6392V43.3852C23.6779 43.3617 23.682 43.3382 23.6909 43.3164C23.6998 43.2946 23.7134 43.2748 23.7306 43.2584C23.748 43.2407 23.7689 43.2267 23.792 43.2171C23.8152 43.2075 23.84 43.2026 23.8651 43.2026H26.0592C26.0843 43.2026 26.1091 43.2075 26.1322 43.2171C26.1554 43.2267 26.1763 43.2407 26.1937 43.2584C26.2109 43.2748 26.2245 43.2946 26.2334 43.3164C26.2423 43.3382 26.2464 43.3617 26.2455 43.3852V47.3002C26.2436 47.3106 26.2444 47.3212 26.2477 47.3313C26.2509 47.3413 26.2566 47.3504 26.2642 47.3579C26.2718 47.3653 26.2811 47.3709 26.2914 47.3741C26.3016 47.3773 26.3125 47.378 26.3231 47.3763H29.2157C29.2263 47.378 29.2371 47.3773 29.2474 47.3741C29.2576 47.3709 29.2669 47.3653 29.2745 47.3579C29.2821 47.3504 29.2878 47.3413 29.2911 47.3313C29.2943 47.3212 29.2951 47.3106 29.2933 47.3002V43.3852C29.2933 43.3614 29.2984 43.3378 29.3082 43.316C29.318 43.2941 29.3323 43.2745 29.3502 43.2584Z" fill="#E9161C"/>
<path d="M40.2426 45.3021C40.2261 45.3197 40.2061 45.3337 40.1839 45.3433C40.1616 45.3529 40.1375 45.3579 40.1132 45.3579H35.2543C35.2437 45.3561 35.2328 45.3569 35.2225 45.3601C35.2123 45.3633 35.203 45.3688 35.1954 45.3763C35.1878 45.3837 35.1821 45.3929 35.1788 45.4029C35.1756 45.4129 35.1748 45.4236 35.1766 45.434V47.3002C35.1748 47.3106 35.1756 47.3212 35.1788 47.3313C35.1821 47.3413 35.1878 47.3504 35.1954 47.3579C35.203 47.3653 35.2123 47.3709 35.2225 47.3741C35.2328 47.3773 35.2437 47.378 35.2543 47.3763H38.359C38.383 47.3753 38.4069 47.3794 38.4292 47.3881C38.4515 47.3968 38.4717 47.4101 38.4884 47.427C38.5063 47.4431 38.5206 47.4627 38.5304 47.4845C38.5402 47.5063 38.5453 47.5299 38.5453 47.5538V49.3287C38.5454 49.3533 38.5404 49.3777 38.5306 49.4003C38.5208 49.423 38.5064 49.4435 38.4884 49.4605C38.4717 49.4774 38.4515 49.4907 38.4292 49.4994C38.4069 49.5082 38.383 49.5122 38.359 49.5112H35.2543C35.2437 49.5095 35.2328 49.5102 35.2225 49.5134C35.2123 49.5166 35.203 49.5222 35.1954 49.5296C35.1878 49.5371 35.1821 49.5462 35.1788 49.5562C35.1756 49.5663 35.1748 49.5769 35.1766 49.5873V51.6158C35.1748 51.6262 35.1756 51.6369 35.1788 51.6469C35.1821 51.6569 35.1878 51.6661 35.1954 51.6735C35.203 51.681 35.2123 51.6865 35.2225 51.6897C35.2328 51.6929 35.2437 51.6937 35.2543 51.6919H40.1132C40.1372 51.6909 40.1611 51.695 40.1834 51.7037C40.2057 51.7125 40.2259 51.7257 40.2426 51.7426C40.2606 51.7597 40.275 51.7802 40.2848 51.8028C40.2946 51.8255 40.2996 51.8498 40.2995 51.8744V53.6646C40.2995 53.6884 40.2944 53.712 40.2846 53.7338C40.2748 53.7556 40.2605 53.7752 40.2426 53.7914C40.2259 53.8083 40.2057 53.8215 40.1834 53.8302C40.1611 53.839 40.1372 53.843 40.1132 53.8421H32.7911C32.7672 53.843 32.7432 53.839 32.7209 53.8302C32.6987 53.8215 32.6785 53.8083 32.6618 53.7914C32.6439 53.7752 32.6296 53.7556 32.6198 53.7338C32.61 53.712 32.6049 53.6884 32.6049 53.6646V43.3852C32.6074 43.3376 32.6278 43.2925 32.6622 43.2588C32.6966 43.2251 32.7425 43.2051 32.7911 43.2026H40.1132C40.1618 43.2051 40.2078 43.2251 40.2422 43.2588C40.2766 43.2925 40.297 43.3376 40.2995 43.3852V45.1753C40.2995 45.1992 40.2944 45.2228 40.2846 45.2446C40.2748 45.2664 40.2605 45.286 40.2426 45.3021Z" fill="#E9161C"/>
<path d="M45.8056 53.6699L42.9492 43.4006V43.3398C42.9492 43.2485 43.0061 43.2028 43.12 43.2028H45.433C45.4796 43.2006 45.5255 43.2147 45.5625 43.2426C45.5994 43.2704 45.6251 43.3103 45.6348 43.355L46.9802 48.8775C46.9802 48.9181 46.9958 48.9384 47.0268 48.9384C47.0268 48.9384 47.063 48.9384 47.0734 48.8775L48.2791 43.3702C48.281 43.3462 48.2878 43.3228 48.299 43.3014C48.3102 43.2799 48.3257 43.2609 48.3444 43.2453C48.3632 43.2298 48.3849 43.218 48.4083 43.2107C48.4317 43.2034 48.4564 43.2007 48.4809 43.2028H50.6335C50.6801 43.2006 50.726 43.2147 50.7629 43.2426C50.7999 43.2704 50.8256 43.3103 50.8353 43.355L52.1807 48.8775C52.1807 48.9181 52.1962 48.9384 52.2273 48.9384C52.2273 48.9384 52.2635 48.9384 52.2739 48.8775L53.5261 43.3702C53.5281 43.3462 53.5348 43.3228 53.5461 43.3014C53.5573 43.2799 53.5727 43.2609 53.5915 43.2453C53.6102 43.2298 53.6319 43.218 53.6554 43.2107C53.6788 43.2034 53.7034 43.2007 53.7279 43.2028H56.0203C56.1652 43.2028 56.2221 43.2688 56.1859 43.4006L53.5986 53.6699C53.5855 53.7153 53.5566 53.7549 53.5169 53.7818C53.4773 53.8086 53.4293 53.8211 53.3812 53.8169H51.1458C51.1216 53.8197 51.0971 53.8177 51.0737 53.811C51.0503 53.8043 51.0285 53.793 51.0097 53.7779C50.9908 53.7627 50.9753 53.744 50.964 53.7228C50.9527 53.7016 50.9459 53.6785 50.944 53.6546L49.5986 47.7974C49.5986 47.7568 49.5831 47.7365 49.552 47.7365C49.552 47.7365 49.5158 47.7365 49.5054 47.7974L48.2946 53.6546C48.2933 53.6782 48.2872 53.7013 48.2764 53.7225C48.2657 53.7436 48.2506 53.7624 48.2322 53.7776C48.2138 53.7928 48.1923 53.8042 48.1692 53.8109C48.1462 53.8177 48.1219 53.8197 48.0979 53.8169H46.0281C45.9792 53.8223 45.93 53.8105 45.8892 53.7835C45.8485 53.7566 45.8188 53.7163 45.8056 53.6699Z" fill="#E9161C"/>
<path d="M58.473 53.4924C57.8542 53.1799 57.3404 52.6992 56.993 52.108C56.6354 51.4721 56.4568 50.7545 56.4756 50.0287V46.986C56.4593 46.2766 56.638 45.576 56.993 44.9575C57.3404 44.3662 57.8542 43.8856 58.473 43.5731C59.154 43.2289 59.9112 43.0547 60.6774 43.0659C61.445 43.0567 62.2033 43.2308 62.8869 43.5731C63.5087 43.8834 64.0247 44.3644 64.372 44.9575C64.727 45.576 64.9058 46.2766 64.8895 46.986V50.0287C64.9082 50.7545 64.7296 51.4721 64.372 52.108C64.0247 52.701 63.5087 53.1821 62.8869 53.4924C62.2043 53.8374 61.4453 54.0116 60.6774 53.9995C59.911 54.0123 59.1535 53.838 58.473 53.4924ZM61.8727 51.3625C62.1895 51.0192 62.355 50.5672 62.3332 50.1048V46.9657C62.3536 46.5051 62.1882 46.0551 61.8727 45.7131C61.5552 45.4071 61.1278 45.2357 60.6825 45.2357C60.2373 45.2357 59.8098 45.4071 59.4924 45.7131C59.1788 46.0559 59.0152 46.5058 59.037 46.9657V50.1048C59.0133 50.5665 59.177 51.0187 59.4924 51.3625C59.8117 51.6649 60.2385 51.8339 60.6825 51.8339C61.1266 51.8339 61.5533 51.6649 61.8727 51.3625Z" fill="#E9161C"/>
<path d="M71.1815 53.6852L69.3548 49.6282C69.3475 49.61 69.3346 49.5944 69.3179 49.5835C69.3013 49.5726 69.2817 49.567 69.2617 49.5673H68.2268C68.2162 49.5656 68.2053 49.5663 68.195 49.5695C68.1848 49.5727 68.1755 49.5783 68.1679 49.5857C68.1603 49.5932 68.1546 49.6023 68.1514 49.6123C68.1481 49.6224 68.1473 49.633 68.1491 49.6434V53.6192C68.1501 53.6428 68.146 53.6662 68.1371 53.688C68.1281 53.7099 68.1146 53.7296 68.0974 53.746C68.0797 53.7631 68.0586 53.7763 68.0355 53.7851C68.0123 53.7938 67.9876 53.7978 67.9628 53.7967H65.7688C65.744 53.7978 65.7193 53.7938 65.6962 53.7851C65.673 53.7763 65.652 53.7631 65.6343 53.746C65.617 53.7296 65.6035 53.7099 65.5946 53.688C65.5857 53.6662 65.5816 53.6428 65.5825 53.6192V43.3855C65.5816 43.362 65.5857 43.3385 65.5946 43.3167C65.6035 43.2949 65.617 43.2751 65.6343 43.2587C65.6517 43.241 65.6726 43.2269 65.6957 43.2174C65.7189 43.2078 65.7437 43.2029 65.7688 43.2029H70.3742C70.9984 43.1903 71.6158 43.3315 72.1698 43.6137C72.6745 43.8793 73.0898 44.2827 73.3651 44.775C73.6576 45.302 73.8056 45.8944 73.7946 46.4942C73.8106 47.1189 73.63 47.7333 73.2772 48.2539C72.9316 48.7514 72.4331 49.1281 71.8542 49.329C71.8428 49.3314 71.8323 49.3364 71.8233 49.3436C71.8144 49.3508 71.8073 49.36 71.8028 49.3704C71.7982 49.3809 71.7963 49.3922 71.7971 49.4035C71.7979 49.4148 71.8015 49.4258 71.8076 49.4355L73.8464 53.6091C73.8631 53.6371 73.8737 53.6682 73.8774 53.7004C73.8774 53.7765 73.8205 53.817 73.7118 53.817H71.4091C71.3618 53.8218 71.3141 53.8116 71.2731 53.7878C71.2322 53.7641 71.2 53.7281 71.1815 53.6852ZM68.1647 45.4343V47.5845C68.1629 47.5949 68.1636 47.6055 68.1669 47.6156C68.1701 47.6256 68.1758 47.6347 68.1834 47.6422C68.191 47.6496 68.2003 47.6552 68.2106 47.6584C68.2208 47.6616 68.2317 47.6623 68.2423 47.6605H69.9602C70.2978 47.676 70.6288 47.5655 70.8865 47.3512C71.0047 47.2479 71.098 47.1201 71.1597 46.9772C71.2215 46.8342 71.2501 46.6797 71.2435 46.5246C71.251 46.3664 71.2229 46.2086 71.1612 46.0622C71.0995 45.9158 71.0057 45.7846 70.8865 45.6777C70.6315 45.4579 70.2995 45.3434 69.9602 45.3582H68.2423C68.2317 45.3564 68.2208 45.3572 68.2106 45.3604C68.2003 45.3636 68.191 45.3691 68.1834 45.3766C68.1758 45.384 68.1701 45.3932 68.1669 45.4032C68.1636 45.4132 68.1629 45.4239 68.1647 45.4343Z" fill="#E9161C"/>
<path d="M74.5142 53.7559C74.4963 53.7398 74.482 53.7202 74.4722 53.6983C74.4624 53.6765 74.4573 53.6529 74.4573 53.6291V43.3852C74.4573 43.3614 74.4624 43.3378 74.4722 43.316C74.482 43.2942 74.4963 43.2746 74.5142 43.2584C74.5304 43.2406 74.5504 43.2264 74.5727 43.2168C74.595 43.2072 74.6192 43.2024 74.6436 43.2026H76.8428C76.8671 43.2027 76.8912 43.2076 76.9134 43.2173C76.9357 43.2269 76.9557 43.2409 76.9721 43.2584C76.9894 43.2748 77.0029 43.2946 77.0118 43.3164C77.0207 43.3383 77.0248 43.3617 77.0239 43.3852V51.5905C77.0221 51.6009 77.0228 51.6115 77.0261 51.6215C77.0294 51.6316 77.035 51.6407 77.0426 51.6482C77.0502 51.6556 77.0595 51.6612 77.0698 51.6644C77.08 51.6676 77.0909 51.6683 77.1015 51.6665H82.0381C82.0629 51.6651 82.0878 51.6688 82.1111 51.6774C82.1344 51.6861 82.1555 51.6995 82.1731 51.7167C82.1908 51.734 82.2044 51.7547 82.2133 51.7775C82.2221 51.8003 82.2259 51.8247 82.2244 51.8491V53.6392C82.2253 53.6628 82.2212 53.6862 82.2123 53.708C82.2034 53.7299 82.1898 53.7496 82.1726 53.766C82.1549 53.7831 82.1339 53.7963 82.1107 53.8051C82.0876 53.8138 82.0628 53.8178 82.0381 53.8167H74.6332C74.6101 53.8153 74.5876 53.8091 74.5671 53.7987C74.5466 53.7882 74.5286 53.7736 74.5142 53.7559Z" fill="#E9161C"/>
<path d="M82.7162 53.7557C82.699 53.7394 82.6854 53.7196 82.6765 53.6978C82.6676 53.6759 82.6635 53.6525 82.6644 53.629V43.3851C82.6635 43.3616 82.6676 43.3381 82.6765 43.3163C82.6854 43.2944 82.699 43.2747 82.7162 43.2583C82.7336 43.2406 82.7545 43.2265 82.7776 43.2169C82.8008 43.2074 82.8256 43.2024 82.8507 43.2025H86.7938C87.5278 43.1893 88.2563 43.3293 88.9309 43.6133C89.5145 43.8591 90.0138 44.2639 90.3694 44.7797C90.7159 45.2974 90.8961 45.9051 90.8869 46.5242V50.5C90.897 51.1177 90.7167 51.7239 90.3694 52.2395C90.0156 52.7581 89.5159 53.165 88.9309 53.4109C88.2559 53.6931 87.5274 53.8314 86.7938 53.8166H82.8507C82.8252 53.8163 82.8 53.8108 82.7768 53.8003C82.7536 53.7898 82.733 53.7746 82.7162 53.7557ZM85.3035 51.6563H86.8973C87.0875 51.6616 87.2765 51.6257 87.4509 51.5512C87.6253 51.4766 87.7808 51.3654 87.9063 51.2252C88.1752 50.8965 88.3163 50.485 88.3048 50.0639V46.9502C88.3279 46.5283 88.1875 46.1134 87.9115 45.7888C87.7823 45.6464 87.6224 45.5339 87.4434 45.4594C87.2645 45.3848 87.0709 45.3501 86.8766 45.3578H85.3242C85.3136 45.356 85.3027 45.3568 85.2925 45.36C85.2822 45.3632 85.2729 45.3687 85.2653 45.3762C85.2577 45.3836 85.252 45.3927 85.2488 45.4028C85.2455 45.4128 85.2448 45.4235 85.2466 45.4339V51.5903C85.2451 51.5994 85.2456 51.6086 85.248 51.6175C85.2504 51.6264 85.2546 51.6346 85.2605 51.6418C85.2663 51.649 85.2736 51.6548 85.2819 51.6591C85.2902 51.6633 85.2993 51.6658 85.3087 51.6664L85.3035 51.6563Z" fill="#E9161C"/>
<path d="M95.8546 53.492C95.2377 53.1787 94.7258 52.6981 94.3799 52.1075C94.0223 51.4717 93.8437 50.7541 93.8624 50.0283V46.9856C93.8461 46.2762 94.0249 45.5755 94.3799 44.9571C94.7258 44.3666 95.2377 43.886 95.8546 43.5727C96.5443 43.2487 97.2994 43.0806 98.0642 43.0806C98.829 43.0806 99.5841 43.2487 100.274 43.5727C100.894 43.8844 101.41 44.3651 101.759 44.9571C102.114 45.5755 102.293 46.2762 102.276 46.9856V50.0283C102.295 50.7541 102.116 51.4717 101.759 52.1075C101.41 52.6995 100.894 53.1803 100.274 53.492C99.5841 53.8159 98.829 53.9841 98.0642 53.9841C97.2994 53.9841 96.5443 53.8159 95.8546 53.492ZM99.2595 51.3621C99.5749 51.0183 99.7386 50.5661 99.7149 50.1044V46.9653C99.7367 46.5054 99.5731 46.0555 99.2595 45.7127C99.1063 45.5532 98.9196 45.4281 98.7124 45.3458C98.5052 45.2635 98.2824 45.2261 98.059 45.236C97.8391 45.229 97.6202 45.2679 97.4168 45.3501C97.2134 45.4323 97.0302 45.5559 96.8792 45.7127C96.5637 46.0547 96.3983 46.5047 96.4187 46.9653V50.1044C96.3969 50.5668 96.5625 51.0188 96.8792 51.3621C97.0306 51.518 97.2141 51.6407 97.4175 51.722C97.6209 51.8033 97.8395 51.8414 98.059 51.8337C98.2818 51.8426 98.5039 51.8052 98.7108 51.7239C98.9178 51.6427 99.1048 51.5193 99.2595 51.3621Z" fill="#E9161C"/>
<path d="M110.602 45.3021C110.568 45.3367 110.521 45.3567 110.473 45.3579H105.629C105.619 45.3561 105.608 45.3569 105.597 45.3601C105.587 45.3633 105.578 45.3688 105.57 45.3763C105.563 45.3837 105.557 45.3929 105.554 45.4029C105.55 45.4129 105.55 45.4236 105.552 45.434V47.3002C105.55 47.3106 105.55 47.3212 105.554 47.3313C105.557 47.3413 105.563 47.3504 105.57 47.3579C105.578 47.3653 105.587 47.3709 105.597 47.3741C105.608 47.3773 105.619 47.378 105.629 47.3763H108.734C108.758 47.3753 108.782 47.3794 108.804 47.3881C108.826 47.3968 108.847 47.4101 108.863 47.427C108.881 47.4431 108.895 47.4627 108.905 47.4845C108.915 47.5063 108.92 47.5299 108.92 47.5538V49.3287C108.92 49.3533 108.915 49.3776 108.905 49.4003C108.896 49.423 108.881 49.4435 108.863 49.4605C108.847 49.4774 108.826 49.4907 108.804 49.4994C108.782 49.5082 108.758 49.5122 108.734 49.5112H105.629C105.619 49.5095 105.608 49.5102 105.597 49.5134C105.587 49.5166 105.578 49.5222 105.57 49.5296C105.563 49.5371 105.557 49.5462 105.554 49.5562C105.55 49.5663 105.55 49.5769 105.552 49.5873V53.6443C105.551 53.6681 105.546 53.6917 105.537 53.7135C105.527 53.7354 105.513 53.755 105.495 53.7711C105.478 53.788 105.458 53.8012 105.435 53.81C105.413 53.8187 105.389 53.8227 105.365 53.8218H103.166C103.142 53.8227 103.118 53.8187 103.096 53.81C103.074 53.8012 103.053 53.788 103.037 53.7711C103.019 53.755 103.004 53.7354 102.995 53.7135C102.985 53.6917 102.98 53.6681 102.98 53.6443V43.3852C102.982 43.3376 103.003 43.2925 103.037 43.2588C103.071 43.2251 103.117 43.2051 103.166 43.2026H110.473C110.521 43.2039 110.568 43.2239 110.602 43.2584C110.619 43.2748 110.633 43.2946 110.642 43.3164C110.651 43.3382 110.655 43.3617 110.654 43.3852V45.1753C110.655 45.1989 110.651 45.2223 110.642 45.2441C110.633 45.266 110.619 45.2857 110.602 45.3021Z" fill="#E9161C"/>
<path d="M115.87 53.6699L112.993 43.4006V43.3398C112.993 43.2485 113.05 43.2028 113.163 43.2028H115.513C115.559 43.2006 115.605 43.2147 115.642 43.2426C115.679 43.2704 115.705 43.3103 115.715 43.355L117.06 48.8775C117.06 48.9181 117.075 48.9384 117.106 48.9384C117.106 48.9384 117.143 48.9384 117.153 48.8775L118.364 43.3702C118.368 43.3226 118.391 43.2785 118.427 43.2472C118.464 43.216 118.512 43.2 118.561 43.2028H120.713C120.76 43.2006 120.806 43.2147 120.843 43.2426C120.88 43.2704 120.905 43.3103 120.915 43.355L122.26 48.8775C122.26 48.9181 122.276 48.9384 122.307 48.9384C122.307 48.9384 122.343 48.9384 122.354 48.8775L123.606 43.3702C123.608 43.3462 123.615 43.3228 123.626 43.3014C123.637 43.2799 123.652 43.2609 123.671 43.2453C123.69 43.2298 123.712 43.218 123.735 43.2107C123.758 43.2034 123.783 43.2007 123.808 43.2028H126.1C126.245 43.2028 126.302 43.2688 126.271 43.4006L123.652 53.6699C123.639 53.7153 123.61 53.7549 123.571 53.7818C123.531 53.8086 123.483 53.8211 123.435 53.8169H121.225C121.201 53.8197 121.177 53.8177 121.153 53.811C121.13 53.8043 121.108 53.793 121.089 53.7779C121.07 53.7627 121.055 53.744 121.044 53.7228C121.032 53.7017 121.026 53.6785 121.024 53.6546L119.678 47.7974C119.678 47.7568 119.663 47.7365 119.632 47.7365C119.632 47.7365 119.595 47.7365 119.585 47.7974L118.379 53.6546C118.378 53.6785 118.371 53.7017 118.359 53.7228C118.348 53.744 118.333 53.7627 118.314 53.7779C118.295 53.793 118.273 53.8043 118.25 53.811C118.226 53.8177 118.202 53.8197 118.178 53.8169H116.108C116.057 53.8263 116.003 53.8164 115.959 53.7891C115.915 53.7619 115.883 53.7193 115.87 53.6699Z" fill="#E9161C"/>
<path d="M128.537 53.4924C127.918 53.1799 127.404 52.6992 127.057 52.108C126.7 51.4721 126.521 50.7545 126.54 50.0287V46.986C126.523 46.2766 126.702 45.576 127.057 44.9575C127.404 44.3662 127.918 43.8856 128.537 43.5731C129.218 43.2289 129.975 43.0547 130.741 43.0659C131.509 43.0567 132.267 43.2308 132.951 43.5731C133.574 43.884 134.091 44.3648 134.441 44.9575C134.794 45.5768 134.973 46.2768 134.959 46.986V50.0287C134.975 50.7543 134.797 51.4713 134.441 52.108C134.091 52.7007 133.574 53.1815 132.951 53.4924C132.268 53.8374 131.509 54.0116 130.741 53.9995C129.975 54.0123 129.218 53.838 128.537 53.4924ZM131.942 51.3625C132.255 51.0175 132.419 50.5662 132.397 50.1048V46.9657C132.417 46.5061 132.254 46.0571 131.942 45.7131C131.789 45.5536 131.602 45.4285 131.395 45.3462C131.188 45.2639 130.965 45.2265 130.741 45.2364C130.521 45.2287 130.301 45.2672 130.096 45.3494C129.892 45.4316 129.708 45.5556 129.556 45.7131C129.243 46.0559 129.079 46.5058 129.101 46.9657V50.1048C129.077 50.5665 129.241 51.0187 129.556 51.3625C129.708 51.5191 129.893 51.6421 130.097 51.7234C130.301 51.8048 130.521 51.8425 130.741 51.8341C130.966 51.8445 131.19 51.8078 131.399 51.7265C131.608 51.6451 131.796 51.521 131.952 51.3625H131.942Z" fill="#E9161C"/>
<path d="M138.162 53.6699L135.285 43.4006V43.3398C135.285 43.2485 135.342 43.2028 135.456 43.2028H137.805C137.852 43.2006 137.898 43.2147 137.934 43.2426C137.971 43.2704 137.997 43.3103 138.007 43.355L139.352 48.8775C139.352 48.9181 139.368 48.9384 139.399 48.9384C139.399 48.9384 139.435 48.9384 139.445 48.8775L140.656 43.3702C140.658 43.3462 140.665 43.3228 140.676 43.3014C140.687 43.2799 140.703 43.2609 140.722 43.2453C140.74 43.2298 140.762 43.218 140.786 43.2107C140.809 43.2034 140.834 43.2007 140.858 43.2028H143.006C143.052 43.2006 143.098 43.2147 143.135 43.2426C143.172 43.2704 143.198 43.3103 143.207 43.355L144.553 48.8775C144.553 48.9181 144.568 48.9384 144.599 48.9384C144.599 48.9384 144.636 48.9384 144.646 48.8775L145.898 43.3702C145.9 43.3462 145.907 43.3228 145.918 43.3014C145.929 43.2799 145.945 43.2609 145.964 43.2453C145.982 43.2298 146.004 43.218 146.027 43.2107C146.051 43.2034 146.075 43.2007 146.1 43.2028H148.392C148.537 43.2028 148.594 43.2688 148.563 43.4006L145.924 53.6699C145.911 53.7153 145.882 53.7549 145.842 53.7818C145.803 53.8086 145.755 53.8211 145.707 53.8169H143.497C143.473 53.8197 143.448 53.8177 143.425 53.811C143.402 53.8043 143.38 53.793 143.361 53.7779C143.342 53.7627 143.327 53.744 143.315 53.7228C143.304 53.7016 143.297 53.6785 143.295 53.6546L141.95 47.7974C141.95 47.7568 141.934 47.7365 141.903 47.7365C141.903 47.7365 141.867 47.7365 141.857 47.7974L140.651 53.6546C140.649 53.6785 140.642 53.7016 140.631 53.7228C140.62 53.744 140.604 53.7627 140.585 53.7779C140.567 53.793 140.545 53.8043 140.521 53.811C140.498 53.8177 140.473 53.8197 140.449 53.8169H138.379C138.331 53.8211 138.283 53.8086 138.244 53.7818C138.204 53.7549 138.175 53.7153 138.162 53.6699Z" fill="#E9161C"/>
</svg>
