<svg width="123" height="112" viewBox="0 0 123 112" fill="none" xmlns="http://www.w3.org/2000/svg">
<path d="M65.8895 105.702C93.8895 105.702 116.589 83.0016 116.589 54.9016C116.589 26.8016 93.7895 4.10156 65.8895 4.10156C37.8895 4.10156 15.1895 26.8016 15.1895 54.9016C15.1895 83.0016 37.8895 105.702 65.8895 105.702Z" fill="#F1F3F9" stroke="#D6DCE8" stroke-width="2" stroke-miterlimit="10"/>
<path d="M113.289 21.5984C115.554 21.5984 117.389 19.7628 117.389 17.4984C117.389 15.2341 115.554 13.3984 113.289 13.3984C111.025 13.3984 109.189 15.2341 109.189 17.4984C109.189 19.7628 111.025 21.5984 113.289 21.5984Z" fill="#EAEEF9"/>
<path d="M119.29 5.6C120.837 5.6 122.09 4.3464 122.09 2.8C122.09 1.2536 120.837 0 119.29 0C117.744 0 116.49 1.2536 116.49 2.8C116.49 4.3464 117.744 5.6 119.29 5.6Z" fill="#EAEEF9"/>
<path d="M17.8898 21.4984C19.4362 21.4984 20.6898 20.2448 20.6898 18.6984C20.6898 17.152 19.4362 15.8984 17.8898 15.8984C16.3434 15.8984 15.0898 17.152 15.0898 18.6984C15.0898 20.2448 16.3434 21.4984 17.8898 21.4984Z" fill="#EAEEF9"/>
<path d="M6.1082 82.0289C8.98008 82.0289 11.3082 79.7008 11.3082 76.8289C11.3082 73.957 8.98008 71.6289 6.1082 71.6289C3.23632 71.6289 0.908203 73.957 0.908203 76.8289C0.908203 79.7008 3.23632 82.0289 6.1082 82.0289Z" fill="#EAEEF9"/>
<path d="M106.353 88.044H25.4274C21.7067 88.044 18.6836 85.021 18.6836 81.3003V29.443C18.6836 25.7223 21.7067 22.6992 25.4274 22.6992H106.353C110.073 22.6992 113.096 25.7223 113.096 29.443V81.5328C112.864 85.021 109.841 88.044 106.353 88.044Z" fill="white" stroke="#D6DCE8" stroke-width="2" stroke-miterlimit="10"/>
<rect x="32.748" y="25.0898" width="15.3474" height="5.15288" fill="#F1F3F9" stroke="#D6DCE8" stroke-width="2" stroke-miterlimit="10"/>
<rect x="83.1582" y="25.0898" width="14.9953" height="5.15288" fill="#F1F3F9" stroke="#D6DCE8" stroke-width="2" stroke-miterlimit="10"/>
<path d="M45.4271 13.3984H35.4277V27.4637H45.4271V13.3984Z" fill="white" stroke="#D6DCE8" stroke-width="2" stroke-miterlimit="10"/>
<path d="M95.6595 13.3984H85.6602V27.4637H95.6595V13.3984Z" fill="white" stroke="#D6DCE8" stroke-width="2" stroke-miterlimit="10"/>
<path d="M47.9845 58.2776C52.2227 58.2776 55.6584 54.8418 55.6584 50.6036C55.6584 46.3654 52.2227 42.9297 47.9845 42.9297C43.7463 42.9297 40.3105 46.3654 40.3105 50.6036C40.3105 54.8418 43.7463 58.2776 47.9845 58.2776Z" stroke="#9FA8BA" stroke-width="4" stroke-miterlimit="10" stroke-linecap="round" stroke-linejoin="round"/>
<path d="M35.6602 70.8404C35.6602 64.0967 41.2412 58.5156 47.985 58.5156C54.7288 58.5156 60.3098 64.0967 60.3098 70.8404" stroke="#9FA8BA" stroke-width="4" stroke-miterlimit="10" stroke-linecap="round" stroke-linejoin="round"/>
<path d="M73.0996 49.2109H97.9818" stroke="#9FA8BA" stroke-width="4" stroke-miterlimit="10" stroke-linecap="round" stroke-linejoin="round"/>
<path d="M73.0996 61.7656H82.8665" stroke="#9FA8BA" stroke-width="4" stroke-miterlimit="10" stroke-linecap="round" stroke-linejoin="round"/>
<path d="M81.3194 97.8478C80.9969 99.2185 80.5131 100.67 79.9487 101.879C78.4168 104.862 75.9979 107.201 73.0147 108.733C69.9508 110.265 66.3225 110.91 62.6943 110.103C54.1477 108.329 48.6649 99.9441 50.4388 91.3975C52.2126 82.8509 60.5173 77.2876 69.0639 79.1421C72.1278 79.7871 74.7885 81.319 77.0461 83.4153C80.8356 87.2049 82.4482 92.6876 81.3194 97.8478Z" fill="#D6DCE8" stroke="#AAB2C5" stroke-width="2" stroke-miterlimit="10"/>
<path d="M70.6722 96.2197L69.074 94.6215L70.6722 93.0233C71.4963 92.1992 71.6019 90.7971 70.6722 89.8673C69.8481 89.0432 68.4459 88.9376 67.5162 89.8673L65.918 91.4655L64.3198 89.8673C63.4957 89.0432 62.0935 88.9376 61.1638 89.8673C60.7382 90.2929 60.4867 90.8481 60.4867 91.4453C60.4867 92.0425 60.7383 92.5978 61.1638 93.0233L62.762 94.6215L61.1638 96.2197C60.3397 97.0438 60.234 98.446 61.1638 99.3757C61.9879 100.2 63.39 100.305 64.3198 99.3757L65.918 97.7775L67.5162 99.3757C68.3403 100.2 69.7424 100.305 70.6722 99.3757C71.6019 98.446 71.4963 97.0438 70.6722 96.2197Z" fill="white" stroke="#AAB2C5" stroke-width="2"/>
</svg>
