<svg width="20" height="20" viewBox="0 0 20 20" fill="none" xmlns="http://www.w3.org/2000/svg">
<path fill-rule="evenodd" clip-rule="evenodd" d="M4.0625 4.375C3.81386 4.375 3.5754 4.47377 3.39959 4.64959C3.22377 4.8254 3.125 5.06386 3.125 5.3125V14.6875C3.125 14.9361 3.22377 15.1746 3.39959 15.3504C3.5754 15.5262 3.81386 15.625 4.0625 15.625H10.3125C10.5611 15.625 10.7996 15.5262 10.9754 15.3504C11.1512 15.1746 11.25 14.9361 11.25 14.6875V13.125C11.25 12.7798 11.5298 12.5 11.875 12.5C12.2202 12.5 12.5 12.7798 12.5 13.125V14.6875C12.5 15.2677 12.2695 15.8241 11.8593 16.2343C11.4491 16.6445 10.8927 16.875 10.3125 16.875H4.0625C3.48234 16.875 2.92594 16.6445 2.5157 16.2343C2.10547 15.8241 1.875 15.2677 1.875 14.6875V5.3125C1.875 4.73234 2.10547 4.17594 2.5157 3.7657C2.92594 3.35547 3.48234 3.125 4.0625 3.125H10C10.5869 3.125 11.1887 3.35693 11.6466 3.71569C12.102 4.07258 12.5 4.627 12.5 5.3125V6.875C12.5 7.22018 12.2202 7.5 11.875 7.5C11.5298 7.5 11.25 7.22018 11.25 6.875V5.3125C11.25 5.1351 11.1419 4.90828 10.8756 4.69964C10.6117 4.49287 10.276 4.375 10 4.375H4.0625Z" fill="white"/>
<path fill-rule="evenodd" clip-rule="evenodd" d="M13.9331 6.43306C14.1771 6.18898 14.5729 6.18898 14.8169 6.43306L17.9419 9.55806C18.186 9.80214 18.186 10.1979 17.9419 10.4419L14.8169 13.5669C14.5729 13.811 14.1771 13.811 13.9331 13.5669C13.689 13.3229 13.689 12.9271 13.9331 12.6831L16.6161 10L13.9331 7.31694C13.689 7.07286 13.689 6.67714 13.9331 6.43306Z" fill="white"/>
<path fill-rule="evenodd" clip-rule="evenodd" d="M6.25 10C6.25 9.65482 6.52982 9.375 6.875 9.375H16.875C17.2202 9.375 17.5 9.65482 17.5 10C17.5 10.3452 17.2202 10.625 16.875 10.625H6.875C6.52982 10.625 6.25 10.3452 6.25 10Z" fill="white"/>
</svg>
