<svg width="16" height="16" viewBox="0 0 16 16" fill="none" xmlns="http://www.w3.org/2000/svg">
<path fill-rule="evenodd" clip-rule="evenodd" d="M2.75 3.5C2.33579 3.5 2 3.83579 2 4.25V11.75C2 12.1642 2.33579 12.5 2.75 12.5H13.25C13.6642 12.5 14 12.1642 14 11.75V4.25C14 3.83579 13.6642 3.5 13.25 3.5H2.75ZM1 4.25C1 3.2835 1.7835 2.5 2.75 2.5H13.25C14.2165 2.5 15 3.2835 15 4.25V11.75C15 12.7165 14.2165 13.5 13.25 13.5H2.75C1.7835 13.5 1 12.7165 1 11.75V4.25Z" fill="#262626"/>
<path fill-rule="evenodd" clip-rule="evenodd" d="M3.10535 4.69305C3.27488 4.47508 3.58902 4.43581 3.80699 4.60535L8.00002 7.86659L12.1931 4.60535C12.411 4.43581 12.7252 4.47508 12.8947 4.69305C13.0642 4.91103 13.025 5.22516 12.807 5.3947L8.30699 8.8947C8.12644 9.03513 7.87361 9.03513 7.69305 8.8947L3.19305 5.3947C2.97508 5.22516 2.93581 4.91103 3.10535 4.69305Z" fill="#262626"/>
</svg>
