<svg width="24" height="24" viewBox="0 0 24 24" fill="none" xmlns="http://www.w3.org/2000/svg">
<path d="M16.4 2C13.3072 2 10.8 4.5085 10.8 7.60291C10.8 11.288 14.4409 13.0016 14.8969 13.4122C15.3625 13.8316 15.7471 14.6722 15.9031 15.2053C15.9783 15.4638 16.1904 15.5952 16.4 15.6008C16.6104 15.5952 16.8217 15.4638 16.8969 15.2053C17.0521 14.673 17.4367 13.8316 17.9031 13.4122C18.3591 13.0016 22 11.288 22 7.60291C22 4.5085 19.4928 2 16.4 2ZM2.87031 4.41376C2.40841 4.39604 2 4.76596 2 5.25482V19.0042C2 19.7189 2.47297 20.3479 3.15938 20.544L8.11562 21.9604C8.30203 22.0132 8.49797 22.0132 8.68438 21.9604L13.6031 20.555C13.8727 20.4781 14.1569 20.4729 14.4297 20.5409L20.1562 21.9744C20.6859 22.1073 21.2 21.7051 21.2 21.1584V12.9197L19.6 14.197V20.1845L14.8 18.9838V16.4481L13.2 14.197V19.0057L9.2 20.1501V7.42782L9.20937 7.4247C9.22377 6.83319 9.30977 6.26115 9.45937 5.71287L8.82969 5.87076C8.55769 5.9388 8.27196 5.93353 8.00156 5.85669L3.07187 4.44658C3.00478 4.42747 2.9363 4.41629 2.87031 4.41376ZM16.4 6.00208C17.284 6.00208 18 6.71845 18 7.60291C18 8.48737 17.284 9.20375 16.4 9.20375C15.516 9.20375 14.8 8.48737 14.8 7.60291C14.8 6.71845 15.516 6.00208 16.4 6.00208ZM3.6 6.26315L7.6 7.40594V20.1485L3.6 19.0057V6.26315Z" fill="#8C8C8C"/>
</svg>
