<svg width="32" height="32" viewBox="0 0 32 32" fill="none" xmlns="http://www.w3.org/2000/svg">
<g clip-path="url(#clip0_24297_142574)">
<path fill-rule="evenodd" clip-rule="evenodd" d="M12.1032 3.4376C12.25 3.78026 12.6318 3.8781 12.7101 4.27004C12.789 4.66174 12.5829 4.75957 12.7101 5.10223C12.8378 5.44501 13.2782 5.78767 13.5231 5.98358C13.768 6.17949 13.5844 6.06491 14.1718 6.11395C14.7596 6.16299 15.2983 5.869 15.7388 6.45673C16.1796 7.04434 15.8368 7.09313 16.2774 7.58279C16.7181 8.07256 17.1586 8.12148 16.7672 8.56222C16.3752 9.00295 15.902 9.33784 15.3633 9.33784C14.8248 9.33784 14.8737 9.87642 14.9716 10.2681C15.0696 10.6597 16.2446 10.562 16.4895 11.1005C17.2477 12.7676 19.8344 12.8227 20.5692 14.5026C20.9119 15.286 21.1077 15.2763 21.4506 15.771C21.7933 16.2652 22.4506 16.7795 22.4994 17.2201C22.8988 19.1542 22.8242 20.1685 22.0092 21.527C21.7868 21.8976 21.6803 22.0758 20.5737 22.8164C19.6954 23.4044 18.8394 24.5494 18.6673 25.3192C18.4998 26.0686 18.5355 27.2489 18.0944 27.3539C17.066 27.5987 16.3105 26.9405 16.1638 27.2832C16.0169 27.6258 15.7996 28.153 15.7996 28.153C15.7996 28.1529 16.1521 29.7029 16.0816 30.4779C16.0111 31.2529 15.5884 31.6757 16.1521 31.9125C16.7157 32.1495 16.5749 31.8868 17.068 31.3235C17.561 30.7598 17.9135 30.8302 18.8293 30.4779C19.7452 30.1257 19.2521 30.0551 19.5337 29.4916C19.8159 28.9279 20.0975 29.1393 20.802 28.646C21.5065 28.153 21.7884 28.2938 22.4223 27.5893C23.0566 26.8847 22.727 26.3951 23.2906 25.761C23.5565 25.4619 25.0506 23.9363 25.0293 23.5734C24.959 22.3756 25.5931 21.6004 25.5931 20.9666C25.5931 20.3324 25.1703 18.9234 25.0293 18.3597C24.8887 17.7961 24.395 16.4574 23.8316 15.8233C23.268 15.189 22.6496 14.2412 22.1562 13.7479C20.957 12.5485 18.3366 11.3955 19.3267 9.41371C19.4911 9.08549 19.7373 8.26495 20.3116 7.69057C20.886 7.11595 20.886 7.28006 21.4605 6.95185C22.0349 6.62363 21.4605 6.45952 21.2145 6.37747C20.9683 6.29541 20.4759 6.13118 20.2296 5.72091C19.9833 5.31064 20.3939 5.22847 21.0501 5.33929C21.7068 5.45011 21.6246 5.39258 22.1171 5.33929C22.6094 5.28588 22.6916 4.98243 23.184 4.90025C23.6762 4.81832 24.4969 4.32575 23.8402 4.2437C23.184 4.16165 23.4302 3.75138 22.6916 3.75138C21.9531 3.75138 22.1171 3.177 21.6246 2.84866C21.1324 2.52032 21.2144 2.19223 21.6246 1.53567C21.8464 1.18088 20.3939 1.37157 19.8192 1.04335C19.2448 0.715135 18.4243 0.0585813 18.2602 0.633081C18.0962 1.20758 17.6037 1.2077 17.0292 1.37157C16.4549 1.53567 16.2086 1.53567 15.7984 1.78196C15.3879 2.02812 15.1419 1.86401 14.8135 1.69978C14.4853 1.53567 13.9107 1.78196 13.9928 2.35634C14.0749 2.93071 13.3363 2.68467 12.926 2.43839C12.5158 2.19223 12.5978 1.61785 12.1876 1.61785C11.7773 1.61785 11.7773 1.86401 11.449 2.02812C11.4896 2.17621 11.6129 2.70324 11.8579 2.94795C12.1032 3.19253 11.9561 3.0947 12.1032 3.4376Z" fill="#F27024"/>
<path fill-rule="evenodd" clip-rule="evenodd" d="M16.2829 31.9629C16.6964 32.1022 16.6175 31.8387 17.0683 31.3237C17.5614 30.7601 17.9139 30.8304 18.8297 30.4781C19.7455 30.1259 19.2525 30.0553 19.5342 29.4918C19.8164 28.9281 20.098 29.1395 20.8025 28.6462C21.5071 28.1532 21.7889 28.294 22.4228 27.5895C23.0571 26.8848 22.7275 26.3953 23.2912 25.7611C23.5572 25.462 25.0512 23.9364 25.0299 23.5733C24.9595 22.3755 25.5937 21.6006 25.5937 20.9665C25.5937 20.3323 25.1709 18.9233 25.0299 18.3596C24.8892 17.796 24.3958 16.4574 23.8321 15.8232C23.2685 15.189 22.6501 14.2411 22.1568 13.7478C20.9575 12.5485 18.3371 11.3955 19.3274 9.41378C19.4916 9.08544 19.7379 8.26478 20.3121 7.69052C20.8865 7.1159 20.8865 7.28001 21.461 6.95179C22.0354 6.62345 21.461 6.45947 21.215 6.37741C20.9687 6.29536 20.4764 6.13125 20.2301 5.72086C19.9838 5.31059 20.3943 5.22853 21.0506 5.33924C21.7072 5.45018 21.6251 5.39264 22.1176 5.33924C22.6099 5.28595 22.6921 4.98225 23.1844 4.90032C23.6767 4.81826 24.4974 4.32582 23.8407 4.24377C23.1844 4.16171 23.4307 3.75144 22.6921 3.75144C21.9536 3.75144 22.1176 3.17706 21.6253 2.84873C21.1329 2.52039 21.215 2.19229 21.6253 1.53586C21.8469 1.18094 20.3944 1.37175 19.8197 1.04342C19.2453 0.715079 18.4248 0.0586469 18.2606 0.633025C18.0966 1.20752 17.6041 1.20752 17.0296 1.37163C16.4552 1.53574 16.2091 1.53574 15.7988 1.7819C15.6275 1.88459 15.4849 1.91579 15.353 1.90547C15.3745 2.01398 15.3957 2.13197 15.4243 2.25335C15.4803 2.49138 16.0822 3.00944 16.7683 2.64541C17.4545 2.28139 17.3424 3.10751 18.1683 3.10751C18.9944 3.10751 18.0912 4.26246 18.4832 4.48653C18.8752 4.7106 18.5952 4.7946 18.6231 5.10254C18.6512 5.41061 19.3024 6.36952 19.3024 6.36952C19.3024 6.36952 19.2464 6.8735 19.0784 7.32152C18.9103 7.76954 18.8544 7.51743 18.6303 7.79746C18.4062 8.07748 18.5463 7.88157 18.3783 8.10552C18.2104 8.32947 18.0424 8.88953 18.1263 9.58954C18.2506 10.6265 18.5496 11.3219 19.0714 11.9916C19.7955 12.9209 21.8412 14.1671 21.9793 14.4938C22.133 14.8573 21.9753 15.2276 22.1863 15.5817C22.5178 16.1381 23.2974 16.3925 23.7095 17.3858C24.1334 18.4068 23.8706 19.7147 24.0063 19.9499C24.4261 20.6779 24.5383 20.7619 24.7343 21.3779C24.9304 21.9939 23.6142 24.0659 23.5583 24.3459C23.5022 24.6259 23.3903 24.4859 23.0262 24.8218C22.6622 25.1581 22.5783 25.0459 22.1582 25.4099C21.7381 25.774 21.9622 25.7459 21.8502 26.3618C21.7381 26.9779 21.7101 26.7539 21.5982 27.006C21.4863 27.258 20.8421 27.678 20.2261 27.678C19.6101 27.678 19.806 27.706 19.6941 27.8459C19.582 27.9859 19.554 28.042 19.246 28.63C18.938 29.2179 18.9941 29.078 18.2941 29.3859C17.594 29.694 17.482 29.9179 16.782 30.7861C16.4885 31.1502 16.3476 31.5829 16.2829 31.9629Z" fill="#F27024"/>
<path d="M17.5007 22.4117C19.7406 20.1718 19.7406 16.5401 17.5007 14.3002C15.2607 12.0602 11.6291 12.0602 9.38911 14.3002C7.14917 16.5401 7.14917 20.1718 9.38912 22.4117C11.6291 24.6517 15.2607 24.6517 17.5007 22.4117Z" fill="#F27024"/>
<path fill-rule="evenodd" clip-rule="evenodd" d="M13.45 24.0933C10.2816 24.0933 7.71337 21.5249 7.71337 18.3567C7.71337 15.1884 10.2816 12.6201 13.45 12.6201V24.0933Z" fill="#F27024"/>
<path fill-rule="evenodd" clip-rule="evenodd" d="M13.41 13.8594H13.4898C15.9555 13.8809 17.9478 15.8858 17.9478 18.3566C17.9478 20.8273 15.9555 22.8326 13.4898 22.8539H13.41C10.9442 22.8324 8.95211 20.8273 8.95211 18.3566C8.95211 15.8858 10.9442 13.8809 13.41 13.8594Z" fill="#CA2026"/>
<path fill-rule="evenodd" clip-rule="evenodd" d="M13.45 16.0664L13.9919 17.8525L15.858 17.8159L14.3266 18.8831L14.9382 20.6467L13.45 19.5201L11.9617 20.6467L12.5733 18.8831L11.042 17.8159L12.9082 17.8525L13.45 16.0664Z" fill="#F8E100"/>
</g>
<defs>
<clipPath id="clip0_24297_142574">
<rect width="32" height="32" fill="white"/>
</clipPath>
</defs>
</svg>
