<svg width="20" height="20" viewBox="0 0 20 20" fill="none" xmlns="http://www.w3.org/2000/svg">
<path fill-rule="evenodd" clip-rule="evenodd" d="M7.68554 3.14668C7.96509 2.20785 8.78493 1.25 9.99929 1.25C11.214 1.25 12.033 2.20789 12.3147 3.14495C12.3161 3.1467 12.318 3.1489 12.3204 3.15143C12.3262 3.15746 12.3327 3.16299 12.3389 3.16729C12.3436 3.17056 12.3464 3.17196 12.3468 3.17213C13.0537 3.46318 13.8857 3.92809 14.5365 4.77928C15.1925 5.63732 15.6192 6.82844 15.6192 8.49023C15.6192 10.1471 15.794 11.0557 16.0514 11.6794C16.2771 12.2263 16.5739 12.5858 16.9963 13.0974C17.058 13.1721 17.1223 13.25 17.1895 13.3323L17.1897 13.3325C17.9681 14.2859 17.2331 15.625 16.0341 15.625H3.96843C2.77163 15.625 2.02423 14.2927 2.80905 13.3323C2.87631 13.25 2.94072 13.172 3.00244 13.0972C3.42472 12.5857 3.72155 12.2262 3.94746 11.6793C4.20512 11.0555 4.38034 10.1469 4.38132 8.49023M7.68554 3.14668C7.68446 3.14796 7.68311 3.14947 7.68147 3.15118C7.67614 3.1567 7.66986 3.16202 7.66358 3.16634C7.65776 3.17035 7.65426 3.17192 7.65426 3.17193L7.65388 3.17208C6.94668 3.46331 6.11435 3.92734 5.46353 4.77833C4.80757 5.63603 4.38139 6.82698 4.38132 8.48987M9.99929 2.5C9.5181 2.5 9.05855 2.90126 8.8807 3.51312L8.88025 3.51467C8.76558 3.9054 8.44807 4.19702 8.12986 4.32792C8.12981 4.32794 8.12976 4.32796 8.12972 4.32797C7.53267 4.57386 6.92229 4.92857 6.45644 5.53769C5.99575 6.14008 5.63132 7.05058 5.63132 8.49023V8.4906C5.63033 10.2185 5.45048 11.3147 5.10279 12.1565C4.8003 12.8888 4.37805 13.3977 3.9591 13.9026C3.89821 13.976 3.8374 14.0493 3.77703 14.1232L3.777 14.1232C3.75212 14.1537 3.74516 14.1786 3.74346 14.1974C3.74153 14.2187 3.74554 14.2442 3.75892 14.2704C3.78215 14.3159 3.83998 14.375 3.96843 14.375H16.0341C16.1579 14.375 16.2148 14.3179 16.2385 14.2711C16.2638 14.221 16.2607 14.1712 16.2216 14.1232C16.1612 14.0493 16.1004 13.9761 16.0396 13.9027C15.6206 13.3978 15.1983 12.8888 14.896 12.1563C14.5485 11.3144 14.3692 10.2181 14.3692 8.49023C14.3692 7.05242 14.0045 6.14159 13.5435 5.53849C13.0772 4.92862 12.4665 4.57322 11.8707 4.32794C11.549 4.19559 11.2348 3.89988 11.1208 3.51567L11.1203 3.51408C10.9402 2.90097 10.4805 2.5 9.99929 2.5Z" fill="white"/>
<path fill-rule="evenodd" clip-rule="evenodd" d="M7.5 14.375C7.84518 14.375 8.125 14.6548 8.125 15V15.625C8.125 16.1223 8.32254 16.5992 8.67417 16.9508C9.02581 17.3025 9.50272 17.5 10 17.5C10.4973 17.5 10.9742 17.3025 11.3258 16.9508C11.6775 16.5992 11.875 16.1223 11.875 15.625V15C11.875 14.6548 12.1548 14.375 12.5 14.375C12.8452 14.375 13.125 14.6548 13.125 15V15.625C13.125 16.4538 12.7958 17.2487 12.2097 17.8347C11.6237 18.4208 10.8288 18.75 10 18.75C9.1712 18.75 8.37634 18.4208 7.79029 17.8347C7.20424 17.2487 6.875 16.4538 6.875 15.625V15C6.875 14.6548 7.15482 14.375 7.5 14.375Z" fill="white"/>
</svg>
