<svg width="135" height="121" viewBox="0 0 135 121" fill="none" xmlns="http://www.w3.org/2000/svg">
<path d="M42.002 105.346H118.044" stroke="#CDD6E1" stroke-width="2.38568" stroke-miterlimit="10" stroke-linecap="round" stroke-linejoin="round"/>
<path d="M125.469 105.346H133" stroke="#CDD6E1" stroke-width="2.38568" stroke-miterlimit="10" stroke-linecap="round" stroke-linejoin="round"/>
<path d="M43.6685 99.5697C45.9853 99.5697 47.8633 97.6942 47.8633 95.3761C47.8633 93.0579 45.9853 91.1826 43.6685 91.1826C41.3523 91.1826 39.4744 93.0579 39.4744 95.3761C39.4744 97.6942 41.3523 99.5697 43.6685 99.5697Z" fill="#B8BFCD"/>
<path d="M84.732 82.1182C84.7834 88.7471 85.3531 97.134 85.5602 98.0196C85.5081 98.9508 83.5409 101.901 81.9352 99.882C80.3301 97.8634 77.0678 93.5136 78.5693 85.3284C80.0716 77.2019 84.732 82.1182 84.732 82.1182Z" fill="#F1F3F9" stroke="#D6DCE8" stroke-width="1.59045" stroke-miterlimit="10"/>
<path d="M43.0995 99.5174C43.0995 99.5695 43.0995 99.6737 43.151 99.7258C43.151 99.7779 43.203 99.882 43.203 99.9341C43.2545 99.9862 43.2545 100.09 43.3066 100.142C43.358 100.195 43.4101 100.247 43.4616 100.344C43.7207 100.709 44.1869 101.022 44.7046 101.334C44.8082 101.38 44.9631 101.432 45.0666 101.484C45.1187 101.536 45.2223 101.536 45.2737 101.588C45.3258 101.64 45.4294 101.64 45.4815 101.692L45.6885 101.744C45.947 101.849 46.2576 101.953 46.5689 102.005C46.7239 102.057 46.8274 102.057 46.983 102.109C47.0866 102.109 47.1901 102.161 47.3451 102.161C47.4486 102.161 47.5522 102.213 47.6564 102.213C48.4846 102.317 49.2615 102.265 49.9348 102.005C52.2646 101.126 53.1965 99.309 53.1965 99.309C53.1965 99.309 53.8183 99.4654 54.8022 99.5695C56.6659 99.83 59.7732 100.195 62.4658 99.9341C63.3462 99.8299 64.278 99.6216 65.2619 99.3611C65.5725 99.2569 65.8831 99.1593 66.2458 99.0551C66.867 98.8467 67.4368 98.5862 68.058 98.3257C69.7152 97.6029 71.2689 96.6196 72.5634 95.5322C72.7184 95.428 72.874 95.2718 73.0296 95.1677C73.7543 94.497 74.3756 93.7677 74.8418 93.0449C75.7736 91.443 77.0167 90.0951 78.3626 88.7993C80.3825 86.8848 82.7645 85.2244 84.9394 83.4663C85.6127 82.9453 86.2854 82.3787 86.9072 81.8577C88.9265 80.0996 90.7387 78.029 91.9818 75.6458C93.3277 73.0606 93.3277 70.6252 93.1206 67.7731C93.1206 67.6234 92.81 65.7546 92.9136 65.7025C93.846 65.0839 94.5187 64.2048 94.8814 63.1174C95.7097 60.9425 95.3991 58.1424 94.4152 56.3321C94.3116 56.1238 94.2081 55.9155 94.1046 55.7657C93.0692 53.949 91.8261 51.826 90.4281 50.426L87.8911 47.8931H65.8317C65.8317 47.8931 65.5725 49.3907 65.2104 51.2595C65.1583 51.4158 65.1583 51.5657 65.1069 51.722C65.0548 52.0346 65.0034 52.3471 64.8998 52.6531C64.8477 52.8094 64.8477 52.9657 64.7956 53.1219C64.7956 53.174 64.7956 53.174 64.7442 53.2261C64.6921 53.5907 64.5886 53.8968 64.5371 54.2615C64.33 55.2968 64.0709 56.228 63.7603 57.0028C63.7603 57.0549 63.7082 57.1592 63.7082 57.2113C63.5532 57.628 63.3976 57.9861 63.2426 58.2465C61.9995 60.2651 55.6826 66.067 51.2807 69.3293C46.8795 72.5917 44.8596 78.1331 43.7207 87.0931C42.4262 95.9945 42.8918 97.8113 43.0995 99.5174Z" fill="white" stroke="#D6DCE8" stroke-width="1.59045" stroke-miterlimit="10" stroke-linejoin="round"/>
<path d="M82.8676 97.0818C85.8193 96.7758 85.7673 97.0818 87.4245 97.0818C89.0817 97.0818 89.4958 97.9153 90.117 98.6902C90.4797 99.2046 90.9974 100.709 91.308 101.796C91.5151 102.421 91.0489 102.988 90.4277 103.04C88.5634 103.04 85.1975 103.092 84.6284 103.04C83.7994 102.936 82.0387 102.727 81.2625 101.432C81.0033 100.969 80.8477 100.344 80.6927 99.7256C80.4857 98.534 81.2625 97.3422 82.5049 97.186L82.8676 97.0818Z" fill="white" stroke="#D6DCE8" stroke-width="1.59045" stroke-miterlimit="10"/>
<path opacity="0.3" d="M43.0991 99.5175C43.2541 101.23 47.5003 102.832 49.8302 101.953C52.2122 101.074 53.0925 99.2571 53.0925 99.2571C53.0925 99.2571 58.2191 100.292 62.3618 99.9341C65.4686 99.6216 69.6634 97.8115 72.4074 95.4803L72.0453 87.6077C72.0453 87.6077 71.7341 80.7249 71.4235 77.7165C71.1649 74.7146 73.5469 74.7667 73.4434 70.8858C73.2877 66.9983 74.8414 60.1155 76.8607 53.7927L69.8183 48.5117L65.003 51.2596C64.5367 53.8447 63.7599 57.1071 63.0866 58.2987C61.8442 60.3173 55.5265 66.1192 51.1253 69.3816C46.7235 72.6439 44.7042 78.1853 43.5647 87.1454C42.4258 95.9947 42.8914 97.8114 43.0991 99.5175Z" fill="#C4D1E4"/>
<path opacity="0.2" d="M43.0993 99.5176C43.0993 99.5697 43.0994 99.674 43.1508 99.7261C43.1508 99.7781 43.2029 99.8822 43.2029 99.9343C43.2543 99.9864 43.2543 100.091 43.3064 100.143C43.3578 100.195 43.41 100.247 43.4614 100.345C43.7206 100.709 44.1868 101.022 44.7045 101.334C44.808 101.38 44.963 101.432 45.0665 101.484C45.1186 101.536 45.2222 101.536 45.2742 101.588C45.3257 101.64 45.4292 101.64 45.4813 101.693L45.6884 101.745C45.9469 101.849 46.2575 101.953 46.5687 102.005C46.7237 102.057 46.8272 102.057 46.9829 102.109C47.7076 101.64 48.1218 101.334 48.1218 101.334C48.1218 101.334 48.1218 101.334 47.8112 99.4655C47.7076 98.899 47.6041 98.1176 47.4485 97.0823C46.7758 92.7846 47.2414 84.2934 52.9892 84.5539C52.368 80.2041 54.75 75.3855 56.8213 72.3315C58.9441 69.3297 60.4978 70.99 62.31 73.0607C62.5177 72.1752 61.5853 68.659 60.4464 65.553C62.7762 68.3465 64.8476 69.3296 70.3883 69.8505C67.9029 67.7733 67.5923 66.686 65.5723 62.1343C68.1099 63.326 73.288 64.7194 76.3953 65.1361C83.9032 66.1194 90.3765 65.7548 94.7262 63.1176C95.5545 60.9427 95.2439 58.1426 94.26 56.3324C94.1565 56.124 94.053 55.9157 93.9494 55.7659C89.9617 55.4013 83.1785 54.8282 76.8095 54.2617C72.1491 53.845 67.6958 53.4348 64.692 53.1743C64.692 53.2264 64.6919 53.2264 64.6405 53.2784C64.5884 53.6366 64.4849 53.9492 64.4334 54.3139C64.2264 55.3492 63.9672 56.2803 63.6566 57.0552C63.6566 57.1073 63.6045 57.2114 63.6045 57.2635C63.4495 57.6802 63.2939 58.0384 63.1389 58.2989C61.8959 60.3175 55.5783 66.1194 51.1771 69.3817C46.7758 72.6441 44.7559 78.1855 43.617 87.1455C42.4261 95.9948 42.8916 97.8116 43.0993 99.5176Z" fill="#BFC8D6"/>
<path d="M72.8741 102.571C72.8741 102.571 72.46 96.3072 72.4079 95.4802C72.3564 94.9072 68.9906 97.603 65.8832 91.8532C62.7765 86.1099 62.3103 85.0747 62.4138 83.6226C61.482 90.9221 64.3816 95.8448 64.9514 98.482C65.5212 101.126 66.0388 101.022 66.0388 101.022L71.269 102.057L72.8741 102.571Z" fill="#DBDFE6"/>
<path d="M67.6963 98.3257C70.6474 97.9675 70.5959 98.3257 72.2531 98.3257C73.9097 98.3257 74.3245 99.2048 74.9457 100.038C75.3084 100.553 75.8261 102.213 76.1367 103.405C76.3438 104.075 75.8775 104.694 75.2563 104.694C73.392 104.694 69.2493 104.642 68.6802 104.596C67.8513 104.492 66.8674 104.336 66.1426 102.936C65.8835 102.422 65.7285 101.744 65.5729 101.074C65.3658 99.7778 66.1426 98.534 67.3857 98.3257H67.6963Z" fill="white" stroke="#D6DCE8" stroke-width="1.59045" stroke-miterlimit="10"/>
<path d="M54.2317 99.2049C55.5777 100.038 56.3545 102.005 56.7687 103.405C56.9764 104.076 56.5102 104.694 55.8889 104.694C54.0247 104.694 49.8819 104.642 49.3122 104.597C46.0498 104.18 45.6878 100.605 48.1733 99.2049C49.7263 98.2737 52.6781 98.2216 54.2317 99.2049Z" fill="white" stroke="#D6DCE8" stroke-width="1.59045" stroke-miterlimit="10"/>
<path d="M90.0911 58.937C89.6301 59.3668 89.1098 59.7575 88.5824 60.0961C87.8648 60.5649 87.0886 60.9881 86.3046 61.3593C83.9025 62.4858 81.3466 63.2738 78.645 63.3975C76.4108 63.5017 74.0386 63.3714 71.8488 62.6942C71.0875 62.4858 70.3114 62.1798 69.6374 61.8542C65.7565 59.9528 63.5451 58.3835 63.2378 54.0337C62.9311 49.6839 63.129 46.311 63.129 46.311C63.129 45.9398 63.5249 45.4123 63.6343 45.0867C63.8394 44.6895 63.9859 44.2533 64.1911 43.8561C64.5498 43.0747 64.9529 42.2281 65.3703 41.4923C66.2936 39.8969 67.4579 38.5231 68.9374 37.5268C71.3246 35.9314 74.2177 35.3128 77.0515 35.0132C79.1092 34.7723 81.2405 34.6747 83.3053 35.2151C85.0999 35.6905 86.6374 36.5695 88.0139 37.7872C89.5077 39.0895 90.6791 40.7044 91.9899 42.1891C91.9899 42.1891 93.1249 45.3732 94.0469 49.6383C94.969 53.897 93.2773 55.9742 90.0911 58.937Z" fill="white" stroke="#D6DCE8" stroke-width="1.59045" stroke-miterlimit="10" stroke-linejoin="round"/>
<path d="M72.8607 52.1906C72.3189 52.7897 71.8129 54.7431 68.8325 54.0203C64.6 52.9524 64.264 47.6649 66.2344 45.7049C69.7572 42.1691 74.0041 42.9766 75.1755 46.7859C76.3834 50.8492 73.952 51.0381 72.8607 52.1906Z" fill="#F1F3F9" stroke="#D6DCE8" stroke-width="1.59045" stroke-miterlimit="10"/>
<path d="M64.5869 39.6688C65.7226 38.093 67.3993 38.4771 66.8204 40.2873C65.8756 43.1981 63.9859 44.6175 63.8381 55.3096C63.7938 57.198 57.3356 53.3561 57.0653 46.7012C56.9924 45.4575 58.494 44.9822 58.494 44.9822C59.3945 44.6957 62.8001 42.1692 64.5869 39.6688Z" fill="#D6DCE8" stroke="#AAB2C5" stroke-miterlimit="10"/>
<path d="M88.0621 57.1855C88.2451 58.4683 88.0621 59.751 87.5933 60.8645C86.9708 61.2682 86.2896 61.6263 85.6085 61.9845C83.4994 62.9612 81.2438 63.6516 78.9588 63.7688C77.0405 63.886 74.9235 63.7166 73.0124 63.1501C72.134 62.1278 71.5994 60.9491 71.4021 59.5622C70.8017 55.3621 74.0614 51.4422 78.6749 50.7845C83.237 50.1333 87.4624 52.9855 88.0621 57.1855Z" fill="#F1F3F9" stroke="#D6DCE8" stroke-width="1.59045" stroke-miterlimit="10"/>
<path d="M70.472 51.9564C72.1422 51.7154 73.3033 50.1721 73.0649 48.4987C72.8266 46.8317 71.2788 45.6661 69.6086 45.907C67.9383 46.1415 66.7773 47.6913 67.0156 49.3648C67.254 51.0317 68.8018 52.1908 70.472 51.9564Z" fill="white"/>
<path d="M72.803 48.8503C72.986 50.1331 72.0627 51.3639 70.7812 51.5462C69.4997 51.7286 68.2696 50.8038 68.0867 49.521C68.3211 49.6969 68.5991 49.814 68.9071 49.7749C69.4711 49.6903 69.9177 49.1564 69.8298 48.5443C69.7491 47.9778 69.2223 47.5806 68.6506 47.6132C69.01 47.1964 69.5446 46.91 70.1085 46.8318C71.4408 46.6365 72.6129 47.5154 72.803 48.8503Z" fill="#989FB0"/>
<path d="M87.2863 49.5536C88.9565 49.3192 90.1175 47.7694 89.8785 46.0959C89.6402 44.4289 88.093 43.2698 86.4228 43.5042C84.7525 43.7452 83.5915 45.295 83.8298 46.962C84.0682 48.6355 85.6154 49.7945 87.2863 49.5536Z" fill="white"/>
<path d="M84.1822 47.2289C84.3651 48.5052 85.5952 49.4299 86.8767 49.2476C88.1582 49.0653 89.0809 47.8345 88.8979 46.5517C88.7221 46.7861 88.4883 46.9749 88.1803 47.0205C87.6164 47.1052 87.0382 46.7145 86.9503 46.0959C86.8695 45.5359 87.2654 45.0085 87.8215 44.8783C87.3605 44.5788 86.7673 44.4485 86.2034 44.5332C84.9219 44.7155 83.992 45.894 84.1822 47.2289Z" fill="#989FB0"/>
<path d="M78.7474 51.2986C78.3371 51.3572 77.9347 51.4679 77.5394 51.6242C77.0485 51.8521 76.3159 52.2167 76.411 52.8874C76.5282 53.7078 78.5859 54.1963 79.099 54.1247C79.6115 54.0531 81.4569 53.0568 81.3325 52.1842C81.2153 51.3638 80.4098 51.214 79.7287 51.2075C79.4141 51.201 79.0476 51.2009 78.7474 51.2986Z" fill="#989FB0"/>
<path d="M79.2826 53.9425L79.0918 53.708L78.9746 53.9881C78.9746 53.9881 79.0768 55.7984 78.7473 56.4235C79.0553 56.7425 79.3112 56.7099 79.4063 56.6448C79.5678 56.6708 79.8237 56.6383 79.978 56.2476C79.5971 55.7788 79.2826 53.9425 79.2826 53.9425Z" fill="#989FB0"/>
<path d="M68.8043 42.4626C68.1154 42.7752 67.53 43.0618 67.0755 43.5502C66.6216 44.032 66.2993 44.7026 66.1892 45.3994C66.1964 45.4515 66.1456 45.458 66.0942 45.4646C66.0427 45.4711 66.0355 45.4254 66.0355 45.4254C65.9841 45.0608 66.0798 44.631 66.1892 44.3055C66.2921 43.9213 66.5044 43.5761 66.7753 43.2766C67.0462 42.977 67.3249 42.7297 67.6615 42.5213C68.006 42.3715 68.4084 42.2608 68.7822 42.3129C68.8408 42.3519 68.8994 42.3975 68.8043 42.4626C68.8551 42.4561 68.8551 42.4561 68.8043 42.4626Z" fill="#989FB0"/>
<path d="M86.183 39.9817C86.9299 40.0859 87.5745 40.203 88.1456 40.5416C88.7167 40.8802 89.2148 41.4337 89.515 42.0719C89.5222 42.124 89.5736 42.1175 89.6251 42.111C89.6759 42.098 89.6687 42.0523 89.6687 42.0523C89.6172 41.6877 89.405 41.3034 89.2077 41.0169C89.0026 40.6783 88.7023 40.4113 88.3579 40.1965C88.0141 39.9816 87.6768 39.8253 87.2965 39.7211C86.9227 39.669 86.5053 39.6756 86.1609 39.8319C86.1172 39.8905 86.1244 39.9426 86.183 39.9817Z" fill="#989FB0"/>
<path d="M89.1187 35.6447C87.5885 34.4466 86.0869 35.2867 87.1483 36.8625C88.8693 39.389 91.0807 40.2289 94.2135 50.4522C94.7845 52.2494 99.9118 46.7602 98.3086 40.2941C98.0305 39.0765 96.4561 39.0373 96.4561 39.0373C95.5112 39.0177 91.5352 37.5461 89.1187 35.6447Z" fill="#D6DCE8" stroke="#AAB2C5" stroke-miterlimit="10"/>
<path d="M1 106.511H29.2729C30.1533 106.511 30.3089 107.807 29.4285 107.957C21.4537 109.617 11.8223 110.288 17.3631 113.654C26.7874 119.352 41.4933 122.25 58.996 118.987C74.7379 116.09 74.9449 73.4187 75.6697 61.7173C75.8253 59.6466 77.5339 57.9927 79.6053 57.9927H80.9519C83.1262 57.9927 84.939 59.7508 84.939 61.9257V68.9649" stroke="#AAB2C2" stroke-miterlimit="10" stroke-linecap="round" stroke-linejoin="round"/>
<path d="M85.1693 59.0088C85.7638 61.5288 83.7127 62.7595 80.9407 63.4172C78.1687 64.0684 75.7848 63.886 75.1902 61.366C74.5957 58.846 76.3382 56.3064 79.1102 55.6552C81.8816 54.9976 84.5748 56.4888 85.1693 59.0088Z" fill="#D6DCE8" stroke="#AAB2C5" stroke-width="1.59045" stroke-miterlimit="10"/>
<path d="M82.5043 82.1187C81.9866 82.1187 81.5725 81.7085 81.5725 81.1875V77.5605C81.5725 77.0461 81.9866 76.6294 82.5043 76.6294C83.022 76.6294 83.4368 77.0461 83.4368 77.5605V81.1875C83.4368 81.7606 83.022 82.1187 82.5043 82.1187Z" fill="#989FB0"/>
<path d="M87.3201 82.1187C86.8018 82.1187 86.3877 81.7085 86.3877 81.1875V77.5605C86.3877 77.0461 86.8018 76.6294 87.3201 76.6294C87.8378 76.6294 88.252 77.0461 88.252 77.5605V81.1875C88.252 81.7606 87.8378 82.1187 87.3201 82.1187Z" fill="#989FB0"/>
<path d="M89.7542 77.6124H80.2263V76.525C80.2263 73.8878 82.3498 69.3296 84.9902 69.3296C87.6313 69.3296 89.7542 73.8878 89.7542 76.525V77.6124Z" fill="#D6DCE8" stroke="#AAB2C5" stroke-miterlimit="10"/>
<path d="M129.989 79.4289H110.364C109.536 79.4289 108.914 78.7517 108.914 77.9768V57.0549C108.914 56.228 109.587 55.6094 110.364 55.6094H129.989C130.818 55.6094 131.439 56.2801 131.439 57.0549V77.9768C131.491 78.7517 130.818 79.4289 129.989 79.4289Z" fill="#F1F3F9" stroke="#D6DCE8" stroke-width="1.59045" stroke-miterlimit="10"/>
<path d="M127.556 67.1023C127.556 69.5377 126.365 71.7647 124.552 73.1126H115.698C113.885 71.7647 112.694 69.5898 112.694 67.1023C112.694 64.667 113.885 62.44 115.698 61.0986H124.552C126.365 62.4921 127.556 64.667 127.556 67.1023Z" fill="#D6DCE8" stroke="#AAB2C5" stroke-miterlimit="10"/>
<path d="M117.353 67.5192C116.99 67.5192 116.68 67.2068 116.68 66.8421V64.6151C116.68 64.2569 116.99 63.9443 117.353 63.9443C117.715 63.9443 118.026 64.2569 118.026 64.6151V66.8421C118.026 67.2068 117.715 67.5192 117.353 67.5192Z" fill="#989FB0"/>
<path d="M122.791 67.5192C122.429 67.5192 122.118 67.2068 122.118 66.8421V64.6151C122.118 64.2569 122.429 63.9443 122.791 63.9443C123.153 63.9443 123.464 64.2569 123.464 64.6151V66.8421C123.464 67.2068 123.153 67.5192 122.791 67.5192Z" fill="#989FB0"/>
<path d="M120.72 70.7298H119.373C119.063 70.7298 118.752 70.4694 118.752 70.1047V69.434C118.752 68.7112 119.322 68.1382 120.046 68.1382C120.771 68.1382 121.341 68.7112 121.341 69.434V70.1047C121.341 70.4173 121.082 70.7298 120.72 70.7298Z" fill="#989FB0"/>
<path d="M111.296 58.7676C111.782 58.7676 112.176 58.3704 112.176 57.8886C112.176 57.4002 111.782 57.0029 111.296 57.0029C110.809 57.0029 110.416 57.4002 110.416 57.8886C110.416 58.3704 110.809 58.7676 111.296 58.7676Z" fill="#D2DAE7"/>
<path d="M129.162 58.7676C129.648 58.7676 130.042 58.3704 130.042 57.8886C130.042 57.4002 129.648 57.0029 129.162 57.0029C128.675 57.0029 128.281 57.4002 128.281 57.8886C128.281 58.3704 128.675 58.7676 129.162 58.7676Z" fill="#D2DAE7"/>
<path d="M111.296 78.081C111.782 78.081 112.176 77.6838 112.176 77.2019C112.176 76.7135 111.782 76.3228 111.296 76.3228C110.809 76.3228 110.416 76.7135 110.416 77.2019C110.416 77.6838 110.809 78.081 111.296 78.081Z" fill="#D2DAE7"/>
<path d="M129.162 78.081C129.648 78.081 130.042 77.6838 130.042 77.2019C130.042 76.7135 129.648 76.3228 129.162 76.3228C128.675 76.3228 128.281 76.7135 128.281 77.2019C128.281 77.6838 128.675 78.081 129.162 78.081Z" fill="#D2DAE7"/>
<path d="M70.186 0L73.3611 1.15909L74.1842 21.9183L72.4592 21.1954L70.186 0Z" fill="#B8BFCD"/>
<path d="M72.6169 23.5591L74.185 24.3144V26.359L72.6169 25.7143V23.5591Z" fill="#B8BFCD"/>
<path d="M76.8494 10.438L80.0245 11.4799V24.8353L78.2605 24.119L76.8494 10.438Z" fill="#B8BFCD"/>
<path d="M78.4187 26.3589L80.0258 27.0752V28.9961L78.4187 28.3971V26.3589Z" fill="#B8BFCD"/>
</svg>
