<svg width="18" height="19" viewBox="0 0 18 19" fill="none" xmlns="http://www.w3.org/2000/svg">
<path d="M15.4715 12.7492C15.4131 12.6789 15.3558 12.6086 15.2996 12.5407C14.5261 11.6052 14.0582 11.0406 14.0582 8.39227C14.0582 7.02117 13.7302 5.89617 13.0837 5.05242C12.607 4.4291 11.9625 3.95625 11.1132 3.6068C11.1022 3.60072 11.0925 3.59274 11.0843 3.58324C10.7788 2.5602 9.94281 1.875 8.99992 1.875C8.05703 1.875 7.22137 2.5602 6.91586 3.58219C6.90771 3.59134 6.89808 3.59906 6.88738 3.60504C4.90527 4.42102 3.94199 5.98652 3.94199 8.39121C3.94199 11.0406 3.47477 11.6052 2.70062 12.5396C2.64437 12.6075 2.58707 12.6764 2.52871 12.7481C2.37796 12.9299 2.28245 13.1511 2.25348 13.3855C2.22451 13.6199 2.26329 13.8577 2.36523 14.0707C2.58215 14.5277 3.04445 14.8114 3.57215 14.8114H14.4316C14.9568 14.8114 15.4159 14.5281 15.6336 14.0732C15.7359 13.8601 15.7751 13.6221 15.7464 13.3874C15.7176 13.1528 15.6222 12.9313 15.4715 12.7492Z" fill="#262626"/>
<path d="M9.00018 17.625C9.5082 17.6246 10.0066 17.4867 10.4426 17.2259C10.8786 16.9652 11.2359 16.5913 11.4766 16.1439C11.4879 16.1224 11.4935 16.0984 11.4928 16.0742C11.4922 16.0499 11.4852 16.0263 11.4727 16.0055C11.4602 15.9847 11.4425 15.9676 11.4214 15.9556C11.4002 15.9437 11.3764 15.9375 11.3521 15.9375H6.64893C6.62465 15.9374 6.60075 15.9436 6.57958 15.9555C6.55841 15.9674 6.54067 15.9846 6.52811 16.0054C6.51554 16.0261 6.50857 16.0498 6.50787 16.0741C6.50717 16.0984 6.51277 16.1224 6.52413 16.1439C6.76478 16.5912 7.12201 16.9651 7.55793 17.2258C7.99386 17.4866 8.49222 17.6245 9.00018 17.625Z" fill="#262626"/>
</svg>
