<svg width="17" height="16" viewBox="0 0 17 16" fill="none" xmlns="http://www.w3.org/2000/svg">
<path fill-rule="evenodd" clip-rule="evenodd" d="M2 8C2 4.41136 4.91136 1.5 8.5 1.5C12.0886 1.5 15 4.41136 15 8C15 11.5886 12.0886 14.5 8.5 14.5C4.91136 14.5 2 11.5886 2 8ZM8.5 2.5C5.46364 2.5 3 4.96364 3 8C3 11.0364 5.46364 13.5 8.5 13.5C11.5364 13.5 14 11.0364 14 8C14 4.96364 11.5364 2.5 8.5 2.5Z" fill="#8C8C8C"/>
<path fill-rule="evenodd" clip-rule="evenodd" d="M8.5 3.5C8.77614 3.5 9 3.72386 9 4V8H11.5C11.7761 8 12 8.22386 12 8.5C12 8.77614 11.7761 9 11.5 9H8.5C8.22386 9 8 8.77614 8 8.5V4C8 3.72386 8.22386 3.5 8.5 3.5Z" fill="#8C8C8C"/>
</svg>
