<svg width="101" height="100" viewBox="0 0 101 100" fill="none" xmlns="http://www.w3.org/2000/svg">
<path d="M64.159 28.4367L58.1215 25.418L52.084 28.4367C51.5918 28.6819 51.0495 28.8095 50.4996 28.8095C49.9498 28.8095 49.4074 28.6819 48.9152 28.4367L42.8777 25.418L36.8402 28.4367C36.348 28.6817 35.8057 28.8092 35.2559 28.8092C34.706 28.8092 34.1637 28.6817 33.6715 28.4367L29.5059 26.3555V73.643L33.6715 71.5617C34.1637 71.3168 34.706 71.1893 35.2559 71.1893C35.8057 71.1893 36.348 71.3168 36.8402 71.5617L42.8777 74.5805L48.9152 71.5617C49.4074 71.3165 49.9498 71.1889 50.4996 71.1889C51.0495 71.1889 51.5918 71.3165 52.084 71.5617L58.1215 74.5805L64.159 71.5617C64.6511 71.3165 65.1935 71.1889 65.7434 71.1889C66.2932 71.1889 66.8356 71.3165 67.3277 71.5617L71.4934 73.643V26.3555L67.3277 28.4367C66.8356 28.6819 66.2932 28.8095 65.7434 28.8095C65.1935 28.8095 64.6511 28.6819 64.159 28.4367Z" fill="#FFEFEF"/>
<path d="M87.25 8.125H13.75C12.391 8.12583 11.0879 8.66605 10.127 9.62699C9.16605 10.5879 8.62583 11.891 8.625 13.25V86.75C8.62583 88.109 9.16605 89.4121 10.127 90.373C11.0879 91.334 12.391 91.8742 13.75 91.875H87.25C88.609 91.8742 89.9121 91.334 90.873 90.373C91.834 89.4121 92.3742 88.109 92.375 86.75V13.25C92.3742 11.891 91.834 10.5879 90.873 9.62699C89.9121 8.66605 88.609 8.12583 87.25 8.125ZM75.2437 73.9812C75.2436 74.5852 75.089 75.179 74.7948 75.7064C74.5007 76.2339 74.0766 76.6773 73.5628 76.9948C73.049 77.3123 72.4627 77.4932 71.8594 77.5203C71.2561 77.5475 70.6558 77.42 70.1156 77.15L65.7406 74.9625L59.7031 77.9844C59.211 78.2296 58.6686 78.3572 58.1187 78.3572C57.5689 78.3572 57.0265 78.2296 56.5344 77.9844L50.5 74.9625L44.4625 77.9844C43.9703 78.2296 43.428 78.3572 42.8781 78.3572C42.3283 78.3572 41.7859 78.2296 41.2938 77.9844L35.2562 74.9625L30.8813 77.15C30.341 77.42 29.7408 77.5475 29.1375 77.5203C28.5342 77.4932 27.9478 77.3123 27.4341 76.9948C26.9203 76.6773 26.4962 76.2339 26.202 75.7064C25.9078 75.179 25.7533 74.5852 25.7531 73.9812V26.0188C25.753 25.4144 25.9075 24.8201 26.2019 24.2923C26.4962 23.7644 26.9207 23.3207 27.4349 23.0031C27.9491 22.6856 28.536 22.5048 29.1397 22.478C29.7435 22.4512 30.3441 22.5793 30.8844 22.85L35.2594 25.0375L41.2969 22.0156C41.789 21.7704 42.3314 21.6428 42.8812 21.6428C43.4311 21.6428 43.9735 21.7704 44.4656 22.0156L50.5 25.0375L56.5375 22.0156C57.0297 21.7707 57.5721 21.6432 58.1219 21.6432C58.6717 21.6432 59.214 21.7707 59.7062 22.0156L65.7438 25.0375L70.1187 22.85C70.659 22.58 71.2592 22.4525 71.8625 22.4797C72.4658 22.5068 73.0522 22.6877 73.5659 23.0052C74.0797 23.3226 74.5038 23.7661 74.798 24.2936C75.0922 24.821 75.2467 25.4148 75.2469 26.0188L75.2437 73.9812Z" fill="#FFEFEF"/>
<path d="M87.25 4.375H13.75C11.3967 4.37666 9.14028 5.31223 7.47626 6.97626C5.81223 8.64028 4.87666 10.8967 4.875 13.25V86.75C4.87666 89.1033 5.81223 91.3597 7.47626 93.0238C9.14028 94.6878 11.3967 95.6233 13.75 95.625H87.25C89.6033 95.6233 91.8597 94.6878 93.5238 93.0238C95.1878 91.3597 96.1233 89.1033 96.125 86.75V13.25C96.1233 10.8967 95.1878 8.64028 93.5238 6.97626C91.8597 5.31223 89.6033 4.37666 87.25 4.375ZM92.375 86.75C92.3742 88.109 91.834 89.4121 90.873 90.373C89.9121 91.334 88.609 91.8742 87.25 91.875H13.75C12.391 91.8742 11.0879 91.334 10.127 90.373C9.16605 89.4121 8.62583 88.109 8.625 86.75V13.25C8.62583 11.891 9.16605 10.5879 10.127 9.62699C11.0879 8.66605 12.391 8.12583 13.75 8.125H87.25C88.609 8.12583 89.9121 8.66605 90.873 9.62699C91.834 10.5879 92.3742 11.891 92.375 13.25V86.75Z" fill="#EB2227"/>
<path d="M73.5621 23.008C73.0496 22.6921 72.465 22.5119 71.8636 22.4846C71.2622 22.4573 70.6637 22.5836 70.1246 22.8517L65.7496 25.0392L59.7121 22.0173C59.2199 21.7724 58.6776 21.6449 58.1277 21.6449C57.5779 21.6449 57.0356 21.7724 56.5434 22.0173L50.4996 25.0392L44.4621 22.0173C43.9699 21.7721 43.4276 21.6445 42.8777 21.6445C42.3279 21.6445 41.7855 21.7721 41.2934 22.0173L35.2559 25.0392L30.8809 22.8517C30.3408 22.5824 29.7409 22.4555 29.138 22.483C28.5351 22.5106 27.9493 22.6916 27.436 23.009C26.9227 23.3263 26.4989 23.7695 26.2049 24.2966C25.9109 24.8236 25.7563 25.417 25.7559 26.0205V73.983C25.756 74.5869 25.9106 75.1807 26.2048 75.7082C26.499 76.2356 26.9231 76.6791 27.4368 76.9965C27.9506 77.314 28.5369 77.4949 29.1402 77.522C29.7435 77.5492 30.3438 77.4217 30.884 77.1517L35.259 74.9642L41.2965 77.9861C41.7887 78.2313 42.331 78.3589 42.8809 78.3589C43.4307 78.3589 43.9731 78.2313 44.4652 77.9861L50.4996 74.9642L56.5371 77.9861C57.0293 78.2313 57.5716 78.3589 58.1215 78.3589C58.6713 78.3589 59.2137 78.2313 59.7059 77.9861L65.7434 74.9642L70.1184 77.1517C70.6586 77.4217 71.2588 77.5492 71.8621 77.522C72.4654 77.4949 73.0518 77.314 73.5655 76.9965C74.0793 76.6791 74.5034 76.2356 74.7976 75.7082C75.0918 75.1807 75.2463 74.5869 75.2465 73.983V26.0205C75.2461 25.4163 75.0911 24.8224 74.7962 24.2951C74.5014 23.7678 74.0766 23.3247 73.5621 23.008ZM71.4934 73.633L67.3277 71.5642C66.8356 71.319 66.2932 71.1914 65.7434 71.1914C65.1935 71.1914 64.6512 71.319 64.159 71.5642L58.1215 74.583L52.084 71.5642C51.5918 71.319 51.0495 71.1914 50.4996 71.1914C49.9498 71.1914 49.4074 71.319 48.9152 71.5642L42.8777 74.583L36.8402 71.5642C36.348 71.3193 35.8057 71.1918 35.2559 71.1918C34.706 71.1918 34.1637 71.3193 33.6715 71.5642L29.5059 73.6455V26.358L33.6715 28.4392C34.1637 28.6842 34.706 28.8116 35.2559 28.8116C35.8057 28.8116 36.348 28.6842 36.8402 28.4392L42.8777 25.4205L48.9152 28.4392C49.4074 28.6844 49.9498 28.812 50.4996 28.812C51.0495 28.812 51.5918 28.6844 52.084 28.4392L58.1215 25.4205L64.159 28.4392C64.6512 28.6844 65.1935 28.812 65.7434 28.812C66.2932 28.812 66.8356 28.6844 67.3277 28.4392L71.4934 26.358V73.633Z" fill="#EB2227"/>
<path d="M51 35.9375C43.2361 35.9375 36.9375 42.2361 36.9375 50C36.9375 57.7639 43.2361 64.0625 51 64.0625C58.7639 64.0625 65.0625 57.7639 65.0625 50C65.0625 42.2361 58.7639 35.9375 51 35.9375ZM39.5625 50C39.5625 43.6858 44.6858 38.5625 51 38.5625C57.3142 38.5625 62.4375 43.6858 62.4375 50C62.4375 56.3142 57.3142 61.4375 51 61.4375C44.6858 61.4375 39.5625 56.3142 39.5625 50Z" fill="#EB2227" stroke="#EB2227" stroke-width="0.5" stroke-miterlimit="10"/>
<path d="M47.6781 44.8219C47.1655 44.3094 46.3345 44.3094 45.8219 44.8219C45.3094 45.3345 45.3094 46.1655 45.8219 46.6781L54.3219 55.1781C54.8345 55.6906 55.6655 55.6906 56.1781 55.1781C56.6906 54.6655 56.6906 53.8345 56.1781 53.3219L47.6781 44.8219Z" fill="#EB2227" stroke="#EB2227" stroke-width="0.5" stroke-linecap="round" stroke-linejoin="round"/>
<path d="M56.1781 46.6781C56.6906 46.1655 56.6906 45.3345 56.1781 44.8219C55.6655 44.3094 54.8345 44.3094 54.3219 44.8219L45.8219 53.3219C45.3094 53.8345 45.3094 54.6655 45.8219 55.1781C46.3345 55.6906 47.1655 55.6906 47.6781 55.1781L56.1781 46.6781Z" fill="#EB2227" stroke="#EB2227" stroke-width="0.5" stroke-linecap="round" stroke-linejoin="round"/>
</svg>
