<svg width="8" height="8" viewBox="0 0 8 8" fill="none" xmlns="http://www.w3.org/2000/svg">
<path d="M7.57422 4C7.57422 3.66406 7.28125 3.38281 6.96875 3.38281L4.80078 3.38281L4.80078 1.25391C4.80078 0.929688 4.51953 0.648438 4.18359 0.648438C3.84766 0.648438 3.56641 0.929688 3.56641 1.25391L3.56641 3.38281L1.39844 3.38281C1.07422 3.38281 0.796875 3.66406 0.796875 4C0.796875 4.33594 1.07422 4.61719 1.39844 4.61719L3.56641 4.61719L3.56641 6.75C3.56641 7.05859 3.84766 7.35547 4.18359 7.35547C4.51953 7.35547 4.80078 7.05859 4.80078 6.75L4.80078 4.61719L6.96875 4.61719C7.28125 4.61719 7.57422 4.33594 7.57422 4Z" fill="#333F48"/>
</svg>
