<svg width="101" height="100" viewBox="0 0 101 100" fill="none" xmlns="http://www.w3.org/2000/svg">
<path d="M64.159 28.4367L58.1215 25.418L52.084 28.4367C51.5918 28.6819 51.0495 28.8095 50.4996 28.8095C49.9498 28.8095 49.4074 28.6819 48.9152 28.4367L42.8777 25.418L36.8402 28.4367C36.348 28.6817 35.8057 28.8092 35.2559 28.8092C34.706 28.8092 34.1637 28.6817 33.6715 28.4367L29.5059 26.3555V73.643L33.6715 71.5617C34.1637 71.3168 34.706 71.1893 35.2559 71.1893C35.8057 71.1893 36.348 71.3168 36.8402 71.5617L42.8777 74.5805L48.9152 71.5617C49.4074 71.3165 49.9498 71.1889 50.4996 71.1889C51.0495 71.1889 51.5918 71.3165 52.084 71.5617L58.1215 74.5805L64.159 71.5617C64.6511 71.3165 65.1935 71.1889 65.7434 71.1889C66.2932 71.1889 66.8356 71.3165 67.3277 71.5617L71.4934 73.643V26.3555L67.3277 28.4367C66.8356 28.6819 66.2932 28.8095 65.7434 28.8095C65.1935 28.8095 64.6511 28.6819 64.159 28.4367ZM57.1215 61.8055H43.8777C43.6315 61.8055 43.3877 61.757 43.1602 61.6627C42.9327 61.5685 42.726 61.4304 42.5519 61.2563C42.3778 61.0822 42.2397 60.8755 42.1455 60.648C42.0512 60.4205 42.0027 60.1767 42.0027 59.9305C42.0027 59.6842 42.0512 59.4404 42.1455 59.2129C42.2397 58.9854 42.3778 58.7788 42.5519 58.6046C42.726 58.4305 42.9327 58.2924 43.1602 58.1982C43.3877 58.104 43.6315 58.0555 43.8777 58.0555H57.1215C57.6188 58.0555 58.0957 58.253 58.4473 58.6046C58.7989 58.9563 58.9965 59.4332 58.9965 59.9305C58.9965 60.4277 58.7989 60.9047 58.4473 61.2563C58.0957 61.6079 57.6188 61.8055 57.1215 61.8055ZM57.1215 55.1836H43.8777C43.6315 55.1836 43.3877 55.1351 43.1602 55.0409C42.9327 54.9466 42.726 54.8085 42.5519 54.6344C42.3778 54.4603 42.2397 54.2536 42.1455 54.0261C42.0512 53.7986 42.0027 53.5548 42.0027 53.3086C42.0027 53.0624 42.0512 52.8185 42.1455 52.5911C42.2397 52.3636 42.3778 52.1569 42.5519 51.9828C42.726 51.8087 42.9327 51.6705 43.1602 51.5763C43.3877 51.4821 43.6315 51.4336 43.8777 51.4336H57.1215C57.6188 51.4336 58.0957 51.6311 58.4473 51.9828C58.7989 52.3344 58.9965 52.8113 58.9965 53.3086C58.9965 53.8059 58.7989 54.2828 58.4473 54.6344C58.0957 54.9861 57.6188 55.1836 57.1215 55.1836ZM61.7496 38.0836L51.8184 48.0148C51.4668 48.366 50.9902 48.5632 50.4934 48.5632C49.9965 48.5632 49.5199 48.366 49.1684 48.0148L42.5465 41.393C42.1998 41.0402 42.0065 40.5647 42.0088 40.07C42.0111 39.5754 42.2088 39.1017 42.5588 38.7521C42.9087 38.4026 43.3827 38.2055 43.8773 38.2038C44.3719 38.202 44.8472 38.3958 45.1996 38.743L50.4996 44.0367L59.1059 35.4336C59.2775 35.2494 59.4845 35.1016 59.7145 34.9991C59.9445 34.8967 60.1928 34.8416 60.4446 34.8371C60.6963 34.8327 60.9464 34.879 61.1799 34.9733C61.4133 35.0676 61.6254 35.208 61.8035 35.386C61.9815 35.564 62.1219 35.7761 62.2162 36.0096C62.3105 36.2431 62.3568 36.4931 62.3523 36.7449C62.3479 36.9967 62.2928 37.2449 62.1903 37.4749C62.0878 37.7049 61.9401 37.9119 61.7559 38.0836H61.7496Z" fill="#EBFFFA"/>
<path d="M87.25 8.125H13.75C12.391 8.12583 11.0879 8.66605 10.127 9.62699C9.16605 10.5879 8.62583 11.891 8.625 13.25V86.75C8.62583 88.109 9.16605 89.4121 10.127 90.373C11.0879 91.334 12.391 91.8742 13.75 91.875H87.25C88.609 91.8742 89.9121 91.334 90.873 90.373C91.834 89.4121 92.3742 88.109 92.375 86.75V13.25C92.3742 11.891 91.834 10.5879 90.873 9.62699C89.9121 8.66605 88.609 8.12583 87.25 8.125ZM75.2437 73.9812C75.2436 74.5852 75.089 75.179 74.7948 75.7064C74.5007 76.2339 74.0766 76.6773 73.5628 76.9948C73.049 77.3123 72.4627 77.4932 71.8594 77.5203C71.2561 77.5475 70.6558 77.42 70.1156 77.15L65.7406 74.9625L59.7031 77.9844C59.211 78.2296 58.6686 78.3572 58.1187 78.3572C57.5689 78.3572 57.0265 78.2296 56.5344 77.9844L50.5 74.9625L44.4625 77.9844C43.9703 78.2296 43.428 78.3572 42.8781 78.3572C42.3283 78.3572 41.7859 78.2296 41.2938 77.9844L35.2562 74.9625L30.8813 77.15C30.341 77.42 29.7408 77.5475 29.1375 77.5203C28.5342 77.4932 27.9478 77.3123 27.4341 76.9948C26.9203 76.6773 26.4962 76.2339 26.202 75.7064C25.9078 75.179 25.7533 74.5852 25.7531 73.9812V26.0188C25.753 25.4144 25.9075 24.8201 26.2019 24.2923C26.4962 23.7644 26.9207 23.3207 27.4349 23.0031C27.9491 22.6856 28.536 22.5048 29.1397 22.478C29.7435 22.4512 30.3441 22.5793 30.8844 22.85L35.2594 25.0375L41.2969 22.0156C41.789 21.7704 42.3314 21.6428 42.8812 21.6428C43.4311 21.6428 43.9735 21.7704 44.4656 22.0156L50.5 25.0375L56.5375 22.0156C57.0297 21.7707 57.5721 21.6432 58.1219 21.6432C58.6717 21.6432 59.214 21.7707 59.7062 22.0156L65.7438 25.0375L70.1187 22.85C70.659 22.58 71.2592 22.4525 71.8625 22.4797C72.4658 22.5068 73.0522 22.6877 73.5659 23.0052C74.0797 23.3226 74.5038 23.7661 74.798 24.2936C75.0922 24.821 75.2467 25.4148 75.2469 26.0188L75.2437 73.9812Z" fill="#EBFFFA"/>
<path d="M87.25 4.375H13.75C11.3967 4.37666 9.14028 5.31223 7.47626 6.97626C5.81223 8.64028 4.87666 10.8967 4.875 13.25V86.75C4.87666 89.1033 5.81223 91.3597 7.47626 93.0238C9.14028 94.6878 11.3967 95.6233 13.75 95.625H87.25C89.6033 95.6233 91.8597 94.6878 93.5238 93.0238C95.1878 91.3597 96.1233 89.1033 96.125 86.75V13.25C96.1233 10.8967 95.1878 8.64028 93.5238 6.97626C91.8597 5.31223 89.6033 4.37666 87.25 4.375ZM92.375 86.75C92.3742 88.109 91.834 89.4121 90.873 90.373C89.9121 91.334 88.609 91.8742 87.25 91.875H13.75C12.391 91.8742 11.0879 91.334 10.127 90.373C9.16605 89.4121 8.62583 88.109 8.625 86.75V13.25C8.62583 11.891 9.16605 10.5879 10.127 9.62699C11.0879 8.66605 12.391 8.12583 13.75 8.125H87.25C88.609 8.12583 89.9121 8.66605 90.873 9.62699C91.834 10.5879 92.3742 11.891 92.375 13.25V86.75Z" fill="#33D9B2"/>
<path d="M73.5621 23.008C73.0496 22.6921 72.465 22.5119 71.8636 22.4846C71.2622 22.4573 70.6637 22.5836 70.1246 22.8517L65.7496 25.0392L59.7121 22.0173C59.2199 21.7724 58.6776 21.6449 58.1277 21.6449C57.5779 21.6449 57.0356 21.7724 56.5434 22.0173L50.4996 25.0392L44.4621 22.0173C43.9699 21.7721 43.4276 21.6445 42.8777 21.6445C42.3279 21.6445 41.7855 21.7721 41.2934 22.0173L35.2559 25.0392L30.8809 22.8517C30.3408 22.5824 29.7409 22.4555 29.138 22.483C28.5351 22.5106 27.9493 22.6916 27.436 23.009C26.9227 23.3263 26.4989 23.7695 26.2049 24.2966C25.9109 24.8236 25.7563 25.417 25.7559 26.0205V73.983C25.756 74.5869 25.9106 75.1807 26.2048 75.7082C26.499 76.2356 26.9231 76.6791 27.4368 76.9965C27.9506 77.314 28.5369 77.4949 29.1402 77.522C29.7435 77.5492 30.3438 77.4217 30.884 77.1517L35.259 74.9642L41.2965 77.9861C41.7887 78.2313 42.331 78.3589 42.8809 78.3589C43.4307 78.3589 43.9731 78.2313 44.4652 77.9861L50.4996 74.9642L56.5371 77.9861C57.0293 78.2313 57.5716 78.3589 58.1215 78.3589C58.6713 78.3589 59.2137 78.2313 59.7059 77.9861L65.7434 74.9642L70.1184 77.1517C70.6586 77.4217 71.2588 77.5492 71.8621 77.522C72.4654 77.4949 73.0518 77.314 73.5655 76.9965C74.0793 76.6791 74.5034 76.2356 74.7976 75.7082C75.0918 75.1807 75.2463 74.5869 75.2465 73.983V26.0205C75.2461 25.4163 75.0911 24.8224 74.7962 24.2951C74.5014 23.7678 74.0766 23.3247 73.5621 23.008ZM71.4934 73.633L67.3277 71.5642C66.8356 71.319 66.2932 71.1914 65.7434 71.1914C65.1935 71.1914 64.6512 71.319 64.159 71.5642L58.1215 74.583L52.084 71.5642C51.5918 71.319 51.0495 71.1914 50.4996 71.1914C49.9498 71.1914 49.4074 71.319 48.9152 71.5642L42.8777 74.583L36.8402 71.5642C36.348 71.3193 35.8057 71.1918 35.2559 71.1918C34.706 71.1918 34.1637 71.3193 33.6715 71.5642L29.5059 73.6455V26.358L33.6715 28.4392C34.1637 28.6842 34.706 28.8116 35.2559 28.8116C35.8057 28.8116 36.348 28.6842 36.8402 28.4392L42.8777 25.4205L48.9152 28.4392C49.4074 28.6844 49.9498 28.812 50.4996 28.812C51.0495 28.812 51.5918 28.6844 52.084 28.4392L58.1215 25.4205L64.159 28.4392C64.6512 28.6844 65.1935 28.812 65.7434 28.812C66.2932 28.812 66.8356 28.6844 67.3277 28.4392L71.4934 26.358V73.633Z" fill="#33D9B2"/>
<path d="M59.1064 35.4327L50.5002 44.0358L45.2064 38.7483C44.854 38.4012 44.3788 38.2074 43.8841 38.2091C43.3895 38.2108 42.9156 38.4079 42.5656 38.7575C42.2156 39.1071 42.0179 39.5808 42.0156 40.0754C42.0133 40.57 42.2066 41.0455 42.5533 41.3983L49.1752 48.0202C49.5267 48.3713 50.0033 48.5686 50.5002 48.5686C50.9971 48.5686 51.4736 48.3713 51.8252 48.0202L61.7502 38.0827C61.9344 37.9111 62.0821 37.7041 62.1846 37.4741C62.2871 37.2441 62.3422 36.9958 62.3467 36.744C62.3511 36.4923 62.3048 36.2422 62.2105 36.0087C62.1162 35.7752 61.9758 35.5632 61.7978 35.3851C61.6197 35.2071 61.4076 35.0667 61.1742 34.9724C60.9407 34.8781 60.6906 34.8318 60.4389 34.8362C60.1871 34.8407 59.9388 34.8958 59.7088 34.9983C59.4788 35.1007 59.2718 35.2485 59.1002 35.4327H59.1064Z" fill="#33D9B2"/>
<path d="M57.1227 51.4336H43.8789C43.6327 51.4336 43.3889 51.4821 43.1614 51.5763C42.9339 51.6706 42.7272 51.8087 42.5531 51.9828C42.379 52.1569 42.2409 52.3636 42.1466 52.5911C42.0524 52.8185 42.0039 53.0624 42.0039 53.3086C42.0039 53.5548 42.0524 53.7986 42.1466 54.0261C42.2409 54.2536 42.379 54.4603 42.5531 54.6344C42.7272 54.8085 42.9339 54.9466 43.1614 55.0409C43.3889 55.1351 43.6327 55.1836 43.8789 55.1836H57.1227C57.6199 55.1836 58.0969 54.9861 58.4485 54.6344C58.8001 54.2828 58.9977 53.8059 58.9977 53.3086C58.9977 52.8113 58.8001 52.3344 58.4485 51.9828C58.0969 51.6311 57.6199 51.4336 57.1227 51.4336Z" fill="#33D9B2"/>
<path d="M57.1227 58.0547H43.8789C43.6327 58.0547 43.3889 58.1032 43.1614 58.1974C42.9339 58.2916 42.7272 58.4298 42.5531 58.6039C42.379 58.778 42.2409 58.9847 42.1466 59.2122C42.0524 59.4396 42.0039 59.6835 42.0039 59.9297C42.0039 60.1759 42.0524 60.4197 42.1466 60.6472C42.2409 60.8747 42.379 61.0814 42.5531 61.2555C42.7272 61.4296 42.9339 61.5677 43.1614 61.662C43.3889 61.7562 43.6327 61.8047 43.8789 61.8047H57.1227C57.6199 61.8047 58.0969 61.6071 58.4485 61.2555C58.8001 60.9039 58.9977 60.427 58.9977 59.9297C58.9977 59.4324 58.8001 58.9555 58.4485 58.6039C58.0969 58.2522 57.6199 58.0547 57.1227 58.0547Z" fill="#33D9B2"/>
</svg>
