<svg width="20" height="20" viewBox="0 0 20 20" fill="none" xmlns="http://www.w3.org/2000/svg">
<path d="M13.125 10C12.3203 10 11.5468 9.64062 10.9375 8.99219C10.3476 8.35938 9.98434 7.51172 9.92184 6.60938C9.85544 5.64844 10.1484 4.76172 10.7461 4.11719C11.3437 3.47656 12.1875 3.125 13.125 3.125C14.0547 3.125 14.8984 3.48047 15.4961 4.12109C16.1015 4.76953 16.3945 5.65234 16.3242 6.60547C16.2578 7.50781 15.8984 8.35547 15.3086 8.98828C14.7031 9.64063 13.9297 10 13.125 10ZM13.125 4.375C12.539 4.375 12.0195 4.58594 11.664 4.96875C11.2968 5.36328 11.125 5.89844 11.1718 6.51953C11.2148 7.13672 11.457 7.71484 11.8554 8.14062C12.2226 8.53516 12.6758 8.75 13.125 8.75C13.5781 8.75 14.0273 8.53125 14.3945 8.14062C14.7929 7.71484 15.0351 7.14062 15.0781 6.51953C15.1211 5.91797 14.9453 5.36719 14.5781 4.97656C14.2226 4.58594 13.7031 4.375 13.125 4.375Z" fill="#F27024"/>
<path d="M18.2733 16.874H7.97647C7.63663 16.874 7.32413 16.7217 7.11709 16.4561C6.90225 16.1787 6.82413 15.8037 6.91006 15.4482C7.23819 14.1279 8.05459 13.0342 9.26553 12.2803C10.3398 11.6123 11.7108 11.2451 13.121 11.2451C14.5585 11.2451 15.8944 11.5967 16.9765 12.2646C18.1913 13.0107 19.0077 14.1123 19.3358 15.4482C19.4218 15.8037 19.3437 16.1787 19.1288 16.4561C18.9257 16.7217 18.6132 16.874 18.2733 16.874ZM8.16006 15.624H18.0937C17.4491 13.3193 15.0312 12.499 13.1249 12.499C11.2265 12.499 8.81241 13.3193 8.16006 15.624Z" fill="#F27024"/>
<path d="M5.74216 10.1562C4.36716 10.1562 3.16013 8.87891 3.04685 7.30859C2.99216 6.50391 3.23826 5.75781 3.74998 5.21094C4.25388 4.67188 4.96091 4.375 5.74216 4.375C6.51951 4.375 7.22654 4.67578 7.73045 5.21875C8.24216 5.76953 8.49216 6.51172 8.43357 7.30859C8.3242 8.87891 7.11326 10.1562 5.74216 10.1562ZM5.74216 5.625C5.31248 5.625 4.92966 5.78125 4.66404 6.06641C4.3906 6.35938 4.2617 6.75781 4.29685 7.21875C4.36326 8.13281 5.02341 8.90625 5.74216 8.90625C6.46091 8.90625 7.12498 8.13281 7.18748 7.21875C7.21873 6.76953 7.08591 6.36328 6.81638 6.07031C6.55076 5.78125 6.16795 5.625 5.74216 5.625Z" fill="#F27024"/>
<path d="M6.01565 15.626H1.62894C1.32034 15.626 1.03519 15.4854 0.84378 15.2471C0.648467 14.9971 0.578155 14.6533 0.65628 14.333C0.925811 13.2432 1.59769 12.3447 2.59378 11.7275C3.47269 11.1846 4.58987 10.8838 5.73831 10.8838C6.72269 10.8838 7.56253 11.0479 8.30472 11.3877C8.61722 11.5322 8.75784 11.9033 8.61331 12.2158C8.46878 12.5283 8.09769 12.6689 7.78519 12.5244C7.21097 12.2627 6.543 12.1338 5.74222 12.1338C4.31644 12.1338 2.51565 12.7275 1.94534 14.3799H6.01565C6.35941 14.3799 6.64065 14.6611 6.64065 15.0049C6.64065 15.3486 6.35941 15.626 6.01565 15.626Z" fill="#F27024"/>
</svg>
