<svg width="24" height="22" viewBox="0 0 24 22" fill="none" xmlns="http://www.w3.org/2000/svg">
<mask id="path-1-outside-1_24220_15392" maskUnits="userSpaceOnUse" x="0.0216064" y="-0.166748" width="24" height="22" fill="black">
<rect fill="white" x="0.0216064" y="-0.166748" width="24" height="22"/>
<path d="M22.7298 14.6776C22.3137 13.9741 21.576 13.7253 20.9326 14.077L20.3793 14.3773V9.63332C20.8382 9.48748 21.1728 9.05855 21.1728 8.54813V6.05175C21.1728 5.42551 20.6624 4.91508 20.0361 4.91508H16.8921C17.9601 4.4647 18.6121 3.67118 18.6507 2.75756C18.685 1.99406 18.2646 1.30777 17.5912 0.998941C17.1666 0.805922 16.017 0.514249 14.5544 1.91685C13.881 2.56454 13.3233 3.37522 12.9502 4.22879C12.5727 3.37522 12.0151 2.56454 11.346 1.91685C9.88332 0.50996 8.73379 0.805922 8.30914 0.998941C7.62714 1.30777 7.21108 1.99835 7.24111 2.75756C7.27971 3.67118 7.93168 4.46041 8.99972 4.91508H6.36609C5.73985 4.91508 5.22942 5.42551 5.22942 6.05175V8.54813C5.22942 9.05427 5.56399 9.48748 6.02294 9.63332V13.4208L5.06214 13.8068C4.91201 13.5538 4.63749 13.3865 4.32009 13.3865H1.88376C1.40764 13.3822 1.02161 13.7682 1.02161 14.2443V20.0392C1.02161 20.5153 1.40764 20.9013 1.88376 20.9013H4.32437C4.64607 20.9013 4.92488 20.7255 5.075 20.4638L6.73497 21.0257C7.01806 21.1244 7.27971 21.1673 7.57996 21.1673H14.6788C15.112 21.1673 15.4852 21.0558 15.854 20.8198L22.4253 16.6206C23.1116 16.1788 23.0944 15.2909 22.7298 14.6776ZM16.1414 16.6807C15.8412 16.8437 15.5624 16.9166 15.2407 16.9166H15.1206L15.1677 16.8865C15.691 16.5477 15.9227 15.9214 15.7468 15.3252C15.5709 14.729 15.0348 14.3258 14.4128 14.3258H13.289V9.68479H19.693V14.7505L16.1414 16.6807ZM20.4865 6.05175V8.54813C20.4865 8.79691 20.2849 8.9985 20.0361 8.9985H13.289V5.63997C13.9496 5.7901 14.3785 6.37345 14.8675 7.034C15.1892 7.46722 15.5195 7.9176 15.9398 8.24787C16.0042 8.29935 16.0771 8.32079 16.1543 8.32079C16.2572 8.32079 16.3559 8.2779 16.4245 8.19211C16.5403 8.04199 16.5189 7.82752 16.3688 7.71171C16.0213 7.43291 15.7296 7.04258 15.4251 6.62652C15.1677 6.27908 14.8932 5.90591 14.5672 5.60137H20.0404C20.2849 5.60137 20.4865 5.80297 20.4865 6.05175ZM15.0262 2.41441C15.6396 1.83107 16.2572 1.52224 16.7934 1.52224C16.9735 1.52224 17.1451 1.55655 17.3081 1.62947C17.7285 1.8182 17.9858 2.25142 17.9644 2.73182C17.9344 3.4224 17.3553 4.03577 16.4116 4.36605C15.6224 4.64485 14.5973 4.82501 13.422 4.89363C13.748 3.98859 14.3313 3.08784 15.0262 2.41441ZM7.92739 2.73182C7.90595 2.25142 8.16331 1.8182 8.58366 1.62947C8.74236 1.55655 8.91394 1.52224 9.09838 1.52224C9.63454 1.52224 10.2522 1.83107 10.8613 2.4187C11.5604 3.08784 12.1395 3.98859 12.4698 4.89363C11.2945 4.82501 10.2651 4.64485 9.48013 4.36605C8.53648 4.03148 7.95742 3.4224 7.92739 2.73182ZM5.91571 6.05175C5.91571 5.80297 6.11731 5.60137 6.36609 5.60137H11.3288C11.0028 5.90591 10.7326 6.27479 10.471 6.62652C10.1621 7.04258 9.87474 7.43719 9.52731 7.71171C9.37718 7.82752 9.35573 8.04628 9.47155 8.19211C9.54018 8.2779 9.63883 8.32079 9.74177 8.32079C9.81469 8.32079 9.8919 8.29506 9.95624 8.24787C10.3766 7.91331 10.7069 7.46722 11.0286 7.034C11.5175 6.37345 11.9465 5.7901 12.607 5.63997V8.9985H6.36609C6.11731 8.9985 5.91571 8.79691 5.91571 8.54813V6.05175ZM6.70923 9.68479H12.6027V14.3301H11.2087C10.9985 14.3301 10.8227 14.2872 10.6382 14.1886L8.60082 13.1034C8.09468 12.8331 7.54994 12.8031 7.01806 13.0176L6.70923 13.142V9.68479ZM4.32437 20.215H1.88376C1.78939 20.215 1.7079 20.1336 1.7079 20.0392V14.2443C1.7079 14.15 1.78939 14.0685 1.88376 14.0685H4.32437C4.41874 14.0685 4.50024 14.15 4.50024 14.2443V14.2529V20.0349C4.50024 20.1336 4.41874 20.215 4.32437 20.215ZM22.0564 16.0415L15.4852 20.2451C15.2278 20.4081 14.979 20.4853 14.6788 20.4853H7.58425C7.35692 20.4853 7.17248 20.4552 6.95801 20.3823L5.18653 19.7818V14.4931L7.27542 13.6524C7.61857 13.5151 7.95313 13.5323 8.27912 13.7082L10.3165 14.7934C10.5996 14.9435 10.8827 15.0164 11.2087 15.0164H14.4128C14.7345 15.0164 14.9962 15.2137 15.0863 15.5225C15.1763 15.8314 15.0605 16.1402 14.7903 16.3118L14.1169 16.745C13.9324 16.8651 13.7523 16.9166 13.5292 16.9166H13.4477H10.5138C10.3251 16.9166 10.1707 17.071 10.1707 17.2597C10.1707 17.4484 10.3251 17.6029 10.5138 17.6029H13.4477H13.5292H15.2364C15.6739 17.6029 16.0642 17.4999 16.4631 17.2854L21.2543 14.6776C21.739 14.4116 22.0735 14.922 22.1336 15.025C22.3052 15.3038 22.421 15.8099 22.0564 16.0415Z"/>
</mask>
<path d="M22.7298 14.6776C22.3137 13.9741 21.576 13.7253 20.9326 14.077L20.3793 14.3773V9.63332C20.8382 9.48748 21.1728 9.05855 21.1728 8.54813V6.05175C21.1728 5.42551 20.6624 4.91508 20.0361 4.91508H16.8921C17.9601 4.4647 18.6121 3.67118 18.6507 2.75756C18.685 1.99406 18.2646 1.30777 17.5912 0.998941C17.1666 0.805922 16.017 0.514249 14.5544 1.91685C13.881 2.56454 13.3233 3.37522 12.9502 4.22879C12.5727 3.37522 12.0151 2.56454 11.346 1.91685C9.88332 0.50996 8.73379 0.805922 8.30914 0.998941C7.62714 1.30777 7.21108 1.99835 7.24111 2.75756C7.27971 3.67118 7.93168 4.46041 8.99972 4.91508H6.36609C5.73985 4.91508 5.22942 5.42551 5.22942 6.05175V8.54813C5.22942 9.05427 5.56399 9.48748 6.02294 9.63332V13.4208L5.06214 13.8068C4.91201 13.5538 4.63749 13.3865 4.32009 13.3865H1.88376C1.40764 13.3822 1.02161 13.7682 1.02161 14.2443V20.0392C1.02161 20.5153 1.40764 20.9013 1.88376 20.9013H4.32437C4.64607 20.9013 4.92488 20.7255 5.075 20.4638L6.73497 21.0257C7.01806 21.1244 7.27971 21.1673 7.57996 21.1673H14.6788C15.112 21.1673 15.4852 21.0558 15.854 20.8198L22.4253 16.6206C23.1116 16.1788 23.0944 15.2909 22.7298 14.6776ZM16.1414 16.6807C15.8412 16.8437 15.5624 16.9166 15.2407 16.9166H15.1206L15.1677 16.8865C15.691 16.5477 15.9227 15.9214 15.7468 15.3252C15.5709 14.729 15.0348 14.3258 14.4128 14.3258H13.289V9.68479H19.693V14.7505L16.1414 16.6807ZM20.4865 6.05175V8.54813C20.4865 8.79691 20.2849 8.9985 20.0361 8.9985H13.289V5.63997C13.9496 5.7901 14.3785 6.37345 14.8675 7.034C15.1892 7.46722 15.5195 7.9176 15.9398 8.24787C16.0042 8.29935 16.0771 8.32079 16.1543 8.32079C16.2572 8.32079 16.3559 8.2779 16.4245 8.19211C16.5403 8.04199 16.5189 7.82752 16.3688 7.71171C16.0213 7.43291 15.7296 7.04258 15.4251 6.62652C15.1677 6.27908 14.8932 5.90591 14.5672 5.60137H20.0404C20.2849 5.60137 20.4865 5.80297 20.4865 6.05175ZM15.0262 2.41441C15.6396 1.83107 16.2572 1.52224 16.7934 1.52224C16.9735 1.52224 17.1451 1.55655 17.3081 1.62947C17.7285 1.8182 17.9858 2.25142 17.9644 2.73182C17.9344 3.4224 17.3553 4.03577 16.4116 4.36605C15.6224 4.64485 14.5973 4.82501 13.422 4.89363C13.748 3.98859 14.3313 3.08784 15.0262 2.41441ZM7.92739 2.73182C7.90595 2.25142 8.16331 1.8182 8.58366 1.62947C8.74236 1.55655 8.91394 1.52224 9.09838 1.52224C9.63454 1.52224 10.2522 1.83107 10.8613 2.4187C11.5604 3.08784 12.1395 3.98859 12.4698 4.89363C11.2945 4.82501 10.2651 4.64485 9.48013 4.36605C8.53648 4.03148 7.95742 3.4224 7.92739 2.73182ZM5.91571 6.05175C5.91571 5.80297 6.11731 5.60137 6.36609 5.60137H11.3288C11.0028 5.90591 10.7326 6.27479 10.471 6.62652C10.1621 7.04258 9.87474 7.43719 9.52731 7.71171C9.37718 7.82752 9.35573 8.04628 9.47155 8.19211C9.54018 8.2779 9.63883 8.32079 9.74177 8.32079C9.81469 8.32079 9.8919 8.29506 9.95624 8.24787C10.3766 7.91331 10.7069 7.46722 11.0286 7.034C11.5175 6.37345 11.9465 5.7901 12.607 5.63997V8.9985H6.36609C6.11731 8.9985 5.91571 8.79691 5.91571 8.54813V6.05175ZM6.70923 9.68479H12.6027V14.3301H11.2087C10.9985 14.3301 10.8227 14.2872 10.6382 14.1886L8.60082 13.1034C8.09468 12.8331 7.54994 12.8031 7.01806 13.0176L6.70923 13.142V9.68479ZM4.32437 20.215H1.88376C1.78939 20.215 1.7079 20.1336 1.7079 20.0392V14.2443C1.7079 14.15 1.78939 14.0685 1.88376 14.0685H4.32437C4.41874 14.0685 4.50024 14.15 4.50024 14.2443V14.2529V20.0349C4.50024 20.1336 4.41874 20.215 4.32437 20.215ZM22.0564 16.0415L15.4852 20.2451C15.2278 20.4081 14.979 20.4853 14.6788 20.4853H7.58425C7.35692 20.4853 7.17248 20.4552 6.95801 20.3823L5.18653 19.7818V14.4931L7.27542 13.6524C7.61857 13.5151 7.95313 13.5323 8.27912 13.7082L10.3165 14.7934C10.5996 14.9435 10.8827 15.0164 11.2087 15.0164H14.4128C14.7345 15.0164 14.9962 15.2137 15.0863 15.5225C15.1763 15.8314 15.0605 16.1402 14.7903 16.3118L14.1169 16.745C13.9324 16.8651 13.7523 16.9166 13.5292 16.9166H13.4477H10.5138C10.3251 16.9166 10.1707 17.071 10.1707 17.2597C10.1707 17.4484 10.3251 17.6029 10.5138 17.6029H13.4477H13.5292H15.2364C15.6739 17.6029 16.0642 17.4999 16.4631 17.2854L21.2543 14.6776C21.739 14.4116 22.0735 14.922 22.1336 15.025C22.3052 15.3038 22.421 15.8099 22.0564 16.0415Z" fill="#8C8C8C"/>
<path d="M22.7298 14.6776C22.3137 13.9741 21.576 13.7253 20.9326 14.077L20.3793 14.3773V9.63332C20.8382 9.48748 21.1728 9.05855 21.1728 8.54813V6.05175C21.1728 5.42551 20.6624 4.91508 20.0361 4.91508H16.8921C17.9601 4.4647 18.6121 3.67118 18.6507 2.75756C18.685 1.99406 18.2646 1.30777 17.5912 0.998941C17.1666 0.805922 16.017 0.514249 14.5544 1.91685C13.881 2.56454 13.3233 3.37522 12.9502 4.22879C12.5727 3.37522 12.0151 2.56454 11.346 1.91685C9.88332 0.50996 8.73379 0.805922 8.30914 0.998941C7.62714 1.30777 7.21108 1.99835 7.24111 2.75756C7.27971 3.67118 7.93168 4.46041 8.99972 4.91508H6.36609C5.73985 4.91508 5.22942 5.42551 5.22942 6.05175V8.54813C5.22942 9.05427 5.56399 9.48748 6.02294 9.63332V13.4208L5.06214 13.8068C4.91201 13.5538 4.63749 13.3865 4.32009 13.3865H1.88376C1.40764 13.3822 1.02161 13.7682 1.02161 14.2443V20.0392C1.02161 20.5153 1.40764 20.9013 1.88376 20.9013H4.32437C4.64607 20.9013 4.92488 20.7255 5.075 20.4638L6.73497 21.0257C7.01806 21.1244 7.27971 21.1673 7.57996 21.1673H14.6788C15.112 21.1673 15.4852 21.0558 15.854 20.8198L22.4253 16.6206C23.1116 16.1788 23.0944 15.2909 22.7298 14.6776ZM16.1414 16.6807C15.8412 16.8437 15.5624 16.9166 15.2407 16.9166H15.1206L15.1677 16.8865C15.691 16.5477 15.9227 15.9214 15.7468 15.3252C15.5709 14.729 15.0348 14.3258 14.4128 14.3258H13.289V9.68479H19.693V14.7505L16.1414 16.6807ZM20.4865 6.05175V8.54813C20.4865 8.79691 20.2849 8.9985 20.0361 8.9985H13.289V5.63997C13.9496 5.7901 14.3785 6.37345 14.8675 7.034C15.1892 7.46722 15.5195 7.9176 15.9398 8.24787C16.0042 8.29935 16.0771 8.32079 16.1543 8.32079C16.2572 8.32079 16.3559 8.2779 16.4245 8.19211C16.5403 8.04199 16.5189 7.82752 16.3688 7.71171C16.0213 7.43291 15.7296 7.04258 15.4251 6.62652C15.1677 6.27908 14.8932 5.90591 14.5672 5.60137H20.0404C20.2849 5.60137 20.4865 5.80297 20.4865 6.05175ZM15.0262 2.41441C15.6396 1.83107 16.2572 1.52224 16.7934 1.52224C16.9735 1.52224 17.1451 1.55655 17.3081 1.62947C17.7285 1.8182 17.9858 2.25142 17.9644 2.73182C17.9344 3.4224 17.3553 4.03577 16.4116 4.36605C15.6224 4.64485 14.5973 4.82501 13.422 4.89363C13.748 3.98859 14.3313 3.08784 15.0262 2.41441ZM7.92739 2.73182C7.90595 2.25142 8.16331 1.8182 8.58366 1.62947C8.74236 1.55655 8.91394 1.52224 9.09838 1.52224C9.63454 1.52224 10.2522 1.83107 10.8613 2.4187C11.5604 3.08784 12.1395 3.98859 12.4698 4.89363C11.2945 4.82501 10.2651 4.64485 9.48013 4.36605C8.53648 4.03148 7.95742 3.4224 7.92739 2.73182ZM5.91571 6.05175C5.91571 5.80297 6.11731 5.60137 6.36609 5.60137H11.3288C11.0028 5.90591 10.7326 6.27479 10.471 6.62652C10.1621 7.04258 9.87474 7.43719 9.52731 7.71171C9.37718 7.82752 9.35573 8.04628 9.47155 8.19211C9.54018 8.2779 9.63883 8.32079 9.74177 8.32079C9.81469 8.32079 9.8919 8.29506 9.95624 8.24787C10.3766 7.91331 10.7069 7.46722 11.0286 7.034C11.5175 6.37345 11.9465 5.7901 12.607 5.63997V8.9985H6.36609C6.11731 8.9985 5.91571 8.79691 5.91571 8.54813V6.05175ZM6.70923 9.68479H12.6027V14.3301H11.2087C10.9985 14.3301 10.8227 14.2872 10.6382 14.1886L8.60082 13.1034C8.09468 12.8331 7.54994 12.8031 7.01806 13.0176L6.70923 13.142V9.68479ZM4.32437 20.215H1.88376C1.78939 20.215 1.7079 20.1336 1.7079 20.0392V14.2443C1.7079 14.15 1.78939 14.0685 1.88376 14.0685H4.32437C4.41874 14.0685 4.50024 14.15 4.50024 14.2443V14.2529V20.0349C4.50024 20.1336 4.41874 20.215 4.32437 20.215ZM22.0564 16.0415L15.4852 20.2451C15.2278 20.4081 14.979 20.4853 14.6788 20.4853H7.58425C7.35692 20.4853 7.17248 20.4552 6.95801 20.3823L5.18653 19.7818V14.4931L7.27542 13.6524C7.61857 13.5151 7.95313 13.5323 8.27912 13.7082L10.3165 14.7934C10.5996 14.9435 10.8827 15.0164 11.2087 15.0164H14.4128C14.7345 15.0164 14.9962 15.2137 15.0863 15.5225C15.1763 15.8314 15.0605 16.1402 14.7903 16.3118L14.1169 16.745C13.9324 16.8651 13.7523 16.9166 13.5292 16.9166H13.4477H10.5138C10.3251 16.9166 10.1707 17.071 10.1707 17.2597C10.1707 17.4484 10.3251 17.6029 10.5138 17.6029H13.4477H13.5292H15.2364C15.6739 17.6029 16.0642 17.4999 16.4631 17.2854L21.2543 14.6776C21.739 14.4116 22.0735 14.922 22.1336 15.025C22.3052 15.3038 22.421 15.8099 22.0564 16.0415Z" stroke="#8C8C8C" stroke-width="0.6" mask="url(#path-1-outside-1_24220_15392)"/>
<mask id="path-2-outside-2_24220_15392" maskUnits="userSpaceOnUse" x="6.10352e-05" y="-0.188965" width="24" height="22" fill="black">
<rect fill="white" x="6.10352e-05" y="-0.188965" width="24" height="22"/>
<path d="M14.6787 21.1886H7.57986C7.27386 21.1886 7.0111 21.1446 6.72783 21.0459L5.08456 20.4897C4.92392 20.7573 4.63422 20.9227 4.32428 20.9227H1.88366C1.39644 20.9227 1.00006 20.5264 1.00006 20.0391V14.2443C1.00006 14.0071 1.09262 13.7847 1.26068 13.6182C1.42762 13.4527 1.64929 13.3613 1.88387 13.3649H4.31999C4.62997 13.3649 4.90929 13.5197 5.07092 13.7801L6.0014 13.4062V9.64882C5.53339 9.49286 5.20787 9.04248 5.20787 8.54801V6.05163C5.20787 5.41304 5.72739 4.89352 6.36599 4.89352H8.89758C7.8672 4.42577 7.25735 3.65197 7.2196 2.75834C7.18915 1.98867 7.61332 1.29032 8.30021 0.979263C8.72944 0.784185 9.88682 0.483505 11.3608 1.90125C12.0169 2.53645 12.5658 3.32208 12.9499 4.17579C13.33 3.32217 13.8789 2.53658 14.5394 1.90125C16.0165 0.484792 17.1719 0.7847 17.6 0.979263C18.2857 1.29371 18.7065 1.99205 18.672 2.75838C18.6341 3.65601 18.0245 4.42971 16.9949 4.89352H20.036C20.6746 4.89352 21.1941 5.41304 21.1941 6.05163V8.54801C21.1941 9.05041 20.8759 9.4908 20.4006 9.64882V14.3412L20.9223 14.0581C21.5744 13.7014 22.3253 13.9517 22.7481 14.6665C23.1173 15.2876 23.1337 16.1899 22.4367 16.6385L15.8655 20.8378C15.4913 21.0772 15.1142 21.1886 14.6787 21.1886ZM5.06508 20.4378L6.74173 21.0053C7.02045 21.1025 7.27888 21.1457 7.57986 21.1457H14.6787C15.1056 21.1457 15.4754 21.0364 15.8424 20.8017L22.4136 16.6024C23.0879 16.1684 23.0702 15.2923 22.7112 14.6884L22.7112 14.6884C22.3009 13.9945 21.5736 13.7509 20.9427 14.0958L20.3577 14.4133V9.61759L20.3727 9.61283C20.8383 9.46485 21.1512 9.03695 21.1512 8.54805V6.05167C21.1512 5.43676 20.651 4.93645 20.036 4.93645H16.7859L16.8836 4.89523C17.9546 4.44365 18.5908 3.66411 18.6291 2.75658C18.6628 2.00775 18.2518 1.32545 17.5822 1.01838C17.162 0.827379 16.0272 0.534033 14.5691 1.93226C13.9012 2.57463 13.3482 3.37175 12.9697 4.23734L12.9502 4.28203L12.9305 4.23742C12.5476 3.37163 11.9945 2.5745 11.331 1.93222C9.87601 0.532703 8.73922 0.826993 8.31792 1.01842C7.64699 1.32224 7.23268 2.00454 7.26245 2.75667C7.30063 3.65978 7.93686 4.43932 9.00803 4.89527L9.10475 4.93645H6.36599C5.75107 4.93645 5.25077 5.43676 5.25077 6.05167V8.54805C5.25077 9.02931 5.57092 9.46716 6.02932 9.61283L6.04429 9.61759V13.4352L5.05299 13.8335L5.04359 13.8177C4.89137 13.5611 4.62088 13.4078 4.31999 13.4078H1.88366C1.6598 13.4042 1.44962 13.4913 1.29083 13.6487C1.13101 13.8071 1.04295 14.0186 1.04295 14.2443V20.0392C1.04295 20.5027 1.42007 20.8799 1.88366 20.8799H4.32428C4.62474 20.8799 4.90526 20.7163 5.05629 20.4532L5.06508 20.4378ZM14.6787 20.5067H7.58415C7.35493 20.5067 7.1656 20.4755 6.95101 20.4026L5.16498 19.7971V14.4786L7.2673 13.6325C7.61662 13.4928 7.96041 13.5119 8.28918 13.6892L10.3265 14.7744C10.6102 14.9248 10.8905 14.9949 11.2086 14.9949H14.4127C14.7419 14.9949 15.0143 15.1997 15.1068 15.5165C15.1994 15.8341 15.0796 16.1534 14.8017 16.3298L14.1284 16.763C13.9426 16.884 13.7577 16.938 13.5291 16.938H10.5137C10.3363 16.938 10.1921 17.0823 10.1921 17.2597C10.1921 17.4371 10.3363 17.5814 10.5137 17.5814H15.2363C15.6667 17.5814 16.0533 17.4813 16.4529 17.2665L21.2439 14.6586C21.7599 14.3755 22.1134 14.9479 22.152 15.0141C22.3215 15.2896 22.4488 15.8175 22.0678 16.0596L15.4966 20.2631C15.2307 20.4316 14.9784 20.5067 14.6787 20.5067ZM5.20787 19.7664L6.96477 20.362C7.17744 20.4343 7.3569 20.4638 7.58411 20.4638H14.6786C14.9697 20.4638 15.2149 20.3907 15.4735 20.2269L22.0447 16.0234C22.3998 15.7978 22.2764 15.2982 22.1152 15.0362C22.0554 14.9338 21.7348 14.4383 21.2644 14.6963L16.4732 17.3042C16.0671 17.5226 15.674 17.6243 15.2362 17.6243H10.5137C10.3127 17.6243 10.1492 17.4607 10.1492 17.2597C10.1492 17.0586 10.3127 16.8951 10.5137 16.8951H13.5291C13.7489 16.8951 13.9265 16.8432 14.1051 16.727L14.7786 16.2937C15.0401 16.1276 15.1528 15.8273 15.0656 15.5285C14.9786 15.2304 14.7224 15.0378 14.4127 15.0378H11.2086C10.8833 15.0378 10.5965 14.9661 10.3064 14.8122L8.26898 13.727C7.95179 13.5559 7.62022 13.5375 7.2833 13.6723L5.20787 14.5075V19.7664ZM4.32428 20.2365H1.88366C1.77668 20.2365 1.68635 20.1461 1.68635 20.0391V14.2443C1.68635 14.1373 1.77668 14.0469 1.88366 14.0469H4.32428C4.43125 14.0469 4.52158 14.1372 4.52158 14.2443V20.0348C4.52158 20.1441 4.43125 20.2365 4.32428 20.2365ZM1.88366 14.0898C1.80139 14.0898 1.72924 14.162 1.72924 14.2443V20.0392C1.72924 20.1214 1.80139 20.1936 1.88366 20.1936H4.32428C4.408 20.1936 4.47869 20.1209 4.47869 20.0349V14.2443C4.47869 14.1621 4.40654 14.0899 4.32428 14.0899H1.88366V14.0898ZM15.2406 16.9379H15.0469L15.1561 16.8684C15.67 16.5356 15.8991 15.9179 15.7261 15.3312C15.5525 14.7426 15.0247 14.3472 14.4127 14.3472H13.2675V9.66327H19.7143V14.7631L19.7031 14.7693L16.1515 16.6995C15.8477 16.8644 15.5667 16.9379 15.2406 16.9379ZM15.1936 16.895H15.2406C15.5592 16.895 15.8338 16.8231 16.1311 16.6617L19.6714 14.7377V9.70616H13.3104V14.3043H14.4127C15.0439 14.3043 15.5882 14.7121 15.7673 15.3191C15.9441 15.9186 15.7137 16.5497 15.1936 16.895ZM12.6241 14.3515H11.2086C10.9934 14.3515 10.8143 14.3071 10.628 14.2074L8.59064 13.1223C8.09098 12.8555 7.54992 12.8262 7.02594 13.0374L6.68764 13.1737V9.66331H12.6241V14.3515ZM7.72321 12.855C8.02535 12.855 8.3247 12.9316 8.61084 13.0844L10.6483 14.1696C10.828 14.2658 11.0008 14.3086 11.2087 14.3086H12.5812V9.70621H6.73058V13.1102L7.00994 12.9977C7.24598 12.9024 7.4855 12.855 7.72321 12.855ZM20.036 9.01987H13.2675V5.61305L13.2936 5.61901C13.9586 5.77012 14.3842 6.34515 14.877 7.01093L14.9064 7.05061C15.2201 7.47311 15.5444 7.90997 15.9529 8.23098C16.0097 8.27636 16.0773 8.29931 16.1541 8.29931C16.2554 8.29931 16.3454 8.25646 16.4076 8.17865C16.4603 8.11033 16.4843 8.02596 16.4749 7.94137C16.4654 7.85631 16.423 7.78074 16.3555 7.72866C16.018 7.45784 15.7383 7.0908 15.4076 6.63918L15.3934 6.61992C15.1366 6.27317 14.871 5.91459 14.5524 5.61704L14.5127 5.57993H20.0403C20.2981 5.57993 20.5078 5.79161 20.5078 6.05176V8.54814C20.5078 8.80824 20.2962 9.01987 20.036 9.01987ZM13.3104 8.97698H20.036C20.2725 8.97698 20.4649 8.78456 20.4649 8.54805V6.05167C20.4649 5.81516 20.2745 5.62274 20.0403 5.62274H14.6209C14.925 5.91527 15.1805 6.26026 15.4279 6.59436L15.4422 6.61366C15.771 7.06283 16.049 7.4276 16.382 7.69491C16.4586 7.75393 16.5068 7.83984 16.5175 7.93661C16.5282 8.0323 16.5011 8.1277 16.4414 8.20516C16.3706 8.29361 16.2687 8.34216 16.1542 8.34216C16.0674 8.34216 15.9907 8.31604 15.9263 8.26453C15.5134 7.94008 15.1873 7.50086 14.872 7.07609L14.8425 7.03637C14.3613 6.38632 13.9449 5.82374 13.3103 5.66701V8.97698H13.3104ZM12.6284 9.01987H6.36599C6.10584 9.01987 5.89416 8.8082 5.89416 8.54805V6.05167C5.89416 5.79152 6.10584 5.57985 6.36599 5.57985H11.3831L11.3433 5.61695C11.0314 5.90837 10.7706 6.25915 10.5185 6.59834L10.455 6.68374C10.1582 7.08398 9.87777 7.462 9.5405 7.72841C9.47389 7.77979 9.43164 7.8546 9.42135 7.93927C9.41092 8.02475 9.43533 8.11204 9.48826 8.1787C9.55046 8.25646 9.64045 8.29927 9.74167 8.29927C9.8103 8.29927 9.88386 8.27422 9.94344 8.23047C10.3586 7.90006 10.6876 7.45698 11.0058 7.02848L11.0189 7.01076C11.5117 6.34502 11.9374 5.77008 12.6022 5.61897L12.6284 5.613V9.01987ZM6.36599 5.62278C6.12947 5.62278 5.93706 5.8152 5.93706 6.05171V8.54809C5.93706 8.78461 6.12947 8.97702 6.36599 8.97702H12.5855V5.66709C11.951 5.82382 11.5346 6.38637 11.0534 7.03633L11.0403 7.05413C10.7204 7.48486 10.3897 7.93022 9.96952 8.26466C9.90106 8.31488 9.82038 8.34225 9.74167 8.34225C9.62719 8.34225 9.52524 8.29369 9.45472 8.20551C9.39467 8.12984 9.367 8.03097 9.37876 7.93416C9.39046 7.83804 9.43855 7.75298 9.51412 7.69469C9.84668 7.43193 10.1254 7.05614 10.4206 6.65827L10.484 6.57282C10.7268 6.24632 10.9774 5.90914 11.2749 5.62278H6.36599ZM12.501 4.91689L12.4684 4.915C11.2887 4.84612 10.2528 4.66326 9.47286 4.38622C8.52205 4.04912 7.93626 3.43099 7.90589 2.73273C7.88402 2.24289 8.14656 1.80212 8.57481 1.60988C8.73231 1.53747 8.90852 1.50076 9.09832 1.50076C9.64156 1.50076 10.2729 1.82125 10.8761 2.40323C11.5672 3.0646 12.1554 3.96964 12.4899 4.88627L12.501 4.91689ZM9.09828 1.54365C8.91469 1.54365 8.74454 1.57908 8.59248 1.64891C8.18028 1.83399 7.92764 2.25864 7.9487 2.7308C7.97825 3.411 8.55341 4.01472 9.48719 4.34577C10.2562 4.61891 11.276 4.80014 12.4382 4.87022C12.1041 3.97007 11.5252 3.08377 10.8463 2.43415C10.2512 1.85986 9.63037 1.54365 9.09828 1.54365ZM13.3907 4.91689L13.4017 4.88631C13.7279 3.98066 14.3145 3.07408 15.0112 2.39894L15.0113 2.39881C15.6291 1.8113 16.2453 1.50071 16.7933 1.50071C16.9789 1.50071 17.155 1.53743 17.3168 1.60979C17.745 1.80204 18.0076 2.24281 17.9857 2.73269C17.9551 3.43528 17.3693 4.05345 16.4186 4.38618C15.6336 4.66348 14.5978 4.84638 13.4231 4.91496L13.3907 4.91689ZM15.0409 2.42982C14.3568 3.09291 13.7794 3.98084 13.4532 4.87027C14.6104 4.80044 15.6303 4.61921 16.4044 4.34577C17.338 4.01901 17.9131 3.41529 17.9428 2.7308C17.9639 2.25864 17.7113 1.83399 17.2992 1.64895C17.143 1.57908 16.9728 1.54361 16.7933 1.54361C16.2565 1.54365 15.6505 1.85012 15.0409 2.42982Z"/>
</mask>
<path d="M14.6787 21.1886H7.57986C7.27386 21.1886 7.0111 21.1446 6.72783 21.0459L5.08456 20.4897C4.92392 20.7573 4.63422 20.9227 4.32428 20.9227H1.88366C1.39644 20.9227 1.00006 20.5264 1.00006 20.0391V14.2443C1.00006 14.0071 1.09262 13.7847 1.26068 13.6182C1.42762 13.4527 1.64929 13.3613 1.88387 13.3649H4.31999C4.62997 13.3649 4.90929 13.5197 5.07092 13.7801L6.0014 13.4062V9.64882C5.53339 9.49286 5.20787 9.04248 5.20787 8.54801V6.05163C5.20787 5.41304 5.72739 4.89352 6.36599 4.89352H8.89758C7.8672 4.42577 7.25735 3.65197 7.2196 2.75834C7.18915 1.98867 7.61332 1.29032 8.30021 0.979263C8.72944 0.784185 9.88682 0.483505 11.3608 1.90125C12.0169 2.53645 12.5658 3.32208 12.9499 4.17579C13.33 3.32217 13.8789 2.53658 14.5394 1.90125C16.0165 0.484792 17.1719 0.7847 17.6 0.979263C18.2857 1.29371 18.7065 1.99205 18.672 2.75838C18.6341 3.65601 18.0245 4.42971 16.9949 4.89352H20.036C20.6746 4.89352 21.1941 5.41304 21.1941 6.05163V8.54801C21.1941 9.05041 20.8759 9.4908 20.4006 9.64882V14.3412L20.9223 14.0581C21.5744 13.7014 22.3253 13.9517 22.7481 14.6665C23.1173 15.2876 23.1337 16.1899 22.4367 16.6385L15.8655 20.8378C15.4913 21.0772 15.1142 21.1886 14.6787 21.1886ZM5.06508 20.4378L6.74173 21.0053C7.02045 21.1025 7.27888 21.1457 7.57986 21.1457H14.6787C15.1056 21.1457 15.4754 21.0364 15.8424 20.8017L22.4136 16.6024C23.0879 16.1684 23.0702 15.2923 22.7112 14.6884L22.7112 14.6884C22.3009 13.9945 21.5736 13.7509 20.9427 14.0958L20.3577 14.4133V9.61759L20.3727 9.61283C20.8383 9.46485 21.1512 9.03695 21.1512 8.54805V6.05167C21.1512 5.43676 20.651 4.93645 20.036 4.93645H16.7859L16.8836 4.89523C17.9546 4.44365 18.5908 3.66411 18.6291 2.75658C18.6628 2.00775 18.2518 1.32545 17.5822 1.01838C17.162 0.827379 16.0272 0.534033 14.5691 1.93226C13.9012 2.57463 13.3482 3.37175 12.9697 4.23734L12.9502 4.28203L12.9305 4.23742C12.5476 3.37163 11.9945 2.5745 11.331 1.93222C9.87601 0.532703 8.73922 0.826993 8.31792 1.01842C7.64699 1.32224 7.23268 2.00454 7.26245 2.75667C7.30063 3.65978 7.93686 4.43932 9.00803 4.89527L9.10475 4.93645H6.36599C5.75107 4.93645 5.25077 5.43676 5.25077 6.05167V8.54805C5.25077 9.02931 5.57092 9.46716 6.02932 9.61283L6.04429 9.61759V13.4352L5.05299 13.8335L5.04359 13.8177C4.89137 13.5611 4.62088 13.4078 4.31999 13.4078H1.88366C1.6598 13.4042 1.44962 13.4913 1.29083 13.6487C1.13101 13.8071 1.04295 14.0186 1.04295 14.2443V20.0392C1.04295 20.5027 1.42007 20.8799 1.88366 20.8799H4.32428C4.62474 20.8799 4.90526 20.7163 5.05629 20.4532L5.06508 20.4378ZM14.6787 20.5067H7.58415C7.35493 20.5067 7.1656 20.4755 6.95101 20.4026L5.16498 19.7971V14.4786L7.2673 13.6325C7.61662 13.4928 7.96041 13.5119 8.28918 13.6892L10.3265 14.7744C10.6102 14.9248 10.8905 14.9949 11.2086 14.9949H14.4127C14.7419 14.9949 15.0143 15.1997 15.1068 15.5165C15.1994 15.8341 15.0796 16.1534 14.8017 16.3298L14.1284 16.763C13.9426 16.884 13.7577 16.938 13.5291 16.938H10.5137C10.3363 16.938 10.1921 17.0823 10.1921 17.2597C10.1921 17.4371 10.3363 17.5814 10.5137 17.5814H15.2363C15.6667 17.5814 16.0533 17.4813 16.4529 17.2665L21.2439 14.6586C21.7599 14.3755 22.1134 14.9479 22.152 15.0141C22.3215 15.2896 22.4488 15.8175 22.0678 16.0596L15.4966 20.2631C15.2307 20.4316 14.9784 20.5067 14.6787 20.5067ZM5.20787 19.7664L6.96477 20.362C7.17744 20.4343 7.3569 20.4638 7.58411 20.4638H14.6786C14.9697 20.4638 15.2149 20.3907 15.4735 20.2269L22.0447 16.0234C22.3998 15.7978 22.2764 15.2982 22.1152 15.0362C22.0554 14.9338 21.7348 14.4383 21.2644 14.6963L16.4732 17.3042C16.0671 17.5226 15.674 17.6243 15.2362 17.6243H10.5137C10.3127 17.6243 10.1492 17.4607 10.1492 17.2597C10.1492 17.0586 10.3127 16.8951 10.5137 16.8951H13.5291C13.7489 16.8951 13.9265 16.8432 14.1051 16.727L14.7786 16.2937C15.0401 16.1276 15.1528 15.8273 15.0656 15.5285C14.9786 15.2304 14.7224 15.0378 14.4127 15.0378H11.2086C10.8833 15.0378 10.5965 14.9661 10.3064 14.8122L8.26898 13.727C7.95179 13.5559 7.62022 13.5375 7.2833 13.6723L5.20787 14.5075V19.7664ZM4.32428 20.2365H1.88366C1.77668 20.2365 1.68635 20.1461 1.68635 20.0391V14.2443C1.68635 14.1373 1.77668 14.0469 1.88366 14.0469H4.32428C4.43125 14.0469 4.52158 14.1372 4.52158 14.2443V20.0348C4.52158 20.1441 4.43125 20.2365 4.32428 20.2365ZM1.88366 14.0898C1.80139 14.0898 1.72924 14.162 1.72924 14.2443V20.0392C1.72924 20.1214 1.80139 20.1936 1.88366 20.1936H4.32428C4.408 20.1936 4.47869 20.1209 4.47869 20.0349V14.2443C4.47869 14.1621 4.40654 14.0899 4.32428 14.0899H1.88366V14.0898ZM15.2406 16.9379H15.0469L15.1561 16.8684C15.67 16.5356 15.8991 15.9179 15.7261 15.3312C15.5525 14.7426 15.0247 14.3472 14.4127 14.3472H13.2675V9.66327H19.7143V14.7631L19.7031 14.7693L16.1515 16.6995C15.8477 16.8644 15.5667 16.9379 15.2406 16.9379ZM15.1936 16.895H15.2406C15.5592 16.895 15.8338 16.8231 16.1311 16.6617L19.6714 14.7377V9.70616H13.3104V14.3043H14.4127C15.0439 14.3043 15.5882 14.7121 15.7673 15.3191C15.9441 15.9186 15.7137 16.5497 15.1936 16.895ZM12.6241 14.3515H11.2086C10.9934 14.3515 10.8143 14.3071 10.628 14.2074L8.59064 13.1223C8.09098 12.8555 7.54992 12.8262 7.02594 13.0374L6.68764 13.1737V9.66331H12.6241V14.3515ZM7.72321 12.855C8.02535 12.855 8.3247 12.9316 8.61084 13.0844L10.6483 14.1696C10.828 14.2658 11.0008 14.3086 11.2087 14.3086H12.5812V9.70621H6.73058V13.1102L7.00994 12.9977C7.24598 12.9024 7.4855 12.855 7.72321 12.855ZM20.036 9.01987H13.2675V5.61305L13.2936 5.61901C13.9586 5.77012 14.3842 6.34515 14.877 7.01093L14.9064 7.05061C15.2201 7.47311 15.5444 7.90997 15.9529 8.23098C16.0097 8.27636 16.0773 8.29931 16.1541 8.29931C16.2554 8.29931 16.3454 8.25646 16.4076 8.17865C16.4603 8.11033 16.4843 8.02596 16.4749 7.94137C16.4654 7.85631 16.423 7.78074 16.3555 7.72866C16.018 7.45784 15.7383 7.0908 15.4076 6.63918L15.3934 6.61992C15.1366 6.27317 14.871 5.91459 14.5524 5.61704L14.5127 5.57993H20.0403C20.2981 5.57993 20.5078 5.79161 20.5078 6.05176V8.54814C20.5078 8.80824 20.2962 9.01987 20.036 9.01987ZM13.3104 8.97698H20.036C20.2725 8.97698 20.4649 8.78456 20.4649 8.54805V6.05167C20.4649 5.81516 20.2745 5.62274 20.0403 5.62274H14.6209C14.925 5.91527 15.1805 6.26026 15.4279 6.59436L15.4422 6.61366C15.771 7.06283 16.049 7.4276 16.382 7.69491C16.4586 7.75393 16.5068 7.83984 16.5175 7.93661C16.5282 8.0323 16.5011 8.1277 16.4414 8.20516C16.3706 8.29361 16.2687 8.34216 16.1542 8.34216C16.0674 8.34216 15.9907 8.31604 15.9263 8.26453C15.5134 7.94008 15.1873 7.50086 14.872 7.07609L14.8425 7.03637C14.3613 6.38632 13.9449 5.82374 13.3103 5.66701V8.97698H13.3104ZM12.6284 9.01987H6.36599C6.10584 9.01987 5.89416 8.8082 5.89416 8.54805V6.05167C5.89416 5.79152 6.10584 5.57985 6.36599 5.57985H11.3831L11.3433 5.61695C11.0314 5.90837 10.7706 6.25915 10.5185 6.59834L10.455 6.68374C10.1582 7.08398 9.87777 7.462 9.5405 7.72841C9.47389 7.77979 9.43164 7.8546 9.42135 7.93927C9.41092 8.02475 9.43533 8.11204 9.48826 8.1787C9.55046 8.25646 9.64045 8.29927 9.74167 8.29927C9.8103 8.29927 9.88386 8.27422 9.94344 8.23047C10.3586 7.90006 10.6876 7.45698 11.0058 7.02848L11.0189 7.01076C11.5117 6.34502 11.9374 5.77008 12.6022 5.61897L12.6284 5.613V9.01987ZM6.36599 5.62278C6.12947 5.62278 5.93706 5.8152 5.93706 6.05171V8.54809C5.93706 8.78461 6.12947 8.97702 6.36599 8.97702H12.5855V5.66709C11.951 5.82382 11.5346 6.38637 11.0534 7.03633L11.0403 7.05413C10.7204 7.48486 10.3897 7.93022 9.96952 8.26466C9.90106 8.31488 9.82038 8.34225 9.74167 8.34225C9.62719 8.34225 9.52524 8.29369 9.45472 8.20551C9.39467 8.12984 9.367 8.03097 9.37876 7.93416C9.39046 7.83804 9.43855 7.75298 9.51412 7.69469C9.84668 7.43193 10.1254 7.05614 10.4206 6.65827L10.484 6.57282C10.7268 6.24632 10.9774 5.90914 11.2749 5.62278H6.36599ZM12.501 4.91689L12.4684 4.915C11.2887 4.84612 10.2528 4.66326 9.47286 4.38622C8.52205 4.04912 7.93626 3.43099 7.90589 2.73273C7.88402 2.24289 8.14656 1.80212 8.57481 1.60988C8.73231 1.53747 8.90852 1.50076 9.09832 1.50076C9.64156 1.50076 10.2729 1.82125 10.8761 2.40323C11.5672 3.0646 12.1554 3.96964 12.4899 4.88627L12.501 4.91689ZM9.09828 1.54365C8.91469 1.54365 8.74454 1.57908 8.59248 1.64891C8.18028 1.83399 7.92764 2.25864 7.9487 2.7308C7.97825 3.411 8.55341 4.01472 9.48719 4.34577C10.2562 4.61891 11.276 4.80014 12.4382 4.87022C12.1041 3.97007 11.5252 3.08377 10.8463 2.43415C10.2512 1.85986 9.63037 1.54365 9.09828 1.54365ZM13.3907 4.91689L13.4017 4.88631C13.7279 3.98066 14.3145 3.07408 15.0112 2.39894L15.0113 2.39881C15.6291 1.8113 16.2453 1.50071 16.7933 1.50071C16.9789 1.50071 17.155 1.53743 17.3168 1.60979C17.745 1.80204 18.0076 2.24281 17.9857 2.73269C17.9551 3.43528 17.3693 4.05345 16.4186 4.38618C15.6336 4.66348 14.5978 4.84638 13.4231 4.91496L13.3907 4.91689ZM15.0409 2.42982C14.3568 3.09291 13.7794 3.98084 13.4532 4.87027C14.6104 4.80044 15.6303 4.61921 16.4044 4.34577C17.338 4.01901 17.9131 3.41529 17.9428 2.7308C17.9639 2.25864 17.7113 1.83399 17.2992 1.64895C17.143 1.57908 16.9728 1.54361 16.7933 1.54361C16.2565 1.54365 15.6505 1.85012 15.0409 2.42982Z" fill="#8C8C8C"/>
<path d="M14.6787 21.1886H7.57986C7.27386 21.1886 7.0111 21.1446 6.72783 21.0459L5.08456 20.4897C4.92392 20.7573 4.63422 20.9227 4.32428 20.9227H1.88366C1.39644 20.9227 1.00006 20.5264 1.00006 20.0391V14.2443C1.00006 14.0071 1.09262 13.7847 1.26068 13.6182C1.42762 13.4527 1.64929 13.3613 1.88387 13.3649H4.31999C4.62997 13.3649 4.90929 13.5197 5.07092 13.7801L6.0014 13.4062V9.64882C5.53339 9.49286 5.20787 9.04248 5.20787 8.54801V6.05163C5.20787 5.41304 5.72739 4.89352 6.36599 4.89352H8.89758C7.8672 4.42577 7.25735 3.65197 7.2196 2.75834C7.18915 1.98867 7.61332 1.29032 8.30021 0.979263C8.72944 0.784185 9.88682 0.483505 11.3608 1.90125C12.0169 2.53645 12.5658 3.32208 12.9499 4.17579C13.33 3.32217 13.8789 2.53658 14.5394 1.90125C16.0165 0.484792 17.1719 0.7847 17.6 0.979263C18.2857 1.29371 18.7065 1.99205 18.672 2.75838C18.6341 3.65601 18.0245 4.42971 16.9949 4.89352H20.036C20.6746 4.89352 21.1941 5.41304 21.1941 6.05163V8.54801C21.1941 9.05041 20.8759 9.4908 20.4006 9.64882V14.3412L20.9223 14.0581C21.5744 13.7014 22.3253 13.9517 22.7481 14.6665C23.1173 15.2876 23.1337 16.1899 22.4367 16.6385L15.8655 20.8378C15.4913 21.0772 15.1142 21.1886 14.6787 21.1886ZM5.06508 20.4378L6.74173 21.0053C7.02045 21.1025 7.27888 21.1457 7.57986 21.1457H14.6787C15.1056 21.1457 15.4754 21.0364 15.8424 20.8017L22.4136 16.6024C23.0879 16.1684 23.0702 15.2923 22.7112 14.6884L22.7112 14.6884C22.3009 13.9945 21.5736 13.7509 20.9427 14.0958L20.3577 14.4133V9.61759L20.3727 9.61283C20.8383 9.46485 21.1512 9.03695 21.1512 8.54805V6.05167C21.1512 5.43676 20.651 4.93645 20.036 4.93645H16.7859L16.8836 4.89523C17.9546 4.44365 18.5908 3.66411 18.6291 2.75658C18.6628 2.00775 18.2518 1.32545 17.5822 1.01838C17.162 0.827379 16.0272 0.534033 14.5691 1.93226C13.9012 2.57463 13.3482 3.37175 12.9697 4.23734L12.9502 4.28203L12.9305 4.23742C12.5476 3.37163 11.9945 2.5745 11.331 1.93222C9.87601 0.532703 8.73922 0.826993 8.31792 1.01842C7.64699 1.32224 7.23268 2.00454 7.26245 2.75667C7.30063 3.65978 7.93686 4.43932 9.00803 4.89527L9.10475 4.93645H6.36599C5.75107 4.93645 5.25077 5.43676 5.25077 6.05167V8.54805C5.25077 9.02931 5.57092 9.46716 6.02932 9.61283L6.04429 9.61759V13.4352L5.05299 13.8335L5.04359 13.8177C4.89137 13.5611 4.62088 13.4078 4.31999 13.4078H1.88366C1.6598 13.4042 1.44962 13.4913 1.29083 13.6487C1.13101 13.8071 1.04295 14.0186 1.04295 14.2443V20.0392C1.04295 20.5027 1.42007 20.8799 1.88366 20.8799H4.32428C4.62474 20.8799 4.90526 20.7163 5.05629 20.4532L5.06508 20.4378ZM14.6787 20.5067H7.58415C7.35493 20.5067 7.1656 20.4755 6.95101 20.4026L5.16498 19.7971V14.4786L7.2673 13.6325C7.61662 13.4928 7.96041 13.5119 8.28918 13.6892L10.3265 14.7744C10.6102 14.9248 10.8905 14.9949 11.2086 14.9949H14.4127C14.7419 14.9949 15.0143 15.1997 15.1068 15.5165C15.1994 15.8341 15.0796 16.1534 14.8017 16.3298L14.1284 16.763C13.9426 16.884 13.7577 16.938 13.5291 16.938H10.5137C10.3363 16.938 10.1921 17.0823 10.1921 17.2597C10.1921 17.4371 10.3363 17.5814 10.5137 17.5814H15.2363C15.6667 17.5814 16.0533 17.4813 16.4529 17.2665L21.2439 14.6586C21.7599 14.3755 22.1134 14.9479 22.152 15.0141C22.3215 15.2896 22.4488 15.8175 22.0678 16.0596L15.4966 20.2631C15.2307 20.4316 14.9784 20.5067 14.6787 20.5067ZM5.20787 19.7664L6.96477 20.362C7.17744 20.4343 7.3569 20.4638 7.58411 20.4638H14.6786C14.9697 20.4638 15.2149 20.3907 15.4735 20.2269L22.0447 16.0234C22.3998 15.7978 22.2764 15.2982 22.1152 15.0362C22.0554 14.9338 21.7348 14.4383 21.2644 14.6963L16.4732 17.3042C16.0671 17.5226 15.674 17.6243 15.2362 17.6243H10.5137C10.3127 17.6243 10.1492 17.4607 10.1492 17.2597C10.1492 17.0586 10.3127 16.8951 10.5137 16.8951H13.5291C13.7489 16.8951 13.9265 16.8432 14.1051 16.727L14.7786 16.2937C15.0401 16.1276 15.1528 15.8273 15.0656 15.5285C14.9786 15.2304 14.7224 15.0378 14.4127 15.0378H11.2086C10.8833 15.0378 10.5965 14.9661 10.3064 14.8122L8.26898 13.727C7.95179 13.5559 7.62022 13.5375 7.2833 13.6723L5.20787 14.5075V19.7664ZM4.32428 20.2365H1.88366C1.77668 20.2365 1.68635 20.1461 1.68635 20.0391V14.2443C1.68635 14.1373 1.77668 14.0469 1.88366 14.0469H4.32428C4.43125 14.0469 4.52158 14.1372 4.52158 14.2443V20.0348C4.52158 20.1441 4.43125 20.2365 4.32428 20.2365ZM1.88366 14.0898C1.80139 14.0898 1.72924 14.162 1.72924 14.2443V20.0392C1.72924 20.1214 1.80139 20.1936 1.88366 20.1936H4.32428C4.408 20.1936 4.47869 20.1209 4.47869 20.0349V14.2443C4.47869 14.1621 4.40654 14.0899 4.32428 14.0899H1.88366V14.0898ZM15.2406 16.9379H15.0469L15.1561 16.8684C15.67 16.5356 15.8991 15.9179 15.7261 15.3312C15.5525 14.7426 15.0247 14.3472 14.4127 14.3472H13.2675V9.66327H19.7143V14.7631L19.7031 14.7693L16.1515 16.6995C15.8477 16.8644 15.5667 16.9379 15.2406 16.9379ZM15.1936 16.895H15.2406C15.5592 16.895 15.8338 16.8231 16.1311 16.6617L19.6714 14.7377V9.70616H13.3104V14.3043H14.4127C15.0439 14.3043 15.5882 14.7121 15.7673 15.3191C15.9441 15.9186 15.7137 16.5497 15.1936 16.895ZM12.6241 14.3515H11.2086C10.9934 14.3515 10.8143 14.3071 10.628 14.2074L8.59064 13.1223C8.09098 12.8555 7.54992 12.8262 7.02594 13.0374L6.68764 13.1737V9.66331H12.6241V14.3515ZM7.72321 12.855C8.02535 12.855 8.3247 12.9316 8.61084 13.0844L10.6483 14.1696C10.828 14.2658 11.0008 14.3086 11.2087 14.3086H12.5812V9.70621H6.73058V13.1102L7.00994 12.9977C7.24598 12.9024 7.4855 12.855 7.72321 12.855ZM20.036 9.01987H13.2675V5.61305L13.2936 5.61901C13.9586 5.77012 14.3842 6.34515 14.877 7.01093L14.9064 7.05061C15.2201 7.47311 15.5444 7.90997 15.9529 8.23098C16.0097 8.27636 16.0773 8.29931 16.1541 8.29931C16.2554 8.29931 16.3454 8.25646 16.4076 8.17865C16.4603 8.11033 16.4843 8.02596 16.4749 7.94137C16.4654 7.85631 16.423 7.78074 16.3555 7.72866C16.018 7.45784 15.7383 7.0908 15.4076 6.63918L15.3934 6.61992C15.1366 6.27317 14.871 5.91459 14.5524 5.61704L14.5127 5.57993H20.0403C20.2981 5.57993 20.5078 5.79161 20.5078 6.05176V8.54814C20.5078 8.80824 20.2962 9.01987 20.036 9.01987ZM13.3104 8.97698H20.036C20.2725 8.97698 20.4649 8.78456 20.4649 8.54805V6.05167C20.4649 5.81516 20.2745 5.62274 20.0403 5.62274H14.6209C14.925 5.91527 15.1805 6.26026 15.4279 6.59436L15.4422 6.61366C15.771 7.06283 16.049 7.4276 16.382 7.69491C16.4586 7.75393 16.5068 7.83984 16.5175 7.93661C16.5282 8.0323 16.5011 8.1277 16.4414 8.20516C16.3706 8.29361 16.2687 8.34216 16.1542 8.34216C16.0674 8.34216 15.9907 8.31604 15.9263 8.26453C15.5134 7.94008 15.1873 7.50086 14.872 7.07609L14.8425 7.03637C14.3613 6.38632 13.9449 5.82374 13.3103 5.66701V8.97698H13.3104ZM12.6284 9.01987H6.36599C6.10584 9.01987 5.89416 8.8082 5.89416 8.54805V6.05167C5.89416 5.79152 6.10584 5.57985 6.36599 5.57985H11.3831L11.3433 5.61695C11.0314 5.90837 10.7706 6.25915 10.5185 6.59834L10.455 6.68374C10.1582 7.08398 9.87777 7.462 9.5405 7.72841C9.47389 7.77979 9.43164 7.8546 9.42135 7.93927C9.41092 8.02475 9.43533 8.11204 9.48826 8.1787C9.55046 8.25646 9.64045 8.29927 9.74167 8.29927C9.8103 8.29927 9.88386 8.27422 9.94344 8.23047C10.3586 7.90006 10.6876 7.45698 11.0058 7.02848L11.0189 7.01076C11.5117 6.34502 11.9374 5.77008 12.6022 5.61897L12.6284 5.613V9.01987ZM6.36599 5.62278C6.12947 5.62278 5.93706 5.8152 5.93706 6.05171V8.54809C5.93706 8.78461 6.12947 8.97702 6.36599 8.97702H12.5855V5.66709C11.951 5.82382 11.5346 6.38637 11.0534 7.03633L11.0403 7.05413C10.7204 7.48486 10.3897 7.93022 9.96952 8.26466C9.90106 8.31488 9.82038 8.34225 9.74167 8.34225C9.62719 8.34225 9.52524 8.29369 9.45472 8.20551C9.39467 8.12984 9.367 8.03097 9.37876 7.93416C9.39046 7.83804 9.43855 7.75298 9.51412 7.69469C9.84668 7.43193 10.1254 7.05614 10.4206 6.65827L10.484 6.57282C10.7268 6.24632 10.9774 5.90914 11.2749 5.62278H6.36599ZM12.501 4.91689L12.4684 4.915C11.2887 4.84612 10.2528 4.66326 9.47286 4.38622C8.52205 4.04912 7.93626 3.43099 7.90589 2.73273C7.88402 2.24289 8.14656 1.80212 8.57481 1.60988C8.73231 1.53747 8.90852 1.50076 9.09832 1.50076C9.64156 1.50076 10.2729 1.82125 10.8761 2.40323C11.5672 3.0646 12.1554 3.96964 12.4899 4.88627L12.501 4.91689ZM9.09828 1.54365C8.91469 1.54365 8.74454 1.57908 8.59248 1.64891C8.18028 1.83399 7.92764 2.25864 7.9487 2.7308C7.97825 3.411 8.55341 4.01472 9.48719 4.34577C10.2562 4.61891 11.276 4.80014 12.4382 4.87022C12.1041 3.97007 11.5252 3.08377 10.8463 2.43415C10.2512 1.85986 9.63037 1.54365 9.09828 1.54365ZM13.3907 4.91689L13.4017 4.88631C13.7279 3.98066 14.3145 3.07408 15.0112 2.39894L15.0113 2.39881C15.6291 1.8113 16.2453 1.50071 16.7933 1.50071C16.9789 1.50071 17.155 1.53743 17.3168 1.60979C17.745 1.80204 18.0076 2.24281 17.9857 2.73269C17.9551 3.43528 17.3693 4.05345 16.4186 4.38618C15.6336 4.66348 14.5978 4.84638 13.4231 4.91496L13.3907 4.91689ZM15.0409 2.42982C14.3568 3.09291 13.7794 3.98084 13.4532 4.87027C14.6104 4.80044 15.6303 4.61921 16.4044 4.34577C17.338 4.01901 17.9131 3.41529 17.9428 2.7308C17.9639 2.25864 17.7113 1.83399 17.2992 1.64895C17.143 1.57908 16.9728 1.54361 16.7933 1.54361C16.2565 1.54365 15.6505 1.85012 15.0409 2.42982Z" stroke="#8C8C8C" stroke-width="0.6" mask="url(#path-2-outside-2_24220_15392)"/>
</svg>
