<svg width="16" height="16" viewBox="0 0 16 16" fill="none" xmlns="http://www.w3.org/2000/svg">
<path fill-rule="evenodd" clip-rule="evenodd" d="M4.27742 1.22206C4.38224 1.30439 4.49997 1.41515 4.63542 1.54894C4.92561 1.83454 5.26227 2.29213 5.55116 2.73142C5.84328 3.17563 6.11396 3.64325 6.26568 3.96873L6.26578 3.96894L6.26587 3.96915C6.35187 4.15407 6.42938 4.32166 6.48386 4.46853C6.53919 4.61769 6.58517 4.78175 6.58546 4.96079C6.58608 5.33555 6.38267 5.62479 6.18674 5.89157C6.13044 5.96821 6.08261 6.03101 6.04139 6.08514C5.95254 6.20182 5.89429 6.27831 5.84765 6.36677C5.80216 6.45306 5.78889 6.51536 5.81042 6.61566C5.84147 6.76027 5.97643 7.07683 6.23851 7.49095C6.49197 7.89145 6.83899 8.34318 7.25361 8.75648C7.66814 9.1697 8.1127 9.50757 8.50521 9.75205C8.90966 10.004 9.22114 10.1333 9.36992 10.165C9.47346 10.1871 9.53811 10.1733 9.62457 10.1283C9.71578 10.0808 9.79693 10.0189 9.92311 9.92253C9.9727 9.88468 10.0292 9.84151 10.0961 9.79182L10.0962 9.79174L10.1012 9.78799C10.3689 9.5891 10.6663 9.36813 11.0433 9.36853C11.2296 9.36873 11.3968 9.42132 11.544 9.48141C11.6846 9.53882 11.8462 9.62021 12.0234 9.70949L12.0383 9.71697C12.3489 9.87362 12.8108 10.139 13.2579 10.4283C13.6972 10.7124 14.1607 11.0442 14.4493 11.3349L14.4497 11.3354C14.5838 11.4709 14.6949 11.5886 14.7774 11.6934C14.8573 11.7948 14.945 11.926 14.982 12.0892C15.0236 12.2731 14.9859 12.426 14.9471 12.5322C14.9297 12.58 14.9091 12.6259 14.8943 12.6587C14.892 12.6639 14.8898 12.6689 14.8876 12.6737C14.8738 12.7042 14.8619 12.7308 14.8491 12.7612L14.8488 12.762L14.8485 12.7627C14.7179 13.0724 14.559 13.3695 14.3739 13.65L14.3733 13.6509L14.3728 13.6517C14.011 14.1952 13.6707 14.5502 13.1417 14.7967C12.8669 14.9247 12.4741 15.054 11.8637 14.9779C11.2766 14.9047 10.5128 14.6447 9.47036 14.0609L9.4701 14.0608C7.80194 13.1252 6.64445 12.3186 5.15131 10.8296C3.66256 9.34505 2.9308 8.37611 1.90572 6.5139C0.873762 4.63919 0.87524 3.4831 1.16994 2.85336C1.41738 2.32461 1.77603 1.98587 2.31768 1.62601L2.31875 1.6253L2.31982 1.6246C2.60069 1.44006 2.89788 1.28163 3.20765 1.15129L3.20867 1.15086L3.2097 1.15044C3.24035 1.1377 3.26716 1.12568 3.29782 1.11194C3.30263 1.10978 3.30753 1.10759 3.31256 1.10534C3.3455 1.09059 3.39144 1.0701 3.43924 1.05274C3.54518 1.01425 3.69784 0.976662 3.88135 1.01804C4.0445 1.05483 4.17576 1.14223 4.27742 1.22206ZM3.59453 2.07343C3.34176 2.17984 3.09924 2.30912 2.86999 2.45965C2.41241 2.76379 2.21625 2.97682 2.07567 3.27722C1.98225 3.47684 1.80936 4.26514 2.78177 6.03167C3.76107 7.81072 4.43556 8.70365 5.85743 10.1216C7.27484 11.535 8.35544 12.2891 9.95901 13.1884C10.9403 13.738 11.5765 13.9343 11.9875 13.9856C12.3751 14.0339 12.5784 13.9559 12.7195 13.8902C13.0222 13.7492 13.2362 13.5544 13.5398 13.0984C13.6908 12.8695 13.8203 12.6273 13.9269 12.3747C13.9412 12.3403 13.9553 12.3086 13.9672 12.282C13.9206 12.2267 13.8492 12.1502 13.7393 12.0392C13.5316 11.83 13.1461 11.547 12.7147 11.2679C12.2912 10.9938 11.8607 10.7474 11.5882 10.61C11.3915 10.5109 11.2655 10.4478 11.1661 10.4072C11.0693 10.3677 11.0412 10.3685 11.0423 10.3685C11.0513 10.3685 11.0204 10.3509 10.6926 10.5945C10.6591 10.6194 10.6229 10.6471 10.5845 10.6765C10.4384 10.7885 10.2616 10.9241 10.0863 11.0153C9.82438 11.1516 9.52372 11.2203 9.16133 11.143C8.84417 11.0754 8.41642 10.8749 7.97651 10.6009C7.52464 10.3194 7.01966 9.93525 6.54763 9.46471C6.07569 8.99427 5.68302 8.48319 5.39351 8.02572C5.11262 7.58187 4.90134 7.1453 4.8327 6.82554C4.75454 6.46146 4.8258 6.16079 4.96304 5.90044C5.05149 5.73267 5.1837 5.55932 5.29251 5.41665C5.32453 5.37467 5.35452 5.33535 5.38077 5.2996C5.59097 5.01341 5.58603 4.96779 5.5855 4.96281C5.58548 4.96265 5.58547 4.96253 5.58547 4.96244C5.58545 4.95281 5.58322 4.9159 5.54629 4.81632C5.50851 4.71448 5.44971 4.58561 5.35917 4.39091C5.23553 4.12574 4.99317 3.70291 4.71563 3.28087C4.43488 2.85395 4.14531 2.46957 3.93371 2.2614L3.93336 2.26105L3.933 2.2607C3.82135 2.15041 3.74456 2.07894 3.68912 2.03241C3.66218 2.04445 3.62972 2.05878 3.59453 2.07343Z" fill="#262626"/>
</svg>
