<svg width="65" height="64" viewBox="0 0 65 64" fill="none" xmlns="http://www.w3.org/2000/svg">
<path d="M20.5 32C20.5 31.4696 20.7107 30.9609 21.0858 30.5858C21.4609 30.2107 21.9696 30 22.5 30H40.5V17C40.5 13 36.2762 10 32.5 10H13.5C11.6441 10.002 9.86477 10.7401 8.55245 12.0524C7.24012 13.3648 6.50199 15.1441 6.5 17V47C6.50199 48.8559 7.24012 50.6352 8.55245 51.9476C9.86477 53.2599 11.6441 53.998 13.5 54H33.5C35.3559 53.998 37.1352 53.2599 38.4476 51.9476C39.7599 50.6352 40.498 48.8559 40.5 47V34H22.5C21.9696 34 21.4609 33.7893 21.0858 33.4142C20.7107 33.0391 20.5 32.5304 20.5 32Z" fill="#BC2228"/>
<path d="M57.9137 30.5871L47.9137 20.5872C47.5356 20.2279 47.0321 20.0306 46.5106 20.0373C45.9891 20.044 45.4908 20.2541 45.122 20.6229C44.7532 20.9917 44.543 21.49 44.5364 22.0115C44.5297 22.533 44.727 23.0365 45.0863 23.4146L51.6712 30.0009H40.5V34.0009H51.6712L45.0863 40.5871C44.8927 40.771 44.7379 40.9917 44.6311 41.2364C44.5242 41.481 44.4674 41.7445 44.464 42.0115C44.4605 42.2784 44.5106 42.5433 44.6112 42.7906C44.7117 43.0379 44.8608 43.2625 45.0496 43.4513C45.2383 43.64 45.463 43.7891 45.7103 43.8897C45.9576 43.9903 46.2225 44.0403 46.4894 44.0369C46.7563 44.0335 47.0199 43.9767 47.2645 43.8698C47.5091 43.7629 47.7299 43.6081 47.9137 43.4146L57.9137 33.4146C58.2885 33.0396 58.4991 32.5311 58.4991 32.0009C58.4991 31.4707 58.2885 30.9622 57.9137 30.5871V30.5871Z" fill="#EB2227"/>
</svg>
