<svg width="32" height="33" viewBox="0 0 32 33" fill="none" xmlns="http://www.w3.org/2000/svg">
<g clip-path="url(#clip0_27223_1831)">
<path d="M28.4663 16.2258C28.4663 23.1448 23.0499 28.7524 16.3669 28.7524C9.684 28.7524 4.26758 23.1448 4.26758 16.2258C4.26758 9.30692 9.684 3.69924 16.3669 3.69924C23.0499 3.6853 28.4663 9.29297 28.4663 16.2258Z" fill="#FAB217"/>
<path d="M16.9004 7.96484C18.5711 9.0808 19.6759 11.0198 19.6759 13.2238C19.6759 16.6832 16.9677 19.4871 13.6263 19.4871C11.4839 19.4871 9.6111 18.3432 8.5332 16.5995C8.68141 21.0773 12.2385 24.6484 16.5905 24.6484C21.0503 24.6484 24.6612 20.9099 24.6612 16.2927C24.6612 11.8009 21.2119 8.13224 16.9004 7.96484Z" fill="#F26F24"/>
<path d="M10.666 18.4712C10.666 18.5689 10.666 18.6665 10.6795 18.7642C11.7574 20.4939 13.6302 21.6517 15.7725 21.6517C19.114 21.6517 21.8222 18.8479 21.8222 15.3884C21.8222 13.1844 20.7174 11.2315 19.0466 10.1155C18.9389 10.1155 18.8445 10.1016 18.7368 10.1016C14.277 10.1155 10.666 13.854 10.666 18.4712Z" fill="#F27024"/>
<path d="M17.7841 11.168C14.4426 11.168 11.7344 13.9718 11.7344 17.4313C11.7344 18.6728 12.0847 19.8306 12.691 20.807C12.691 20.7094 12.6775 20.6117 12.6775 20.5141C12.6775 15.8968 16.2885 12.1584 20.7483 12.1584C20.8561 12.1584 20.9504 12.1584 21.0582 12.1723C20.115 11.5307 18.9832 11.168 17.7841 11.168Z" fill="white"/>
<path d="M31.4865 16.2458C31.4865 24.9428 24.4388 31.9916 15.7432 31.9916C7.04764 31.9916 0 24.9428 0 16.2458C0 7.54881 7.04764 0.500033 15.7432 0.500033C24.4388 0.482498 31.4865 7.53127 31.4865 16.2458Z" fill="#F9B217"/>
<path d="M16.1468 5.70703C18.3207 7.10977 19.7583 9.54703 19.7583 12.3174C19.7583 16.6659 16.2344 20.1903 11.8866 20.1903C9.09915 20.1903 6.66228 18.7525 5.25977 16.5607C5.45261 22.1892 10.0809 26.678 15.7436 26.678C21.5465 26.678 26.2449 21.9788 26.2449 16.175C26.2449 10.529 21.7568 5.91744 16.1468 5.70703Z" fill="#F16F24"/>
<path d="M5.24219 16.212C5.24219 16.3347 5.24219 16.4574 5.25972 16.5802C6.66223 18.7544 9.0991 20.2098 11.8866 20.2098C16.2344 20.2098 19.7582 16.6854 19.7582 12.3369C19.7582 9.56648 18.3206 7.11168 16.1467 5.70894C16.0065 5.70894 15.8838 5.69141 15.7435 5.69141C9.94061 5.70894 5.24219 10.4081 5.24219 16.212Z" fill="#EA2127"/>
<path d="M5.24087 16.2089C5.24087 10.4051 9.9393 5.70587 15.7422 5.70587C15.8825 5.70587 16.0052 5.70587 16.1454 5.7234C14.9182 4.93436 13.4456 4.46094 11.8853 4.46094C7.53749 4.46094 4.01367 7.98533 4.01367 12.3338C4.01367 13.8944 4.46949 15.3497 5.2584 16.5771C5.24087 16.4544 5.24087 16.3316 5.24087 16.2089Z" fill="white"/>
</g>
<defs>
<clipPath id="clip0_27223_1831">
<rect width="32" height="32" fill="white" transform="translate(0 0.5)"/>
</clipPath>
</defs>
</svg>
