<svg width="16" height="16" viewBox="0 0 16 16" fill="none" xmlns="http://www.w3.org/2000/svg">
<g clip-path="url(#clip0_293_58026)">
<path d="M16.002 8.0011C16.002 10.1228 15.1591 12.1577 13.6588 13.658C12.1585 15.1582 10.1237 16.0011 8.00195 16.0011C5.88022 16.0011 3.84539 15.1582 2.3451 13.658C0.844808 12.1577 0.00195313 10.1228 0.00195312 8.0011C0.00195313 5.87937 0.844808 3.84454 2.3451 2.34424C3.84539 0.843953 5.88022 0.00109863 8.00195 0.00109863C10.1237 0.00109863 12.1585 0.843953 13.6588 2.34424C15.1591 3.84454 16.002 5.87937 16.002 8.0011ZM12.032 4.9711C11.9605 4.89992 11.8755 4.84387 11.7819 4.80631C11.6883 4.76876 11.5881 4.75046 11.4873 4.75251C11.3865 4.75456 11.2871 4.77693 11.1951 4.81827C11.1031 4.8596 11.0204 4.91907 10.952 4.9931L7.47895 9.4181L5.38595 7.3241C5.24378 7.19162 5.05573 7.1195 4.86143 7.12292C4.66713 7.12635 4.48174 7.20506 4.34433 7.34248C4.20692 7.47989 4.12821 7.66528 4.12478 7.85958C4.12135 8.05388 4.19347 8.24192 4.32595 8.3841L6.97195 11.0311C7.04323 11.1023 7.12812 11.1583 7.22154 11.196C7.31496 11.2336 7.415 11.252 7.5157 11.2502C7.6164 11.2483 7.71569 11.2262 7.80765 11.1851C7.89961 11.144 7.98236 11.0848 8.05095 11.0111L12.043 6.0211C12.179 5.8796 12.2542 5.69037 12.2524 5.49406C12.2505 5.29774 12.1717 5.10998 12.033 4.9711H12.032Z" fill="white"/>
</g>
<defs>
<clipPath id="clip0_293_58026">
<rect width="16" height="16" fill="white"/>
</clipPath>
</defs>
</svg>
