<svg width="24" height="22" viewBox="0 0 24 22" fill="none" xmlns="http://www.w3.org/2000/svg">
<g clip-path="url(#clip0_24227_1984)">
<path d="M17.3028 16.0817C16.895 16.4543 16.5267 16.4707 16.1513 16.1903C15.9496 16.0415 15.7201 16.0844 15.4986 16.0817C15.0943 16.0762 14.6883 16.0944 14.284 16.0734C14.1085 16.0643 13.8339 16.2086 13.8024 15.8469C13.7798 15.573 13.8024 15.3556 14.1436 15.2716C14.5199 15.1803 14.7342 14.9063 14.7738 14.3976C14.2984 14.772 13.9185 14.8131 13.4746 14.4369C13.1892 14.1948 12.7454 14.4022 12.3771 14.3328C12.2934 14.2186 12.4159 14.1391 12.4222 14.0405C12.4411 13.7419 12.3087 13.5601 12.0188 13.5537C11.7289 13.5473 11.5308 13.7364 11.5975 14.0149C11.6749 14.3428 11.5515 14.3647 11.3003 14.3565C10.915 14.3437 10.5459 14.3264 10.2101 14.636C9.91115 14.9099 9.60053 14.593 9.26921 14.4825C9.26921 14.9328 9.5204 15.1702 9.88414 15.2752C10.2137 15.3666 10.2443 15.5894 10.2101 15.8652C10.1758 16.1903 9.92825 16.0725 9.75989 16.078C9.35565 16.0899 8.9496 16.078 8.54535 16.078C8.24554 16.078 7.96014 16.0908 7.69184 16.2835C7.40194 16.4917 7.09222 16.4232 6.81672 16.1693C6.78251 16.5995 6.98959 16.8844 7.49017 16.9547C7.8503 17.005 7.92683 17.1557 7.91512 17.4799C7.87641 18.5402 8.08799 18.3767 7.0148 18.3931C6.83473 18.3931 6.65467 18.4023 6.4746 18.3931C6.27383 18.3813 6.15769 18.447 6.16039 18.6671C6.16039 18.8598 6.16579 19.0553 6.43048 19.026C6.72939 18.9941 6.77441 19.1548 6.76991 19.4087C6.7591 20.048 6.7582 20.6873 6.76991 21.3266C6.77621 21.6005 6.71679 21.7384 6.40167 21.7366C4.38224 21.7247 2.35741 21.7247 0.332575 21.7247C0.242542 21.7247 0.123699 21.7247 0.0858855 21.6709C0.00935772 21.5658 0.129101 21.4782 0.184021 21.3969C0.670197 20.7028 1.15277 20.0051 1.65695 19.3247C1.82712 19.0954 1.83702 18.9238 1.69207 18.6753C-1.2502 13.5501 -0.306657 7.20378 4.14095 3.33791C7.82329 0.132338 12.071 -0.583665 16.5862 1.26753C23.3386 4.03747 26.0315 12.2962 22.332 18.6543C22.1745 18.9283 22.1997 19.1055 22.3726 19.3439C22.9209 20.101 23.453 20.8727 23.9932 21.6471C23.8185 21.7704 23.6501 21.7284 23.4935 21.7284C21.5587 21.7284 19.6221 21.7202 17.6891 21.7366C17.3289 21.7366 17.2146 21.6334 17.2272 21.2736C17.2497 20.6343 17.2389 19.995 17.2272 19.3557C17.2272 19.1338 17.2776 18.9968 17.527 19.0288C17.7971 19.0635 17.8502 18.9082 17.8484 18.6717C17.8484 18.405 17.6909 18.3867 17.4883 18.3895C17.1282 18.395 16.768 18.384 16.4079 18.395C16.172 18.4023 16.0802 18.3036 16.1018 18.0698C16.1153 17.9485 16.1153 17.8259 16.1018 17.7045C16.0469 17.2707 16.091 16.9611 16.642 16.9109C17.0156 16.8844 17.2497 16.5876 17.3028 16.0817ZM21.1661 17.6342C21.3462 17.5502 21.3759 17.4096 21.4362 17.2899C22.7057 14.6862 22.9263 11.9811 22.0565 9.22575C19.9714 2.63743 12.424 -0.231144 6.58084 3.31508C4.31119 4.69291 2.63492 6.88567 1.88447 9.45849C1.13402 12.0313 1.3642 14.7963 2.52937 17.205C2.78056 17.721 2.78326 17.7228 3.11728 17.2506L11.6893 5.1334C12.0044 4.68863 12.0107 4.68498 12.3195 5.12244C14.6862 8.47109 17.0513 11.8197 19.415 15.1684C19.9984 15.9958 20.5854 16.8187 21.1661 17.637V17.6342Z" fill="#8C8C8C"/>
</g>
<defs>
<clipPath id="clip0_24227_1984">
<rect width="24" height="21.4737" fill="white" transform="translate(0 0.263184)"/>
</clipPath>
</defs>
</svg>
