<svg width="20" height="20" viewBox="0 0 20 20" fill="none" xmlns="http://www.w3.org/2000/svg">
<path fill-rule="evenodd" clip-rule="evenodd" d="M1.25 10C1.25 5.16771 5.16771 1.25 10 1.25C14.8323 1.25 18.75 5.16771 18.75 10C18.75 14.8323 14.8323 18.75 10 18.75C5.16771 18.75 1.25 14.8323 1.25 10ZM10 2.5C5.85807 2.5 2.5 5.85807 2.5 10C2.5 14.1419 5.85807 17.5 10 17.5C14.1419 17.5 17.5 14.1419 17.5 10C17.5 5.85807 14.1419 2.5 10 2.5Z" fill="white"/>
<path fill-rule="evenodd" clip-rule="evenodd" d="M6.40319 3.95134C7.2579 2.41264 8.5221 1.25 10.0008 1.25C11.4795 1.25 12.7437 2.41264 13.5984 3.95134C14.4731 5.52616 15.027 7.66438 15.027 10C15.027 12.3356 14.4731 14.4738 13.5984 16.0487C12.7437 17.5874 11.4795 18.75 10.0008 18.75C8.5221 18.75 7.2579 17.5874 6.40319 16.0487C5.52842 14.4738 4.97461 12.3356 4.97461 10C4.97461 7.66438 5.52842 5.52616 6.40319 3.95134ZM7.49593 4.55833C6.7372 5.92423 6.22461 7.84851 6.22461 10C6.22461 12.1515 6.7372 14.0758 7.49593 15.4417C8.27471 16.8437 9.2111 17.5 10.0008 17.5C10.7905 17.5 11.7268 16.8437 12.5056 15.4417C13.2644 14.0758 13.777 12.1515 13.777 10C13.777 7.84851 13.2644 5.92423 12.5056 4.55833C11.7268 3.15631 10.7905 2.5 10.0008 2.5C9.2111 2.5 8.27471 3.15631 7.49593 4.55833Z" fill="white"/>
<path fill-rule="evenodd" clip-rule="evenodd" d="M4.07442 4.22026C4.27425 3.93881 4.6644 3.87264 4.94586 4.07246C6.33374 5.05785 8.08773 5.65005 10.0008 5.65005C11.9139 5.65005 13.6679 5.05785 15.0558 4.07246C15.3373 3.87264 15.7274 3.93881 15.9272 4.22026C16.1271 4.50171 16.0609 4.89187 15.7795 5.0917C14.1798 6.22741 12.1729 6.90005 10.0008 6.90005C7.82878 6.90005 5.82183 6.22741 4.22221 5.0917C3.94076 4.89187 3.87459 4.50171 4.07442 4.22026Z" fill="white"/>
<path fill-rule="evenodd" clip-rule="evenodd" d="M4.22221 14.906C5.82183 13.7703 7.82878 13.0977 10.0008 13.0977C12.1729 13.0977 14.1798 13.7703 15.7795 14.906C16.0609 15.1058 16.1271 15.496 15.9272 15.7774C15.7274 16.0589 15.3373 16.1251 15.0558 15.9252C13.6679 14.9399 11.9139 14.3477 10.0008 14.3477C8.08773 14.3477 6.33374 14.9399 4.94586 15.9252C4.6644 16.1251 4.27425 16.0589 4.07442 15.7774C3.87459 15.496 3.94076 15.1058 4.22221 14.906Z" fill="white"/>
<path fill-rule="evenodd" clip-rule="evenodd" d="M9.375 18.125V1.875H10.625V18.125H9.375Z" fill="white"/>
<path fill-rule="evenodd" clip-rule="evenodd" d="M1.875 9.375H18.125V10.625H1.875V9.375Z" fill="white"/>
</svg>
