<svg width="16" height="16" viewBox="0 0 16 16" fill="none" xmlns="http://www.w3.org/2000/svg">
<g clip-path="url(#clip0_25752_62116)">
<path d="M13.8654 10.5709V9.93262H13.9884V9.06292H14.2083C14.0721 8.86683 13.8235 8.49597 13.6972 8.20881C13.5167 7.80022 13.3214 7.26527 13.3214 7.26527V6.72212C13.4289 6.7295 13.5872 6.74427 13.7694 6.77545C14.0844 6.83042 14.324 6.53013 14.324 6.53013C14.324 6.53013 13.9327 6.6532 13.716 6.44808C13.6077 6.35203 13.4678 6.29917 13.323 6.29957V6.2807H13.2033V6.30286L13.186 6.30532L13.1934 6.71473L13.2041 6.71555V7.27922H13.1992C13.1992 7.27922 13.0129 7.80186 12.8291 8.20963C12.706 8.49597 12.4574 8.86683 12.3196 9.06374H12.5387V9.93344H12.6617V10.5718L11.308 10.5906V7.69602H11.4622L11.6255 7.40147V6.60315H11.1086V5.12056H11.1808L11.3063 4.90067V4.30091H11.0085V3.1342H11.4794C11.367 2.97092 10.4842 1.47192 10.4366 1.24794C10.4949 1.21922 10.5351 1.16671 10.5351 1.10435C10.5351 1.02641 10.4777 0.963233 10.3956 0.944362V0.599764C10.5121 0.605507 10.787 0.623558 11.0987 0.676888C11.509 0.74909 11.8224 0.355264 11.8224 0.355264C11.8224 0.355264 11.3129 0.516076 11.0265 0.247782C10.8091 0.0451259 10.5228 0.041844 10.394 0.0516897V0H10.2651V0.944362C10.1831 0.963233 10.1257 1.02641 10.1257 1.10435C10.1266 1.13467 10.1359 1.16413 10.1526 1.18948C10.1692 1.21483 10.1926 1.23506 10.22 1.24794C10.1765 1.47192 9.29699 2.97092 9.18295 3.1342H9.65062V4.30009H9.36181V4.89985L9.48242 5.12056H9.55626V6.60315H9.03855V7.40147L9.20264 7.69602H9.36181V8.51813L8.58811 7.37357V6.49567H8.15326V6.81811C8.0625 6.63565 7.98331 6.44767 7.91614 6.25527C7.78733 5.86473 7.67328 5.3626 7.67328 5.3626H7.64374V5.16732C7.7422 5.17307 7.91614 5.18784 8.12044 5.22312C8.42237 5.27645 8.65374 4.98518 8.65374 4.98518C8.65374 4.98518 8.27715 5.10415 8.06547 4.90559C7.85543 4.70786 7.55103 4.76693 7.55103 4.76693L7.55267 4.86293V5.3626H7.53544C7.53544 5.3626 7.42468 5.86473 7.29587 6.25527C7.20643 6.53013 7.02593 6.88867 6.92993 7.07902H7.11208V9.6512H6.58862C6.47029 9.41695 6.36671 9.17553 6.27848 8.92836C6.14146 8.50992 6.02249 7.97169 6.02249 7.97169H6.01019V7.12251H5.88466V7.97251H5.87235C5.87235 7.97251 5.75256 8.5091 5.61472 8.92918C5.5062 9.23164 5.37539 9.52563 5.22336 9.80873H5.41945V11.905H4.59077V10.8926H4.77948V9.37306H5.10849C4.90091 9.1663 4.52678 8.77001 4.33561 8.46726C4.06403 8.03405 3.77769 7.48023 3.77769 7.48023H3.7703V6.74181C3.86794 6.75001 3.99265 6.76396 4.12967 6.78775C4.43242 6.84108 4.66379 6.55064 4.66379 6.55064C4.66379 6.55064 4.28638 6.66879 4.07634 6.47105C3.86712 6.2725 3.56354 6.33157 3.56354 6.33157L3.56929 6.72704L3.5857 6.72786V7.47941H3.58077C3.58077 7.47941 3.29607 8.03241 3.02039 8.46644C2.8325 8.76919 2.45591 9.1663 2.24833 9.37224H2.57488V10.8917H2.76523V12.0092H1.39258V15.9918H6.93486V14.3353C6.93486 14.3353 6.99147 13.0348 8.27058 13.0348C9.54724 13.0348 9.59482 14.3353 9.59482 14.3353V15.9918H12.1957V16H14.6063V10.5709H13.8654ZM10.5933 6.17322H10.042V5.37244C10.042 5.37244 10.0797 5.15009 10.3127 5.15009C10.5441 5.15009 10.5933 5.37244 10.5933 5.37244V6.17322Z" fill="#BFBFBF"/>
</g>
<defs>
<clipPath id="clip0_25752_62116">
<rect width="16" height="16" fill="white"/>
</clipPath>
</defs>
</svg>
