<svg width="257" height="257" viewBox="0 0 257 257" fill="none" xmlns="http://www.w3.org/2000/svg">
<g opacity="0.2">
<path d="M60.1388 38.092C119.282 7.8603 142.114 28.5187 146.137 42.6268C152.172 63.789 131.05 97.0439 126.524 104.602C121.997 112.16 90.3136 145.415 87.2961 149.949C84.2786 154.484 39.0163 169.6 31.4726 159.019C23.9289 148.438 -13.7898 75.8817 60.1388 38.092Z" fill="white"/>
<path d="M128.485 257C57.4229 257 -0.0301631 199.529 1.18807e-05 128.455C1.18807e-05 57.3799 57.5134 -0.0604158 128.575 4.76905e-05C199.607 0.0605111 257.03 57.5915 257 128.636C256.97 199.56 199.487 256.97 128.515 256.97L128.485 257ZM42.6975 130.964C42.6975 130.964 42.7881 131.085 42.8484 131.145L42.9993 131.901C43.0597 136.224 43.5726 140.487 44.4175 144.719C47.616 160.924 54.9485 175.042 66.2038 187.044C74.2605 195.66 83.7656 202.25 94.5683 206.936C103.198 210.655 112.19 213.043 121.545 213.617C129.722 214.101 137.93 213.89 146.047 212.106C166.566 207.601 183.403 197.141 196.258 180.574C205.34 168.875 211.044 155.633 213.186 140.88C214.393 132.627 214.484 124.373 213.337 116.15C211.858 105.66 208.509 95.7439 203.289 86.4628C198.068 77.1817 191.43 69.0796 183.252 62.3076C172.208 53.2079 159.686 47.0709 145.624 44.2593C141.49 43.443 137.326 42.5663 133.041 42.8989L131.472 42.6268C130.839 42.2035 130.235 41.7198 129.571 41.3571C107.362 29.083 85.0028 28.9016 63.307 42.0222C31.7139 61.1286 23.9287 101.79 42.6674 130.994L42.6975 130.964Z" fill="#F9B319"/>
<path d="M133.071 42.899C137.356 42.5664 141.52 43.4431 145.654 44.2594C159.716 47.0709 172.238 53.1778 183.282 62.3077C191.46 69.0796 198.098 77.1515 203.319 86.4629C208.509 95.744 211.888 105.66 213.367 116.15C214.513 124.373 214.423 132.597 213.216 140.88C211.074 155.633 205.37 168.905 196.288 180.574C183.433 197.141 166.596 207.601 146.077 212.106C137.96 213.89 129.752 214.101 121.575 213.618C112.22 213.073 103.198 210.655 94.5983 206.936C83.7655 202.281 74.2604 195.66 66.2338 187.044C54.9786 175.012 47.6461 160.924 44.4475 144.719C43.6026 140.487 43.1198 136.224 43.0293 131.901C43.4819 132.445 43.9647 132.929 44.3268 133.503C47.6159 138.28 51.4783 142.603 56.0045 146.231C71.0317 158.173 88.0202 163.1 107.121 160.107C123.355 157.568 136.753 149.829 146.982 137.071C159.022 122.046 163.488 104.783 160.289 85.7676C157.453 68.9587 148.943 55.4754 135.425 45.1361C134.58 44.5013 133.373 44.1385 133.071 42.899Z" fill="#F27024"/>
<path d="M132.075 44.211C136.36 43.8784 140.524 44.7552 144.658 45.5714C158.72 48.383 171.243 54.4898 182.287 63.6198C190.464 70.3917 197.102 78.4635 202.323 87.7749C207.513 97.056 210.892 106.972 212.371 117.462C213.518 125.685 213.427 133.909 212.22 142.192C210.078 156.945 204.375 170.217 195.292 181.886C182.437 198.453 165.6 208.913 145.081 213.418C136.964 215.202 128.756 215.413 120.579 214.93C111.225 214.385 102.202 211.967 93.6024 208.248C82.7696 203.593 73.2645 196.972 65.238 188.356C53.9827 176.324 46.6502 162.236 43.4517 146.031C42.6068 141.799 42.124 137.536 42.0334 133.213C42.4861 133.757 42.9688 134.241 43.3309 134.815C46.62 139.592 50.4824 143.915 55.0087 147.543C70.0358 159.485 87.0243 164.412 106.125 161.419C122.359 158.88 135.757 151.141 145.986 138.383C158.026 123.358 162.492 106.095 159.293 87.0796C156.457 70.2707 147.947 56.7874 134.429 46.4481C133.584 45.8133 132.377 45.4505 132.075 44.211Z" fill="#F27024"/>
<path d="M133.071 42.8992C133.373 44.1387 134.58 44.5015 135.425 45.1363C148.943 55.4756 157.453 68.9589 160.289 85.7678C163.488 104.784 159.022 122.046 146.982 137.071C136.753 149.829 123.355 157.568 107.121 160.108C88.0202 163.101 71.0317 158.203 56.0046 146.231C51.4783 142.634 47.6461 138.311 44.3268 133.504C43.9346 132.929 43.4518 132.446 43.0293 131.901C42.969 131.66 42.9388 131.387 42.8785 131.146C43.0595 130.994 43.3009 130.843 42.9992 130.601C42.5767 125.281 42.9992 119.99 43.9648 114.79C50.0601 81.8074 68.9194 59.4057 100.15 47.4339C110.229 43.5643 120.79 42.3852 131.532 42.5969L133.102 42.8689L133.071 42.8992Z" fill="#EB2228"/>
<path d="M42.7275 130.963C42.7275 130.963 42.9089 130.722 42.9694 130.601C43.2717 130.873 43.0298 130.994 42.8484 131.175C42.788 131.115 42.7577 131.054 42.6973 130.994L42.7275 130.963Z" fill="#F27024"/>
</g>
<path d="M168.123 119.605C168.123 124.238 166.723 128.766 164.1 132.618C161.477 136.469 157.748 139.471 153.386 141.244C149.024 143.017 144.224 143.481 139.593 142.577C134.962 141.673 130.709 139.443 127.37 136.167C124.031 132.891 121.758 128.718 120.836 124.175C119.915 119.631 120.388 114.922 122.195 110.642C124.002 106.362 127.062 102.704 130.987 100.13C134.913 97.5568 139.529 96.1831 144.25 96.1831C150.582 96.1831 156.654 98.6508 161.131 103.043C165.608 107.436 168.123 113.393 168.123 119.605Z" fill="#FAB317"/>
<path d="M66.9841 101.005V137.827C61.6186 138.406 56.2658 139.067 50.9257 139.81C49.0305 140.077 47.7671 138.118 47.7671 135.081V98.5693C50.9257 99.028 52.4987 99.2511 55.7015 99.6664V129.292L58.8601 129.094V100.069C62.0819 100.466 63.7054 100.652 66.9714 101.005" fill="#E9161C"/>
<path d="M82.6252 118.161C82.2504 114.314 81.8692 110.463 81.4818 106.608V102.375C84.6404 102.629 86.2639 102.747 89.4794 102.994V135.906C85.7838 136.147 83.9518 136.284 80.3068 136.587C78.9507 131.311 77.6072 126.045 76.2764 120.789H75.6447C76.0026 124.71 76.3669 128.635 76.7375 132.565V136.903C73.5789 137.182 72.0375 137.331 68.9358 137.653V101.209C72.5113 101.581 74.3181 101.755 77.9441 102.071C79.2581 107.443 80.5932 112.814 81.9492 118.186H82.6568" fill="#E9161C"/>
<path d="M189.93 101.011C193.335 100.646 195.028 100.447 198.382 100.032V129.113C201.762 129.324 203.436 129.435 206.765 129.665V139.916C201.162 139.123 195.552 138.453 189.93 137.827V101.011Z" fill="#E9161C"/>
<path d="M208.654 140.189V98.6625C214.049 97.8567 219.438 97.0014 224.832 96.0346C226.683 95.6999 227.991 97.8939 227.991 101.414V137.424C227.991 140.914 226.696 143.133 224.832 142.804C219.463 141.831 214.093 140.945 208.679 140.189M216.816 130.427L220.057 130.693V108.207L216.816 108.474V130.427Z" fill="#E9161C"/>
<path d="M45.91 108.907C45.91 106.558 45.91 103.515 45.91 98.2966C41.311 97.59 36.7121 96.8525 32.1574 96.0281C30.2622 95.6996 28.9988 97.9247 28.9988 101.414V111.492C28.9988 115.329 29.3841 117.417 31.0961 119.636C33.2819 122.4 35.5687 125.103 37.9124 127.693V130.637C34.3116 130.935 32.5238 131.096 28.9988 131.425C28.9988 133.805 28.9988 137.753 28.9988 142.977C32.9786 142.358 39.1695 141.595 42.7135 141.025C44.577 140.734 45.91 138.366 45.91 135.292V125.691C45.91 122.314 45.4993 120.473 43.7368 118.502C41.3616 115.831 39.0495 113.085 36.8258 110.252V108.195C39.9339 108.461 42.7514 108.666 45.91 108.907Z" fill="#E9161C"/>
<path d="M144.869 103.949C146.365 104.898 147.626 106.163 148.558 107.652C149.491 109.141 150.072 110.816 150.259 112.555C150.446 114.293 150.233 116.05 149.638 117.697C149.042 119.344 148.078 120.839 146.817 122.073C145.555 123.307 144.028 124.249 142.347 124.828C140.667 125.407 138.875 125.61 137.104 125.422C135.333 125.233 133.628 124.658 132.113 123.738C130.598 122.819 129.312 121.578 128.35 120.107C128.46 123.144 129.471 126.083 131.259 128.563C133.047 131.044 135.534 132.96 138.415 134.074C141.296 135.189 144.446 135.454 147.478 134.839C150.511 134.223 153.294 132.752 155.488 130.607C157.681 128.462 159.188 125.735 159.825 122.762C160.462 119.788 160.201 116.697 159.074 113.867C157.947 111.037 156.002 108.591 153.479 106.83C150.956 105.068 147.964 104.067 144.869 103.949Z" fill="#F27024"/>
<path d="M128.337 119.549C128.337 119.735 128.337 119.921 128.337 120.107C129.299 121.578 130.585 122.819 132.1 123.738C133.615 124.658 135.32 125.233 137.091 125.422C138.862 125.61 140.654 125.407 142.334 124.828C144.015 124.249 145.542 123.307 146.804 122.073C148.065 120.839 149.029 119.344 149.625 117.697C150.221 116.05 150.433 114.293 150.246 112.555C150.059 110.816 149.478 109.141 148.546 107.652C147.613 106.163 146.352 104.898 144.856 103.949H144.224C140.011 103.956 135.971 105.602 132.993 108.526C130.015 111.451 128.34 115.415 128.337 119.549Z" fill="#E9161C"/>
<g style="mix-blend-mode:lighten">
<mask id="mask0_25395_184548" style="mask-type:luminance" maskUnits="userSpaceOnUse" x="126" y="102" width="19" height="19">
<path d="M144.862 102.083H126.46V120.113H144.862V102.083Z" fill="white"/>
</mask>
<g mask="url(#mask0_25395_184548)">
<path d="M128.336 119.549C128.336 115.408 130.012 111.437 132.997 108.509C135.981 105.582 140.028 103.937 144.249 103.937H144.881C142.591 102.485 139.863 101.846 137.152 102.126C134.44 102.407 131.909 103.589 129.978 105.478C128.047 107.367 126.834 109.847 126.539 112.506C126.245 115.166 126.888 117.844 128.361 120.095C128.361 119.909 128.361 119.723 128.361 119.537" fill="white"/>
</g>
</g>
<path d="M122.304 132.28C121.796 131.433 121.341 130.558 120.939 129.658C120.939 129.658 120.939 129.615 120.939 129.59C120.804 129.301 120.678 129.003 120.56 128.697C120.442 128.392 120.328 128.088 120.219 127.786V127.743C120.118 127.452 120.023 127.123 119.928 126.85L119.89 126.733C119.802 126.429 119.714 126.113 119.638 125.822C119.562 125.524 119.493 125.202 119.429 124.923C119.426 124.886 119.426 124.849 119.429 124.811C119.366 124.514 119.309 124.192 119.252 123.906C119.252 123.857 119.252 123.801 119.252 123.745C119.202 123.442 119.151 123.126 119.113 122.822C119.116 122.81 119.116 122.797 119.113 122.785C119.076 122.487 119.044 122.165 119.019 121.88C119.016 121.824 119.016 121.768 119.019 121.712C119.019 121.409 118.974 121.093 118.956 120.801C118.959 120.741 118.959 120.681 118.956 120.622C118.956 120.305 118.956 120.002 118.956 119.667C118.956 119.332 118.956 119.01 118.956 118.688C118.959 118.63 118.959 118.572 118.956 118.514C118.956 118.204 118.993 117.894 119.019 117.585V117.405C119.019 117.089 119.082 116.785 119.12 116.457C119.12 116.457 119.12 116.419 119.12 116.401C119.164 116.097 119.208 115.781 119.259 115.496C119.262 115.446 119.262 115.397 119.259 115.347C119.316 115.043 119.372 114.727 119.436 114.448C119.436 114.386 119.467 114.331 119.48 114.269C119.543 113.971 119.619 113.649 119.695 113.376C119.695 113.339 119.695 113.308 119.695 113.277C119.77 112.992 119.853 112.713 119.941 112.434L119.979 112.31C120.067 112.019 120.162 111.734 120.263 111.449C120.288 111.392 120.309 111.334 120.326 111.275C120.427 110.996 120.535 110.711 120.649 110.438L120.699 110.314C120.806 110.048 120.927 109.781 121.047 109.521L121.084 109.428C121.211 109.155 121.343 108.883 121.476 108.616C121.476 108.56 121.533 108.511 121.558 108.455C121.691 108.189 121.836 107.928 121.975 107.668L122.051 107.538C122.196 107.284 122.348 107.03 122.5 106.782C122.498 106.765 122.498 106.749 122.5 106.732C122.66 106.472 122.824 106.218 122.992 105.97L123.087 105.821C123.251 105.579 123.422 105.337 123.599 105.102L123.693 104.972C123.877 104.724 124.06 104.482 124.256 104.24C121.148 104.24 117.648 104.185 114.837 104.123V118.799H114.098C113.352 113.841 112.611 108.903 111.874 103.986C108.867 103.9 107.37 103.85 104.382 103.726C103.649 108.746 102.918 113.765 102.19 118.781H101.495V103.602C98.0203 103.441 96.2957 103.348 92.8591 103.137V107.153C93.8151 116.574 94.7796 125.993 95.7524 135.41C99.05 135.224 102.348 135.067 105.645 134.939C106.348 130.877 107.058 126.795 107.774 122.692H108.406C109.13 126.729 109.855 130.763 110.579 134.796C113.617 134.697 120.251 134.759 124.003 134.74C123.395 133.946 122.834 133.118 122.323 132.261" fill="#E9161C"/>
<path d="M185.034 124.024C186.442 123.597 187.497 121.7 187.497 119.99V105.734C187.497 103.094 185.975 101.396 183.802 101.569C177.946 102.078 169.525 102.648 163.296 103.051C164.544 104.433 165.633 105.946 166.543 107.563C166.72 107.879 166.891 108.182 167.055 108.523C167.055 108.523 167.055 108.554 167.055 108.573C167.213 108.889 167.364 109.193 167.51 109.534V109.602C167.655 109.924 167.788 110.222 167.92 110.575V110.637C168.047 110.972 168.173 111.312 168.293 111.653C168.533 112.347 168.735 113.054 168.925 113.773V113.854C169.007 114.188 169.083 114.529 169.146 114.87C169.149 114.915 169.149 114.961 169.146 115.006C169.209 115.333 169.266 115.668 169.316 116.01V116.165C169.367 116.5 169.405 116.841 169.443 117.176C169.44 117.225 169.44 117.275 169.443 117.324C169.443 117.678 169.5 118.025 169.519 118.372V118.477C169.519 118.849 169.519 119.221 169.519 119.593C169.519 119.965 169.519 120.299 169.519 120.653C169.515 120.696 169.515 120.74 169.519 120.783C169.519 121.118 169.474 121.452 169.449 121.781V121.948C169.42 122.279 169.382 122.607 169.335 122.934V123.082C169.291 123.417 169.234 123.745 169.177 124.074V124.148C169.114 124.489 169.045 124.83 168.963 125.171C168.881 125.512 168.798 125.84 168.704 126.175C168.701 126.208 168.701 126.241 168.704 126.274C168.609 126.597 168.514 126.894 168.407 127.235C168.404 127.27 168.404 127.305 168.407 127.34C168.299 127.663 168.186 127.96 168.066 128.295C168.062 128.315 168.062 128.336 168.066 128.357C167.696 129.372 167.262 130.364 166.764 131.326C166.594 131.635 166.423 131.945 166.24 132.243C165.5 133.472 164.655 134.638 163.713 135.726C167.219 135.931 171.117 136.129 174.452 136.377V125.791L176.348 125.847C177.19 129.474 178.032 133.106 178.874 136.743C182.551 137.04 184.37 137.207 187.996 137.554V133.036C186.821 129.373 186.234 127.607 185.034 124.024ZM178.179 117.244H174.433V110.903L178.179 110.761V117.244Z" fill="#E9161C"/>
<path d="M57.2744 148.866C57.2955 148.886 57.312 148.91 57.3228 148.936C57.3337 148.963 57.3387 148.992 57.3376 149.02V151.227C57.3387 151.256 57.3337 151.284 57.3228 151.311C57.312 151.338 57.2955 151.362 57.2744 151.382C57.2531 151.404 57.2276 151.421 57.1994 151.432C57.1712 151.444 57.1408 151.45 57.1102 151.45H53.8063C53.7933 151.448 53.78 151.449 53.7675 151.453C53.755 151.457 53.7437 151.463 53.7344 151.473C53.7251 151.482 53.7182 151.493 53.7142 151.505C53.7102 151.517 53.7093 151.53 53.7115 151.543V161.553C53.711 161.61 53.6885 161.666 53.6483 161.708C53.6267 161.728 53.601 161.745 53.5728 161.755C53.5445 161.766 53.5143 161.771 53.4841 161.77H50.8056C50.7753 161.771 50.7452 161.766 50.7169 161.755C50.6887 161.745 50.6629 161.728 50.6413 161.708C50.6203 161.688 50.6038 161.663 50.5929 161.637C50.582 161.61 50.577 161.581 50.5782 161.553V151.543C50.5804 151.53 50.5794 151.517 50.5755 151.505C50.5715 151.493 50.5646 151.482 50.5553 151.473C50.546 151.463 50.5346 151.457 50.5221 151.453C50.5096 151.449 50.4963 151.448 50.4834 151.45H47.3185C47.2592 151.447 47.2031 151.423 47.1611 151.381C47.1191 151.34 47.0941 151.285 47.0911 151.227V149.02C47.0941 148.962 47.1191 148.907 47.1611 148.866C47.2031 148.825 47.2592 148.8 47.3185 148.797H57.1102C57.1408 148.797 57.1712 148.803 57.1994 148.815C57.2276 148.827 57.2531 148.844 57.2744 148.866Z" fill="#E9161C"/>
<path d="M64.8298 148.866C64.8499 148.844 64.8743 148.827 64.9015 148.815C64.9287 148.803 64.9581 148.797 64.9878 148.797H67.6726C67.7319 148.8 67.788 148.825 67.83 148.866C67.872 148.907 67.897 148.962 67.9 149.02V161.553C67.9 161.582 67.8938 161.611 67.8818 161.637C67.8699 161.664 67.8524 161.688 67.8305 161.708C67.8101 161.728 67.7855 161.744 67.7583 161.755C67.7311 161.766 67.7019 161.771 67.6726 161.77H65.0067C64.9774 161.771 64.9482 161.766 64.921 161.755C64.8938 161.744 64.8692 161.728 64.8488 161.708C64.8269 161.688 64.8095 161.664 64.7975 161.637C64.7855 161.611 64.7793 161.582 64.7793 161.553V156.594C64.7815 156.582 64.7806 156.569 64.7766 156.556C64.7726 156.544 64.7657 156.533 64.7564 156.524C64.7471 156.515 64.7358 156.508 64.7233 156.504C64.7108 156.5 64.6975 156.499 64.6845 156.501H61.1343C61.1213 156.499 61.1081 156.5 61.0955 156.504C61.083 156.508 61.0717 156.515 61.0624 156.524C61.0531 156.533 61.0462 156.544 61.0422 156.556C61.0382 156.569 61.0373 156.582 61.0395 156.594V161.553C61.0407 161.581 61.0357 161.61 61.0248 161.637C61.0139 161.663 60.9974 161.688 60.9763 161.708C60.9547 161.728 60.929 161.745 60.9008 161.755C60.8725 161.766 60.8423 161.771 60.8121 161.77H58.1336C58.1033 161.771 58.0732 161.766 58.0449 161.755C58.0167 161.745 57.9909 161.728 57.9693 161.708C57.9483 161.688 57.9318 161.663 57.9209 161.637C57.91 161.61 57.905 161.581 57.9062 161.553V149.02C57.905 148.992 57.91 148.963 57.9209 148.936C57.9318 148.91 57.9483 148.886 57.9693 148.866C57.9906 148.844 58.0161 148.827 58.0444 148.815C58.0726 148.803 58.1029 148.797 58.1336 148.797H60.8121C60.8427 148.797 60.8731 148.803 60.9013 148.815C60.9295 148.827 60.9551 148.844 60.9763 148.866C60.9974 148.886 61.0139 148.91 61.0248 148.936C61.0357 148.963 61.0407 148.992 61.0395 149.02V153.805C61.0373 153.818 61.0382 153.831 61.0422 153.843C61.0462 153.856 61.0531 153.867 61.0624 153.876C61.0717 153.885 61.083 153.892 61.0955 153.896C61.1081 153.9 61.1213 153.9 61.1343 153.898H64.6656C64.6785 153.9 64.6918 153.9 64.7043 153.896C64.7168 153.892 64.7282 153.885 64.7375 153.876C64.7467 153.867 64.7537 153.856 64.7576 153.843C64.7616 153.831 64.7626 153.818 64.7603 153.805V149.02C64.7604 148.991 64.7666 148.963 64.7785 148.936C64.7905 148.909 64.808 148.885 64.8298 148.866Z" fill="#E9161C"/>
<path d="M78.1274 151.363C78.1073 151.385 78.0829 151.402 78.0558 151.414C78.0286 151.425 77.9992 151.431 77.9695 151.431H72.0376C72.0247 151.429 72.0114 151.43 71.9989 151.434C71.9864 151.438 71.975 151.445 71.9658 151.454C71.9565 151.463 71.9496 151.474 71.9456 151.486C71.9416 151.499 71.9407 151.512 71.9429 151.524V153.805C71.9407 153.818 71.9416 153.831 71.9456 153.843C71.9496 153.856 71.9565 153.867 71.9658 153.876C71.975 153.885 71.9864 153.892 71.9989 153.896C72.0114 153.9 72.0247 153.9 72.0376 153.898H75.828C75.8572 153.897 75.8865 153.902 75.9137 153.913C75.9409 153.923 75.9655 153.94 75.9859 153.96C76.0078 153.98 76.0252 154.004 76.0372 154.031C76.0492 154.057 76.0553 154.086 76.0554 154.115V156.284C76.0555 156.315 76.0494 156.344 76.0374 156.372C76.0255 156.4 76.0079 156.425 75.9859 156.446C75.9655 156.466 75.9409 156.482 75.9137 156.493C75.8865 156.504 75.8572 156.509 75.828 156.508H72.0376C72.0247 156.505 72.0114 156.506 71.9989 156.51C71.9864 156.514 71.975 156.521 71.9658 156.53C71.9565 156.539 71.9496 156.55 71.9456 156.563C71.9416 156.575 71.9407 156.588 71.9429 156.601V159.08C71.9407 159.092 71.9416 159.105 71.9456 159.118C71.9496 159.13 71.9565 159.141 71.9658 159.15C71.975 159.159 71.9864 159.166 71.9989 159.17C72.0114 159.174 72.0247 159.175 72.0376 159.173H77.9695C77.9988 159.172 78.028 159.176 78.0552 159.187C78.0824 159.198 78.107 159.214 78.1274 159.235C78.1495 159.256 78.167 159.281 78.1789 159.308C78.1909 159.336 78.197 159.366 78.1969 159.396V161.584C78.1969 161.613 78.1907 161.642 78.1787 161.668C78.1668 161.695 78.1493 161.719 78.1274 161.739C78.107 161.759 78.0824 161.775 78.0552 161.786C78.028 161.797 77.9988 161.802 77.9695 161.801H69.0306C69.0014 161.802 68.9722 161.797 68.9449 161.786C68.9177 161.775 68.8931 161.759 68.8727 161.739C68.8508 161.719 68.8334 161.695 68.8214 161.668C68.8095 161.642 68.8033 161.613 68.8032 161.584V149.02C68.8063 148.962 68.8312 148.907 68.8732 148.866C68.9152 148.825 68.9713 148.8 69.0306 148.797H77.9695C78.0288 148.8 78.0849 148.825 78.1269 148.866C78.1689 148.907 78.1939 148.962 78.1969 149.02V151.208C78.1969 151.237 78.1907 151.266 78.1787 151.293C78.1668 151.32 78.1493 151.344 78.1274 151.363Z" fill="#E9161C"/>
<path d="M84.9187 161.59L81.4316 149.039V148.965C81.4316 148.853 81.5011 148.797 81.6401 148.797H84.4639C84.5208 148.795 84.5768 148.812 84.6219 148.846C84.667 148.88 84.6984 148.929 84.7103 148.983L86.3528 155.733C86.3528 155.782 86.3717 155.807 86.4096 155.807C86.4096 155.807 86.4538 155.807 86.4665 155.733L87.9384 149.002C87.9408 148.972 87.949 148.944 87.9627 148.918C87.9764 148.891 87.9953 148.868 88.0182 148.849C88.0411 148.83 88.0676 148.816 88.0962 148.807C88.1248 148.798 88.1549 148.795 88.1847 148.797H90.8127C90.8696 148.795 90.9256 148.812 90.9707 148.846C91.0158 148.88 91.0472 148.929 91.0591 148.983L92.7016 155.733C92.7016 155.782 92.7205 155.807 92.7584 155.807C92.7584 155.807 92.8026 155.807 92.8153 155.733L94.344 149.002C94.3464 148.972 94.3547 148.944 94.3684 148.918C94.3821 148.891 94.4009 148.868 94.4238 148.849C94.4467 148.83 94.4732 148.816 94.5018 148.807C94.5304 148.798 94.5605 148.795 94.5904 148.797H97.3889C97.5658 148.797 97.6353 148.878 97.5911 149.039L94.4325 161.59C94.4165 161.645 94.3813 161.694 94.3328 161.727C94.2844 161.759 94.2258 161.775 94.1671 161.769H91.4381C91.4086 161.773 91.3786 161.77 91.35 161.762C91.3215 161.754 91.2949 161.74 91.2719 161.722C91.2489 161.703 91.2299 161.68 91.2162 161.654C91.2024 161.629 91.1941 161.6 91.1917 161.571L89.5493 154.413C89.5493 154.363 89.5303 154.338 89.4924 154.338C89.4924 154.338 89.4482 154.338 89.4356 154.413L87.9573 161.571C87.9558 161.6 87.9483 161.628 87.9352 161.654C87.9221 161.68 87.9037 161.703 87.8812 161.721C87.8587 161.74 87.8325 161.754 87.8043 161.762C87.7761 161.77 87.7465 161.773 87.7173 161.769H85.1904C85.1307 161.776 85.0706 161.762 85.0209 161.729C84.9711 161.696 84.9349 161.646 84.9187 161.59Z" fill="#E9161C"/>
<path d="M100.383 161.373C99.6277 160.991 99.0005 160.404 98.5765 159.681C98.1399 158.904 97.9219 158.027 97.9447 157.14V153.421C97.9249 152.554 98.1431 151.698 98.5765 150.942C99.0005 150.219 99.6277 149.632 100.383 149.25C101.215 148.829 102.139 148.616 103.074 148.63C104.011 148.619 104.937 148.832 105.772 149.25C106.531 149.629 107.161 150.217 107.585 150.942C108.018 151.698 108.236 152.554 108.217 153.421V157.14C108.239 158.027 108.021 158.904 107.585 159.681C107.161 160.406 106.531 160.994 105.772 161.373C104.938 161.795 104.012 162.008 103.074 161.993C102.139 162.008 101.214 161.795 100.383 161.373ZM104.534 158.77C104.92 158.35 105.122 157.798 105.096 157.233V153.396C105.121 152.833 104.919 152.283 104.534 151.865C104.146 151.491 103.624 151.282 103.081 151.282C102.537 151.282 102.015 151.491 101.628 151.865C101.245 152.284 101.045 152.834 101.072 153.396V157.233C101.043 157.797 101.243 158.35 101.628 158.77C102.018 159.139 102.539 159.346 103.081 159.346C103.623 159.346 104.144 159.139 104.534 158.77Z" fill="#E9161C"/>
<path d="M115.898 161.608L113.668 156.65C113.659 156.628 113.643 156.609 113.623 156.596C113.603 156.582 113.579 156.575 113.554 156.576H112.291C112.278 156.574 112.265 156.574 112.252 156.578C112.24 156.582 112.228 156.589 112.219 156.598C112.21 156.607 112.203 156.618 112.199 156.631C112.195 156.643 112.194 156.656 112.196 156.669V161.528C112.197 161.557 112.192 161.585 112.181 161.612C112.17 161.639 112.154 161.663 112.133 161.683C112.111 161.704 112.086 161.72 112.057 161.731C112.029 161.741 111.999 161.746 111.969 161.745H109.29C109.26 161.746 109.23 161.741 109.201 161.731C109.173 161.72 109.147 161.704 109.126 161.683C109.105 161.663 109.088 161.639 109.077 161.612C109.067 161.585 109.062 161.557 109.063 161.528V149.02C109.062 148.992 109.067 148.963 109.077 148.936C109.088 148.91 109.105 148.886 109.126 148.866C109.147 148.844 109.173 148.827 109.201 148.815C109.229 148.803 109.259 148.797 109.29 148.797H114.912C115.674 148.782 116.428 148.954 117.104 149.299C117.721 149.624 118.228 150.117 118.564 150.719C118.921 151.363 119.101 152.087 119.088 152.82C119.108 153.583 118.887 154.334 118.456 154.97C118.034 155.579 117.426 156.039 116.719 156.284C116.705 156.287 116.692 156.293 116.681 156.302C116.671 156.311 116.662 156.322 116.656 156.335C116.651 156.348 116.648 156.362 116.649 156.376C116.651 156.389 116.655 156.403 116.662 156.415L119.151 161.516C119.172 161.55 119.185 161.588 119.189 161.627C119.189 161.72 119.12 161.77 118.987 161.77H116.176C116.118 161.775 116.06 161.763 116.01 161.734C115.96 161.705 115.921 161.661 115.898 161.608ZM112.215 151.524V154.152C112.213 154.165 112.214 154.178 112.218 154.19C112.222 154.203 112.229 154.214 112.238 154.223C112.247 154.232 112.258 154.239 112.271 154.243C112.284 154.247 112.297 154.247 112.31 154.245H114.407C114.819 154.264 115.223 154.129 115.538 153.867C115.682 153.741 115.796 153.585 115.871 153.41C115.947 153.235 115.982 153.047 115.974 152.857C115.983 152.664 115.948 152.471 115.873 152.292C115.798 152.113 115.683 151.953 115.538 151.822C115.226 151.553 114.821 151.413 114.407 151.431H112.31C112.297 151.429 112.284 151.43 112.271 151.434C112.258 151.438 112.247 151.445 112.238 151.454C112.229 151.463 112.222 151.474 112.218 151.486C112.214 151.499 112.213 151.512 112.215 151.524Z" fill="#E9161C"/>
<path d="M119.966 161.695C119.945 161.676 119.927 161.652 119.915 161.625C119.903 161.598 119.897 161.569 119.897 161.54V149.021C119.897 148.991 119.903 148.963 119.915 148.936C119.927 148.909 119.945 148.885 119.966 148.866C119.986 148.844 120.011 148.826 120.038 148.815C120.065 148.803 120.095 148.797 120.124 148.797H122.809C122.839 148.797 122.868 148.803 122.895 148.815C122.923 148.827 122.947 148.844 122.967 148.866C122.988 148.886 123.005 148.91 123.016 148.936C123.026 148.963 123.031 148.992 123.03 149.021V159.049C123.028 159.061 123.029 159.074 123.033 159.087C123.037 159.099 123.044 159.11 123.053 159.119C123.062 159.128 123.074 159.135 123.086 159.139C123.099 159.143 123.112 159.144 123.125 159.142H129.152C129.182 159.14 129.212 159.144 129.241 159.155C129.269 159.166 129.295 159.182 129.317 159.203C129.338 159.224 129.355 159.249 129.366 159.277C129.376 159.305 129.381 159.335 129.379 159.365V161.553C129.38 161.581 129.375 161.61 129.364 161.637C129.353 161.664 129.337 161.688 129.316 161.708C129.294 161.728 129.269 161.745 129.24 161.755C129.212 161.766 129.182 161.771 129.152 161.77H120.112C120.084 161.768 120.056 161.76 120.031 161.748C120.006 161.735 119.984 161.717 119.966 161.695Z" fill="#E9161C"/>
<path d="M129.98 161.695C129.959 161.675 129.942 161.651 129.931 161.624C129.92 161.598 129.915 161.569 129.916 161.54V149.021C129.915 148.992 129.92 148.963 129.931 148.936C129.942 148.91 129.959 148.886 129.98 148.866C130.001 148.844 130.026 148.827 130.055 148.815C130.083 148.803 130.113 148.797 130.144 148.797H134.958C135.854 148.781 136.743 148.952 137.567 149.299C138.279 149.6 138.889 150.095 139.323 150.725C139.746 151.358 139.966 152.1 139.954 152.857V157.716C139.967 158.471 139.747 159.212 139.323 159.842C138.891 160.476 138.281 160.973 137.567 161.274C136.743 161.619 135.853 161.788 134.958 161.77H130.144C130.113 161.769 130.082 161.763 130.054 161.75C130.025 161.737 130 161.718 129.98 161.695ZM133.138 159.129H135.084C135.316 159.136 135.547 159.092 135.76 159.001C135.973 158.91 136.163 158.774 136.316 158.603C136.644 158.201 136.816 157.698 136.802 157.183V153.378C136.83 152.862 136.659 152.355 136.322 151.958C136.164 151.784 135.969 151.647 135.751 151.556C135.532 151.465 135.296 151.422 135.059 151.432H133.163C133.151 151.429 133.137 151.43 133.125 151.434C133.112 151.438 133.101 151.445 133.092 151.454C133.082 151.463 133.075 151.474 133.071 151.487C133.067 151.499 133.067 151.512 133.069 151.525V159.049C133.067 159.06 133.068 159.071 133.07 159.082C133.073 159.093 133.079 159.103 133.086 159.112C133.093 159.12 133.102 159.128 133.112 159.133C133.122 159.138 133.133 159.141 133.145 159.142L133.138 159.129Z" fill="#E9161C"/>
<path d="M146.019 161.373C145.266 160.99 144.641 160.403 144.219 159.681C143.782 158.904 143.564 158.027 143.587 157.14V153.421C143.567 152.554 143.785 151.698 144.219 150.942C144.641 150.22 145.266 149.633 146.019 149.25C146.861 148.854 147.783 148.648 148.717 148.648C149.65 148.648 150.572 148.854 151.414 149.25C152.172 149.631 152.801 150.218 153.227 150.942C153.661 151.698 153.879 152.554 153.859 153.421V157.14C153.882 158.027 153.664 158.904 153.227 159.681C152.801 160.404 152.172 160.992 151.414 161.373C150.572 161.769 149.65 161.974 148.717 161.974C147.783 161.974 146.861 161.769 146.019 161.373ZM150.176 158.77C150.561 158.35 150.761 157.797 150.732 157.233V153.396C150.758 152.834 150.559 152.284 150.176 151.865C149.989 151.67 149.761 151.518 149.508 151.417C149.255 151.316 148.983 151.271 148.71 151.283C148.442 151.274 148.175 151.322 147.926 151.422C147.678 151.523 147.454 151.674 147.27 151.865C146.885 152.283 146.683 152.833 146.708 153.396V157.233C146.681 157.798 146.883 158.35 147.27 158.77C147.455 158.96 147.679 159.11 147.927 159.21C148.175 159.309 148.442 159.356 148.71 159.346C148.982 159.357 149.253 159.312 149.506 159.212C149.759 159.113 149.987 158.962 150.176 158.77Z" fill="#E9161C"/>
<path d="M164.023 151.363C163.982 151.406 163.925 151.43 163.865 151.431H157.952C157.939 151.429 157.926 151.43 157.913 151.434C157.901 151.438 157.89 151.445 157.88 151.454C157.871 151.463 157.864 151.474 157.86 151.486C157.856 151.499 157.855 151.512 157.857 151.524V153.805C157.855 153.818 157.856 153.831 157.86 153.843C157.864 153.856 157.871 153.867 157.88 153.876C157.89 153.885 157.901 153.892 157.913 153.896C157.926 153.9 157.939 153.9 157.952 153.898H161.743C161.772 153.897 161.801 153.902 161.828 153.913C161.855 153.923 161.88 153.94 161.9 153.96C161.922 153.98 161.94 154.004 161.952 154.031C161.964 154.057 161.97 154.086 161.97 154.115V156.284C161.97 156.315 161.964 156.344 161.952 156.372C161.94 156.4 161.923 156.425 161.9 156.446C161.88 156.466 161.855 156.482 161.828 156.493C161.801 156.504 161.772 156.509 161.743 156.508H157.952C157.939 156.505 157.926 156.506 157.913 156.51C157.901 156.514 157.89 156.521 157.88 156.53C157.871 156.539 157.864 156.55 157.86 156.563C157.856 156.575 157.855 156.588 157.857 156.601V161.559C157.857 161.588 157.851 161.617 157.839 161.644C157.827 161.67 157.81 161.694 157.788 161.714C157.768 161.734 157.743 161.751 157.716 161.761C157.688 161.772 157.659 161.777 157.63 161.776H154.945C154.916 161.777 154.887 161.772 154.86 161.761C154.832 161.751 154.808 161.734 154.787 161.714C154.765 161.694 154.748 161.67 154.736 161.644C154.724 161.617 154.718 161.588 154.718 161.559V149.02C154.721 148.962 154.746 148.907 154.788 148.866C154.83 148.825 154.886 148.8 154.945 148.797H163.865C163.925 148.799 163.982 148.823 164.023 148.866C164.044 148.886 164.061 148.91 164.071 148.936C164.082 148.963 164.087 148.992 164.086 149.02V151.208C164.087 151.237 164.082 151.266 164.071 151.292C164.061 151.319 164.044 151.343 164.023 151.363Z" fill="#E9161C"/>
<path d="M170.454 161.59L166.942 149.039V148.965C166.942 148.853 167.011 148.797 167.15 148.797H170.018C170.075 148.795 170.131 148.812 170.176 148.846C170.221 148.88 170.253 148.929 170.265 148.983L171.907 155.733C171.907 155.782 171.926 155.807 171.964 155.807C171.964 155.807 172.008 155.807 172.021 155.733L173.499 149.002C173.504 148.944 173.532 148.89 173.576 148.851C173.621 148.813 173.68 148.794 173.739 148.797H176.367C176.424 148.795 176.48 148.812 176.525 148.846C176.57 148.88 176.601 148.929 176.613 148.983L178.256 155.733C178.256 155.782 178.275 155.807 178.313 155.807C178.313 155.807 178.357 155.807 178.369 155.733L179.898 149.002C179.901 148.972 179.909 148.944 179.923 148.918C179.936 148.891 179.955 148.868 179.978 148.849C180.001 148.83 180.027 148.816 180.056 148.807C180.085 148.798 180.115 148.795 180.145 148.797H182.943C183.12 148.797 183.19 148.878 183.152 149.039L179.955 161.59C179.939 161.645 179.904 161.694 179.855 161.727C179.807 161.759 179.748 161.775 179.69 161.769H176.992C176.963 161.773 176.933 161.77 176.904 161.762C176.876 161.754 176.849 161.74 176.826 161.722C176.803 161.703 176.784 161.68 176.77 161.654C176.757 161.629 176.748 161.6 176.746 161.571L175.103 154.413C175.103 154.363 175.085 154.338 175.047 154.338C175.047 154.338 175.002 154.338 174.99 154.413L173.518 161.571C173.516 161.6 173.507 161.629 173.493 161.654C173.48 161.68 173.461 161.703 173.438 161.722C173.415 161.74 173.388 161.754 173.36 161.762C173.331 161.77 173.301 161.773 173.271 161.769H170.745C170.682 161.781 170.617 161.769 170.563 161.736C170.51 161.702 170.47 161.65 170.454 161.59Z" fill="#E9161C"/>
<path d="M185.918 161.373C185.163 160.991 184.536 160.404 184.112 159.681C183.675 158.904 183.457 158.027 183.48 157.14V153.421C183.46 152.554 183.678 151.698 184.112 150.942C184.536 150.219 185.163 149.632 185.918 149.25C186.75 148.829 187.674 148.616 188.609 148.63C189.547 148.619 190.472 148.832 191.307 149.25C192.067 149.63 192.699 150.217 193.126 150.942C193.557 151.699 193.775 152.554 193.758 153.421V157.14C193.778 158.026 193.56 158.903 193.126 159.681C192.699 160.405 192.067 160.993 191.307 161.373C190.474 161.795 189.547 162.008 188.609 161.993C187.674 162.008 186.749 161.795 185.918 161.373ZM190.075 158.77C190.458 158.348 190.657 157.797 190.631 157.233V153.396C190.655 152.835 190.456 152.286 190.075 151.865C189.888 151.67 189.66 151.517 189.407 151.417C189.154 151.316 188.882 151.271 188.609 151.283C188.34 151.273 188.072 151.32 187.822 151.421C187.573 151.521 187.348 151.673 187.163 151.865C186.78 152.284 186.58 152.834 186.607 153.396V157.233C186.578 157.797 186.778 158.35 187.163 158.77C187.348 158.961 187.573 159.112 187.823 159.211C188.072 159.31 188.34 159.356 188.609 159.346C188.884 159.359 189.157 159.314 189.412 159.215C189.667 159.115 189.897 158.964 190.088 158.77H190.075Z" fill="#E9161C"/>
<path d="M197.669 161.59L194.156 149.039V148.965C194.156 148.853 194.226 148.797 194.365 148.797H197.233C197.29 148.795 197.346 148.812 197.391 148.846C197.436 148.88 197.467 148.929 197.479 148.983L199.122 155.733C199.122 155.782 199.141 155.807 199.178 155.807C199.178 155.807 199.223 155.807 199.235 155.733L200.714 149.002C200.716 148.972 200.724 148.944 200.738 148.918C200.752 148.891 200.77 148.868 200.793 148.849C200.816 148.83 200.843 148.816 200.871 148.807C200.9 148.798 200.93 148.795 200.96 148.797H203.582C203.638 148.795 203.694 148.812 203.74 148.846C203.785 148.88 203.816 148.929 203.828 148.983L205.47 155.733C205.47 155.782 205.489 155.807 205.527 155.807C205.527 155.807 205.571 155.807 205.584 155.733L207.113 149.002C207.115 148.972 207.124 148.944 207.137 148.918C207.151 148.891 207.17 148.868 207.193 148.849C207.216 148.83 207.242 148.816 207.271 148.807C207.299 148.798 207.329 148.795 207.359 148.797H210.158C210.335 148.797 210.404 148.878 210.366 149.039L207.144 161.59C207.128 161.645 207.093 161.694 207.045 161.727C206.996 161.759 206.938 161.775 206.879 161.769H204.182C204.152 161.773 204.122 161.77 204.094 161.762C204.065 161.754 204.038 161.74 204.015 161.722C203.992 161.703 203.974 161.68 203.96 161.654C203.946 161.629 203.938 161.6 203.935 161.571L202.293 154.413C202.293 154.363 202.274 154.338 202.236 154.338C202.236 154.338 202.192 154.338 202.179 154.413L200.707 161.571C200.705 161.6 200.697 161.629 200.683 161.654C200.669 161.68 200.65 161.703 200.627 161.722C200.604 161.74 200.577 161.754 200.549 161.762C200.52 161.77 200.49 161.773 200.461 161.769H197.934C197.875 161.775 197.817 161.759 197.768 161.727C197.72 161.694 197.685 161.645 197.669 161.59Z" fill="#E9161C"/>
</svg>
