<svg width="16" height="16" viewBox="0 0 16 16" fill="none" xmlns="http://www.w3.org/2000/svg">
<path fill-rule="evenodd" clip-rule="evenodd" d="M4.47292 2.64743C5.36244 2.05308 6.40822 1.73584 7.47803 1.73584V2.23584L7.47807 1.73584C8.9126 1.73593 10.2884 2.30584 11.3027 3.32021C12.3171 4.33458 12.887 5.71033 12.8871 7.14487V7.1449C12.8871 8.21471 12.5699 9.2605 11.9755 10.15C11.3812 11.0395 10.5364 11.7328 9.54799 12.1422C8.55962 12.5516 7.47204 12.6587 6.42278 12.45C5.37352 12.2413 4.40972 11.7262 3.65325 10.9697C2.89678 10.2132 2.38162 9.24941 2.17291 8.20016C1.9642 7.1509 2.07131 6.06332 2.48071 5.07494C2.89011 4.08657 3.58341 3.24179 4.47292 2.64743ZM7.47803 2.73584C8.64737 2.73592 9.76878 3.20047 10.5956 4.02732C11.4225 4.85416 11.887 5.97557 11.8871 7.1449M7.478 2.73584C6.60598 2.73585 5.75355 2.99443 5.02849 3.4789C4.30342 3.96338 3.7383 4.65198 3.40459 5.45763C3.07088 6.26328 2.98357 7.14979 3.15369 8.00507C3.32382 8.86034 3.74374 9.64596 4.36036 10.2626C4.97698 10.8792 5.7626 11.2991 6.61787 11.4692C7.47314 11.6394 8.35966 11.5521 9.16531 11.2183C9.97096 10.8846 10.6596 10.3195 11.144 9.59445C11.6285 8.86939 11.8871 8.01695 11.8871 7.14493" fill="#8C8C8C"/>
<path fill-rule="evenodd" clip-rule="evenodd" d="M10.5918 10.925C10.787 10.7297 11.1036 10.7297 11.2989 10.925L13.7845 13.4106C13.9798 13.6059 13.9798 13.9225 13.7845 14.1177C13.5892 14.313 13.2727 14.313 13.0774 14.1177L10.5918 11.6321C10.3965 11.4369 10.3965 11.1203 10.5918 10.925Z" fill="#8C8C8C"/>
</svg>