<svg width="223" height="223" viewBox="0 0 223 223" fill="none" xmlns="http://www.w3.org/2000/svg">
<path d="M107.262 187.22C147.9 187.22 180.846 154.274 180.846 113.491C180.846 72.7077 147.755 39.7617 107.262 39.7617C66.6236 39.7617 33.6777 72.7077 33.6777 113.491C33.6777 154.274 66.6236 187.22 107.262 187.22Z" fill="#F1F3F9" stroke="#D6DCE8" stroke-width="2" stroke-miterlimit="10"/>
<path d="M176.056 65.1629C179.342 65.1629 182.007 62.4981 182.007 59.2123C182.007 55.9249 179.342 53.2617 176.056 53.2617C172.769 53.2617 170.105 55.9249 170.105 59.2123C170.105 62.4981 172.769 65.1629 176.056 65.1629Z" fill="#F1F3F9"/>
<path d="M184.765 41.9402C187.009 41.9402 188.829 40.1202 188.829 37.8764C188.829 35.6311 187.009 33.8125 184.765 33.8125C182.52 33.8125 180.701 35.6311 180.701 37.8764C180.701 40.1202 182.52 41.9402 184.765 41.9402Z" fill="#F1F3F9"/>
<path d="M37.597 65.0182C39.8408 65.0182 41.6608 63.1982 41.6608 60.9544C41.6608 58.7092 39.8408 56.8906 37.597 56.8906C35.3517 56.8906 33.5332 58.7092 33.5332 60.9544C33.5332 63.1982 35.3517 65.0182 37.597 65.0182Z" fill="#F1F3F9"/>
<path d="M128.598 74.3065L150.804 154.131C151.53 156.889 149.933 159.646 147.176 160.372L68.9473 181.127C66.1897 181.852 63.4321 180.256 62.7065 177.498L35.4209 74.4516C34.6952 71.694 36.2917 68.9364 39.0493 68.2107L95.6524 53.2617L128.598 74.3065Z" fill="white" stroke="#D6DCE8" stroke-width="2" stroke-miterlimit="10"/>
<path d="M127.437 124.813L85.2027 135.988L80.5583 137.15L66.4802 140.923C65.8996 141.068 65.4642 141.794 65.7545 142.52C65.8996 143.245 66.6253 143.681 67.2059 143.536L81.284 139.762L85.9284 138.601L128.163 127.425C128.744 127.28 129.179 126.555 128.889 125.829C128.744 125.103 128.018 124.668 127.437 124.813Z" fill="#D6DCE8"/>
<path d="M124.678 114.944L109.004 119.008L103.634 120.46L64.0114 131.055C63.4309 131.2 62.9955 131.925 63.2858 132.651C63.4309 133.377 64.1566 133.812 64.7371 133.667L104.504 123.072L109.874 121.621L125.549 117.557C126.13 117.412 126.565 116.686 126.275 115.96C125.984 115.38 125.259 114.799 124.678 114.944Z" fill="#D6DCE8"/>
<path d="M122.356 104.93L118.292 105.946L114.228 106.962L61.2536 121.041C60.6731 121.186 60.2377 121.911 60.5279 122.637C60.6731 123.363 61.3988 123.798 61.9793 123.653L114.954 109.575L119.453 108.414L123.082 107.398C123.662 107.253 124.098 106.527 123.807 105.801C123.662 105.221 123.082 104.785 122.356 104.93Z" fill="#D6DCE8"/>
<path d="M97.8286 156.308L94.9258 157.034C94.3453 157.179 93.6196 156.744 93.4745 156.018C93.3293 155.292 93.6196 154.567 94.2002 154.421L97.1029 153.696C97.6834 153.551 98.4091 153.986 98.5542 154.712C98.6994 155.583 98.4091 156.163 97.8286 156.308Z" fill="#D6DCE8"/>
<path d="M88.9759 158.629L72.2852 162.983C71.7047 163.128 70.979 162.692 70.8339 161.967C70.6887 161.241 70.979 160.515 71.5595 160.37L88.2502 156.016C88.8307 155.871 89.5564 156.306 89.7016 157.032C89.9918 157.758 89.7016 158.483 88.9759 158.629Z" fill="#D6DCE8"/>
<path d="M120.325 94.9132L107.117 98.3964L103.924 99.2673L58.7868 111.168C58.2063 111.314 57.7709 112.039 58.0611 112.765C58.2063 113.491 58.932 113.926 59.5125 113.781L104.505 102.025L107.698 101.154L120.76 97.6707C121.486 97.5256 121.776 96.8 121.631 95.9292C121.631 95.3486 120.905 94.768 120.325 94.9132Z" fill="#D6DCE8"/>
<path d="M89.1209 72.9989L51.6758 82.8682C50.805 83.1585 49.9341 82.5779 49.6439 81.7071C49.3536 80.8363 49.9341 79.9655 50.8049 79.6752L88.2501 69.806C89.1209 69.5157 89.9917 70.0962 90.282 70.967C90.5723 71.8379 89.9917 72.7086 89.1209 72.9989Z" fill="#D6DCE8"/>
<path d="M68.511 88.0927L54.1426 91.8662C53.2718 92.1565 52.4009 91.576 52.1107 90.7052C51.8204 89.8344 52.4009 88.9636 53.2717 88.6733L67.4951 84.8997C68.3659 84.6095 69.2367 85.19 69.527 86.0608C69.8173 86.9316 69.2367 87.8025 68.511 88.0927Z" fill="#D6DCE8"/>
<path d="M95.6504 53.2617L101.456 75.3224C102.327 78.3703 105.665 80.257 108.713 79.3862L128.596 74.3065" fill="#D6DCE8"/>
<path d="M187.232 96.7998L173.88 178.657C173.444 181.414 170.687 183.301 167.929 182.72L88.3945 168.787C85.6369 168.352 83.7501 165.594 84.1855 162.837L102.618 57.9034C103.053 55.1458 105.811 53.259 108.568 53.8396L166.333 63.9991L187.232 96.7998Z" fill="white" stroke="#D6DCE8" stroke-width="2" stroke-miterlimit="10"/>
<path d="M165.026 142.228L122.066 134.681L117.422 133.81L103.053 131.343C102.473 131.198 101.747 131.778 101.747 132.504C101.602 133.229 102.037 133.955 102.618 134.1L116.986 136.568L121.631 137.438L164.591 144.986C165.171 145.131 165.897 144.55 165.897 143.824C166.042 143.099 165.752 142.373 165.026 142.228Z" fill="#D6DCE8"/>
<path d="M166.768 132.216L150.803 129.459L145.433 128.443L104.94 121.331C104.359 121.186 103.634 121.766 103.634 122.492C103.488 123.218 103.924 123.943 104.504 124.089L144.997 131.2L150.367 132.216L166.332 134.974C166.913 135.119 167.639 134.538 167.639 133.813C167.784 133.087 167.348 132.361 166.768 132.216Z" fill="#D6DCE8"/>
<path d="M168.8 122.056L164.591 121.33L160.382 120.605L106.391 111.171C105.81 111.026 105.085 111.606 105.085 112.332C104.94 113.058 105.375 113.783 105.956 113.928L159.946 123.362L164.591 124.233L168.219 124.814C168.8 124.959 169.525 124.378 169.525 123.653C169.815 122.927 169.525 122.201 168.8 122.056Z" fill="#D6DCE8"/>
<path d="M124.97 158.485L122.067 158.05C121.486 157.904 121.051 157.179 121.196 156.453C121.341 155.727 121.922 155.147 122.502 155.292L125.405 155.727C125.986 155.872 126.421 156.598 126.276 157.324C126.131 158.195 125.55 158.485 124.97 158.485Z" fill="#D6DCE8"/>
<path d="M116.114 156.89L99.1334 153.987C98.5528 153.842 98.1174 153.116 98.2625 152.39C98.4076 151.665 98.9882 151.084 99.5688 151.229L116.55 154.132C117.13 154.277 117.566 155.003 117.42 155.729C117.275 156.599 116.695 157.035 116.114 156.89Z" fill="#D6DCE8"/>
<path d="M171.122 112.186L157.624 109.863L154.286 109.283L108.278 101.155C107.697 101.01 106.971 101.591 106.971 102.316C106.826 103.042 107.262 103.768 107.842 103.913L153.85 112.04L157.189 112.621L170.541 114.943C171.267 115.088 171.847 114.508 171.992 113.782C172.138 113.056 171.702 112.331 171.122 112.186Z" fill="#D6DCE8"/>
<path d="M152.109 79.2392L113.938 72.5629C113.067 72.4178 112.486 71.547 112.632 70.6761C112.777 69.8053 113.648 69.2247 114.518 69.3699L152.689 76.0462C153.56 76.1913 154.141 77.0621 153.995 77.9329C153.85 78.6586 152.979 79.3843 152.109 79.2392Z" fill="#D6DCE8"/>
<path d="M127.001 84.1753L112.342 81.5629C111.471 81.4178 110.891 80.547 111.036 79.6761C111.181 78.8053 112.052 78.2247 112.923 78.3699L127.436 80.9823C128.307 81.1275 128.888 81.9983 128.743 82.8692C128.597 83.74 127.727 84.3205 127.001 84.1753Z" fill="#D6DCE8"/>
<path d="M166.188 64L162.269 86.4961C161.688 89.6891 164.01 92.7369 167.203 93.3174L187.232 96.8007" fill="#D6DCE8"/>
<path d="M132.516 170.965C150.391 170.965 164.881 156.475 164.881 138.6C164.881 120.725 150.391 106.234 132.516 106.234C114.641 106.234 100.15 120.725 100.15 138.6C100.15 156.475 114.641 170.965 132.516 170.965Z" fill="white"/>
<path d="M179.455 188.586C178.198 188.586 176.943 188.084 175.937 186.953L154.958 165.972L154.203 166.474C147.419 171.5 139.505 174.139 131.464 174.139C121.791 174.139 112.118 170.243 104.957 163.46C97.42 156.299 93.2734 146.625 93.2734 136.073C93.2734 115.093 110.359 98.0078 131.34 98.0078C145.66 98.0078 158.223 105.545 165.007 118.359C171.666 131.048 170.786 145.872 162.621 157.807L162.119 158.56L183.224 179.666C185.359 181.802 184.857 183.937 184.48 185.068C183.475 187.078 181.465 188.586 179.455 188.586ZM131.34 108.434C116.012 108.434 103.701 120.873 103.701 136.073C103.701 153.409 117.897 163.837 131.716 163.837C140.134 163.837 147.797 160.068 153.199 153.284C159.858 144.993 160.988 133.811 156.339 124.138C151.566 114.465 142.017 108.434 131.34 108.434Z" fill="#D6DCE8" stroke="#AAB2C5" stroke-width="2" stroke-miterlimit="10"/>
<path d="M129.469 143.826C129.324 143.246 129.324 142.665 129.324 141.939C129.324 139.472 130.34 137.295 132.952 135.408L135.129 133.812C136.436 132.796 137.016 131.635 137.016 130.183C137.016 128.151 135.565 126.119 132.517 126.119C129.324 126.119 127.873 128.732 127.873 131.199C127.873 131.78 127.872 132.215 128.018 132.651L122.212 132.505C122.067 131.925 121.922 131.199 121.922 130.474C121.922 125.539 125.55 120.895 132.372 120.895C139.338 120.895 143.112 125.394 143.112 129.893C143.112 133.521 141.225 135.989 138.613 137.875L136.726 139.182C135.129 140.343 134.258 141.794 134.258 143.536V143.826H129.469ZM131.936 146.729C133.968 146.729 135.565 148.325 135.565 150.357C135.565 152.389 133.968 153.986 131.936 153.986C129.904 153.986 128.308 152.389 128.308 150.357C128.453 148.47 129.904 146.729 131.936 146.729Z" fill="#B2C0D1"/>
</svg>
