<svg width="18" height="18" viewBox="0 0 18 18" fill="none" xmlns="http://www.w3.org/2000/svg">
<path d="M10.6718 17.9844H7.33194C7.32804 17.9844 7.32413 17.9844 7.32023 17.9844C6.82023 17.9766 6.40226 17.6289 6.30069 17.1406C6.29679 17.1289 6.29679 17.1133 6.29288 17.1016L6.03116 15.2344H6.02726C5.70694 15.0781 5.39444 14.8984 5.10148 14.6914L3.34757 15.3984C3.34366 15.3984 3.33976 15.4023 3.33585 15.4023C2.85929 15.582 2.32413 15.3984 2.06241 14.957C2.06241 14.9531 2.05851 14.9531 2.05851 14.9492L0.386632 12.0586C0.12882 11.6172 0.230382 11.0547 0.624913 10.7266C0.62882 10.7227 0.632726 10.7188 0.636632 10.7148L2.12882 9.54297L2.12491 9.53906C2.10929 9.34375 2.10148 9.16797 2.10148 8.99609C2.10148 8.82031 2.10929 8.64453 2.12491 8.45703L0.640538 7.29297C0.632726 7.28906 0.62882 7.28516 0.624913 7.27734C0.238195 6.94922 0.140539 6.39062 0.394445 5.95312L2.06632 3.0625C2.06632 3.05859 2.07023 3.05859 2.07023 3.05469C2.33194 2.61719 2.8671 2.42969 3.34366 2.60938C3.34757 2.60938 3.35148 2.61328 3.35538 2.61328L5.10929 3.32031C5.40616 3.11719 5.71476 2.9375 6.03507 2.78125L6.29679 0.910156C6.29679 0.902344 6.30069 0.894531 6.30069 0.890625C6.38663 0.394531 6.81241 0.0273438 7.31632 0.015625C7.32023 0.015625 7.32413 0.015625 7.32804 0.015625H10.6679C10.6718 0.015625 10.6757 0.015625 10.6796 0.015625C11.1796 0.0234375 11.5976 0.371094 11.6991 0.859375C11.703 0.871094 11.703 0.886719 11.7069 0.898438L11.9687 2.76562H11.9726C12.2929 2.92188 12.6054 3.10156 12.8983 3.30859L14.6523 2.60156C14.6562 2.60156 14.6601 2.59766 14.664 2.59766C15.1405 2.41406 15.6757 2.60156 15.9374 3.04297C15.9374 3.04688 15.9413 3.04687 15.9413 3.05078L17.6132 5.94141C17.871 6.38281 17.7694 6.94531 17.3749 7.27344C17.371 7.27734 17.3671 7.28125 17.3632 7.28516L15.871 8.45703C15.871 8.46094 15.871 8.46484 15.871 8.46484C15.8866 8.66406 15.8944 8.83984 15.8944 9V9.00391C15.8944 9.17969 15.8866 9.35938 15.871 9.53516L17.3632 10.7031C17.3671 10.707 17.371 10.7109 17.3749 10.7148C17.7694 11.043 17.871 11.6016 17.6132 12.0469L15.9413 14.9375C15.9413 14.9414 15.9374 14.9414 15.9374 14.9453C15.6757 15.3828 15.1405 15.5703 14.664 15.3906C14.6601 15.3906 14.6562 15.3867 14.6523 15.3867L12.8983 14.6797C12.6015 14.8828 12.2929 15.0625 11.9726 15.2188L11.7108 17.0898C11.7108 17.0977 11.7069 17.1055 11.7069 17.1094C11.621 17.6055 11.1913 17.9727 10.6874 17.9844C10.6796 17.9844 10.6757 17.9844 10.6718 17.9844ZM7.50382 16.7344H10.496L10.7343 15.043C10.7929 14.6328 11.0507 14.2773 11.4257 14.0938C11.6913 13.9648 11.9452 13.8164 12.1874 13.6523C12.5312 13.4141 12.9726 13.3633 13.3671 13.5195L14.953 14.1562L16.4452 11.5742L14.8202 10.3047C14.6444 10.168 14.5546 9.94531 14.5858 9.72656C14.621 9.48828 14.6366 9.24219 14.6405 9C14.6405 8.87109 14.6327 8.73047 14.621 8.56641C14.5819 8.14453 14.7616 7.73437 15.0937 7.47266L16.4413 6.41406L14.9491 3.83203L13.3671 4.46875C12.9765 4.625 12.5351 4.57812 12.1874 4.33594C11.9491 4.16797 11.6952 4.01953 11.4335 3.89453C11.0585 3.71484 10.7968 3.35938 10.7343 2.94531L10.4999 1.26562H7.50773L7.26944 2.95703C7.21085 3.36719 6.95304 3.72266 6.57804 3.90625C6.31241 4.03516 6.05851 4.18359 5.81632 4.34766C5.47257 4.58594 5.03116 4.63672 4.63663 4.48047L3.0546 3.84375L1.56241 6.42578L2.90226 7.48047C3.23429 7.74219 3.41007 8.14844 3.37491 8.57031C3.35929 8.72266 3.35538 8.86328 3.35538 9C3.35538 9.13281 3.36319 9.27344 3.37491 9.43359C3.41398 9.85547 3.23819 10.2656 2.90616 10.5273L1.55851 11.5859L3.05069 14.168L4.63273 13.5312C5.02335 13.375 5.46476 13.4219 5.81241 13.6641C6.05069 13.832 6.3046 13.9805 6.56632 14.1055C6.94132 14.2852 7.20304 14.6406 7.26554 15.0547L7.50382 16.7344ZM16.5273 6.56641C16.5312 6.56641 16.5312 6.56641 16.5273 6.56641V6.56641ZM9.00382 12.125C8.90226 12.125 8.79679 12.1211 8.69523 12.1094C7.86319 12.0273 7.1171 11.625 6.58585 10.9805C6.0546 10.3359 5.80851 9.52344 5.89054 8.69141C6.05851 6.97656 7.59366 5.71875 9.30851 5.88672C10.7851 6.03516 11.9609 7.21484 12.1093 8.6875C12.1288 8.89062 12.1288 9.09766 12.1093 9.30469C11.953 10.918 10.5898 12.125 9.00382 12.125ZM8.99991 7.125C8.56632 7.125 8.15226 7.27344 7.81241 7.55078C7.42569 7.86719 7.18351 8.31641 7.13663 8.81641C7.08585 9.31641 7.23429 9.80078 7.5546 10.1914C7.87101 10.5781 8.32022 10.8203 8.82022 10.8672C9.84757 10.9687 10.7694 10.2148 10.871 9.18359C10.8827 9.0625 10.8827 8.9375 10.871 8.81641C10.7812 7.92969 10.0741 7.22266 9.18741 7.13281C9.12101 7.12891 9.05851 7.125 8.99991 7.125Z" fill="#F27024"/>
</svg>
