<svg width="24" height="24" viewBox="0 0 24 24" fill="none" xmlns="http://www.w3.org/2000/svg">
<path fill-rule="evenodd" clip-rule="evenodd" d="M10.3636 16.5362C13.8781 16.5362 16.5772 13.8371 16.5772 10.3226C16.5772 6.80806 13.8781 4.10898 10.3636 4.10898C6.84908 4.10898 4.15 6.80806 4.15 10.3226C4.15 13.8371 6.84908 16.5362 10.3636 16.5362ZM10.3636 18.4362C14.8446 18.4362 18.4772 14.8036 18.4772 10.3226C18.4772 5.84157 14.8446 2.20898 10.3636 2.20898C5.88258 2.20898 2.25 5.84157 2.25 10.3226C2.25 14.8036 5.88258 18.4362 10.3636 18.4362Z" fill="white"/>
<rect x="14.2461" y="15.6581" width="1.99729" height="9.21931" rx="0.998647" transform="rotate(-45 14.2461 15.6581)" fill="white"/>
</svg>
