<svg width="199" height="66" viewBox="0 0 199 66" fill="none" xmlns="http://www.w3.org/2000/svg">
<path d="M139.13 23.6099C139.13 28.2425 137.73 32.7711 135.107 36.623C132.483 40.4749 128.755 43.477 124.392 45.2499C120.03 47.0227 115.23 47.4865 110.599 46.5827C105.968 45.679 101.714 43.4482 98.375 40.1724C95.0362 36.8966 92.7625 32.7231 91.8413 28.1795C90.9201 23.6359 91.3929 18.9263 93.1999 14.6464C95.0068 10.3664 98.0667 6.70822 101.993 4.13448C105.919 1.56074 110.534 0.187012 115.256 0.187012C121.588 0.187012 127.66 2.65477 132.138 7.04742C136.615 11.4401 139.13 17.3978 139.13 23.6099Z" fill="#FAB317"/>
<path d="M37.9868 5.00912V41.8325C32.6211 42.411 27.2681 43.0721 21.9278 43.8159C20.0325 44.0824 18.769 42.1238 18.769 39.0867V2.57324C21.9278 3.03191 23.5008 3.25504 26.7038 3.67032V33.2976L29.8625 33.0993V4.0732C33.0844 4.46988 34.708 4.65583 37.9741 5.00912" fill="#E9161C"/>
<path d="M53.6284 22.1659C53.2536 18.3189 52.8724 14.4677 52.485 10.6125V6.37912C55.6437 6.63325 57.2673 6.75101 60.4829 6.99894V39.9113C56.7871 40.153 54.9551 40.2893 51.3099 40.593C49.9538 35.3163 48.6102 30.05 47.2794 24.7939H46.6476C47.0056 28.7153 47.3699 32.6408 47.7405 36.5704V40.9092C44.5818 41.1881 43.0403 41.3368 39.9385 41.6591V5.21387C43.5142 5.58576 45.321 5.75931 48.9472 6.07541C50.2612 11.4472 51.5963 16.8189 52.9524 22.1907H53.66" fill="#E9161C"/>
<path d="M160.938 5.01544C164.343 4.64975 166.036 4.45141 169.39 4.03613V33.118C172.77 33.3287 174.444 33.4403 177.774 33.6696V43.9214C172.17 43.128 166.56 42.4586 160.938 41.8326V5.01544Z" fill="#E9161C"/>
<path d="M179.662 44.1943V2.66649C185.057 1.86073 190.446 1.00538 195.841 0.0384638C197.692 -0.296238 199 1.89792 199 5.41848V41.4299C199 44.9194 197.705 47.1384 195.841 46.8099C190.472 45.8368 185.102 44.9504 179.688 44.1943M187.825 34.4321L191.065 34.6987V12.2117L187.825 12.4782V34.4321Z" fill="#E9161C"/>
<path d="M16.9118 12.9119C16.9118 10.5627 16.9118 7.51944 16.9118 2.30058C12.3127 1.59399 7.71362 0.856403 3.15873 0.0320459C1.26349 -0.296457 0 1.92869 0 5.41826V15.4965C0 19.3332 0.385365 21.4219 2.0974 23.6409C4.28324 26.4053 6.57016 29.1077 8.91394 31.6985V34.6427C5.31298 34.9402 3.52514 35.1013 0 35.4298C0 37.8099 0 41.7582 0 46.9832C3.98 46.3634 10.1711 45.601 13.7152 45.0308C15.5789 44.7395 16.9118 42.3718 16.9118 39.2975V29.6965C16.9118 26.3185 16.5012 24.4776 14.7386 22.5066C12.3633 19.8352 10.0511 17.0894 7.82733 14.2569V12.1991C10.9355 12.4656 13.7531 12.6701 16.9118 12.9119Z" fill="#E9161C"/>
<path d="M115.875 7.95312C117.371 8.90189 118.632 10.1673 119.564 11.6564C120.497 13.1455 121.078 14.8206 121.265 16.5588C121.452 18.297 121.239 20.0542 120.644 21.7014C120.048 23.3486 119.084 24.8441 117.822 26.0781C116.561 27.3121 115.034 28.2533 113.353 28.8327C111.672 29.4121 109.881 29.6149 108.109 29.4263C106.338 29.2378 104.633 28.6626 103.118 27.7429C101.603 26.8233 100.317 25.5826 99.3547 24.1118C99.4653 27.1483 100.476 30.0873 102.264 32.5683C104.052 35.0493 106.539 36.9646 109.42 38.0793C112.301 39.1939 115.451 39.4596 118.484 38.8437C121.517 38.2277 124.3 36.757 126.494 34.6117C128.687 32.4664 130.195 29.7399 130.832 26.7664C131.469 23.7928 131.208 20.7015 130.08 17.8715C128.953 15.0414 127.009 12.5955 124.485 10.8338C121.962 9.07198 118.97 8.07086 115.875 7.95312Z" fill="#F27024"/>
<path d="M99.3418 23.5539C99.3418 23.7399 99.3418 23.9258 99.3418 24.1118C100.304 25.5826 101.59 26.8233 103.105 27.7429C104.62 28.6626 106.325 29.2378 108.097 29.4263C109.868 29.6149 111.659 29.4121 113.34 28.8327C115.021 28.2533 116.548 27.3121 117.809 26.0781C119.071 24.8441 120.035 23.3486 120.631 21.7014C121.226 20.0542 121.439 18.297 121.252 16.5588C121.065 14.8206 120.484 13.1455 119.551 11.6564C118.619 10.1673 117.358 8.90189 115.862 7.95312H115.23C111.016 7.95969 106.977 9.60584 103.998 12.5305C101.02 15.4551 99.3451 19.4195 99.3418 23.5539Z" fill="#E9161C"/>
<g style="mix-blend-mode:lighten">
<mask id="mask0_24301_157034" style="mask-type:luminance" maskUnits="userSpaceOnUse" x="97" y="6" width="19" height="19">
<path d="M115.868 6.0874H97.4651V24.1179H115.868V6.0874Z" fill="white"/>
</mask>
<g mask="url(#mask0_24301_157034)">
<path d="M99.341 23.5538C99.341 19.4129 101.018 15.4416 104.002 12.5136C106.986 9.58555 111.034 7.9406 115.255 7.9406H115.886C113.597 6.4885 110.869 5.84952 108.157 6.12997C105.446 6.41043 102.914 7.59341 100.983 9.48207C99.0522 11.3707 97.8387 13.8512 97.5445 16.5106C97.2504 19.1701 97.8933 21.8482 99.3663 24.0992C99.3663 23.9133 99.3663 23.7273 99.3663 23.5414" fill="white"/>
</g>
</g>
<path d="M93.3087 36.2854C92.8013 35.4388 92.3457 34.5633 91.9441 33.6636C91.9441 33.6636 91.9441 33.6202 91.9441 33.5954C91.8094 33.3062 91.683 33.0086 91.5651 32.7029C91.4472 32.3971 91.3335 32.0934 91.224 31.7917V31.7484C91.1229 31.457 91.0281 31.1285 90.9334 30.8558L90.8955 30.738C90.807 30.4343 90.7186 30.1182 90.6427 29.8269C90.5669 29.5294 90.4974 29.2071 90.4343 28.9282C90.4313 28.891 90.4313 28.8537 90.4343 28.8166C90.3711 28.5191 90.3142 28.1968 90.2574 27.9117C90.2574 27.8621 90.2574 27.8063 90.2574 27.7505C90.2068 27.4468 90.1563 27.1307 90.1184 26.827C90.1214 26.8148 90.1214 26.802 90.1184 26.7898C90.0805 26.4923 90.0489 26.17 90.0236 25.8849C90.0205 25.8291 90.0205 25.7733 90.0236 25.7175C90.0236 25.4138 89.9794 25.0977 89.9605 24.8064C89.9636 24.7465 89.9636 24.6865 89.9605 24.6266C89.9605 24.3105 89.9605 24.0068 89.9605 23.6721C89.9605 23.3374 89.9605 23.0151 89.9605 22.6928C89.9635 22.635 89.9635 22.5771 89.9605 22.5193C89.9605 22.2094 89.9984 21.8995 90.0236 21.5895V21.4098C90.0236 21.0937 90.0868 20.79 90.1247 20.4615C90.1247 20.4615 90.1247 20.4243 90.1247 20.4057C90.1689 20.102 90.2132 19.7859 90.2637 19.5008C90.2667 19.4512 90.2667 19.4015 90.2637 19.352C90.3206 19.0483 90.3774 18.7322 90.4406 18.4533C90.4406 18.3913 90.4722 18.3355 90.4848 18.2735C90.548 17.976 90.6238 17.6537 90.6996 17.381C90.6996 17.3438 90.6996 17.3128 90.6996 17.2818C90.7754 16.9967 90.8575 16.7178 90.946 16.4389L90.9839 16.3149C91.0723 16.0236 91.1671 15.7385 91.2682 15.4534C91.293 15.3969 91.3141 15.3389 91.3314 15.2798C91.4324 15.0009 91.5398 14.7158 91.6535 14.443L91.7041 14.3191C91.8115 14.0526 91.9315 13.786 92.0515 13.5257L92.0895 13.4327C92.2158 13.16 92.3485 12.8873 92.4811 12.6208C92.4811 12.565 92.538 12.5154 92.5633 12.4596C92.6959 12.1931 92.8412 11.9328 92.9802 11.6725L93.056 11.5423C93.2013 11.2882 93.3529 11.0341 93.5046 10.7861C93.5034 10.7696 93.5034 10.753 93.5046 10.7365C93.6646 10.4762 93.8289 10.2221 93.9973 9.97417L94.0921 9.82541C94.2563 9.58368 94.4269 9.34195 94.6038 9.10642L94.6986 8.97626C94.8818 8.72833 95.065 8.48661 95.2608 8.24488C92.1526 8.24488 88.6528 8.18909 85.8415 8.12711V22.8044H85.1023C84.3569 17.8458 83.6156 12.908 82.8786 7.99075C79.8715 7.90398 78.3742 7.85439 75.3861 7.73043C74.6533 12.7509 73.9225 17.7694 73.1939 22.7858H72.499V7.60646C69.0244 7.44531 67.2997 7.35234 63.863 7.1416V11.158C64.8191 20.5792 65.7835 29.9984 66.7564 39.4155C70.0541 39.2295 73.3519 39.0725 76.6496 38.9444C77.3529 34.8826 78.0626 30.8 78.7786 26.6968H79.4103C80.1347 30.7339 80.8591 34.7689 81.5835 38.8019C84.6222 38.7027 91.2555 38.7647 95.0081 38.7461C94.4003 37.9517 93.8393 37.1239 93.3277 36.2668" fill="#E9161C"/>
<path d="M156.041 28.0292C157.45 27.6015 158.505 25.7049 158.505 23.9942V9.73837C158.505 7.09795 156.982 5.39965 154.809 5.5732C148.953 6.08145 140.532 6.65168 134.302 7.05456C135.551 8.43691 136.64 9.95015 137.55 11.5668C137.727 11.8829 137.897 12.1866 138.061 12.5275C138.061 12.5275 138.061 12.5585 138.061 12.5771C138.219 12.8932 138.371 13.197 138.516 13.5379V13.606C138.662 13.9283 138.794 14.2258 138.927 14.5791V14.6411C139.053 14.9758 139.18 15.3167 139.3 15.6576C139.54 16.3518 139.742 17.0584 139.931 17.7774V17.858C140.013 18.1927 140.089 18.5336 140.152 18.8745C140.156 18.9199 140.156 18.9655 140.152 19.0108C140.216 19.3373 140.272 19.672 140.323 20.0149V20.1699C140.374 20.5046 140.411 20.8455 140.449 21.1802C140.446 21.2297 140.446 21.2794 140.449 21.329C140.449 21.6823 140.506 22.0293 140.525 22.3764V22.4818C140.525 22.8537 140.525 23.2256 140.525 23.5975C140.525 23.9694 140.525 24.3041 140.525 24.6574C140.522 24.7007 140.522 24.7442 140.525 24.7875C140.525 25.1222 140.481 25.4569 140.456 25.7854V25.9528C140.426 26.2834 140.388 26.6119 140.342 26.9383V27.0871C140.298 27.4218 140.241 27.7503 140.184 28.0788V28.1531C140.121 28.494 140.051 28.8349 139.969 29.1758C139.887 29.5167 139.805 29.8452 139.71 30.1799C139.707 30.2129 139.707 30.2461 139.71 30.2791C139.615 30.6014 139.521 30.8989 139.413 31.2398C139.411 31.2749 139.411 31.3101 139.413 31.3452C139.306 31.6675 139.192 31.965 139.072 32.2997C139.069 32.3202 139.069 32.3412 139.072 32.3617C138.703 33.3773 138.268 34.369 137.771 35.3306C137.6 35.6405 137.43 35.9504 137.246 36.248C136.507 37.4775 135.661 38.6428 134.719 39.7313C138.226 39.9359 142.124 40.1342 145.459 40.3821V29.7957L147.354 29.8514C148.197 33.4794 149.039 37.1116 149.881 40.7478C153.558 41.0453 155.378 41.2127 159.004 41.5598V37.0413C157.829 33.3782 157.241 31.6117 156.041 28.0292ZM149.186 21.2484H145.44V14.9076L149.186 14.7651V21.2484Z" fill="#E9161C"/>
<path d="M28.2768 52.8714C28.2978 52.8914 28.3143 52.9156 28.3252 52.9423C28.3361 52.969 28.3411 52.9976 28.3399 53.0264V55.2329C28.3411 55.2616 28.3361 55.2903 28.3252 55.317C28.3143 55.3437 28.2978 55.3678 28.2768 55.3879C28.2555 55.4095 28.23 55.4267 28.2017 55.4384C28.1735 55.4501 28.1432 55.4561 28.1125 55.456H24.8085C24.7955 55.4539 24.7823 55.4548 24.7698 55.4587C24.7573 55.4626 24.7459 55.4694 24.7366 55.4785C24.7273 55.4876 24.7204 55.4988 24.7164 55.511C24.7124 55.5233 24.7115 55.5363 24.7137 55.549V65.5591C24.7132 65.6167 24.6907 65.672 24.6505 65.714C24.6289 65.7348 24.6032 65.7511 24.575 65.7617C24.5467 65.7724 24.5165 65.7773 24.4863 65.776H21.8077C21.7774 65.7773 21.7473 65.7724 21.719 65.7617C21.6907 65.7511 21.665 65.7348 21.6434 65.714C21.6224 65.694 21.6059 65.6698 21.595 65.6431C21.5841 65.6164 21.5791 65.5878 21.5803 65.5591V55.549C21.5825 55.5363 21.5815 55.5233 21.5776 55.511C21.5736 55.4988 21.5666 55.4876 21.5574 55.4785C21.5481 55.4694 21.5367 55.4626 21.5242 55.4587C21.5117 55.4548 21.4984 55.4539 21.4855 55.456H18.3204C18.2611 55.453 18.205 55.4286 18.163 55.3874C18.121 55.3461 18.0961 55.2911 18.093 55.2329V53.0264C18.0961 52.9681 18.121 52.9131 18.163 52.8719C18.205 52.8307 18.2611 52.8062 18.3204 52.8032H28.1125C28.1432 52.8031 28.1735 52.8091 28.2017 52.8209C28.23 52.8326 28.2555 52.8498 28.2768 52.8714Z" fill="#E9161C"/>
<path d="M35.8326 52.8714C35.8526 52.8499 35.877 52.8328 35.9042 52.8211C35.9314 52.8093 35.9608 52.8033 35.9905 52.8032H38.6754C38.7347 52.8062 38.7908 52.8307 38.8328 52.8719C38.8748 52.9131 38.8998 52.9681 38.9028 53.0264V65.5591C38.9028 65.5882 38.8966 65.617 38.8846 65.6437C38.8727 65.6704 38.8552 65.6943 38.8333 65.714C38.8129 65.7347 38.7883 65.7509 38.7611 65.7615C38.7339 65.7722 38.7047 65.7771 38.6754 65.776H36.0094C35.9802 65.7771 35.9509 65.7722 35.9237 65.7615C35.8965 65.7509 35.8719 65.7347 35.8515 65.714C35.8296 65.6943 35.8122 65.6704 35.8002 65.6437C35.7882 65.617 35.782 65.5882 35.782 65.5591V60.6005C35.7842 60.5878 35.7833 60.5748 35.7793 60.5625C35.7753 60.5503 35.7684 60.5391 35.7591 60.53C35.7498 60.5209 35.7385 60.5141 35.726 60.5102C35.7135 60.5063 35.7002 60.5054 35.6872 60.5076H32.1368C32.1239 60.5054 32.1106 60.5063 32.0981 60.5102C32.0856 60.5141 32.0742 60.5209 32.065 60.53C32.0557 60.5391 32.0488 60.5503 32.0448 60.5625C32.0408 60.5748 32.0399 60.5878 32.0421 60.6005V65.5591C32.0432 65.5878 32.0382 65.6164 32.0273 65.6431C32.0164 65.6698 31.9999 65.694 31.9789 65.714C31.9573 65.7348 31.9316 65.7511 31.9033 65.7617C31.8751 65.7724 31.8449 65.7773 31.8146 65.776H29.136C29.1058 65.7773 29.0756 65.7724 29.0474 65.7617C29.0191 65.7511 28.9934 65.7348 28.9718 65.714C28.9507 65.694 28.9342 65.6698 28.9234 65.6431C28.9125 65.6164 28.9074 65.5878 28.9086 65.5591V53.0264C28.9074 52.9976 28.9125 52.969 28.9234 52.9423C28.9342 52.9156 28.9507 52.8914 28.9718 52.8714C28.9931 52.8498 29.0186 52.8326 29.0468 52.8209C29.075 52.8091 29.1054 52.8031 29.136 52.8032H31.8146C31.8453 52.8031 31.8756 52.8091 31.9039 52.8209C31.9321 52.8326 31.9576 52.8498 31.9789 52.8714C31.9999 52.8914 32.0164 52.9156 32.0273 52.9423C32.0382 52.969 32.0432 52.9976 32.0421 53.0264V57.8113C32.0399 57.824 32.0408 57.8371 32.0448 57.8493C32.0488 57.8616 32.0557 57.8728 32.065 57.8819C32.0742 57.891 32.0856 57.8978 32.0981 57.9017C32.1106 57.9056 32.1239 57.9065 32.1368 57.9043H35.6683C35.6812 57.9065 35.6945 57.9056 35.707 57.9017C35.7195 57.8978 35.7309 57.891 35.7402 57.8819C35.7495 57.8728 35.7564 57.8616 35.7604 57.8493C35.7643 57.8371 35.7653 57.824 35.7631 57.8113V53.0264C35.7631 52.9972 35.7693 52.9684 35.7812 52.9417C35.7932 52.9151 35.8107 52.8911 35.8326 52.8714Z" fill="#E9161C"/>
<path d="M49.1305 55.3693C49.1104 55.3907 49.086 55.4079 49.0588 55.4196C49.0316 55.4313 49.0022 55.4374 48.9725 55.4374H43.0404C43.0275 55.4353 43.0142 55.4362 43.0017 55.4401C42.9892 55.444 42.9779 55.4508 42.9686 55.4599C42.9593 55.469 42.9524 55.4802 42.9484 55.4924C42.9444 55.5047 42.9435 55.5177 42.9457 55.5304V57.8113C42.9435 57.824 42.9444 57.8371 42.9484 57.8493C42.9524 57.8616 42.9593 57.8728 42.9686 57.8819C42.9779 57.891 42.9892 57.8978 43.0017 57.9017C43.0142 57.9056 43.0275 57.9065 43.0404 57.9043H46.8309C46.8602 57.9032 46.8894 57.9081 46.9166 57.9188C46.9438 57.9295 46.9685 57.9457 46.9889 57.9663C47.0107 57.986 47.0282 58.01 47.0402 58.0366C47.0521 58.0633 47.0583 58.0921 47.0584 58.1213V60.2906C47.0584 60.3207 47.0523 60.3505 47.0404 60.3782C47.0284 60.4058 47.0109 60.4309 46.9889 60.4518C46.9685 60.4724 46.9438 60.4886 46.9166 60.4993C46.8894 60.51 46.8602 60.5149 46.8309 60.5137H43.0404C43.0275 60.5116 43.0142 60.5125 43.0017 60.5164C42.9892 60.5203 42.9779 60.5271 42.9686 60.5362C42.9593 60.5453 42.9524 60.5565 42.9484 60.5687C42.9444 60.581 42.9435 60.594 42.9457 60.6067V63.086C42.9435 63.0987 42.9444 63.1117 42.9484 63.124C42.9524 63.1363 42.9593 63.1474 42.9686 63.1565C42.9779 63.1656 42.9892 63.1724 43.0017 63.1763C43.0142 63.1802 43.0275 63.1811 43.0404 63.179H48.9725C49.0018 63.1778 49.031 63.1828 49.0583 63.1934C49.0855 63.2041 49.1101 63.2203 49.1305 63.2409C49.1525 63.2618 49.1701 63.2869 49.182 63.3146C49.1939 63.3423 49.2001 63.372 49.2 63.4021V65.5901C49.1999 65.6192 49.1937 65.648 49.1818 65.6747C49.1698 65.7013 49.1524 65.7253 49.1305 65.745C49.1101 65.7657 49.0855 65.7818 49.0583 65.7925C49.031 65.8032 49.0018 65.8081 48.9725 65.807H40.0333C40.0041 65.8081 39.9748 65.8032 39.9476 65.7925C39.9204 65.7818 39.8958 65.7657 39.8754 65.745C39.8535 65.7253 39.8361 65.7013 39.8241 65.6747C39.8121 65.648 39.8059 65.6192 39.8059 65.5901V53.0264C39.809 52.9681 39.8339 52.9131 39.8759 52.8719C39.9179 52.8307 39.974 52.8062 40.0333 52.8032H48.9725C49.0319 52.8062 49.088 52.8307 49.13 52.8719C49.172 52.9131 49.1969 52.9681 49.2 53.0264V55.2143C49.1999 55.2435 49.1937 55.2723 49.1818 55.2989C49.1698 55.3256 49.1524 55.3496 49.1305 55.3693Z" fill="#E9161C"/>
<path d="M55.9221 65.5961L52.4348 53.0448V52.9704C52.4348 52.8589 52.5043 52.8031 52.6433 52.8031H55.4672C55.5241 52.8004 55.5801 52.8176 55.6252 52.8516C55.6703 52.8857 55.7017 52.9344 55.7136 52.989L57.3561 59.7388C57.3561 59.7884 57.3751 59.8132 57.413 59.8132C57.413 59.8132 57.4572 59.8132 57.4698 59.7388L58.9418 53.0076C58.9442 52.9783 58.9525 52.9497 58.9662 52.9235C58.9799 52.8973 58.9987 52.8741 59.0216 52.855C59.0445 52.836 59.071 52.8217 59.0996 52.8127C59.1282 52.8038 59.1583 52.8005 59.1882 52.8031H61.8162C61.8731 52.8004 61.9291 52.8176 61.9742 52.8516C62.0194 52.8857 62.0507 52.9344 62.0626 52.989L63.7052 59.7388C63.7052 59.7884 63.7241 59.8132 63.762 59.8132C63.762 59.8132 63.8062 59.8132 63.8189 59.7388L65.3477 53.0076C65.3501 52.9783 65.3584 52.9497 65.3721 52.9235C65.3858 52.8973 65.4046 52.8741 65.4275 52.855C65.4504 52.836 65.4769 52.8217 65.5055 52.8127C65.5341 52.8038 65.5642 52.8005 65.5941 52.8031H68.3927C68.5696 52.8031 68.6391 52.8837 68.5949 53.0448L65.4361 65.5961C65.4202 65.6517 65.3849 65.7001 65.3365 65.7329C65.2881 65.7657 65.2295 65.7809 65.1708 65.7759H62.4417C62.4121 65.7793 62.3822 65.7768 62.3536 65.7686C62.325 65.7604 62.2985 65.7467 62.2755 65.7281C62.2525 65.7096 62.2335 65.6867 62.2197 65.6609C62.2059 65.635 62.1976 65.6066 62.1953 65.5775L60.5527 58.4186C60.5527 58.369 60.5338 58.3442 60.4959 58.3442C60.4959 58.3442 60.4517 58.3443 60.439 58.4186L58.9608 65.5775C58.9592 65.6064 58.9517 65.6346 58.9386 65.6604C58.9255 65.6863 58.9071 65.7092 58.8846 65.7278C58.8621 65.7464 58.8359 65.7603 58.8077 65.7685C58.7795 65.7768 58.7499 65.7793 58.7207 65.7759H56.1937C56.134 65.7825 56.0739 65.768 56.0242 65.735C55.9744 65.7021 55.9382 65.6529 55.9221 65.5961Z" fill="#E9161C"/>
<path d="M71.3872 65.3793C70.6317 64.9974 70.0044 64.4099 69.5804 63.6872C69.1438 62.9101 68.9258 62.033 68.9487 61.146V57.4271C68.9288 56.56 69.147 55.7037 69.5804 54.9478C70.0044 54.2251 70.6317 53.6377 71.3872 53.2557C72.2186 52.835 73.143 52.6221 74.0784 52.6359C75.0156 52.6246 75.9414 52.8374 76.776 53.2557C77.5351 53.6349 78.1651 54.2229 78.5891 54.9478C79.0225 55.7037 79.2407 56.56 79.2208 57.4271V61.146C79.2437 62.033 79.0257 62.9101 78.5891 63.6872C78.1651 64.4121 77.5351 65.0001 76.776 65.3793C75.9426 65.801 75.016 66.0139 74.0784 65.9992C73.1428 66.0147 72.218 65.8017 71.3872 65.3793ZM75.5378 62.7761C75.9245 62.3565 76.1266 61.804 76.1 61.239V57.4023C76.1249 56.8393 75.9229 56.2894 75.5378 55.8713C75.1502 55.4973 74.6284 55.2877 74.0847 55.2877C73.5411 55.2877 73.0193 55.4973 72.6317 55.8713C72.2489 56.2903 72.0492 56.8402 72.0758 57.4023V61.239C72.0468 61.8033 72.2467 62.3559 72.6317 62.7761C73.0216 63.1457 73.5426 63.3523 74.0847 63.3523C74.6269 63.3523 75.1479 63.1457 75.5378 62.7761Z" fill="#E9161C"/>
<path d="M86.9025 65.6148L84.6725 60.6563C84.6635 60.634 84.6478 60.615 84.6275 60.6017C84.6072 60.5884 84.5832 60.5815 84.5588 60.5819H83.2953C83.2823 60.5797 83.2691 60.5807 83.2566 60.5846C83.2441 60.5885 83.2327 60.5953 83.2234 60.6044C83.2141 60.6135 83.2072 60.6246 83.2032 60.6369C83.1992 60.6492 83.1983 60.6622 83.2005 60.6749V65.5343C83.2017 65.563 83.1967 65.5916 83.1858 65.6183C83.1749 65.645 83.1584 65.6692 83.1373 65.6892C83.1158 65.71 83.09 65.7263 83.0618 65.7369C83.0335 65.7476 83.0033 65.7524 82.9731 65.7512H80.2945C80.2642 65.7524 80.2341 65.7476 80.2058 65.7369C80.1776 65.7263 80.1518 65.71 80.1302 65.6892C80.1092 65.6692 80.0927 65.645 80.0818 65.6183C80.0709 65.5916 80.0659 65.563 80.0671 65.5343V53.0263C80.0659 52.9976 80.0709 52.969 80.0818 52.9423C80.0927 52.9156 80.1092 52.8914 80.1302 52.8714C80.1515 52.8497 80.177 52.8326 80.2053 52.8208C80.2335 52.8091 80.2638 52.8031 80.2945 52.8032H85.917C86.6791 52.7877 87.4329 52.9603 88.1092 53.3053C88.7254 53.6299 89.2323 54.1229 89.5685 54.7246C89.9256 55.3688 90.1062 56.0927 90.0929 56.8258C90.1124 57.5894 89.8918 58.3403 89.4611 58.9766C89.0392 59.5847 88.4306 60.045 87.7238 60.2906C87.71 60.2935 87.6971 60.2996 87.6862 60.3084C87.6753 60.3173 87.6667 60.3285 87.6611 60.3413C87.6555 60.354 87.6532 60.3679 87.6542 60.3817C87.6552 60.3955 87.6596 60.4089 87.667 60.4208L90.156 65.5219C90.1764 65.5561 90.1894 65.5941 90.1939 65.6334C90.1939 65.7264 90.1245 65.776 89.9918 65.776H87.1805C87.1227 65.7818 87.0645 65.7693 87.0145 65.7403C86.9645 65.7113 86.9252 65.6673 86.9025 65.6148ZM83.2195 55.5304V58.1584C83.2173 58.1711 83.2182 58.1841 83.2222 58.1964C83.2262 58.2087 83.2331 58.2198 83.2424 58.2289C83.2516 58.238 83.263 58.2448 83.2755 58.2487C83.288 58.2527 83.3013 58.2536 83.3142 58.2514H85.4116C85.8238 58.2703 86.2279 58.1352 86.5425 57.8733C86.6867 57.747 86.8006 57.5909 86.876 57.4162C86.9514 57.2415 86.9863 57.0526 86.9784 56.863C86.9875 56.6697 86.9532 56.4767 86.8778 56.2979C86.8025 56.119 86.688 55.9585 86.5425 55.8279C86.2311 55.5593 85.8258 55.4194 85.4116 55.4374H83.3142C83.3013 55.4353 83.288 55.4362 83.2755 55.4401C83.263 55.444 83.2516 55.4508 83.2424 55.4599C83.2331 55.469 83.2262 55.4801 83.2222 55.4924C83.2182 55.5047 83.2173 55.5177 83.2195 55.5304Z" fill="#E9161C"/>
<path d="M90.9713 65.7016C90.9495 65.6819 90.932 65.658 90.92 65.6313C90.9081 65.6046 90.9019 65.5758 90.9019 65.5467V53.0264C90.9019 52.9972 90.9081 52.9684 90.92 52.9417C90.932 52.9151 90.9495 52.8911 90.9713 52.8714C90.9912 52.8497 91.0155 52.8323 91.0428 52.8205C91.07 52.8088 91.0995 52.8029 91.1293 52.8032H93.8142C93.8439 52.8033 93.8733 52.8093 93.9005 52.8211C93.9276 52.8328 93.9521 52.85 93.9721 52.8714C93.9932 52.8914 94.0097 52.9156 94.0206 52.9423C94.0315 52.969 94.0365 52.9976 94.0353 53.0264V63.055C94.0331 63.0677 94.034 63.0807 94.038 63.093C94.042 63.1053 94.0489 63.1164 94.0582 63.1255C94.0675 63.1346 94.0789 63.1414 94.0914 63.1453C94.1039 63.1492 94.1171 63.1502 94.1301 63.148H100.157C100.187 63.1462 100.218 63.1507 100.246 63.1613C100.275 63.1719 100.3 63.1882 100.322 63.2093C100.343 63.2304 100.36 63.2557 100.371 63.2836C100.382 63.3115 100.386 63.3413 100.384 63.3711V65.5591C100.386 65.5878 100.381 65.6165 100.37 65.6432C100.359 65.6699 100.342 65.694 100.321 65.714C100.3 65.7348 100.274 65.7511 100.246 65.7617C100.217 65.7724 100.187 65.7773 100.157 65.776H91.1166C91.0885 65.7743 91.061 65.7667 91.036 65.7539C91.0109 65.7411 90.9889 65.7233 90.9713 65.7016Z" fill="#E9161C"/>
<path d="M100.985 65.7017C100.964 65.6817 100.947 65.6575 100.936 65.6308C100.925 65.6041 100.92 65.5755 100.922 65.5467V53.0264C100.92 52.9977 100.925 52.969 100.936 52.9423C100.947 52.9156 100.964 52.8915 100.985 52.8715C101.006 52.8498 101.032 52.8326 101.06 52.8209C101.088 52.8092 101.118 52.8032 101.149 52.8033H105.963C106.859 52.7872 107.748 52.9583 108.572 53.3053C109.284 53.6057 109.894 54.1005 110.328 54.7309C110.751 55.3638 110.971 56.1064 110.96 56.8631V61.7225C110.972 62.4774 110.752 63.2183 110.328 63.8484C109.896 64.4823 109.286 64.9796 108.572 65.2802C107.748 65.6251 106.859 65.7942 105.963 65.7761H101.149C101.118 65.7757 101.087 65.7689 101.059 65.7561C101.03 65.7433 101.005 65.7248 100.985 65.7017ZM104.143 63.1356H106.089C106.321 63.1421 106.552 63.0983 106.765 63.0072C106.978 62.9161 107.168 62.7801 107.321 62.6088C107.649 62.2071 107.822 61.7041 107.808 61.1894V57.3837C107.836 56.8681 107.664 56.3611 107.327 55.9644C107.17 55.7903 106.975 55.6528 106.756 55.5617C106.538 55.4706 106.301 55.4282 106.064 55.4375H104.169C104.156 55.4354 104.143 55.4363 104.13 55.4402C104.117 55.4441 104.106 55.4509 104.097 55.46C104.088 55.4691 104.081 55.4802 104.077 55.4925C104.073 55.5048 104.072 55.5178 104.074 55.5305V63.0551C104.072 63.0661 104.073 63.0774 104.076 63.0883C104.079 63.0991 104.084 63.1092 104.091 63.118C104.098 63.1267 104.107 63.1339 104.117 63.1391C104.127 63.1443 104.138 63.1473 104.15 63.148L104.143 63.1356Z" fill="#E9161C"/>
<path d="M117.025 65.3794C116.272 64.9964 115.647 64.4091 115.224 63.6873C114.788 62.9102 114.57 62.0331 114.593 61.146V57.4271C114.573 56.5601 114.791 55.7037 115.224 54.9479C115.647 54.2261 116.272 53.6387 117.025 53.2557C117.867 52.8598 118.789 52.6543 119.722 52.6543C120.656 52.6543 121.578 52.8598 122.42 53.2557C123.178 53.6368 123.807 54.2243 124.233 54.9479C124.667 55.7037 124.885 56.5601 124.865 57.4271V61.146C124.888 62.0331 124.67 62.9102 124.233 63.6873C123.807 64.4108 123.178 64.9984 122.42 65.3794C121.578 65.7753 120.656 65.9808 119.722 65.9808C118.789 65.9808 117.867 65.7753 117.025 65.3794ZM121.182 62.7761C121.567 62.3559 121.767 61.8033 121.738 61.239V57.4023C121.764 56.8402 121.565 56.2904 121.182 55.8714C120.995 55.6764 120.767 55.5235 120.514 55.4229C120.261 55.3224 119.989 55.2766 119.716 55.2887C119.448 55.2802 119.18 55.3277 118.932 55.4281C118.684 55.5286 118.46 55.6797 118.276 55.8714C117.891 56.2894 117.689 56.8394 117.714 57.4023V61.239C117.687 61.8041 117.889 62.3566 118.276 62.7761C118.461 62.9667 118.685 63.1167 118.933 63.216C119.181 63.3154 119.448 63.3619 119.716 63.3526C119.988 63.3635 120.259 63.3178 120.512 63.2184C120.765 63.1191 120.993 62.9683 121.182 62.7761Z" fill="#E9161C"/>
<path d="M135.03 55.3693C134.988 55.4115 134.931 55.436 134.872 55.4374H128.958C128.945 55.4353 128.932 55.4362 128.92 55.4401C128.907 55.444 128.896 55.4508 128.887 55.4599C128.877 55.469 128.87 55.4802 128.866 55.4924C128.862 55.5047 128.861 55.5177 128.864 55.5304V57.8113C128.861 57.824 128.862 57.8371 128.866 57.8493C128.87 57.8616 128.877 57.8728 128.887 57.8819C128.896 57.891 128.907 57.8978 128.92 57.9017C128.932 57.9056 128.945 57.9065 128.958 57.9043H132.749C132.778 57.9032 132.807 57.9081 132.835 57.9188C132.862 57.9295 132.886 57.9457 132.907 57.9663C132.929 57.986 132.946 58.01 132.958 58.0366C132.97 58.0633 132.976 58.0921 132.976 58.1213V60.2906C132.976 60.3207 132.97 60.3505 132.958 60.3782C132.946 60.4058 132.929 60.4309 132.907 60.4518C132.886 60.4724 132.862 60.4886 132.835 60.4993C132.807 60.51 132.778 60.5149 132.749 60.5137H128.958C128.945 60.5116 128.932 60.5125 128.92 60.5164C128.907 60.5203 128.896 60.5271 128.887 60.5362C128.877 60.5453 128.87 60.5565 128.866 60.5687C128.862 60.581 128.861 60.594 128.864 60.6067V65.5653C128.864 65.5944 128.857 65.6232 128.845 65.6499C128.834 65.6766 128.816 65.7005 128.794 65.7202C128.774 65.7409 128.749 65.757 128.722 65.7677C128.695 65.7784 128.666 65.7833 128.636 65.7822H125.951C125.922 65.7833 125.893 65.7784 125.866 65.7677C125.838 65.757 125.814 65.7409 125.793 65.7202C125.771 65.7005 125.754 65.6766 125.742 65.6499C125.73 65.6232 125.724 65.5944 125.724 65.5653V53.0264C125.727 52.9681 125.752 52.9131 125.794 52.8719C125.836 52.8307 125.892 52.8062 125.951 52.8032H134.872C134.931 52.8047 134.988 52.8292 135.03 52.8714C135.051 52.8914 135.067 52.9156 135.078 52.9423C135.089 52.969 135.094 52.9976 135.093 53.0264V55.2143C135.094 55.243 135.089 55.2717 135.078 55.2984C135.067 55.3251 135.051 55.3492 135.03 55.3693Z" fill="#E9161C"/>
<path d="M141.461 65.5961L137.948 53.0448V52.9704C137.948 52.8589 138.018 52.8031 138.157 52.8031H141.025C141.082 52.8004 141.138 52.8176 141.183 52.8516C141.228 52.8857 141.259 52.9344 141.271 52.989L142.914 59.7388C142.914 59.7884 142.933 59.8132 142.971 59.8132C142.971 59.8132 143.015 59.8132 143.027 59.7388L144.506 53.0076C144.511 52.9495 144.538 52.8956 144.583 52.8574C144.628 52.8191 144.687 52.7996 144.746 52.8031H147.374C147.431 52.8004 147.487 52.8176 147.532 52.8516C147.577 52.8857 147.608 52.9344 147.62 52.989L149.263 59.7388C149.263 59.7884 149.282 59.8132 149.32 59.8132C149.32 59.8132 149.364 59.8132 149.377 59.7388L150.905 53.0076C150.908 52.9783 150.916 52.9497 150.93 52.9235C150.943 52.8973 150.962 52.8741 150.985 52.855C151.008 52.836 151.035 52.8217 151.063 52.8127C151.092 52.8038 151.122 52.8005 151.152 52.8031H153.95C154.127 52.8031 154.197 52.8837 154.159 53.0448L150.962 65.5961C150.946 65.6517 150.911 65.7001 150.863 65.7329C150.814 65.7657 150.756 65.7809 150.697 65.7759H147.999C147.97 65.7793 147.94 65.7768 147.911 65.7686C147.883 65.7604 147.856 65.7467 147.833 65.7281C147.81 65.7096 147.791 65.6867 147.777 65.6608C147.764 65.635 147.755 65.6066 147.753 65.5775L146.11 58.4186C146.11 58.369 146.091 58.3442 146.054 58.3442C146.054 58.3442 146.009 58.3442 145.997 58.4186L144.525 65.5775C144.522 65.6066 144.514 65.635 144.5 65.6608C144.487 65.6867 144.468 65.7096 144.445 65.7281C144.422 65.7467 144.395 65.7604 144.366 65.7686C144.338 65.7768 144.308 65.7793 144.278 65.7759H141.751C141.689 65.7874 141.624 65.7752 141.57 65.7419C141.516 65.7086 141.477 65.6565 141.461 65.5961Z" fill="#E9161C"/>
<path d="M156.926 65.3793C156.17 64.9974 155.543 64.4099 155.119 63.6872C154.682 62.9101 154.464 62.033 154.487 61.146V57.4271C154.467 56.56 154.685 55.7037 155.119 54.9478C155.543 54.2251 156.17 53.6377 156.926 53.2557C157.757 52.835 158.681 52.6221 159.617 52.6359C160.554 52.6246 161.48 52.8374 162.314 53.2557C163.074 53.6357 163.706 54.2234 164.134 54.9478C164.565 55.7047 164.783 56.5603 164.765 57.4271V61.146C164.785 62.0327 164.568 62.909 164.134 63.6872C163.706 64.4116 163.074 64.9993 162.314 65.3793C161.481 65.801 160.554 66.0139 159.617 65.9992C158.681 66.0147 157.756 65.8017 156.926 65.3793ZM161.082 62.7761C161.465 62.3545 161.665 61.8029 161.638 61.239V57.4023C161.662 56.8406 161.463 56.2917 161.082 55.8713C160.895 55.6764 160.667 55.5234 160.414 55.4229C160.162 55.3223 159.889 55.2765 159.617 55.2887C159.347 55.2792 159.079 55.3263 158.829 55.4268C158.58 55.5273 158.355 55.6788 158.17 55.8713C157.787 56.2903 157.588 56.8402 157.614 57.4023V61.239C157.585 61.8033 157.785 62.3559 158.17 62.7761C158.356 62.9675 158.581 63.1179 158.83 63.2173C159.08 63.3167 159.348 63.3628 159.617 63.3525C159.891 63.3652 160.164 63.3204 160.419 63.221C160.674 63.1216 160.905 62.9699 161.095 62.7761H161.082Z" fill="#E9161C"/>
<path d="M168.676 65.5961L165.164 53.0448V52.9704C165.164 52.8589 165.233 52.8031 165.372 52.8031H168.24C168.297 52.8004 168.353 52.8176 168.398 52.8516C168.444 52.8857 168.475 52.9344 168.487 52.989L170.129 59.7388C170.129 59.7884 170.148 59.8132 170.186 59.8132C170.186 59.8132 170.23 59.8132 170.243 59.7388L171.721 53.0076C171.724 52.9783 171.732 52.9497 171.746 52.9235C171.759 52.8973 171.778 52.8741 171.801 52.855C171.824 52.836 171.851 52.8217 171.879 52.8127C171.908 52.8038 171.938 52.8005 171.968 52.8031H174.589C174.646 52.8004 174.702 52.8176 174.747 52.8516C174.793 52.8857 174.824 52.9344 174.836 52.989L176.478 59.7388C176.478 59.7884 176.497 59.8132 176.535 59.8132C176.535 59.8132 176.579 59.8132 176.592 59.7388L178.121 53.0076C178.123 52.9783 178.132 52.9497 178.145 52.9235C178.159 52.8973 178.178 52.8741 178.201 52.855C178.224 52.836 178.25 52.8217 178.279 52.8127C178.307 52.8038 178.337 52.8005 178.367 52.8031H181.166C181.343 52.8031 181.412 52.8837 181.374 53.0448L178.153 65.5961C178.137 65.6517 178.101 65.7001 178.053 65.7329C178.004 65.7657 177.946 65.7809 177.887 65.7759H175.19C175.16 65.7793 175.13 65.7768 175.102 65.7686C175.073 65.7604 175.046 65.7467 175.023 65.7281C175 65.7096 174.981 65.6867 174.968 65.6608C174.954 65.635 174.946 65.6066 174.943 65.5775L173.301 58.4186C173.301 58.369 173.282 58.3442 173.244 58.3442C173.244 58.3442 173.2 58.3442 173.187 58.4186L171.715 65.5775C171.713 65.6066 171.704 65.635 171.691 65.6608C171.677 65.6867 171.658 65.7096 171.635 65.7281C171.612 65.7467 171.585 65.7604 171.557 65.7686C171.528 65.7768 171.498 65.7793 171.469 65.7759H168.942C168.883 65.7809 168.824 65.7657 168.776 65.7329C168.728 65.7001 168.692 65.6517 168.676 65.5961Z" fill="#E9161C"/>
</svg>
