<svg width="41" height="40" viewBox="0 0 41 40" fill="none" xmlns="http://www.w3.org/2000/svg">
<path d="M21.2604 1.24219C20.4604 1.24219 19.6599 1.54916 19.0469 2.16221L4.61133 16.5978H36.1924C36.3102 15.6716 36.0153 14.7035 35.3011 13.9893L33.5026 12.1914C32.4249 11.1138 31.411 11.5658 30.9124 11.8057C30.1099 12.1338 29.2093 12.2001 28.3443 11.9683C26.9537 11.5957 25.8676 10.5096 25.495 9.11895C25.2649 8.26013 25.3282 7.36556 25.6503 6.56733C25.9035 6.0583 26.4332 5.12141 25.3972 4.0854L23.4734 2.16221C22.8603 1.54916 22.0605 1.24219 21.2604 1.24219Z" fill="url(#paint0_linear_28356_73067)"/>
<path d="M19.454 8.07812C18.654 8.07812 17.8541 8.3851 17.2411 8.99815L9.64062 16.598H29.004C28.8537 16.2801 28.6501 15.9807 28.3865 15.7171L21.667 8.99815C21.0539 8.3851 20.2541 8.07812 19.454 8.07812Z" fill="url(#paint1_linear_28356_73067)"/>
<path d="M18.7695 9.44667L18.9896 9.22656L19.4316 9.6685L19.2115 9.88861L18.7695 9.44667ZM19.874 10.5511L20.0941 10.331L20.536 10.7729L20.3159 10.993L19.874 10.5511ZM20.9784 11.6555L21.1985 11.4354L21.6404 11.8774L21.4203 12.0975L20.9784 11.6555ZM22.0841 12.7612L22.3042 12.5411L22.7462 12.9831L22.526 13.2032L22.0841 12.7612ZM23.1885 13.8657L23.4086 13.6455L23.8506 14.0875L23.6305 14.3076L23.1885 13.8657ZM24.2929 14.9701L24.5131 14.75L24.955 15.1919L24.7349 15.412L24.2929 14.9701Z" fill="#8F0B30"/>
<path d="M4.86914 15.7969C3.13789 15.7969 1.74414 17.1906 1.74414 18.9219V21.6379C1.74414 23.1008 2.77947 23.3885 3.31763 23.5691C4.10858 23.9052 4.78478 24.4916 5.22864 25.2604C5.94736 26.5052 5.94736 28.039 5.22864 29.2838C4.78159 30.0581 4.09881 30.6475 3.30054 30.9824C2.77926 31.1651 1.74414 31.5616 1.74414 33.0833V35.6223C1.74414 37.3536 3.13789 38.7473 4.86914 38.7473H36.1301C37.8614 38.7473 39.2551 37.3536 39.2551 35.6223V33.0833C39.2551 31.5616 38.22 31.1651 37.6987 30.9824C36.9005 30.6475 36.2177 30.0581 35.7706 29.2838C35.0519 28.039 35.0519 26.5052 35.7706 25.2604C36.2145 24.4916 36.8907 23.9052 37.6816 23.5691C38.2198 23.3885 39.2551 23.1008 39.2551 21.6379V18.9219C39.2551 17.1906 37.8614 15.7969 36.1301 15.7969H4.86914Z" fill="url(#paint2_linear_28356_73067)"/>
<path d="M10.9707 35.0853H30.0301C31.7614 35.0853 33.1551 33.6915 33.1551 31.9603V22.4727C33.1551 20.7414 31.7614 19.3477 30.0301 19.3477H10.9707C9.23945 19.3477 7.8457 20.7414 7.8457 22.4727V31.9603C7.8457 33.6915 9.23945 35.0853 10.9707 35.0853Z" fill="url(#paint3_linear_28356_73067)"/>
<path d="M28.9434 15.7969V16.9211C28.9438 17.7835 29.0179 18.482 29.8802 18.4824C30.7426 18.482 30.8161 17.7835 30.8165 16.9211V15.7969H28.9434ZM29.8802 21.4261C29.0179 21.4266 28.9438 22.1257 28.9434 22.988V24.2386C28.9438 25.101 29.0179 25.8001 29.8802 25.8005C30.7426 25.8001 30.8161 25.101 30.8165 24.2386V22.988C30.8161 22.1257 30.7426 21.4266 29.8802 21.4261ZM29.8802 28.7437C29.0179 28.7441 28.9438 29.4432 28.9434 30.3055V31.5562C28.9438 32.4185 29.0179 33.1176 29.8802 33.118C30.7426 33.1177 30.8161 32.4185 30.8165 31.5562V30.3055C30.8161 29.4432 30.7426 28.7441 29.8802 28.7437ZM29.8802 36.0618C29.0179 36.0621 28.9438 36.7607 28.9434 37.623V38.7473H30.8165V37.623C30.8161 36.7607 30.7426 36.0622 29.8802 36.0618Z" fill="url(#paint4_linear_28356_73067)"/>
<path d="M9.97534 19.875H9.66406V20.5H9.97534V19.875ZM9.97534 21.4387H9.66406V22.0637H9.97534V21.4387ZM9.97534 23.0006H9.66406V23.6256H9.97534V23.0006ZM9.97534 24.5625H9.66406V25.1875H9.97534V24.5625ZM9.97534 26.1262H9.66406V26.7512H9.97534V26.1262ZM9.97534 27.6881H9.66406V28.3131H9.97534V27.6881ZM9.97534 29.25H9.66406V29.875H9.97534V29.25ZM9.97534 30.8137H9.66406V31.4387H9.97534V30.8137ZM9.97534 32.3756H9.66406V33.0006H9.97534V32.3756ZM9.97534 33.9375H9.66406V34.5625H9.97534V33.9375Z" fill="#8F0B30"/>
<path d="M22.4464 31.6066C21.5973 32.2299 20.4175 30.7723 19.3642 30.7775C18.3109 30.7827 17.1455 32.2518 16.2903 31.6368C15.4351 31.0219 16.4568 29.4494 16.1264 28.4493C15.796 27.4492 14.0386 26.7947 14.3592 25.7914C14.6797 24.7881 16.491 25.2738 17.3401 24.6505C18.1892 24.0272 18.2685 22.1536 19.3218 22.1484C20.3751 22.1433 20.4728 24.016 21.328 24.6309C22.1831 25.2458 23.9896 24.7423 24.32 25.7424C24.6504 26.7425 22.8995 27.4142 22.579 28.4176C22.2584 29.4209 23.2955 30.9833 22.4464 31.6066Z" fill="url(#paint5_linear_28356_73067)"/>
<defs>
<linearGradient id="paint0_linear_28356_73067" x1="21.2588" y1="17.1466" x2="21.2588" y2="1.24016" gradientUnits="userSpaceOnUse">
<stop stop-color="#FF7E3F"/>
<stop offset="1" stop-color="#FFBE3F"/>
</linearGradient>
<linearGradient id="paint1_linear_28356_73067" x1="19.4494" y1="16.9684" x2="19.4485" y2="8.07422" gradientUnits="userSpaceOnUse">
<stop stop-color="#D90947"/>
<stop offset="1" stop-color="#FF585B"/>
</linearGradient>
<linearGradient id="paint2_linear_28356_73067" x1="20.537" y1="38.8084" x2="20.537" y2="15.6958" gradientUnits="userSpaceOnUse">
<stop stop-color="#FF7E3F"/>
<stop offset="1" stop-color="#FFBE3F"/>
</linearGradient>
<linearGradient id="paint3_linear_28356_73067" x1="20.3878" y1="34.5466" x2="20.3878" y2="18.9206" gradientUnits="userSpaceOnUse">
<stop stop-color="#D90947"/>
<stop offset="1" stop-color="#FF585B"/>
</linearGradient>
<linearGradient id="paint4_linear_28356_73067" x1="31.4906" y1="15.822" x2="28.3626" y2="38.8084" gradientUnits="userSpaceOnUse">
<stop stop-color="#F5F8FF"/>
<stop offset="1" stop-color="#A0C9FF"/>
</linearGradient>
<linearGradient id="paint5_linear_28356_73067" x1="19.2696" y1="21.8156" x2="19.2696" y2="30.722" gradientUnits="userSpaceOnUse">
<stop stop-color="#F5F8FF"/>
<stop offset="1" stop-color="#A0C9FF"/>
</linearGradient>
</defs>
</svg>
