<svg width="56" height="55" viewBox="0 0 56 55" fill="none" xmlns="http://www.w3.org/2000/svg">
<circle cx="23.6668" cy="21.832" r="17.3555" fill="white"/>
<path d="M28.3886 54.6156C13.2128 54.6156 0.943327 42.4024 0.949771 27.2981C0.949771 12.1939 13.2322 -0.0128391 28.4079 1.01348e-05C43.5773 0.0128593 55.8404 12.2389 55.8339 27.3367C55.8275 42.4088 43.5515 54.6091 28.3951 54.6091L28.3886 54.6156ZM10.0681 27.8314C10.0681 27.8314 10.0875 27.8571 10.1003 27.8699L10.1326 28.0305C10.1455 28.9493 10.255 29.8551 10.4354 30.7546C11.1185 34.1982 12.6844 37.1985 15.0881 39.749C16.8086 41.58 18.8385 42.9806 21.1455 43.9764C22.9885 44.7666 24.9088 45.2742 26.9065 45.3962C28.6528 45.499 30.4056 45.4541 32.1391 45.075C36.521 44.1177 40.1168 41.8948 42.862 38.3742C44.8017 35.8878 46.0196 33.0739 46.4771 29.9387C46.7349 28.1847 46.7542 26.4308 46.5093 24.6833C46.1936 22.454 45.4783 20.3467 44.3635 18.3744C43.2486 16.402 41.8309 14.6802 40.0846 13.2411C37.7261 11.3073 35.0518 10.0031 32.0488 9.40563C31.166 9.23216 30.2767 9.04585 29.3617 9.11652L29.0266 9.0587C28.8913 8.96875 28.7624 8.86596 28.6206 8.78887C23.8778 6.18048 19.1027 6.14193 14.4694 8.93021C7.72248 12.9906 6.05992 21.6316 10.0617 27.8378L10.0681 27.8314Z" fill="#F9B319"/>
<path d="M29.3682 9.11644C30.2833 9.04577 31.1725 9.23208 32.0554 9.40555C35.0583 10.003 37.7326 11.3008 40.0911 13.241C41.8375 14.6801 43.2552 16.3955 44.37 18.3743C45.4784 20.3466 46.2001 22.4539 46.5159 24.6833C46.7607 26.4307 46.7414 28.1782 46.4837 29.9386C46.0261 33.0738 44.8082 35.8942 42.8685 38.3741C40.1234 41.8948 36.5276 44.1177 32.1456 45.0749C30.4121 45.454 28.6594 45.499 26.913 45.3962C24.9154 45.2805 22.9886 44.7666 21.152 43.9763C18.8386 42.9869 16.8087 41.58 15.0946 39.7489C12.691 37.1919 11.125 34.1981 10.442 30.7545C10.2615 29.8551 10.1584 28.9492 10.1391 28.0305C10.2358 28.1461 10.3389 28.2489 10.4162 28.371C11.1186 29.3861 11.9434 30.3048 12.9101 31.0757C16.1192 33.6134 19.7472 34.6607 23.8263 34.0246C27.2932 33.485 30.1544 31.8403 32.3389 29.1291C34.9101 25.936 35.8638 22.2676 35.1808 18.2265C34.575 14.6544 32.7578 11.7891 29.8708 9.59186C29.6904 9.45694 29.4326 9.37985 29.3682 9.11644Z" fill="#F27024"/>
<path d="M29.3683 9.11638C29.4327 9.37979 29.6905 9.45689 29.8709 9.5918C32.7579 11.789 34.5751 14.6544 35.1809 18.2265C35.8639 22.2675 34.9102 25.936 32.339 29.129C30.1545 31.8402 27.2933 33.4849 23.8264 34.0246C19.7473 34.6606 16.1193 33.6198 12.9101 31.0757C11.9435 30.3111 11.1251 29.3924 10.4163 28.3709C10.3325 28.2488 10.2294 28.146 10.1392 28.0304C10.1263 27.979 10.1199 27.9212 10.107 27.8698C10.1456 27.8377 10.1972 27.8055 10.1328 27.7541C10.0425 26.6234 10.1327 25.4991 10.339 24.3941C11.6407 17.3848 15.6682 12.6242 22.3378 10.0801C24.4901 9.25772 26.7456 9.00716 29.0397 9.05214L29.3747 9.10996L29.3683 9.11638Z" fill="#EB2228"/>
<path d="M10.075 27.8315C10.075 27.8315 10.1136 27.7801 10.1265 27.7544C10.191 27.8122 10.1394 27.8379 10.1008 27.8765C10.0879 27.8636 10.0814 27.8508 10.0685 27.8379L10.075 27.8315Z" fill="#F27024"/>
</svg>
