<svg width="55" height="55" viewBox="0 0 55 55" fill="none" xmlns="http://www.w3.org/2000/svg">
<g opacity="0.5">
<circle cx="22.717" cy="22.2164" r="17.3555" fill="white"/>
<path d="M27.4388 55.0001C12.2631 55.0001 -0.00644153 42.7869 2.53721e-06 27.6827C2.53721e-06 12.5784 12.2824 0.371682 27.4582 0.384532C42.6275 0.397381 54.8906 12.6234 54.8841 27.7212C54.8777 42.7933 42.6017 54.9936 27.4453 54.9936L27.4388 55.0001ZM9.11836 28.2159C9.11836 28.2159 9.13769 28.2416 9.15058 28.2545L9.1828 28.4151C9.19569 29.3338 9.30523 30.2397 9.48566 31.1391C10.1687 34.5827 11.7346 37.583 14.1383 40.1335C15.8588 41.9646 17.8887 43.3651 20.1957 44.3609C22.0387 45.1512 23.9591 45.6587 25.9567 45.7808C27.7031 45.8836 29.4558 45.8386 31.1893 45.4595C35.5713 44.5023 39.1671 42.2794 41.9122 38.7587C43.8519 36.2724 45.0698 33.4584 45.5274 30.3232C45.7851 28.5693 45.8045 26.8153 45.5596 25.0679C45.2438 22.8385 44.5285 20.7312 43.4137 18.7589C42.2989 16.7865 40.8812 15.0647 39.1348 13.6256C36.7763 11.6918 34.102 10.3876 31.0991 9.79015C30.2162 9.61668 29.327 9.43037 28.4119 9.50104L28.0768 9.44322C27.9415 9.35328 27.8126 9.25048 27.6708 9.17339C22.928 6.565 18.1529 6.52645 13.5197 9.31473C6.77272 13.3751 5.11015 22.0162 9.11192 28.2223L9.11836 28.2159Z" fill="#F9B319"/>
<path d="M28.4184 9.50096C29.3335 9.43029 30.2228 9.6166 31.1056 9.79007C34.1085 10.3876 36.7828 11.6853 39.1414 13.6256C40.8877 15.0647 42.3054 16.78 43.4202 18.7588C44.5286 20.7312 45.2503 22.8384 45.5661 25.0678C45.811 26.8153 45.7916 28.5628 45.5339 30.3231C45.0764 33.4583 43.8584 36.2787 41.9188 38.7586C39.1736 42.2793 35.5778 44.5022 31.1958 45.4595C29.4624 45.8385 27.7096 45.8835 25.9632 45.7807C23.9656 45.665 22.0388 45.1511 20.2022 44.3609C17.8888 43.3715 15.8589 41.9645 14.1448 40.1335C11.7412 37.5765 10.1753 34.5826 9.4922 31.139C9.31177 30.2396 9.20866 29.3337 9.18933 28.415C9.28599 28.5306 9.38909 28.6334 9.46642 28.7555C10.1688 29.7706 10.9937 30.6893 11.9603 31.4603C15.1694 33.998 18.7974 35.0452 22.8765 34.4091C26.3435 33.8695 29.2046 32.2248 31.3892 29.5136C33.9603 26.3206 34.9141 22.6521 34.231 18.611C33.6252 15.039 31.808 12.1736 28.9211 9.97638C28.7406 9.84147 28.4829 9.76437 28.4184 9.50096Z" fill="#F27024"/>
<path d="M28.4185 9.5009C28.483 9.76431 28.7407 9.84141 28.9212 9.97632C31.8081 12.1735 33.6253 15.0389 34.2311 18.611C34.9142 22.6521 33.9604 26.3205 31.3892 29.5135C29.2047 32.2247 26.3435 33.8694 22.8766 34.4091C18.7975 35.0451 15.1695 34.0043 11.9604 31.4602C10.9938 30.6957 10.1754 29.7769 9.46652 28.7554C9.38274 28.6334 9.27964 28.5306 9.18943 28.4149C9.17654 28.3635 9.17009 28.3057 9.1572 28.2543C9.19587 28.2222 9.24743 28.1901 9.18298 28.1387C9.09277 27.0079 9.18298 25.8836 9.38919 24.7786C10.6909 17.7694 14.7184 13.0087 21.388 10.4646C23.5404 9.64225 25.7958 9.39169 28.0899 9.43666L28.425 9.49448L28.4185 9.5009Z" fill="#EB2228"/>
<path d="M9.12521 28.216C9.12521 28.216 9.16388 28.1646 9.17677 28.1389C9.24121 28.1967 9.18966 28.2224 9.151 28.261C9.13811 28.2481 9.13166 28.2353 9.11877 28.2224L9.12521 28.216Z" fill="#F27024"/>
</g>
</svg>
