<svg width="64" height="32" viewBox="0 0 64 32" fill="none" xmlns="http://www.w3.org/2000/svg">
<path fill-rule="evenodd" clip-rule="evenodd" d="M15 11C14.4477 11 14 11.4477 14 12V21C14 21.5523 14.4477 22 15 22H25C25.5523 22 26 21.5523 26 21V12C26 11.4477 25.5523 11 25 11H15ZM13 12C13 10.8954 13.8954 10 15 10H25C26.1046 10 27 10.8954 27 12V21C27 22.1046 26.1046 23 25 23H15C13.8954 23 13 22.1046 13 21V12Z" fill="#EB2227"/>
<path d="M24.4319 10.5H15.5681C14.4278 10.5 13.5 11.4422 13.5 12.6V14.5H14C14 14 14.5 13.5 15 13.5H25C25.5 13.5 26 14 26 14.5H26.5V12.6C26.5 11.4422 25.5722 10.5 24.4319 10.5Z" fill="#EB2227"/>
<path d="M21.25 16C21.6642 16 22 15.6642 22 15.25C22 14.8358 21.6642 14.5 21.25 14.5C20.8358 14.5 20.5 14.8358 20.5 15.25C20.5 15.6642 20.8358 16 21.25 16Z" fill="#EB2227"/>
<path d="M23.75 16C24.1642 16 24.5 15.6642 24.5 15.25C24.5 14.8358 24.1642 14.5 23.75 14.5C23.3358 14.5 23 14.8358 23 15.25C23 15.6642 23.3358 16 23.75 16Z" fill="#EB2227"/>
<path d="M21.25 18.5C21.6642 18.5 22 18.1642 22 17.75C22 17.3358 21.6642 17 21.25 17C20.8358 17 20.5 17.3358 20.5 17.75C20.5 18.1642 20.8358 18.5 21.25 18.5Z" fill="#EB2227"/>
<path d="M23.75 18.5C24.1642 18.5 24.5 18.1642 24.5 17.75C24.5 17.3358 24.1642 17 23.75 17C23.3358 17 23 17.3358 23 17.75C23 18.1642 23.3358 18.5 23.75 18.5Z" fill="#EB2227"/>
<path d="M16.25 18.5C16.6642 18.5 17 18.1642 17 17.75C17 17.3358 16.6642 17 16.25 17C15.8358 17 15.5 17.3358 15.5 17.75C15.5 18.1642 15.8358 18.5 16.25 18.5Z" fill="#EB2227"/>
<path d="M18.75 18.5C19.1642 18.5 19.5 18.1642 19.5 17.75C19.5 17.3358 19.1642 17 18.75 17C18.3358 17 18 17.3358 18 17.75C18 18.1642 18.3358 18.5 18.75 18.5Z" fill="#EB2227"/>
<path d="M16.25 21C16.6642 21 17 20.6642 17 20.25C17 19.8358 16.6642 19.5 16.25 19.5C15.8358 19.5 15.5 19.8358 15.5 20.25C15.5 20.6642 15.8358 21 16.25 21Z" fill="#EB2227"/>
<path d="M18.75 21C19.1642 21 19.5 20.6642 19.5 20.25C19.5 19.8358 19.1642 19.5 18.75 19.5C18.3358 19.5 18 19.8358 18 20.25C18 20.6642 18.3358 21 18.75 21Z" fill="#EB2227"/>
<path d="M21.25 21C21.6642 21 22 20.6642 22 20.25C22 19.8358 21.6642 19.5 21.25 19.5C20.8358 19.5 20.5 19.8358 20.5 20.25C20.5 20.6642 20.8358 21 21.25 21Z" fill="#EB2227"/>
<path fill-rule="evenodd" clip-rule="evenodd" d="M16 9C16.2761 9 16.5 9.22386 16.5 9.5V10.5C16.5 10.7761 16.2761 11 16 11C15.7239 11 15.5 10.7761 15.5 10.5V9.5C15.5 9.22386 15.7239 9 16 9Z" fill="#EB2227"/>
<path fill-rule="evenodd" clip-rule="evenodd" d="M24 9C24.2761 9 24.5 9.22386 24.5 9.5V10.5C24.5 10.7761 24.2761 11 24 11C23.7239 11 23.5 10.7761 23.5 10.5V9.5C23.5 9.22386 23.7239 9 24 9Z" fill="#EB2227"/>
<path fill-rule="evenodd" clip-rule="evenodd" d="M49.7621 12.9008C49.4448 12.5904 48.9305 12.5904 48.6132 12.9008L44 17.4154L39.3868 12.9008C39.0695 12.5904 38.5552 12.5904 38.2379 12.9008C37.9207 13.2113 37.9207 13.7146 38.2379 14.0251L43.4256 19.1018C43.7428 19.4122 44.2572 19.4122 44.5744 19.1018L49.7621 14.0251C50.0793 13.7146 50.0793 13.2113 49.7621 12.9008Z" fill="#EB2227"/>
<rect x="0.5" y="0.5" width="63" height="31" rx="1.5" stroke="#EB2227"/>
</svg>
