<svg width="16" height="16" viewBox="0 0 16 16" fill="none" xmlns="http://www.w3.org/2000/svg">
<path fill-rule="evenodd" clip-rule="evenodd" d="M8.15397 1.50024C11.6728 1.58193 14.5004 4.46155 14.5004 8.00007C14.5004 11.5931 11.596 14.5068 7.99943 14.5001C4.39984 14.4933 1.46053 11.5352 1.5004 7.93222C1.51667 6.35654 2.10518 4.8405 3.15631 3.66654C3.34051 3.46081 3.65661 3.44336 3.86234 3.62757C4.06807 3.81177 4.08552 4.12787 3.90131 4.3336C3.01198 5.32686 2.51407 6.60956 2.50035 7.94272L2.50034 7.94312C2.46657 10.9869 4.9541 13.4943 8.00131 13.5001C11.0423 13.5058 13.5004 11.0427 13.5004 8.00007C13.5004 5.13076 11.3031 2.77349 8.50037 2.52087V4.75007C8.50037 5.02621 8.27651 5.25007 8.00037 5.25007C7.72423 5.25007 7.50037 5.02621 7.50037 4.75007V2.13713C7.50026 2.05201 7.51722 1.96773 7.55026 1.88929C7.58341 1.81056 7.63208 1.73932 7.69337 1.67981C7.75465 1.6203 7.82728 1.57374 7.90695 1.5429C7.98566 1.51243 8.06963 1.49794 8.15397 1.50024Z" fill="white"/>
<path d="M7.29379 8.70614L4.82503 5.17488C4.79088 5.12595 4.77504 5.06657 4.78028 5.00713C4.78552 4.94769 4.81152 4.892 4.85371 4.8498C4.8959 4.80761 4.9516 4.78162 5.01103 4.77637C5.07047 4.77113 5.12986 4.78697 5.17879 4.82113L8.71004 7.28988C8.92664 7.44588 9.07312 7.68088 9.11779 7.94404C9.16246 8.2072 9.10174 8.47737 8.94876 8.6961C8.79577 8.91484 8.56283 9.06455 8.30031 9.11287C8.03779 9.16118 7.76681 9.1042 7.54598 8.95426C7.44833 8.8866 7.36303 8.80267 7.29379 8.70614Z" fill="white"/>
</svg>
