<svg width="24" height="24" viewBox="0 0 24 24" fill="none" xmlns="http://www.w3.org/2000/svg">
<path d="M22.08 12.9401H22.54C22.6398 12.9401 22.7386 12.9204 22.8308 12.8822C22.923 12.844 23.0068 12.788 23.0774 12.7175C23.148 12.6469 23.204 12.5631 23.2422 12.4709C23.2803 12.3787 23.3 12.2799 23.3 12.1801V10.3201C23.3012 9.68935 23.074 9.07955 22.6603 8.60343C22.2467 8.1273 21.6747 7.81705 21.05 7.73006L19.64 3.73006C19.4804 3.3201 19.169 2.98742 18.7704 2.80118C18.3719 2.61494 17.9169 2.58946 17.5 2.73006L3.72 7.70006H3.29C2.59952 7.70534 1.93927 7.98403 1.45384 8.47509C0.9684 8.96615 0.697335 9.62956 0.700001 10.3201V12.1801C0.700001 12.3816 0.780072 12.5749 0.9226 12.7175C0.993173 12.788 1.07695 12.844 1.16916 12.8822C1.26137 12.9204 1.3602 12.9401 1.46 12.9401H1.92C2.33374 12.9401 2.73053 13.1044 3.02309 13.397C3.31564 13.6895 3.48 14.0863 3.48 14.5001C3.48 14.9138 3.31564 15.3106 3.02309 15.6031C2.73053 15.8957 2.33374 16.0601 1.92 16.0601H1.46C1.3602 16.0601 1.26137 16.0797 1.16916 16.1179C1.07695 16.1561 0.993173 16.2121 0.9226 16.2827C0.780072 16.4252 0.700001 16.6185 0.700001 16.8201V18.6801C0.697335 19.3705 0.9684 20.034 1.45384 20.525C1.93927 21.0161 2.59952 21.2948 3.29 21.3001H20.71C21.4005 21.2948 22.0607 21.0161 22.5462 20.525C23.0316 20.034 23.3027 19.3705 23.3 18.6801V16.8201C23.3 16.7203 23.2803 16.6214 23.2422 16.5292C23.204 16.437 23.148 16.3532 23.0774 16.2827C23.0068 16.2121 22.923 16.1561 22.8308 16.1179C22.7386 16.0797 22.6398 16.0601 22.54 16.0601H22.08C21.8781 16.0611 21.6782 16.0208 21.4924 15.9417C21.3067 15.8626 21.1391 15.7463 21 15.6001C20.7842 15.3831 20.637 15.1075 20.5766 14.8076C20.5162 14.5076 20.5454 14.1965 20.6605 13.913C20.7757 13.6295 20.9716 13.3861 21.224 13.2131C21.4764 13.0401 21.7741 12.9451 22.08 12.9401ZM19 14.5001C18.9989 14.9048 19.0778 15.3058 19.2323 15.6799C19.3868 16.0541 19.6137 16.394 19.9 16.6801C20.3943 17.1814 21.0492 17.4929 21.75 17.5601V18.6801C21.7513 18.8219 21.7247 18.9626 21.6716 19.0941C21.6186 19.2257 21.5401 19.3455 21.4408 19.4467C21.3414 19.5479 21.2231 19.6285 21.0925 19.684C20.962 19.7395 20.8218 19.7687 20.68 19.7701H9.3V19.5001C9.3 19.395 9.27931 19.291 9.2391 19.1939C9.1989 19.0968 9.13997 19.0087 9.06569 18.9344C8.9914 18.8601 8.90321 18.8012 8.80615 18.761C8.70909 18.7207 8.60506 18.7001 8.5 18.7001C8.39494 18.7001 8.29091 18.7207 8.19385 18.761C8.09679 18.8012 8.0086 18.8601 7.93432 18.9344C7.86003 19.0087 7.8011 19.0968 7.7609 19.1939C7.72069 19.291 7.7 19.395 7.7 19.5001V19.7701H3.29C3.14817 19.7687 3.00799 19.7395 2.87746 19.684C2.74693 19.6285 2.6286 19.5479 2.52924 19.4467C2.42988 19.3455 2.35143 19.2257 2.29837 19.0941C2.24531 18.9626 2.21868 18.8219 2.22 18.6801V17.5501C2.96873 17.4642 3.6597 17.1059 4.16132 16.5434C4.66294 15.981 4.94014 15.2537 4.94014 14.5001C4.94014 13.7464 4.66294 13.0191 4.16132 12.4567C3.6597 11.8942 2.96873 11.5359 2.22 11.4501V10.3201C2.21942 10.048 2.32249 9.78593 2.50826 9.58716C2.69402 9.38839 2.94852 9.26785 3.22 9.25006C3.30302 9.28201 3.39106 9.29894 3.48 9.30006C3.56923 9.30199 3.65785 9.28495 3.74 9.25006H3.81H7.7V9.50006C7.7 9.71223 7.78429 9.91571 7.93432 10.0657C8.08434 10.2158 8.28783 10.3001 8.5 10.3001C8.71217 10.3001 8.91566 10.2158 9.06569 10.0657C9.21572 9.91571 9.3 9.71223 9.3 9.50006V9.23006H20.23C20.4101 9.30034 20.61 9.30034 20.79 9.23006C21.0615 9.24785 21.316 9.3684 21.5017 9.56716C21.6875 9.76593 21.7906 10.028 21.79 10.3001V11.4301C21.0244 11.4979 20.3123 11.8513 19.7954 12.4201C19.2784 12.9889 18.9945 13.7315 19 14.5001ZM19.42 7.70006H8.08L18 4.16006C18.0374 4.14824 18.0778 4.14975 18.1143 4.16434C18.1507 4.17892 18.181 4.20567 18.2 4.24006L18.46 4.14006L18.18 4.25006L19.42 7.70006Z" fill="#8C8C8C"/>
<path d="M8.50001 11.7001C8.29741 11.6919 8.09977 11.764 7.94999 11.9007C7.80021 12.0374 7.71038 12.2276 7.70001 12.4301V13.9001C7.70001 14.1123 7.7843 14.3157 7.93433 14.4658C8.08436 14.6158 8.28784 14.7001 8.50001 14.7001C8.71219 14.7001 8.91567 14.6158 9.0657 14.4658C9.21573 14.3157 9.30001 14.1123 9.30001 13.9001V12.4301C9.28964 12.2276 9.19982 12.0374 9.05004 11.9007C8.90026 11.764 8.70261 11.6919 8.50001 11.7001Z" fill="#8C8C8C"/>
<path d="M8.50001 15.37C8.29741 15.3618 8.09977 15.4339 7.94999 15.5706C7.80021 15.7073 7.71038 15.8975 7.70001 16.1V17.57C7.70001 17.7822 7.7843 17.9857 7.93433 18.1357C8.08436 18.2857 8.28784 18.37 8.50001 18.37C8.71219 18.37 8.91567 18.2857 9.0657 18.1357C9.21573 17.9857 9.30001 17.7822 9.30001 17.57V16.1C9.28964 15.8975 9.19982 15.7073 9.05004 15.5706C8.90026 15.4339 8.70261 15.3618 8.50001 15.37Z" fill="#8C8C8C"/>
</svg>
