<svg width="41" height="40" viewBox="0 0 41 40" fill="none" xmlns="http://www.w3.org/2000/svg">
<path d="M35.4172 15.3323C34.6676 13.1659 35.834 10.7491 38.0004 9.99868L36.334 5.24908C36.0004 4.41548 35.0844 3.91548 34.254 4.24908L2.75 15.1651C2.75 15.1651 36.1668 17.4987 35.4172 15.3323Z" fill="url(#paint0_linear_28356_72282)"/>
<path d="M20.0836 9.16486L2.75 15.1649C2.75 15.1649 36.1668 17.4985 35.4164 15.3313C34.666 13.1641 35.8332 10.7481 37.9996 9.99766L37.666 9.16406L20.0836 9.16486Z" fill="url(#paint1_linear_28356_72282)"/>
<path d="M34.6672 24.9969C34.6618 24.4482 34.7659 23.9041 34.9734 23.3962C35.1809 22.8882 35.4876 22.4268 35.8756 22.0389C36.2635 21.6509 36.725 21.3442 37.2329 21.1367C37.7408 20.9292 38.2849 20.8251 38.8336 20.8305V15.8305C38.8323 15.3889 38.6563 14.9658 38.3441 14.6535C38.0319 14.3413 37.6087 14.1653 37.1672 14.1641H3.83437C3.3928 14.1653 2.96968 14.3413 2.65745 14.6535C2.34521 14.9658 2.16924 15.3889 2.16797 15.8305V20.8305C3.27307 20.8305 4.33291 21.2695 5.11434 22.0509C5.89577 22.8323 6.33477 23.8922 6.33477 24.9973C6.33477 26.1024 5.89577 27.1622 5.11434 27.9436C4.33291 28.7251 3.27307 29.1641 2.16797 29.1641V34.1641C2.16924 34.6056 2.34521 35.0288 2.65745 35.341C2.96968 35.6532 3.3928 35.8292 3.83437 35.8305H37.1672C37.6087 35.8292 38.0319 35.6532 38.3441 35.341C38.6563 35.0288 38.8323 34.6056 38.8336 34.1641V29.1641C38.2849 29.1694 37.7406 29.0653 37.2327 28.8577C36.7247 28.6502 36.2632 28.3434 35.8753 27.9554C35.4873 27.5673 35.1806 27.1058 34.9732 26.5978C34.7658 26.0898 34.6617 25.5456 34.6672 24.9969Z" fill="url(#paint2_linear_28356_72282)"/>
<path d="M38.834 20.8305V15.8305C38.8327 15.3889 38.6567 14.9658 38.3445 14.6535C38.0323 14.3413 37.6091 14.1653 37.1676 14.1641H23.834V35.8305H37.1668C37.6083 35.8292 38.0315 35.6532 38.3437 35.341C38.6559 35.0288 38.8319 34.6056 38.8332 34.1641V29.1641C37.7281 29.1641 36.6682 28.7251 35.8868 27.9436C35.1054 27.1622 34.6664 26.1024 34.6664 24.9973C34.6664 23.8922 35.1054 22.8323 35.8868 22.0509C36.6682 21.2695 37.7281 20.8305 38.8332 20.8305H38.834Z" fill="url(#paint3_linear_28356_72282)"/>
<path d="M34.6664 24.9969C34.6611 24.4482 34.7652 23.9041 34.9727 23.3962C35.1802 22.8882 35.4868 22.4268 35.8748 22.0389C36.2628 21.6509 36.7242 21.3442 37.2321 21.1367C37.74 20.9292 38.2842 20.8251 38.8328 20.8305V15.8305C38.8315 15.3889 38.6556 14.9658 38.3433 14.6535C38.0311 14.3413 37.608 14.1653 37.1664 14.1641H30.5V35.8305H37.1664C37.608 35.8292 38.0311 35.6532 38.3433 35.341C38.6556 35.0288 38.8315 34.6056 38.8328 34.1641V29.1641C38.2841 29.1694 37.7399 29.0653 37.2319 28.8577C36.7239 28.6502 36.2625 28.3434 35.8745 27.9554C35.4865 27.5673 35.1799 27.1058 34.9724 26.5978C34.765 26.0898 34.6609 25.5456 34.6664 24.9969Z" fill="url(#paint4_linear_28356_72282)"/>
<path d="M17.1676 21.6664H12.1676C11.6676 21.6664 11.334 21.3328 11.334 20.8328C11.334 20.3328 11.6676 20 12.1676 20H17.1676C17.6676 20 18.0012 20.3336 18.0012 20.8336C18.0012 21.3336 17.6676 21.6664 17.1676 21.6664Z" fill="url(#paint5_linear_28356_72282)"/>
<path d="M23.0012 25.8313H12.1676C11.6676 25.8313 11.334 25.4977 11.334 24.9977C11.334 24.4977 11.6676 24.1641 12.1676 24.1641H23.0012C23.5012 24.1641 23.8348 24.4977 23.8348 24.9977C23.8348 25.4977 23.5012 25.8313 23.0012 25.8313Z" fill="url(#paint6_linear_28356_72282)"/>
<path d="M23.0012 29.9992H12.1676C11.6676 29.9992 11.334 29.6656 11.334 29.1656C11.334 28.6656 11.6676 28.332 12.1676 28.332H23.0012C23.5012 28.332 23.8348 28.6656 23.8348 29.1656C23.8348 29.6656 23.5012 29.9992 23.0012 29.9992Z" fill="url(#paint7_linear_28356_72282)"/>
<defs>
<linearGradient id="paint0_linear_28356_72282" x1="9.24931" y1="15.0427" x2="8.69495" y2="6.38298" gradientUnits="userSpaceOnUse">
<stop stop-color="#BA0B00"/>
<stop offset="1" stop-color="#EF7272"/>
</linearGradient>
<linearGradient id="paint1_linear_28356_72282" x1="20.7277" y1="12.6879" x2="20.7435" y2="12.9231" gradientUnits="userSpaceOnUse">
<stop stop-color="#037CFF" stop-opacity="0"/>
<stop offset="1" stop-color="#0063CC"/>
</linearGradient>
<linearGradient id="paint2_linear_28356_72282" x1="2.16717" y1="25.1309" x2="30.767" y2="25.1309" gradientUnits="userSpaceOnUse">
<stop stop-color="#FFCA4F"/>
<stop offset="1" stop-color="#F7AE30"/>
</linearGradient>
<linearGradient id="paint3_linear_28356_72282" x1="23.834" y1="25.1309" x2="30.734" y2="25.1309" gradientUnits="userSpaceOnUse">
<stop stop-color="#FFCA4F" stop-opacity="0"/>
<stop offset="1" stop-color="#F4901F"/>
</linearGradient>
<linearGradient id="paint4_linear_28356_72282" x1="30.5" y1="25.1309" x2="38.8336" y2="25.1309" gradientUnits="userSpaceOnUse">
<stop stop-color="#E40000"/>
<stop offset="1" stop-color="#FF4343"/>
</linearGradient>
<linearGradient id="paint5_linear_28356_72282" x1="14.668" y1="20.1003" x2="14.668" y2="21.7667" gradientUnits="userSpaceOnUse">
<stop stop-color="#3F4C56"/>
<stop offset="1" stop-color="#27333E"/>
</linearGradient>
<linearGradient id="paint6_linear_28356_72282" x1="17.5848" y1="24.231" x2="17.5848" y2="26.0307" gradientUnits="userSpaceOnUse">
<stop stop-color="#3F4C56"/>
<stop offset="1" stop-color="#27333E"/>
</linearGradient>
<linearGradient id="paint7_linear_28356_72282" x1="17.5848" y1="28.4998" x2="17.5848" y2="30.0828" gradientUnits="userSpaceOnUse">
<stop stop-color="#3F4C56"/>
<stop offset="1" stop-color="#27333E"/>
</linearGradient>
</defs>
</svg>
