<svg width="32" height="33" viewBox="0 0 32 33" fill="none" xmlns="http://www.w3.org/2000/svg">
<path d="M15.9981 32.5C7.14993 32.5 -0.00375571 25.3441 1.47931e-06 16.4944C1.47931e-06 7.64457 7.1612 0.492477 16.0094 0.500006C24.8538 0.507534 32.0038 7.67092 32 16.5169C31.9962 25.3479 24.8388 32.4962 16.0019 32.4962L15.9981 32.5ZM5.31642 16.8068C5.31642 16.8068 5.3277 16.8218 5.33521 16.8294L5.354 16.9235C5.36151 17.4618 5.42538 17.9925 5.53058 18.5195C5.92884 20.5372 6.84184 22.2951 8.24327 23.7895C9.24644 24.8623 10.43 25.6829 11.775 26.2664C12.8496 26.7294 13.9692 27.0268 15.134 27.0983C16.1522 27.1585 17.1741 27.1322 18.1848 26.9101C20.7397 26.3492 22.8362 25.0468 24.4368 22.9839C25.5677 21.5272 26.2778 19.8784 26.5446 18.0415C26.6948 17.0138 26.7061 15.9862 26.5633 14.9623C26.3792 13.6561 25.9622 12.4214 25.3122 11.2658C24.6622 10.1102 23.8356 9.10134 22.8174 8.25815C21.4423 7.12511 19.8831 6.36096 18.1322 6.01088C17.6175 5.90925 17.099 5.80009 16.5655 5.84149L16.3701 5.80761C16.2912 5.75491 16.216 5.69469 16.1334 5.64952C13.3681 4.12122 10.584 4.09864 7.88259 5.73233C3.94881 8.11134 2.97945 13.1743 5.31267 16.8105L5.31642 16.8068Z" fill="#AAA8A9"/>
<path d="M16.5689 5.84103C17.1024 5.79963 17.6209 5.90879 18.1356 6.01043C19.8865 6.3605 21.4457 7.12088 22.8208 8.25769C23.839 9.10088 24.6656 10.1059 25.3156 11.2653C25.9619 12.421 26.3827 13.6556 26.5668 14.9618C26.7095 15.9857 26.6983 17.0096 26.548 18.041C26.2812 19.878 25.5711 21.5305 24.4402 22.9835C22.8396 25.0463 20.7431 26.3487 18.1882 26.9096C17.1775 27.1317 16.1556 27.158 15.1374 27.0978C13.9727 27.0301 12.8493 26.7289 11.7785 26.2659C10.4296 25.6862 9.24612 24.8618 8.2467 23.789C6.84527 22.2909 5.93227 20.5367 5.53401 18.5191C5.42881 17.9921 5.36869 17.4613 5.35742 16.923C5.41378 16.9908 5.47389 17.051 5.51898 17.1225C5.92851 17.7173 6.40944 18.2556 6.97302 18.7073C8.8441 20.1942 10.9594 20.8077 13.3377 20.4351C15.3591 20.1189 17.0273 19.1552 18.3009 17.5667C19.8001 15.6959 20.3561 13.5465 19.9579 11.1788C19.6047 9.08583 18.5452 7.40697 16.8619 6.11959C16.7567 6.04054 16.6065 5.99537 16.5689 5.84103Z" fill="#AAA8A9"/>
<path d="M16.4458 5.73947C16.9794 5.69807 17.4978 5.80723 18.0126 5.90886C19.7634 6.25894 21.3227 7.01932 22.6978 8.15613C23.716 8.99932 24.5426 10.0044 25.1926 11.1638C25.8388 12.3194 26.2596 13.5541 26.4437 14.8603C26.5865 15.8842 26.5752 16.908 26.4249 17.9394C26.1582 19.7764 25.4481 21.4289 24.3171 22.8819C22.7166 24.9447 20.6201 26.2472 18.0652 26.808C17.0545 27.0301 16.0325 27.0565 15.0143 26.9963C13.8496 26.9285 12.7262 26.6274 11.6554 26.1644C10.3066 25.5847 9.12307 24.7603 8.12366 23.6875C6.72222 22.1893 5.80923 20.4351 5.41096 18.4175C5.30576 17.8905 5.24565 17.3597 5.23438 16.8215C5.29073 16.8892 5.35085 16.9494 5.39593 17.021C5.80547 17.6157 6.28639 18.154 6.84997 18.6057C8.72105 20.0926 10.8363 20.7062 13.2147 20.3335C15.236 20.0173 16.9042 19.0537 18.1779 17.4651C19.677 15.5943 20.2331 13.4449 19.8348 11.0772C19.4816 8.98427 18.4221 7.3054 16.7389 6.01803C16.6337 5.93898 16.4834 5.89381 16.4458 5.73947Z" fill="#D5D3D4"/>
<path d="M16.5696 5.84136C16.6071 5.9957 16.7574 6.04087 16.8626 6.11992C18.5458 7.4073 19.6054 9.08616 19.9585 11.1791C20.3568 13.5468 19.8007 15.6962 18.3016 17.567C17.0279 19.1556 15.3597 20.1192 13.3384 20.4354C10.9601 20.8081 8.84477 20.1983 6.97369 18.7076C6.41011 18.2597 5.93294 17.7214 5.51965 17.1229C5.47081 17.0513 5.4107 16.9911 5.3581 16.9233C5.35058 16.8932 5.34682 16.8594 5.33931 16.8292C5.36185 16.8104 5.39191 16.7916 5.35434 16.7615C5.30174 16.099 5.35434 15.4402 5.47457 14.7928C6.23352 10.686 8.58176 7.89665 12.4705 6.406C13.7254 5.92418 15.0404 5.77737 16.3779 5.80372L16.5733 5.8376L16.5696 5.84136Z" fill="#E8E8E8"/>
<path d="M5.32016 16.8068C5.32016 16.8068 5.34271 16.7767 5.35022 16.7617C5.38779 16.7955 5.35774 16.8106 5.33519 16.8331C5.32768 16.8256 5.32392 16.8181 5.31641 16.8106L5.32016 16.8068Z" fill="#AAA8A9"/>
</svg>
