<svg width="64" height="16" viewBox="0 0 64 16" fill="none" xmlns="http://www.w3.org/2000/svg">
<path d="M8.99416 14.4196V8.56347H10.959L11.2538 6.28058H8.99416V4.82328C8.99416 4.16254 9.17689 3.71225 10.1255 3.71225L11.3333 3.71176V1.66985C11.1244 1.64271 10.4074 1.58047 9.57289 1.58047C7.83024 1.58047 6.63719 2.64417 6.63719 4.59719V6.28058H4.66638V8.56347H6.63719V14.4196H8.99416Z" fill="#A91F24"/>
<path d="M39 3.42062C38.4794 3.66154 37.9246 3.82123 37.3462 3.89877C37.9412 3.524 38.3954 2.93508 38.6089 2.22523C38.0541 2.57415 37.4416 2.82062 36.7889 2.95815C36.2621 2.36646 35.5114 2 34.6924 2C33.1034 2 31.8241 3.36062 31.8241 5.02862C31.8241 5.26862 31.8434 5.49938 31.8906 5.71908C29.5045 5.59631 27.3931 4.38985 25.9747 2.552C25.7271 3.00523 25.5819 3.524 25.5819 4.08246C25.5819 5.13108 26.0938 6.06062 26.8568 6.59877C26.3956 6.58954 25.9433 6.44831 25.56 6.22585C25.56 6.23508 25.56 6.24708 25.56 6.25908C25.56 7.73046 26.5549 8.95262 27.8595 9.23415C27.6259 9.30154 27.3712 9.33385 27.107 9.33385C26.9232 9.33385 26.7377 9.32277 26.5636 9.28215C26.9355 10.4812 27.9908 11.3628 29.2455 11.3914C28.269 12.1972 27.0291 12.6828 25.6869 12.6828C25.4515 12.6828 25.2257 12.6717 25 12.6412C26.2714 13.5062 27.7781 14 29.403 14C34.6845 14 37.572 9.38462 37.572 5.384C37.572 5.25015 37.5676 5.12092 37.5615 4.99262C38.1311 4.56615 38.6097 4.03354 39 3.42062Z" fill="#A91F24"/>
<path fill-rule="evenodd" clip-rule="evenodd" d="M49.5 8C49.5 4.41136 52.4114 1.5 56 1.5C59.5886 1.5 62.5 4.41136 62.5 8C62.5 11.5886 59.5886 14.5 56 14.5C52.4114 14.5 49.5 11.5886 49.5 8ZM56 2.5C52.9636 2.5 50.5 4.96364 50.5 8C50.5 11.0364 52.9636 13.5 56 13.5C59.0364 13.5 61.5 11.0364 61.5 8C61.5 4.96364 59.0364 2.5 56 2.5Z" fill="#A91F24"/>
<path fill-rule="evenodd" clip-rule="evenodd" d="M56 5C56.2761 5 56.5 5.22386 56.5 5.5V10.5C56.5 10.7761 56.2761 11 56 11C55.7239 11 55.5 10.7761 55.5 10.5V5.5C55.5 5.22386 55.7239 5 56 5Z" fill="#A91F24"/>
<path fill-rule="evenodd" clip-rule="evenodd" d="M53 8C53 7.72386 53.2239 7.5 53.5 7.5H58.5C58.7761 7.5 59 7.72386 59 8C59 8.27614 58.7761 8.5 58.5 8.5H53.5C53.2239 8.5 53 8.27614 53 8Z" fill="#A91F24"/>
</svg>
