<svg width="16" height="16" viewBox="0 0 16 16" fill="none" xmlns="http://www.w3.org/2000/svg">
<path d="M11.9999 10.5C11.7305 10.4999 11.4639 10.5544 11.2162 10.6602C10.9685 10.766 10.7448 10.9209 10.5587 11.1156L5.93366 8.51343C6.02324 8.177 6.02324 7.82299 5.93366 7.48656L10.5587 4.88437C10.8954 5.23354 11.348 5.44793 11.8315 5.48739C12.315 5.52685 12.7963 5.38867 13.1853 5.09872C13.5742 4.80878 13.8441 4.38697 13.9444 3.91233C14.0446 3.43768 13.9684 2.94276 13.73 2.52028C13.4915 2.0978 13.1072 1.77676 12.649 1.61729C12.1909 1.45783 11.6903 1.47088 11.2411 1.65401C10.7918 1.83714 10.4248 2.17777 10.2087 2.6121C9.99256 3.04643 9.94222 3.54465 10.0671 4.01343L5.44209 6.61562C5.16583 6.32757 4.80969 6.12876 4.41951 6.04477C4.02933 5.96079 3.62294 5.99547 3.25262 6.14434C2.88231 6.29322 2.56501 6.54949 2.34154 6.88019C2.11807 7.21088 1.99866 7.60087 1.99866 7.99999C1.99866 8.39911 2.11807 8.78911 2.34154 9.1198C2.56501 9.4505 2.88231 9.70677 3.25262 9.85564C3.62294 10.0045 4.02933 10.0392 4.41951 9.95521C4.80969 9.87123 5.16583 9.67242 5.44209 9.38437L10.0671 11.9866C9.95986 12.3903 9.98172 12.8174 10.1296 13.2081C10.2775 13.5987 10.544 13.9333 10.8917 14.1648C11.2394 14.3963 11.6508 14.5131 12.0683 14.4988C12.4857 14.4846 12.8883 14.34 13.2194 14.0853C13.5505 13.8307 13.7935 13.4787 13.9144 13.0789C14.0354 12.6791 14.028 12.2514 13.8935 11.856C13.759 11.4605 13.5041 11.1171 13.1645 10.8739C12.8248 10.6307 12.4176 10.5 11.9999 10.5Z" fill="#595959"/>
</svg>
