<svg width="21" height="20" viewBox="0 0 21 20" fill="none" xmlns="http://www.w3.org/2000/svg">
<path d="M2.13165 4.42692C1.93931 4.5364 1.77949 4.69499 1.66851 4.88647C1.55754 5.07795 1.49939 5.29546 1.50001 5.51677V17.109C1.49931 17.3249 1.55458 17.5374 1.66044 17.7257C1.7663 17.9139 1.91913 18.0715 2.10404 18.1832C2.28894 18.2948 2.49961 18.3566 2.71551 18.3625C2.93141 18.3685 3.14516 18.3184 3.33594 18.2172C3.35274 18.2082 3.36915 18.1988 3.38516 18.1883L6.67188 16.0379C6.71553 16.0094 6.75136 15.9705 6.77613 15.9246C6.80089 15.8788 6.8138 15.8275 6.81368 15.7754V1.81403C6.81384 1.75711 6.79844 1.70122 6.76916 1.6524C6.73988 1.60358 6.69781 1.56369 6.64752 1.53704C6.59722 1.51038 6.54059 1.49797 6.48375 1.50114C6.42692 1.50432 6.37202 1.52296 6.32501 1.55505L2.13165 4.42692Z" fill="#EB2227"/>
<path d="M8.54531 1.53486C8.4982 1.50424 8.44369 1.48688 8.38754 1.48463C8.33139 1.48237 8.27567 1.4953 8.22625 1.52205C8.17683 1.5488 8.13553 1.58838 8.10671 1.63663C8.0779 1.68487 8.06262 1.74 8.0625 1.79619V15.7634C8.06238 15.8155 8.07528 15.8668 8.10005 15.9126C8.12482 15.9585 8.16065 15.9974 8.2043 16.0259L11.9543 18.4642C12.0014 18.4949 12.056 18.5124 12.1123 18.5146C12.1685 18.5169 12.2243 18.504 12.2738 18.4772C12.3233 18.4504 12.3647 18.4107 12.3935 18.3623C12.4223 18.314 12.4375 18.2587 12.4375 18.2024V4.24424C12.4376 4.19203 12.4247 4.14062 12.3999 4.09469C12.375 4.04877 12.3391 4.0098 12.2953 3.98135L8.54531 1.53486Z" fill="#EB2227"/>
<path d="M18.3957 1.81425C18.2115 1.70151 18.0009 1.63901 17.785 1.63297C17.5692 1.62694 17.3555 1.67759 17.1652 1.77987C17.1484 1.78852 17.1321 1.79817 17.1164 1.80878L13.8293 3.95721C13.7857 3.98568 13.7498 4.0246 13.7251 4.07045C13.7003 4.1163 13.6874 4.16761 13.6875 4.21971V18.183C13.6873 18.24 13.7027 18.2959 13.732 18.3448C13.7613 18.3937 13.8034 18.4336 13.8538 18.4603C13.9041 18.487 13.9608 18.4994 14.0177 18.4961C14.0746 18.4929 14.1295 18.4742 14.1766 18.442L18.359 15.5724C18.5536 15.4639 18.7157 15.3052 18.8284 15.1129C18.9411 14.9206 19.0004 14.7016 19 14.4787V2.9162C19.0026 2.69605 18.9483 2.47897 18.8424 2.28593C18.7366 2.09289 18.5827 1.93043 18.3957 1.81425Z" fill="#EB2227"/>
</svg>
