<svg width="104" height="104" viewBox="0 0 104 104" fill="none" xmlns="http://www.w3.org/2000/svg">
    <defs>
        <filter id="filter0_d_24655_53249" x="-16" y="-12" width="136" height="132" filterUnits="userSpaceOnUse" color-interpolation-filters="sRGB">
            <feFlood flood-opacity="0" result="BackgroundImageFix"/>
            <feColorMatrix in="SourceAlpha" type="matrix" values="0 0 0 0 0 0 0 0 0 0 0 0 0 0 0 0 0 0 127 0" result="hardAlpha"/>
            <feOffset dy="4"/>
            <feGaussianBlur stdDeviation="8"/>
            <feColorMatrix type="matrix" values="0 0 0 0 0 0 0 0 0 0 0 0 0 0 0 0 0 0 0.08 0"/>
            <feBlend mode="normal" in2="BackgroundImageFix" result="effect1_dropShadow_24655_53249"/>
            <feBlend mode="normal" in="SourceGraphic" in2="effect1_dropShadow_24655_53249" result="shape"/>
        </filter>
    </defs>
    <g filter="url(#filter0_d_24655_53249)">
        <path d="M52 16.2588C36.8125 16.2588 24.5 28.5713 24.5 43.7588C24.5 61.8438 42.38 70.5013 44.62 72.5163C46.9075 74.5738 48.7975 79.1863 49.56 81.8013C49.93 83.0713 50.97 83.7138 52 83.7413C53.0325 83.7113 54.07 83.0688 54.44 81.8013C55.2025 79.1863 57.0925 74.5763 59.38 72.5163C61.62 70.5013 79.5 61.8438 79.5 43.7588C79.5 28.5713 67.1875 16.2588 52 16.2588ZM52 51.2588C47.8575 51.2588 44.5 47.9013 44.5 43.7588C44.5 39.6163 47.8575 36.2588 52 36.2588C56.1425 36.2588 59.5 39.6163 59.5 43.7588C59.5 47.9013 56.1425 51.2588 52 51.2588Z" fill="white"/>
        <circle cx="52" cy="43.7588" r="25" fill="#F27024"/>
    </g>

</svg>
