<svg width="16" height="16" viewBox="0 0 16 16" fill="none" xmlns="http://www.w3.org/2000/svg">
<path d="M7.89016 2C5.18946 2 3 4.18946 3 6.89016C3 10.1061 6.17949 11.6456 6.57782 12.0039C6.98459 12.3698 7.32068 13.19 7.45627 13.655C7.52206 13.8809 7.707 13.9951 7.89016 14C8.07376 13.9947 8.25825 13.8804 8.32405 13.655C8.45964 13.19 8.79572 12.3702 9.2025 12.0039C9.60082 11.6456 12.7803 10.1061 12.7803 6.89016C12.7803 4.18946 10.5909 2 7.89016 2ZM7.89016 8.22384C7.15352 8.22384 6.55648 7.62679 6.55648 6.89016C6.55648 6.15352 7.15352 5.55648 7.89016 5.55648C8.62679 5.55648 9.22384 6.15352 9.22384 6.89016C9.22384 7.62679 8.62679 8.22384 7.89016 8.22384Z" fill="#595959"/>
</svg>
