<svg width="18" height="18" viewBox="0 0 18 18" fill="none" xmlns="http://www.w3.org/2000/svg">
<path d="M12.9166 0.666672C10.6154 0.666672 8.74996 2.67625 8.74996 5.1552C8.74996 8.10737 11.4589 9.4801 11.7982 9.80904C12.1447 10.145 12.4309 10.8185 12.5469 11.2455C12.6029 11.4526 12.7607 11.5579 12.9166 11.5624C13.0732 11.5579 13.2304 11.4526 13.2863 11.2455C13.4018 10.8191 13.688 10.145 14.035 9.80904C14.3743 9.4801 17.0833 8.10737 17.0833 5.1552C17.0833 2.67625 15.2178 0.666672 12.9166 0.666672ZM12.9166 3.87276C13.5744 3.87276 14.1071 4.44665 14.1071 5.1552C14.1071 5.86375 13.5744 6.43764 12.9166 6.43764C12.2589 6.43764 11.7261 5.86375 11.7261 5.1552C11.7261 4.44665 12.2589 3.87276 12.9166 3.87276ZM4.58329 6.43764C2.2821 6.43764 0.416626 8.44722 0.416626 10.9262C0.416626 13.8783 3.12561 15.2511 3.4649 15.58C3.81132 15.916 4.09752 16.5894 4.21359 17.0165C4.26955 17.2236 4.42734 17.3289 4.58329 17.3333C4.73984 17.3289 4.89704 17.2236 4.95299 17.0165C5.06847 16.5901 5.35467 15.916 5.70169 15.58C6.04098 15.2511 8.74996 13.8783 8.74996 10.9262C8.74996 8.44722 6.88448 6.43764 4.58329 6.43764ZM4.58329 9.64373C5.24103 9.64373 5.77377 10.2176 5.77377 10.9262C5.77377 11.6347 5.24103 12.2086 4.58329 12.2086C3.92555 12.2086 3.39282 11.6347 3.39282 10.9262C3.39282 10.2176 3.92555 9.64373 4.58329 9.64373Z" fill="white"/>
</svg>
